<svg width="421" height="374" viewBox="0 0 421 374" fill="none" xmlns="http://www.w3.org/2000/svg">
<rect width="421" height="374" rx="10" fill="#DBF8FF"/>
<mask id="mask0_2458_8870" style="mask-type:alpha" maskUnits="userSpaceOnUse" x="0" y="0" width="421" height="374">
<rect width="421" height="374" rx="10" fill="#F4E6FF"/>
</mask>
<g mask="url(#mask0_2458_8870)">
<g opacity="0.2">
<path d="M568.383 219.717C528.933 178.642 490.891 215.176 451.441 174.104C411.99 133.029 450.029 96.4925 410.576 55.4179C371.126 14.3431 333.085 50.8802 293.634 9.80547C254.184 -31.2692 292.223 -67.8062 252.77 -108.878C213.319 -149.953 175.278 -113.416 135.827 -154.491" stroke="#40196D" stroke-miterlimit="10"/>
<path d="M606.86 182.767C567.407 141.694 528.942 178.64 489.489 137.567C450.036 96.4928 488.504 59.545 449.053 18.4727C409.6 -22.6019 371.135 14.3458 331.682 -26.7288C292.229 -67.8035 330.699 -104.751 291.247 -145.823C251.794 -186.898 213.328 -149.95 173.875 -191.025" stroke="#40196D" stroke-miterlimit="10"/>
<path d="M644.899 146.23C605.446 105.158 567.407 141.693 527.956 100.618C488.504 59.5458 526.545 23.0062 487.092 -18.066C447.639 -59.1406 409.6 -22.6061 370.147 -63.6783C330.694 -104.753 368.736 -141.29 329.283 -182.365C289.83 -223.439 251.791 -186.902 212.341 -227.977" stroke="#40196D" stroke-miterlimit="10"/>
<path d="M568.383 219.717C528.933 178.642 490.891 215.176 451.441 174.104C411.99 133.029 450.029 96.4925 410.576 55.4179C371.126 14.3431 333.085 50.8802 293.634 9.80547C254.184 -31.2692 292.223 -67.8062 252.77 -108.878C213.319 -149.953 175.278 -113.416 135.827 -154.491" stroke="#40196D" stroke-miterlimit="10"/>
<path d="M606.86 182.767C567.407 141.694 528.942 178.64 489.489 137.567C450.036 96.4928 488.504 59.545 449.053 18.4727C409.6 -22.6019 371.135 14.3458 331.682 -26.7288C292.229 -67.8035 330.699 -104.751 291.247 -145.823C251.794 -186.898 213.328 -149.95 173.875 -191.025" stroke="#40196D" stroke-miterlimit="10"/>
<path d="M644.899 146.23C605.446 105.158 567.407 141.693 527.956 100.618C488.504 59.5458 526.545 23.0062 487.092 -18.066C447.639 -59.1406 409.6 -22.6061 370.147 -63.6783C330.694 -104.753 368.736 -141.29 329.283 -182.365C289.83 -223.439 251.791 -186.902 212.341 -227.977" stroke="#40196D" stroke-miterlimit="10"/>
<path d="M441.016 342.051C401.563 300.976 363.524 337.511 324.074 296.439C284.621 255.364 322.662 218.827 283.209 177.752C243.756 136.678 205.717 173.215 166.267 132.14C126.817 91.0653 164.853 54.5284 125.402 13.4536C85.9496 -27.6185 47.9083 8.91605 8.46031 -32.1587" stroke="#40196D" stroke-miterlimit="10"/>
<path d="M479.477 305.103C440.024 264.03 401.559 300.976 362.106 259.903C322.653 218.829 361.121 181.881 321.67 140.809C282.218 99.7341 243.752 136.682 204.299 95.6071C164.846 54.5325 203.317 17.5871 163.864 -23.4875C124.411 -64.5622 85.9455 -27.6145 46.4926 -68.6892" stroke="#40196D" stroke-miterlimit="10"/>
<path d="M517.528 268.566C478.075 227.492 440.036 264.029 400.585 222.954C361.132 181.882 399.171 145.342 359.721 104.267C320.268 63.1953 282.227 99.7299 242.779 58.6576C203.326 17.5829 241.365 -18.9566 201.912 -60.0287C162.461 -101.103 124.42 -64.5664 84.9696 -105.641" stroke="#40196D" stroke-miterlimit="10"/>
<path d="M323.336 458.639C283.883 417.564 245.844 454.101 206.394 413.026C166.941 371.954 204.98 335.415 165.529 294.34C126.077 253.268 88.0352 289.802 48.5872 248.727C9.13438 207.655 47.1732 171.116 7.72282 130.043C-31.7301 88.9688 -69.769 125.503 -109.222 84.4312" stroke="#40196D" stroke-miterlimit="10"/>
<path d="M361.801 421.69C322.351 380.616 283.883 417.563 244.43 376.489C204.98 335.414 243.447 298.469 203.995 257.394C164.542 216.319 126.076 253.267 86.6235 212.192C47.1707 171.12 85.6384 134.173 46.1879 93.0979C6.73511 52.0257 -31.7302 88.9709 -71.1831 47.8987" stroke="#40196D" stroke-miterlimit="10"/>
<path d="M399.84 385.157C360.387 344.082 322.348 380.616 282.898 339.544C243.445 298.47 281.484 261.933 242.031 220.858C202.58 179.783 164.539 216.32 125.089 175.246C85.6382 134.171 123.677 97.6339 84.2242 56.5592C44.7738 15.4869 6.73232 52.0215 -32.7181 10.9468" stroke="#40196D" stroke-miterlimit="10"/>
<path d="M323.336 458.639C283.883 417.564 245.844 454.101 206.394 413.026C166.941 371.954 204.98 335.415 165.529 294.34C126.077 253.268 88.0352 289.802 48.5872 248.727C9.13438 207.655 47.1732 171.116 7.72282 130.043C-31.7301 88.9688 -69.769 125.503 -109.222 84.4312" stroke="#40196D" stroke-miterlimit="10"/>
<path d="M361.801 421.69C322.351 380.616 283.883 417.563 244.43 376.489C204.98 335.414 243.447 298.469 203.995 257.394C164.542 216.319 126.076 253.267 86.6235 212.192C47.1707 171.12 85.6384 134.173 46.1879 93.0979C6.73511 52.0257 -31.7302 88.9709 -71.1831 47.8987" stroke="#40196D" stroke-miterlimit="10"/>
<path d="M399.84 385.157C360.387 344.082 322.348 380.616 282.898 339.544C243.445 298.47 281.484 261.933 242.031 220.858C202.58 179.783 164.539 216.32 125.089 175.246C85.6382 134.171 123.677 97.6339 84.2242 56.5592C44.7738 15.4869 6.73232 52.0215 -32.7181 10.9468" stroke="#40196D" stroke-miterlimit="10"/>
<path d="M195.969 580.976C156.516 539.902 118.477 576.439 79.0268 535.364C39.5739 494.292 77.6151 457.752 38.1622 416.678C-1.29059 375.605 -39.3295 412.14 -78.7799 371.068C-118.233 329.993 -80.194 293.454 -119.644 252.381C-159.097 211.307 -197.136 247.844 -236.587 206.769" stroke="#40196D" stroke-miterlimit="10"/>
<path d="M234.43 544.03C194.977 502.956 156.512 539.903 117.059 498.829C77.606 457.754 116.076 420.809 76.6234 379.734C37.1705 338.659 -1.29485 375.607 -40.7478 334.532C-80.2006 293.46 -41.7328 256.512 -81.1833 215.438C-120.636 174.366 -159.101 211.311 -198.554 170.239" stroke="#40196D" stroke-miterlimit="10"/>
<path d="M272.469 507.49C233.016 466.415 194.977 502.952 155.527 461.878C116.074 420.803 154.113 384.266 114.662 343.191C75.2094 302.117 37.168 338.654 -2.27992 297.579C-41.7328 256.507 -3.69402 219.967 -43.1469 178.893C-82.5973 137.82 -120.639 174.355 -160.089 133.283" stroke="#40196D" stroke-miterlimit="10"/>
</g>
<g filter="url(#filter0_d_2458_8870)">
<rect x="57" y="37" width="308" height="300.07" rx="10" fill="white"/>
<rect x="68.4432" y="59.4355" width="285.114" height="44" rx="2.93333" fill="white"/>
<g filter="url(#filter1_d_2458_8870)">
<rect x="86.0432" y="68.2363" width="23.4667" height="26.4" rx="2.93333" fill="white"/>
<path d="M94.0045 80.9249H94.9663C95.0637 80.9249 95.1469 80.8887 95.2159 80.8163C95.2869 80.7417 95.3224 80.6544 95.3224 80.5543C95.3224 80.4563 95.2869 80.37 95.2159 80.2954C95.1449 80.2209 95.0617 80.1836 94.9663 80.1836H94.0045C93.9092 80.1836 93.826 80.2209 93.755 80.2954C93.686 80.3678 93.6515 80.4541 93.6515 80.5543C93.6515 80.6544 93.686 80.7417 93.755 80.8163C93.826 80.8887 93.9092 80.9249 94.0045 80.9249ZM96.3467 78.8894C96.4136 78.8191 96.4471 78.7328 96.4471 78.6305C96.4471 78.5283 96.4126 78.4409 96.3436 78.3685L95.668 77.6527C95.601 77.5824 95.5178 77.5472 95.4184 77.5472C95.321 77.5451 95.2378 77.5803 95.1688 77.6527C95.1019 77.723 95.0684 77.8093 95.0684 77.9115C95.0704 78.0138 95.1049 78.1011 95.1719 78.1736L95.8475 78.8894C95.9165 78.9618 95.9997 78.998 96.0971 78.998C96.1945 78.998 96.2777 78.9618 96.3467 78.8894ZM98.0207 78.2375C98.116 78.2375 98.1982 78.2013 98.2672 78.1288C98.3362 78.0564 98.3707 77.9701 98.3707 77.87V76.8634C98.3707 76.759 98.3362 76.6706 98.2672 76.5982C98.1982 76.5236 98.116 76.4863 98.0207 76.4863C97.9253 76.4863 97.8421 76.5236 97.7711 76.5982C97.7021 76.6727 97.6676 76.7611 97.6676 76.8634V77.87C97.6676 77.9701 97.7021 78.0564 97.7711 78.1288C97.8401 78.2013 97.9233 78.2375 98.0207 78.2375ZM99.6916 78.8894C99.7585 78.9618 99.8407 78.998 99.9381 78.998C100.038 78.998 100.121 78.9618 100.188 78.8894L100.863 78.1736C100.932 78.1011 100.967 78.0138 100.967 77.9115C100.969 77.8093 100.935 77.723 100.866 77.6527C100.799 77.5803 100.716 77.5451 100.617 77.5472C100.519 77.5472 100.436 77.5835 100.367 77.6559L99.6916 78.3685C99.6246 78.4409 99.5911 78.5283 99.5911 78.6305C99.5911 78.7328 99.6246 78.8191 99.6916 78.8894ZM101.072 80.9249H102.034C102.127 80.9249 102.209 80.8887 102.28 80.8163C102.351 80.7417 102.387 80.6544 102.387 80.5543C102.387 80.4541 102.351 80.3678 102.28 80.2954C102.209 80.2209 102.127 80.1836 102.034 80.1836H101.072C100.977 80.1836 100.893 80.2209 100.822 80.2954C100.751 80.37 100.716 80.4563 100.716 80.5543C100.716 80.6544 100.75 80.7417 100.819 80.8163C100.89 80.8887 100.975 80.9249 101.072 80.9249Z" fill="#FFC83E"/>
<path d="M96.9678 84.7183H99.15C99.219 84.7183 99.2748 84.6959 99.3174 84.6511C99.3621 84.6043 99.3844 84.5446 99.3844 84.4722V84.0344C99.3844 83.8874 99.4189 83.7489 99.4879 83.619C99.5569 83.489 99.6421 83.3548 99.7435 83.2164C99.847 83.0779 99.9495 82.9277 100.051 82.7658C100.154 82.6017 100.241 82.4164 100.31 82.2098C100.379 82.001 100.413 81.7602 100.413 81.4876C100.413 81.1233 100.356 80.792 100.243 80.4937C100.131 80.1934 99.9708 79.9356 99.7618 79.7204C99.5548 79.5031 99.3073 79.337 99.0192 79.2219C98.731 79.1048 98.4104 79.0462 98.0574 79.0462C97.7064 79.0462 97.3868 79.1048 97.0987 79.2219C96.8105 79.337 96.562 79.5031 96.353 79.7204C96.144 79.9356 95.9837 80.1934 95.8721 80.4937C95.7605 80.792 95.7047 81.1233 95.7047 81.4876C95.7047 81.7602 95.7392 82.001 95.8082 82.2098C95.8772 82.4164 95.9624 82.6017 96.0638 82.7658C96.1673 82.9277 96.2698 83.0779 96.3712 83.2164C96.4727 83.3548 96.5579 83.489 96.6269 83.619C96.6979 83.7489 96.7334 83.8874 96.7334 84.0344V84.4722C96.7334 84.5446 96.7547 84.6043 96.7973 84.6511C96.842 84.6959 96.8988 84.7183 96.9678 84.7183ZM98.0574 86.3863C98.2826 86.3863 98.4693 86.3352 98.6174 86.2329C98.7655 86.1328 98.8477 86.0007 98.8639 85.8367H97.2539C97.2681 86.0007 97.3482 86.1328 97.4943 86.2329C97.6424 86.3352 97.8301 86.3863 98.0574 86.3863ZM97.0256 85.5938H99.0952C99.1784 85.5938 99.2495 85.5619 99.3083 85.498C99.3671 85.4362 99.3966 85.3627 99.3966 85.2775C99.3966 85.1901 99.3671 85.1145 99.3083 85.0506C99.2495 84.9888 99.1784 84.9579 99.0952 84.9579H97.0256C96.9404 84.9579 96.8684 84.9888 96.8095 85.0506C96.7507 85.1145 96.7212 85.1901 96.7212 85.2775C96.7212 85.3627 96.7507 85.4362 96.8095 85.498C96.8684 85.5619 96.9404 85.5938 97.0256 85.5938Z" fill="#FFC83E"/>
</g>
<path d="M126.358 84.9355V77.1805H131.924V78.7315H128.305V80.2165H131.66V81.7785H128.305V83.3735H131.924V84.9355H126.358ZM132.876 84.9355V76.8395H134.834V84.9355H132.876ZM138.993 85.0565C137.981 85.0565 137.193 84.7962 136.628 84.2755C136.071 83.7549 135.792 83.0399 135.792 82.1305C135.792 81.5659 135.909 81.0635 136.144 80.6235C136.379 80.1835 136.709 79.8425 137.134 79.6005C137.559 79.3512 138.058 79.2265 138.63 79.2265C139.195 79.2265 139.664 79.3512 140.038 79.6005C140.419 79.8425 140.705 80.1799 140.896 80.6125C141.087 81.0379 141.182 81.5329 141.182 82.0975V82.5155H137.431V81.5915H139.741L139.554 81.7455C139.554 81.3275 139.473 81.0195 139.312 80.8215C139.158 80.6162 138.938 80.5135 138.652 80.5135C138.322 80.5135 138.069 80.6382 137.893 80.8875C137.724 81.1295 137.64 81.4962 137.64 81.9875V82.1855C137.64 82.6769 137.761 83.0362 138.003 83.2635C138.245 83.4909 138.593 83.6045 139.048 83.6045C139.341 83.6045 139.616 83.5715 139.873 83.5055C140.137 83.4395 140.386 83.3332 140.621 83.1865L141.127 84.4625C140.848 84.6532 140.526 84.7999 140.159 84.9025C139.792 85.0052 139.404 85.0565 138.993 85.0565ZM144.941 85.0565C144.325 85.0565 143.786 84.9392 143.324 84.7045C142.862 84.4699 142.503 84.1362 142.246 83.7035C141.99 83.2635 141.861 82.7392 141.861 82.1305C141.861 81.5219 141.99 81.0012 142.246 80.5685C142.503 80.1359 142.862 79.8059 143.324 79.5785C143.786 79.3439 144.325 79.2265 144.941 79.2265C145.323 79.2265 145.697 79.2779 146.063 79.3805C146.43 79.4832 146.727 79.6299 146.954 79.8205L146.404 81.1515C146.228 81.0049 146.027 80.8949 145.799 80.8215C145.579 80.7409 145.363 80.7005 145.15 80.7005C144.747 80.7005 144.432 80.8215 144.204 81.0635C143.984 81.3055 143.874 81.6612 143.874 82.1305C143.874 82.5999 143.984 82.9592 144.204 83.2085C144.432 83.4505 144.747 83.5715 145.15 83.5715C145.356 83.5715 145.572 83.5349 145.799 83.4615C146.027 83.3809 146.228 83.2709 146.404 83.1315L146.954 84.4625C146.72 84.6459 146.419 84.7925 146.052 84.9025C145.693 85.0052 145.323 85.0565 144.941 85.0565ZM150.668 85.0565C149.876 85.0565 149.278 84.8695 148.875 84.4955C148.479 84.1142 148.281 83.5385 148.281 82.7685V80.7885H147.236V79.3475H148.281V78.0275L150.239 77.5655V79.3475H151.603V80.7885H150.239V82.6915C150.239 83.0142 150.312 83.2305 150.459 83.3405C150.605 83.4432 150.781 83.4945 150.987 83.4945C151.111 83.4945 151.218 83.4872 151.306 83.4725C151.401 83.4505 151.5 83.4212 151.603 83.3845V84.8915C151.441 84.9575 151.28 85.0015 151.119 85.0235C150.965 85.0455 150.814 85.0565 150.668 85.0565ZM152.362 84.9355V80.8765C152.362 80.6199 152.355 80.3632 152.34 80.1065C152.326 79.8499 152.304 79.5969 152.274 79.3475H154.166L154.375 81.0635H154.078C154.152 80.6455 154.269 80.3009 154.43 80.0295C154.592 79.7582 154.793 79.5565 155.035 79.4245C155.277 79.2925 155.563 79.2265 155.893 79.2265C156.047 79.2265 156.161 79.2339 156.234 79.2485C156.315 79.2559 156.399 79.2779 156.487 79.3145V81.0305C156.304 80.9499 156.157 80.8985 156.047 80.8765C155.937 80.8545 155.794 80.8435 155.618 80.8435C155.318 80.8435 155.072 80.8985 154.881 81.0085C154.691 81.1112 154.551 81.2725 154.463 81.4925C154.383 81.7125 154.342 81.9949 154.342 82.3395V84.9355H152.362ZM157.078 84.9355V79.3475H159.036V84.9355H157.078ZM157.034 78.5555V76.7955H159.091V78.5555H157.034ZM163.074 85.0565C162.458 85.0565 161.919 84.9392 161.457 84.7045C160.995 84.4699 160.636 84.1362 160.379 83.7035C160.123 83.2635 159.994 82.7392 159.994 82.1305C159.994 81.5219 160.123 81.0012 160.379 80.5685C160.636 80.1359 160.995 79.8059 161.457 79.5785C161.919 79.3439 162.458 79.2265 163.074 79.2265C163.456 79.2265 163.83 79.2779 164.196 79.3805C164.563 79.4832 164.86 79.6299 165.087 79.8205L164.537 81.1515C164.361 81.0049 164.16 80.8949 163.932 80.8215C163.712 80.7409 163.496 80.7005 163.283 80.7005C162.88 80.7005 162.565 80.8215 162.337 81.0635C162.117 81.3055 162.007 81.6612 162.007 82.1305C162.007 82.5999 162.117 82.9592 162.337 83.2085C162.565 83.4505 162.88 83.5715 163.283 83.5715C163.489 83.5715 163.705 83.5349 163.932 83.4615C164.16 83.3809 164.361 83.2709 164.537 83.1315L165.087 84.4625C164.853 84.6459 164.552 84.7925 164.185 84.9025C163.826 85.0052 163.456 85.0565 163.074 85.0565ZM165.898 84.9355V79.3475H167.856V84.9355H165.898ZM165.854 78.5555V76.7955H167.911V78.5555H165.854ZM171.927 85.0565C171.135 85.0565 170.537 84.8695 170.134 84.4955C169.738 84.1142 169.54 83.5385 169.54 82.7685V80.7885H168.495V79.3475H169.54V78.0275L171.498 77.5655V79.3475H172.862V80.7885H171.498V82.6915C171.498 83.0142 171.571 83.2305 171.718 83.3405C171.864 83.4432 172.04 83.4945 172.246 83.4945C172.37 83.4945 172.477 83.4872 172.565 83.4725C172.66 83.4505 172.759 83.4212 172.862 83.3845V84.8915C172.7 84.9575 172.539 85.0015 172.378 85.0235C172.224 85.0455 172.073 85.0565 171.927 85.0565ZM173.74 87.4325L173.278 85.9145C173.63 85.8485 173.923 85.7752 174.158 85.6945C174.4 85.6212 174.598 85.5185 174.752 85.3865C174.906 85.2545 175.027 85.0822 175.115 84.8695L175.39 84.2315L175.346 84.9685L172.904 79.3475H174.972L176.402 83.0545H176.039L177.513 79.3475H179.449L176.941 85.0565C176.743 85.5039 176.53 85.8705 176.303 86.1565C176.083 86.4425 175.841 86.6699 175.577 86.8385C175.32 87.0072 175.038 87.1319 174.73 87.2125C174.429 87.3005 174.099 87.3739 173.74 87.4325Z" fill="black"/>
<path d="M324.223 85.4908L325.334 86.5703L330.823 81.2395L325.334 75.9088L324.223 76.9883L328.599 81.2395L324.223 85.4908Z" fill="#CACACA"/>
<rect x="68.9106" y="59.9029" width="284.179" height="43.0652" rx="2.46593" stroke="#DBDCE0" stroke-opacity="0.5" stroke-width="0.934798"/>
<rect x="68.4432" y="112.234" width="285.114" height="44" rx="2.93333" fill="white"/>
<g filter="url(#filter2_d_2458_8870)">
<rect x="86.0432" y="121.035" width="23.4667" height="26.4" rx="2.93333" fill="white"/>
<path d="M97.7805 138.007C97.8489 138.007 97.9145 137.989 97.9773 137.952C98.0429 137.919 98.1213 137.86 98.2125 137.776L99.2349 136.803C99.2891 136.752 99.3191 136.691 99.3248 136.618C99.3333 136.542 99.3119 136.474 99.2606 136.412C99.0866 136.2 98.867 136.032 98.6018 135.909C98.3394 135.783 98.0657 135.72 97.7805 135.72C97.4924 135.72 97.2115 135.787 96.9377 135.921C96.664 136.056 96.4387 136.239 96.2619 136.471C96.2248 136.521 96.2148 136.579 96.2319 136.643C96.249 136.705 96.2818 136.758 96.3303 136.803L97.3527 137.776C97.444 137.86 97.5224 137.919 97.588 137.952C97.6536 137.989 97.7177 138.007 97.7805 138.007ZM95.2523 135.669C95.3207 135.734 95.3977 135.765 95.4833 135.762C95.5688 135.759 95.6444 135.723 95.71 135.653C95.9752 135.387 96.2904 135.177 96.6554 135.023C97.0233 134.869 97.3969 134.792 97.7762 134.792C98.1612 134.792 98.5391 134.872 98.9098 135.032C99.2834 135.188 99.6043 135.401 99.8723 135.669C99.9322 135.734 100.002 135.766 100.082 135.766C100.162 135.763 100.235 135.731 100.3 135.669L100.972 135.053C101.029 135.002 101.059 134.945 101.062 134.88C101.067 134.813 101.046 134.752 100.997 134.696C100.764 134.433 100.477 134.203 100.138 134.008C99.7982 133.809 99.4274 133.656 99.0253 133.55C98.6232 133.441 98.2068 133.386 97.7762 133.386C97.3513 133.386 96.9363 133.441 96.5314 133.55C96.1264 133.656 95.7542 133.809 95.4148 134.008C95.0783 134.203 94.7946 134.433 94.5636 134.696C94.5094 134.752 94.4851 134.813 94.4908 134.88C94.4965 134.945 94.5279 135.002 94.5849 135.053L95.2523 135.669ZM93.5155 134.041C93.5782 134.103 93.6524 134.133 93.7379 134.133C93.8263 134.131 93.9005 134.096 93.9604 134.029C94.4737 133.503 95.0527 133.104 95.6972 132.832C96.3446 132.558 97.0376 132.421 97.7762 132.421C98.5262 132.421 99.225 132.558 99.8723 132.832C100.52 133.107 101.097 133.51 101.605 134.041C101.665 134.1 101.737 134.128 101.823 134.125C101.909 134.122 101.981 134.09 102.041 134.029L102.64 133.437C102.694 133.384 102.723 133.321 102.726 133.248C102.731 133.175 102.71 133.112 102.661 133.059C102.308 132.631 101.871 132.259 101.352 131.943C100.836 131.624 100.27 131.376 99.6542 131.2C99.041 131.024 98.415 130.936 97.7762 130.936C97.1402 130.936 96.5157 131.024 95.9025 131.2C95.2894 131.376 94.7233 131.624 94.2042 131.943C93.6852 132.259 93.2503 132.631 92.8995 133.059C92.8482 133.112 92.8239 133.175 92.8268 133.248C92.8325 133.321 92.8624 133.384 92.9166 133.437L93.5155 134.041Z" fill="#48D38A"/>
</g>
<path d="M126.358 137.734V129.979H128.393V137.734H126.358ZM129.718 137.734V133.664C129.718 133.415 129.711 133.162 129.696 132.905C129.681 132.649 129.659 132.396 129.63 132.146H131.522L131.632 133.114H131.511C131.694 132.762 131.955 132.495 132.292 132.311C132.629 132.121 133.011 132.025 133.436 132.025C134.089 132.025 134.576 132.22 134.899 132.608C135.229 132.99 135.394 133.587 135.394 134.401V137.734H133.436V134.489C133.436 134.13 133.374 133.881 133.249 133.741C133.124 133.595 132.945 133.521 132.71 133.521C132.402 133.521 132.153 133.624 131.962 133.829C131.771 134.027 131.676 134.291 131.676 134.621V137.734H129.718ZM139.431 137.855C138.639 137.855 138.042 137.668 137.638 137.294C137.242 136.913 137.044 136.337 137.044 135.567V133.587H135.999V132.146H137.044V130.826L139.002 130.364V132.146H140.366V133.587H139.002V135.49C139.002 135.813 139.076 136.029 139.222 136.139C139.369 136.242 139.545 136.293 139.75 136.293C139.875 136.293 139.981 136.286 140.069 136.271C140.165 136.249 140.264 136.22 140.366 136.183V137.69C140.205 137.756 140.044 137.8 139.882 137.822C139.728 137.844 139.578 137.855 139.431 137.855ZM144.02 137.855C143.008 137.855 142.22 137.595 141.655 137.074C141.098 136.554 140.819 135.839 140.819 134.929C140.819 134.365 140.937 133.862 141.171 133.422C141.406 132.982 141.736 132.641 142.161 132.399C142.587 132.15 143.085 132.025 143.657 132.025C144.222 132.025 144.691 132.15 145.065 132.399C145.447 132.641 145.733 132.979 145.923 133.411C146.114 133.837 146.209 134.332 146.209 134.896V135.314H142.458V134.39H144.768L144.581 134.544C144.581 134.126 144.501 133.818 144.339 133.62C144.185 133.415 143.965 133.312 143.679 133.312C143.349 133.312 143.096 133.437 142.92 133.686C142.752 133.928 142.667 134.295 142.667 134.786V134.984C142.667 135.476 142.788 135.835 143.03 136.062C143.272 136.29 143.621 136.403 144.075 136.403C144.369 136.403 144.644 136.37 144.9 136.304C145.164 136.238 145.414 136.132 145.648 135.985L146.154 137.261C145.876 137.452 145.553 137.599 145.186 137.701C144.82 137.804 144.431 137.855 144.02 137.855ZM147.142 137.734V133.675C147.142 133.419 147.134 133.162 147.12 132.905C147.105 132.649 147.083 132.396 147.054 132.146H148.946L149.155 133.862H148.858C148.931 133.444 149.048 133.1 149.21 132.828C149.371 132.557 149.573 132.355 149.815 132.223C150.057 132.091 150.343 132.025 150.673 132.025C150.827 132.025 150.94 132.033 151.014 132.047C151.094 132.055 151.179 132.077 151.267 132.113V133.829C151.083 133.749 150.937 133.697 150.827 133.675C150.717 133.653 150.574 133.642 150.398 133.642C150.097 133.642 149.851 133.697 149.661 133.807C149.47 133.91 149.331 134.071 149.243 134.291C149.162 134.511 149.122 134.794 149.122 135.138V137.734H147.142ZM151.858 137.734V133.664C151.858 133.415 151.85 133.162 151.836 132.905C151.821 132.649 151.799 132.396 151.77 132.146H153.662L153.772 133.114H153.651C153.834 132.762 154.094 132.495 154.432 132.311C154.769 132.121 155.15 132.025 155.576 132.025C156.228 132.025 156.716 132.22 157.039 132.608C157.369 132.99 157.534 133.587 157.534 134.401V137.734H155.576V134.489C155.576 134.13 155.513 133.881 155.389 133.741C155.264 133.595 155.084 133.521 154.85 133.521C154.542 133.521 154.292 133.624 154.102 133.829C153.911 134.027 153.816 134.291 153.816 134.621V137.734H151.858ZM161.659 137.855C160.647 137.855 159.859 137.595 159.294 137.074C158.737 136.554 158.458 135.839 158.458 134.929C158.458 134.365 158.575 133.862 158.81 133.422C159.045 132.982 159.375 132.641 159.8 132.399C160.225 132.15 160.724 132.025 161.296 132.025C161.861 132.025 162.33 132.15 162.704 132.399C163.085 132.641 163.371 132.979 163.562 133.411C163.753 133.837 163.848 134.332 163.848 134.896V135.314H160.097V134.39H162.407L162.22 134.544C162.22 134.126 162.139 133.818 161.978 133.62C161.824 133.415 161.604 133.312 161.318 133.312C160.988 133.312 160.735 133.437 160.559 133.686C160.39 133.928 160.306 134.295 160.306 134.786V134.984C160.306 135.476 160.427 135.835 160.669 136.062C160.911 136.29 161.259 136.403 161.714 136.403C162.007 136.403 162.282 136.37 162.539 136.304C162.803 136.238 163.052 136.132 163.287 135.985L163.793 137.261C163.514 137.452 163.192 137.599 162.825 137.701C162.458 137.804 162.07 137.855 161.659 137.855ZM167.597 137.855C166.805 137.855 166.208 137.668 165.804 137.294C165.408 136.913 165.21 136.337 165.21 135.567V133.587H164.165V132.146H165.21V130.826L167.168 130.364V132.146H168.532V133.587H167.168V135.49C167.168 135.813 167.242 136.029 167.388 136.139C167.535 136.242 167.711 136.293 167.916 136.293C168.041 136.293 168.147 136.286 168.235 136.271C168.331 136.249 168.43 136.22 168.532 136.183V137.69C168.371 137.756 168.21 137.8 168.048 137.822C167.894 137.844 167.744 137.855 167.597 137.855Z" fill="black"/>
<path d="M324.223 138.29L325.334 139.369L330.823 134.038L325.334 128.708L324.223 129.787L328.599 134.038L324.223 138.29Z" fill="#CACACA"/>
<rect x="68.9106" y="112.702" width="284.179" height="43.0652" rx="2.46593" stroke="#DBDCE0" stroke-opacity="0.5" stroke-width="0.934798"/>
<rect x="68.4432" y="165.035" width="285.114" height="44" rx="2.93333" fill="white"/>
<g filter="url(#filter3_d_2458_8870)">
<rect x="86.0432" y="173.836" width="23.4667" height="26.4" rx="2.93333" fill="white"/>
<path d="M100.45 185.37H98.3838L100.033 183.179C100.079 183.118 100.099 183.041 100.088 182.966C100.077 182.89 100.037 182.822 99.9755 182.776C99.9452 182.754 99.9108 182.737 99.8742 182.728C99.8376 182.718 99.7995 182.716 99.7621 182.722C99.6865 182.732 99.6183 182.773 99.5725 182.834L98.3205 184.512L97.8082 185.18L96.0495 182.834C96.0269 182.804 95.9985 182.778 95.9659 182.759C95.9334 182.74 95.8974 182.727 95.86 182.722C95.8226 182.716 95.7845 182.718 95.7478 182.728C95.7112 182.737 95.6768 182.754 95.6466 182.776C95.5855 182.822 95.5451 182.89 95.5343 182.966C95.5236 183.041 95.5432 183.118 95.589 183.179L97.2383 185.37H95.1026C94.7973 185.37 94.5044 185.491 94.2885 185.707C94.0726 185.923 93.9513 186.216 93.9513 186.521V190.202C93.9513 190.508 94.0726 190.8 94.2885 191.016C94.5044 191.232 94.7973 191.354 95.1026 191.354H100.45C100.756 191.354 101.049 191.232 101.264 191.016C101.48 190.8 101.602 190.508 101.602 190.202V186.521C101.602 186.216 101.48 185.923 101.264 185.707C101.049 185.491 100.756 185.37 100.45 185.37ZM96.8785 188.323C96.8406 188.323 96.803 188.316 96.768 188.301C96.7329 188.287 96.701 188.266 96.6741 188.239C96.6471 188.212 96.6257 188.181 96.6111 188.146C96.5965 188.111 96.589 188.073 96.589 188.035C96.589 187.997 96.5965 187.959 96.6111 187.924C96.6257 187.889 96.6471 187.857 96.6741 187.831L97.3707 187.137C97.3965 187.107 97.4282 187.082 97.4639 187.065C97.4996 187.048 97.5385 187.038 97.5782 187.036C97.6178 187.035 97.6573 187.042 97.6943 187.056C97.7312 187.071 97.7647 187.093 97.7928 187.121C97.8208 187.149 97.8428 187.182 97.8573 187.219C97.8717 187.256 97.8784 187.296 97.8769 187.335C97.8754 187.375 97.8656 187.414 97.8484 187.449C97.8311 187.485 97.8066 187.517 97.7765 187.543L97.0828 188.239C97.0559 188.266 97.024 188.287 96.989 188.301C96.9539 188.316 96.9164 188.323 96.8785 188.323ZM99.6675 187.842L97.7535 189.759C97.7267 189.786 97.6949 189.807 97.6598 189.822C97.6247 189.837 97.5871 189.844 97.5491 189.844C97.5111 189.844 97.4735 189.837 97.4384 189.822C97.4033 189.807 97.3715 189.786 97.3448 189.759C97.3178 189.732 97.2964 189.7 97.2818 189.665C97.2671 189.63 97.2596 189.593 97.2596 189.555C97.2596 189.517 97.2671 189.479 97.2818 189.444C97.2964 189.409 97.3178 189.377 97.3448 189.35L99.2617 187.436C99.2875 187.406 99.3192 187.382 99.3549 187.364C99.3906 187.347 99.4295 187.337 99.4692 187.336C99.5088 187.334 99.5483 187.341 99.5853 187.355C99.6222 187.37 99.6558 187.392 99.6838 187.42C99.7119 187.448 99.7338 187.481 99.7483 187.518C99.7628 187.555 99.7694 187.595 99.7679 187.635C99.7664 187.674 99.7567 187.713 99.7394 187.749C99.7221 187.784 99.6976 187.816 99.6675 187.842Z" fill="#1DCBEF"/>
</g>
<path d="M128.129 190.535V184.419H125.775V182.78H132.518V184.419H130.164V190.535H128.129ZM136.151 190.535L132.631 182.78H134.809L137.317 188.676H136.712L139.209 182.78H141.31L137.79 190.535H136.151Z" fill="black"/>
<path d="M324.223 191.09L325.334 192.17L330.823 186.839L325.334 181.508L324.223 182.588L328.599 186.839L324.223 191.09Z" fill="#CACACA"/>
<rect x="68.9106" y="165.503" width="284.179" height="43.0652" rx="2.46593" stroke="#DBDCE0" stroke-opacity="0.5" stroke-width="0.934798"/>
<rect x="68.4432" y="217.836" width="285.114" height="44" rx="2.93333" fill="#F9F9F9"/>
<g filter="url(#filter4_d_2458_8870)">
<rect x="86.0432" y="226.637" width="23.4667" height="26.4" rx="2.93333" fill="white"/>
<path fill-rule="evenodd" clip-rule="evenodd" d="M102.727 238.478C102.727 238.173 102.482 237.924 102.182 237.924H101.531L101.059 236.677C100.941 236.367 100.589 236.039 100.274 235.947C100.251 235.941 99.4354 235.711 97.7765 235.711C96.0935 235.711 95.2787 235.948 95.2787 235.948C94.9645 236.039 94.6116 236.367 94.4943 236.677L94.0222 237.924H93.371C93.0716 237.924 92.8265 238.173 92.8265 238.478C92.8265 238.782 93.0716 239.031 93.371 239.031H93.6033L93.4358 239.474C93.3185 239.784 93.2225 240.309 93.2225 240.641V243.257C93.2225 243.644 93.5344 243.961 93.9155 243.961C94.2967 243.961 94.6085 243.644 94.6085 243.257V242.854H100.945V243.257C100.945 243.644 101.256 243.961 101.638 243.961C102.019 243.961 102.331 243.644 102.331 243.257V240.641C102.331 240.309 102.235 239.784 102.117 239.474L101.95 239.031H102.182C102.482 239.031 102.727 238.782 102.727 238.478ZM94.682 241.073C94.3402 241.073 94.0632 240.796 94.0632 240.455C94.0632 240.113 94.3402 239.836 94.682 239.836C95.0236 239.836 95.3007 240.113 95.3007 240.455C95.3007 240.796 95.0236 241.073 94.682 241.073ZM100.663 240.455C100.663 240.796 100.94 241.073 101.282 241.073C101.624 241.073 101.901 240.796 101.901 240.455C101.901 240.113 101.624 239.836 101.282 239.836C100.94 239.836 100.663 240.113 100.663 240.455Z" fill="#1DCBEF"/>
</g>
<path d="M128.129 243.336V237.22H125.775V235.581H132.518V237.22H130.164V243.336H128.129ZM132.393 243.336V239.277C132.393 239.02 132.385 238.764 132.371 238.507C132.356 238.25 132.334 237.997 132.305 237.748H134.197L134.406 239.464H134.109C134.182 239.046 134.299 238.701 134.461 238.43C134.622 238.159 134.824 237.957 135.066 237.825C135.308 237.693 135.594 237.627 135.924 237.627C136.078 237.627 136.191 237.634 136.265 237.649C136.345 237.656 136.43 237.678 136.518 237.715V239.431C136.334 239.35 136.188 239.299 136.078 239.277C135.968 239.255 135.825 239.244 135.649 239.244C135.348 239.244 135.102 239.299 134.912 239.409C134.721 239.512 134.582 239.673 134.494 239.893C134.413 240.113 134.373 240.395 134.373 240.74V243.336H132.393ZM139.255 243.457C138.771 243.457 138.345 243.343 137.979 243.116C137.612 242.881 137.322 242.544 137.11 242.104C136.904 241.664 136.802 241.143 136.802 240.542C136.802 239.933 136.904 239.413 137.11 238.98C137.322 238.54 137.612 238.206 137.979 237.979C138.345 237.744 138.771 237.627 139.255 237.627C139.687 237.627 140.076 237.73 140.421 237.935C140.773 238.14 141.004 238.408 141.114 238.738H141.004L141.125 237.748H143.006C142.984 237.997 142.962 238.25 142.94 238.507C142.925 238.764 142.918 239.017 142.918 239.266V243.336H140.982L140.96 242.39H141.092C140.982 242.713 140.751 242.973 140.399 243.171C140.054 243.362 139.673 243.457 139.255 243.457ZM139.882 242.005C140.212 242.005 140.479 241.891 140.685 241.664C140.89 241.429 140.993 241.055 140.993 240.542C140.993 240.029 140.89 239.658 140.685 239.431C140.479 239.196 140.212 239.079 139.882 239.079C139.552 239.079 139.284 239.196 139.079 239.431C138.873 239.658 138.771 240.029 138.771 240.542C138.771 241.055 138.87 241.429 139.068 241.664C139.273 241.891 139.544 242.005 139.882 242.005ZM144.134 243.336V239.266C144.134 239.017 144.127 238.764 144.112 238.507C144.097 238.25 144.075 237.997 144.046 237.748H145.938L146.048 238.716H145.927C146.11 238.364 146.371 238.096 146.708 237.913C147.045 237.722 147.427 237.627 147.852 237.627C148.505 237.627 148.992 237.821 149.315 238.21C149.645 238.591 149.81 239.189 149.81 240.003V243.336H147.852V240.091C147.852 239.732 147.79 239.482 147.665 239.343C147.54 239.196 147.361 239.123 147.126 239.123C146.818 239.123 146.569 239.226 146.378 239.431C146.187 239.629 146.092 239.893 146.092 240.223V243.336H144.134ZM153.132 243.457C152.612 243.457 152.139 243.406 151.713 243.303C151.295 243.193 150.94 243.046 150.646 242.863L151.119 241.587C151.405 241.748 151.724 241.88 152.076 241.983C152.436 242.086 152.791 242.137 153.143 242.137C153.422 242.137 153.624 242.097 153.748 242.016C153.88 241.928 153.946 241.814 153.946 241.675C153.946 241.565 153.906 241.477 153.825 241.411C153.745 241.345 153.624 241.297 153.462 241.268L152.274 241.059C151.805 240.971 151.438 240.799 151.174 240.542C150.918 240.278 150.789 239.937 150.789 239.519C150.789 239.138 150.892 238.808 151.097 238.529C151.303 238.243 151.596 238.023 151.977 237.869C152.359 237.708 152.81 237.627 153.33 237.627C153.756 237.627 154.159 237.675 154.54 237.77C154.929 237.865 155.266 238.016 155.552 238.221L155.046 239.464C154.819 239.31 154.551 239.185 154.243 239.09C153.943 238.987 153.66 238.936 153.396 238.936C153.081 238.936 152.857 238.984 152.725 239.079C152.593 239.167 152.527 239.277 152.527 239.409C152.527 239.512 152.564 239.6 152.637 239.673C152.711 239.739 152.828 239.787 152.989 239.816L154.177 240.025C154.661 240.106 155.032 240.274 155.288 240.531C155.552 240.78 155.684 241.121 155.684 241.554C155.684 241.957 155.574 242.302 155.354 242.588C155.142 242.867 154.845 243.083 154.463 243.237C154.082 243.384 153.638 243.457 153.132 243.457ZM156.552 245.712V239.266C156.552 239.017 156.545 238.764 156.53 238.507C156.515 238.25 156.493 237.997 156.464 237.748H158.356L158.477 238.738H158.367C158.47 238.408 158.697 238.14 159.049 237.935C159.401 237.73 159.793 237.627 160.226 237.627C160.71 237.627 161.135 237.744 161.502 237.979C161.869 238.206 162.155 238.54 162.36 238.98C162.573 239.413 162.679 239.933 162.679 240.542C162.679 241.143 162.573 241.664 162.36 242.104C162.155 242.544 161.869 242.881 161.502 243.116C161.135 243.343 160.71 243.457 160.226 243.457C159.801 243.457 159.416 243.362 159.071 243.171C158.726 242.973 158.499 242.713 158.389 242.39H158.51V245.712H156.552ZM159.599 242.005C159.936 242.005 160.204 241.891 160.402 241.664C160.607 241.429 160.71 241.055 160.71 240.542C160.71 240.029 160.607 239.658 160.402 239.431C160.204 239.196 159.936 239.079 159.599 239.079C159.269 239.079 159.001 239.196 158.796 239.431C158.591 239.658 158.488 240.029 158.488 240.542C158.488 241.055 158.591 241.429 158.796 241.664C159.001 241.891 159.269 242.005 159.599 242.005ZM166.425 243.457C165.802 243.457 165.263 243.34 164.808 243.105C164.353 242.87 164.001 242.537 163.752 242.104C163.503 241.664 163.378 241.143 163.378 240.542C163.378 239.933 163.503 239.413 163.752 238.98C164.001 238.547 164.353 238.214 164.808 237.979C165.263 237.744 165.802 237.627 166.425 237.627C167.041 237.627 167.576 237.744 168.031 237.979C168.486 238.214 168.838 238.551 169.087 238.991C169.336 239.424 169.461 239.941 169.461 240.542C169.461 241.136 169.336 241.653 169.087 242.093C168.838 242.533 168.486 242.87 168.031 243.105C167.576 243.34 167.041 243.457 166.425 243.457ZM166.425 242.005C166.748 242.005 167.004 241.891 167.195 241.664C167.386 241.429 167.481 241.055 167.481 240.542C167.481 240.029 167.386 239.658 167.195 239.431C167.004 239.196 166.748 239.079 166.425 239.079C166.095 239.079 165.835 239.196 165.644 239.431C165.453 239.658 165.358 240.029 165.358 240.542C165.358 241.055 165.453 241.429 165.644 241.664C165.835 241.891 166.095 242.005 166.425 242.005ZM170.42 243.336V239.277C170.42 239.02 170.413 238.764 170.398 238.507C170.383 238.25 170.361 237.997 170.332 237.748H172.224L172.433 239.464H172.136C172.209 239.046 172.327 238.701 172.488 238.43C172.649 238.159 172.851 237.957 173.093 237.825C173.335 237.693 173.621 237.627 173.951 237.627C174.105 237.627 174.219 237.634 174.292 237.649C174.373 237.656 174.457 237.678 174.545 237.715V239.431C174.362 239.35 174.215 239.299 174.105 239.277C173.995 239.255 173.852 239.244 173.676 239.244C173.375 239.244 173.13 239.299 172.939 239.409C172.748 239.512 172.609 239.673 172.521 239.893C172.44 240.113 172.4 240.395 172.4 240.74V243.336H170.42ZM178.318 243.457C177.526 243.457 176.928 243.27 176.525 242.896C176.129 242.515 175.931 241.939 175.931 241.169V239.189H174.886V237.748H175.931V236.428L177.889 235.966V237.748H179.253V239.189H177.889V241.092C177.889 241.415 177.962 241.631 178.109 241.741C178.256 241.844 178.432 241.895 178.637 241.895C178.762 241.895 178.868 241.888 178.956 241.873C179.051 241.851 179.15 241.822 179.253 241.785V243.292C179.092 243.358 178.93 243.402 178.769 243.424C178.615 243.446 178.465 243.457 178.318 243.457Z" fill="black"/>
<path d="M324.223 243.891L325.334 244.971L330.823 239.64L325.334 234.309L324.223 235.389L328.599 239.64L324.223 243.891Z" fill="#CACACA"/>
<rect x="68.9106" y="218.303" width="284.179" height="43.0652" rx="2.46593" stroke="#DBDCE0" stroke-opacity="0.5" stroke-width="0.934798"/>
<rect x="68.4432" y="270.635" width="285.114" height="44" rx="2.93333" fill="white"/>
<g filter="url(#filter5_d_2458_8870)">
<rect x="86.0432" y="279.436" width="23.4667" height="26.4" rx="2.93333" fill="white"/>
<path d="M97.2821 293.938C97.0514 294.877 96.7548 295.652 96.0626 296.624C97.2821 297.349 98.2709 297.349 99.4904 296.624C98.8147 295.652 98.5016 294.877 98.2709 293.938C99.8364 295.932 101.896 295.026 101.896 292.9C101.896 292.043 101.204 290.84 97.7765 288.104C94.3488 290.84 93.6566 292.043 93.6566 292.9C93.6566 295.026 95.7166 295.932 97.2821 293.938Z" fill="#F7685B"/>
</g>
<path d="M126.358 296.135V288.38H130.12C130.986 288.38 131.649 288.559 132.111 288.919C132.581 289.278 132.815 289.766 132.815 290.382C132.815 290.836 132.68 291.225 132.408 291.548C132.144 291.87 131.781 292.09 131.319 292.208V292.032C131.869 292.127 132.291 292.34 132.584 292.67C132.885 292.992 133.035 293.414 133.035 293.935C133.035 294.617 132.786 295.156 132.287 295.552C131.789 295.94 131.107 296.135 130.241 296.135H126.358ZM128.305 294.65H129.977C130.359 294.65 130.641 294.58 130.824 294.441C131.015 294.301 131.11 294.085 131.11 293.792C131.11 293.491 131.015 293.275 130.824 293.143C130.641 293.011 130.359 292.945 129.977 292.945H128.305V294.65ZM128.305 291.46H129.746C130.135 291.46 130.417 291.394 130.593 291.262C130.777 291.13 130.868 290.928 130.868 290.657C130.868 290.385 130.777 290.187 130.593 290.063C130.417 289.931 130.135 289.865 129.746 289.865H128.305V291.46ZM136.909 296.256C135.897 296.256 135.109 295.995 134.544 295.475C133.987 294.954 133.708 294.239 133.708 293.33C133.708 292.765 133.825 292.263 134.06 291.823C134.295 291.383 134.625 291.042 135.05 290.8C135.475 290.55 135.974 290.426 136.546 290.426C137.111 290.426 137.58 290.55 137.954 290.8C138.335 291.042 138.621 291.379 138.812 291.812C139.003 292.237 139.098 292.732 139.098 293.297V293.715H135.347V292.791H137.657L137.47 292.945C137.47 292.527 137.389 292.219 137.228 292.021C137.074 291.815 136.854 291.713 136.568 291.713C136.238 291.713 135.985 291.837 135.809 292.087C135.64 292.329 135.556 292.695 135.556 293.187V293.385C135.556 293.876 135.677 294.235 135.919 294.463C136.161 294.69 136.509 294.804 136.964 294.804C137.257 294.804 137.532 294.771 137.789 294.705C138.053 294.639 138.302 294.532 138.537 294.386L139.043 295.662C138.764 295.852 138.442 295.999 138.075 296.102C137.708 296.204 137.32 296.256 136.909 296.256ZM142.847 296.256C142.055 296.256 141.458 296.069 141.054 295.695C140.658 295.313 140.46 294.738 140.46 293.968V291.988H139.415V290.547H140.46V289.227L142.418 288.765V290.547H143.782V291.988H142.418V293.891C142.418 294.213 142.492 294.43 142.638 294.54C142.785 294.642 142.961 294.694 143.166 294.694C143.291 294.694 143.397 294.686 143.485 294.672C143.581 294.65 143.68 294.62 143.782 294.584V296.091C143.621 296.157 143.46 296.201 143.298 296.223C143.144 296.245 142.994 296.256 142.847 296.256ZM146.908 296.256C146.116 296.256 145.518 296.069 145.115 295.695C144.719 295.313 144.521 294.738 144.521 293.968V291.988H143.476V290.547H144.521V289.227L146.479 288.765V290.547H147.843V291.988H146.479V293.891C146.479 294.213 146.552 294.43 146.699 294.54C146.846 294.642 147.022 294.694 147.227 294.694C147.352 294.694 147.458 294.686 147.546 294.672C147.641 294.65 147.74 294.62 147.843 294.584V296.091C147.682 296.157 147.52 296.201 147.359 296.223C147.205 296.245 147.055 296.256 146.908 296.256ZM148.603 296.135V290.547H150.561V296.135H148.603ZM148.559 289.755V287.995H150.616V289.755H148.559ZM151.772 296.135V292.065C151.772 291.815 151.764 291.562 151.75 291.306C151.735 291.049 151.713 290.796 151.684 290.547H153.576L153.686 291.515H153.565C153.748 291.163 154.008 290.895 154.346 290.712C154.683 290.521 155.064 290.426 155.49 290.426C156.142 290.426 156.63 290.62 156.953 291.009C157.283 291.39 157.448 291.988 157.448 292.802V296.135H155.49V292.89C155.49 292.53 155.427 292.281 155.303 292.142C155.178 291.995 154.998 291.922 154.764 291.922C154.456 291.922 154.206 292.024 154.016 292.23C153.825 292.428 153.73 292.692 153.73 293.022V296.135H151.772ZM161.364 298.599C160.807 298.599 160.315 298.547 159.89 298.445C159.472 298.349 159.094 298.199 158.757 297.994L159.098 296.608C159.296 296.725 159.512 296.824 159.747 296.905C159.982 296.985 160.224 297.044 160.473 297.081C160.73 297.125 160.972 297.147 161.199 297.147C161.668 297.147 162.017 297.037 162.244 296.817C162.471 296.604 162.585 296.3 162.585 295.904V294.925H162.695C162.578 295.247 162.347 295.508 162.002 295.706C161.657 295.896 161.276 295.992 160.858 295.992C160.359 295.992 159.923 295.882 159.549 295.662C159.182 295.434 158.893 295.112 158.68 294.694C158.475 294.276 158.372 293.781 158.372 293.209C158.372 292.637 158.475 292.142 158.68 291.724C158.893 291.306 159.182 290.987 159.549 290.767C159.923 290.539 160.359 290.426 160.858 290.426C161.291 290.426 161.672 290.521 162.002 290.712C162.332 290.902 162.556 291.155 162.673 291.471L162.585 291.449L162.706 290.547H164.587C164.558 290.796 164.536 291.049 164.521 291.306C164.506 291.562 164.499 291.815 164.499 292.065V295.684C164.499 296.622 164.231 297.341 163.696 297.84C163.161 298.346 162.383 298.599 161.364 298.599ZM161.463 294.54C161.8 294.54 162.068 294.426 162.266 294.199C162.464 293.971 162.563 293.641 162.563 293.209C162.563 292.769 162.464 292.439 162.266 292.219C162.068 291.991 161.8 291.878 161.463 291.878C161.118 291.878 160.847 291.991 160.649 292.219C160.451 292.439 160.352 292.769 160.352 293.209C160.352 293.641 160.451 293.971 160.649 294.199C160.847 294.426 161.118 294.54 161.463 294.54Z" fill="black"/>
<path d="M324.223 296.69L325.334 297.77L330.823 292.439L325.334 287.108L324.223 288.187L328.599 292.439L324.223 296.69Z" fill="#CACACA"/>
<rect x="68.9106" y="271.102" width="284.179" height="43.0652" rx="2.46593" stroke="#DBDCE0" stroke-opacity="0.5" stroke-width="0.934798"/>
<rect x="57.4674" y="37.4674" width="307.065" height="299.136" rx="9.5326" stroke="#CACACA" stroke-width="0.934798"/>
</g>
</g>
<defs>
<filter id="filter0_d_2458_8870" x="33.63" y="27.652" width="382.784" height="374.854" filterUnits="userSpaceOnUse" color-interpolation-filters="sRGB">
<feFlood flood-opacity="0" result="BackgroundImageFix"/>
<feColorMatrix in="SourceAlpha" type="matrix" values="0 0 0 0 0 0 0 0 0 0 0 0 0 0 0 0 0 0 127 0" result="hardAlpha"/>
<feOffset dx="14.022" dy="28.044"/>
<feGaussianBlur stdDeviation="18.696"/>
<feColorMatrix type="matrix" values="0 0 0 0 0 0 0 0 0 0 0 0 0 0 0 0 0 0 0.07 0"/>
<feBlend mode="normal" in2="BackgroundImageFix" result="effect1_dropShadow_2458_8870"/>
<feBlend mode="normal" in="SourceGraphic" in2="effect1_dropShadow_2458_8870" result="shape"/>
</filter>
<filter id="filter1_d_2458_8870" x="78.7099" y="60.903" width="38.1333" height="41.0671" filterUnits="userSpaceOnUse" color-interpolation-filters="sRGB">
<feFlood flood-opacity="0" result="BackgroundImageFix"/>
<feColorMatrix in="SourceAlpha" type="matrix" values="0 0 0 0 0 0 0 0 0 0 0 0 0 0 0 0 0 0 127 0" result="hardAlpha"/>
<feOffset/>
<feGaussianBlur stdDeviation="3.66667"/>
<feColorMatrix type="matrix" values="0 0 0 0 0 0 0 0 0 0 0 0 0 0 0 0 0 0 0.06 0"/>
<feBlend mode="normal" in2="BackgroundImageFix" result="effect1_dropShadow_2458_8870"/>
<feBlend mode="normal" in="SourceGraphic" in2="effect1_dropShadow_2458_8870" result="shape"/>
</filter>
<filter id="filter2_d_2458_8870" x="78.7099" y="113.702" width="38.1333" height="41.0671" filterUnits="userSpaceOnUse" color-interpolation-filters="sRGB">
<feFlood flood-opacity="0" result="BackgroundImageFix"/>
<feColorMatrix in="SourceAlpha" type="matrix" values="0 0 0 0 0 0 0 0 0 0 0 0 0 0 0 0 0 0 127 0" result="hardAlpha"/>
<feOffset/>
<feGaussianBlur stdDeviation="3.66667"/>
<feColorMatrix type="matrix" values="0 0 0 0 0 0 0 0 0 0 0 0 0 0 0 0 0 0 0.06 0"/>
<feBlend mode="normal" in2="BackgroundImageFix" result="effect1_dropShadow_2458_8870"/>
<feBlend mode="normal" in="SourceGraphic" in2="effect1_dropShadow_2458_8870" result="shape"/>
</filter>
<filter id="filter3_d_2458_8870" x="78.7099" y="166.503" width="38.1333" height="41.0671" filterUnits="userSpaceOnUse" color-interpolation-filters="sRGB">
<feFlood flood-opacity="0" result="BackgroundImageFix"/>
<feColorMatrix in="SourceAlpha" type="matrix" values="0 0 0 0 0 0 0 0 0 0 0 0 0 0 0 0 0 0 127 0" result="hardAlpha"/>
<feOffset/>
<feGaussianBlur stdDeviation="3.66667"/>
<feColorMatrix type="matrix" values="0 0 0 0 0 0 0 0 0 0 0 0 0 0 0 0 0 0 0.06 0"/>
<feBlend mode="normal" in2="BackgroundImageFix" result="effect1_dropShadow_2458_8870"/>
<feBlend mode="normal" in="SourceGraphic" in2="effect1_dropShadow_2458_8870" result="shape"/>
</filter>
<filter id="filter4_d_2458_8870" x="78.7099" y="219.303" width="38.1333" height="41.0671" filterUnits="userSpaceOnUse" color-interpolation-filters="sRGB">
<feFlood flood-opacity="0" result="BackgroundImageFix"/>
<feColorMatrix in="SourceAlpha" type="matrix" values="0 0 0 0 0 0 0 0 0 0 0 0 0 0 0 0 0 0 127 0" result="hardAlpha"/>
<feOffset/>
<feGaussianBlur stdDeviation="3.66667"/>
<feColorMatrix type="matrix" values="0 0 0 0 0 0 0 0 0 0 0 0 0 0 0 0 0 0 0.06 0"/>
<feBlend mode="normal" in2="BackgroundImageFix" result="effect1_dropShadow_2458_8870"/>
<feBlend mode="normal" in="SourceGraphic" in2="effect1_dropShadow_2458_8870" result="shape"/>
</filter>
<filter id="filter5_d_2458_8870" x="78.7099" y="272.102" width="38.1333" height="41.0671" filterUnits="userSpaceOnUse" color-interpolation-filters="sRGB">
<feFlood flood-opacity="0" result="BackgroundImageFix"/>
<feColorMatrix in="SourceAlpha" type="matrix" values="0 0 0 0 0 0 0 0 0 0 0 0 0 0 0 0 0 0 127 0" result="hardAlpha"/>
<feOffset/>
<feGaussianBlur stdDeviation="3.66667"/>
<feColorMatrix type="matrix" values="0 0 0 0 0 0 0 0 0 0 0 0 0 0 0 0 0 0 0.06 0"/>
<feBlend mode="normal" in2="BackgroundImageFix" result="effect1_dropShadow_2458_8870"/>
<feBlend mode="normal" in="SourceGraphic" in2="effect1_dropShadow_2458_8870" result="shape"/>
</filter>
</defs>
</svg>
