<svg width="110" height="31" viewBox="0 0 110 31" fill="none" xmlns="http://www.w3.org/2000/svg">
<path d="M100.851 30.663C100.854 30.5153 100.767 30.4769 100.636 30.472C100.31 30.4597 99.985 30.4385 99.659 30.4228C99.5384 30.4178 99.4192 30.4228 99.3449 30.2987C99.3133 30.2465 99.2528 30.2411 99.1971 30.2376C98.8697 30.2194 98.5423 30.2613 98.2341 30.0604C98.0863 29.9653 97.8648 29.9875 97.6722 29.9914C97.5447 29.9914 97.4172 29.9998 97.3364 29.8639C97.2956 29.795 97.2109 29.8083 97.1395 29.7999C96.9613 29.7787 96.7663 29.7999 96.6515 29.6113C96.644 29.6021 96.6345 29.5945 96.6239 29.5892C96.6132 29.5838 96.6015 29.5808 96.5895 29.5803C96.3341 29.5799 96.0831 29.5142 95.8603 29.3893C95.7008 29.3036 95.4703 29.3617 95.3364 29.1687C95.3113 29.1322 95.2177 29.1377 95.1552 29.1342C95.0567 29.1293 94.9676 29.1189 94.909 29.0215C94.8972 29.001 94.881 28.9834 94.8616 28.9698C94.8422 28.9563 94.8201 28.9472 94.7968 28.9432C94.5013 28.9653 94.2891 28.7196 94.009 28.6945C93.9811 28.6924 93.9542 28.6834 93.9308 28.6681C93.9074 28.6529 93.8882 28.632 93.875 28.6074C93.8514 28.5675 93.8174 28.502 93.7884 28.502C93.5609 28.502 93.3989 28.3651 93.2221 28.2558C92.9833 28.1106 92.7041 28.051 92.4742 27.8767C92.3383 27.7733 92.1571 27.7452 92.0099 27.6226C91.7426 27.4016 91.4368 27.2318 91.1079 27.1219C91.031 27.0958 91.0163 27.014 90.9601 26.9741C90.7386 26.8072 90.4924 26.6787 90.2644 26.5192C90.162 26.4478 90.1251 26.3385 90.0236 26.2691C89.8759 26.1671 89.6878 26.1243 89.5633 26.0322C89.3765 25.8971 89.2061 25.7406 89.0556 25.5659C88.9109 25.3926 88.7656 25.2242 88.5307 25.172C88.4997 25.1651 88.4564 25.1617 88.4426 25.141C88.2457 24.8456 87.9384 24.6619 87.7006 24.4074C87.3943 24.0799 87.0728 23.7673 86.7542 23.4512C86.579 23.2774 86.3899 23.1065 86.2392 22.9219C86.1334 22.7904 86.057 22.6146 85.9605 22.46C85.8448 22.2754 85.9605 22.1252 86.1806 22.1154C86.3584 22.1055 86.5253 22.1237 86.6784 21.9612C86.7902 21.8436 87.0088 21.879 87.1846 21.8775C87.3185 21.8775 87.4549 21.8923 87.5445 21.749C87.5938 21.6742 87.6873 21.6904 87.7656 21.689C87.9724 21.685 88.1797 21.686 88.387 21.6816C88.5568 21.6781 88.7055 21.6727 88.8675 21.5476C89.0295 21.4226 89.2782 21.4556 89.4914 21.4526C90.0729 21.4437 90.6544 21.4452 91.2354 21.4428C91.3555 21.4428 91.4747 21.4497 91.5525 21.3256C91.5953 21.2571 91.677 21.2532 91.7494 21.2621C92.0449 21.298 92.3688 21.1468 92.6273 21.4191C92.6677 21.4615 92.78 21.4398 92.8588 21.4423C93.5427 21.4634 94.2281 21.4093 94.911 21.4851C95.0144 21.4964 95.1163 21.5004 95.1803 21.6067C95.2296 21.6865 95.3172 21.6776 95.396 21.6786C95.619 21.6821 95.8421 21.6816 96.0651 21.6865C96.2429 21.6904 96.4319 21.6471 96.561 21.8367C96.6003 21.8943 96.6949 21.8697 96.7658 21.877C97.0647 21.9081 97.3896 21.8313 97.6348 22.0893C97.6565 22.1124 97.7107 22.1099 97.7496 22.1104C97.9696 22.1144 98.1868 22.0937 98.3631 22.2877C98.4182 22.3482 98.56 22.3409 98.6585 22.3478C98.816 22.3586 98.9775 22.3354 99.0854 22.4984C99.108 22.5324 99.1839 22.5408 99.239 22.5422C99.3867 22.5452 99.528 22.5447 99.6112 22.6978C99.6179 22.7078 99.6268 22.7161 99.6372 22.722C99.6477 22.7279 99.6593 22.7312 99.6713 22.7318C99.9968 22.7087 100.243 22.9573 100.554 22.9854C100.672 22.9962 100.795 23.0125 100.862 23.1356C100.873 23.1553 100.897 23.1848 100.912 23.1848C101.179 23.1538 101.362 23.3601 101.565 23.463C101.785 23.5743 102.085 23.5713 102.226 23.8293C102.241 23.8482 102.262 23.8609 102.286 23.8653C102.703 23.9603 103.014 24.2336 103.363 24.4561C103.546 24.5718 103.74 24.7624 104.003 24.755C104.169 24.7501 104.214 24.9337 104.308 25.0194C104.497 25.1932 104.748 25.2306 104.938 25.4015C105.256 25.6861 105.642 25.8875 105.948 26.1996C106.068 26.3222 106.201 26.4793 106.405 26.5113C106.558 26.5359 106.614 26.6964 106.711 26.7875C106.971 27.0337 107.236 27.2799 107.489 27.533C107.73 27.7743 107.969 28.0283 108.237 28.2494C108.512 28.4779 108.734 28.7708 108.983 29.0318C109.158 29.2145 109.324 29.4119 109.525 29.5616C109.653 29.6571 109.645 29.7546 109.631 29.8693C109.615 29.9993 109.504 29.99 109.409 29.9969C109.146 30.0151 108.891 29.9885 108.654 30.1938C108.514 30.3164 108.253 30.2258 108.047 30.2357C107.899 30.243 107.743 30.2135 107.643 30.375C107.609 30.4306 107.529 30.4203 107.465 30.4242C107.17 30.4405 106.878 30.4602 106.584 30.4735C106.451 30.4789 106.342 30.4981 106.347 30.666L100.851 30.663Z" fill="#DBDCE0"/>
<path d="M51.9491 30.6602C51.9516 30.5312 51.8846 30.4785 51.7596 30.4672C51.5804 30.4514 51.3938 30.4529 51.2721 30.2727C51.2465 30.2353 51.155 30.2392 51.0929 30.2304C51.0215 30.2205 50.9383 30.223 50.9122 30.1417C50.8724 30.0177 50.7803 29.9906 50.6705 29.994C50.4612 29.999 50.3958 29.7971 50.2717 29.6942C50.059 29.5199 49.8847 29.2944 49.6725 29.1122C49.5987 29.0487 49.5932 28.9596 49.5657 28.8784C49.546 28.8208 49.5514 28.7346 49.4672 28.7361C49.3687 28.7386 49.3727 28.8316 49.3722 28.8991C49.3677 29.289 49.3682 29.6789 49.3673 30.0684C49.3663 30.4578 49.3609 30.4687 48.9675 30.4696C48.4577 30.4696 47.948 30.4696 47.4382 30.4696C47.1699 30.4696 47 30.3057 46.9813 30.0354C46.9769 29.9719 46.9813 29.9084 46.9813 29.8449C46.9813 25.4374 46.9813 21.0302 46.9813 16.6234C46.9813 16.4653 46.9892 16.323 47.0961 16.1773C47.1328 16.1179 47.1852 16.0697 47.2474 16.0379C47.3096 16.0062 47.3794 15.992 47.4491 15.9971C47.9828 16.0025 48.516 15.9971 49.0497 16.0001C49.3564 16.0001 49.3687 16.0143 49.3692 16.328C49.3692 17.8378 49.3692 19.3493 49.3692 20.8625C49.3692 20.9422 49.3692 21.0215 49.3737 21.1013C49.3771 21.1574 49.3865 21.217 49.4569 21.2283C49.5145 21.2372 49.5302 21.1835 49.5642 21.152C49.8335 20.9004 50.0649 20.6104 50.3554 20.3785C50.4952 20.2662 50.6016 20.1171 50.8079 20.1372C50.895 19.864 51.2367 19.9895 51.3696 19.7773C51.41 19.7143 51.5011 19.734 51.571 19.7252C51.7414 19.703 51.922 19.7183 52.0387 19.543C52.088 19.4726 52.1864 19.4937 52.2637 19.4937C52.8217 19.4937 53.3797 19.4937 53.9377 19.4937C54.0086 19.4937 54.1007 19.4736 54.1425 19.5322C54.2991 19.7522 54.5295 19.7173 54.7481 19.7291C54.8747 19.7345 55.0046 19.7202 55.0829 19.8586C55.1174 19.9206 55.1917 19.9157 55.2547 19.9221C55.304 19.9275 55.3729 19.9177 55.3926 19.9447C55.5812 20.2013 55.913 20.2323 56.141 20.444C56.5063 20.7832 56.814 21.1776 57.198 21.501C57.3211 21.604 57.4097 21.8048 57.5092 21.9511C57.6633 22.178 57.6185 22.4892 57.8538 22.6625C57.8571 22.6649 57.8598 22.668 57.8617 22.6716C57.8637 22.6752 57.8649 22.6791 57.8652 22.6832C57.8543 23.0411 58.131 23.3144 58.1305 23.6841C58.1305 24.2552 58.1798 24.8273 58.1645 25.3999C58.1547 25.781 58.1857 26.1744 58.099 26.5387C58.0365 26.8017 57.9951 27.1089 57.8662 27.3167C57.7599 27.4905 57.6951 27.6864 57.6766 27.8893C57.6559 28.0453 57.5082 28.1354 57.4122 28.2339C57.3241 28.326 57.2458 28.3964 57.2547 28.5254C57.265 28.6765 57.1207 28.6819 57.0498 28.7573C56.8283 28.9911 56.6333 29.255 56.3891 29.4613C56.1449 29.6676 55.9824 30.0068 55.595 30.0093C55.4876 30.2555 55.1848 30.1846 55.0278 30.3594C54.9219 30.478 54.755 30.412 54.6186 30.4485C54.4975 30.4805 54.3779 30.4977 54.3892 30.6626L51.9491 30.6602ZM49.3692 25.14C49.4327 25.4472 49.2255 25.8667 49.5499 26.2005C49.4751 26.5417 49.7321 26.7913 49.8365 27.07C49.9408 27.3487 50.1919 27.6116 50.443 27.7868C50.702 27.97 50.9565 28.1699 51.2475 28.324C51.5099 28.4628 51.794 28.5209 52.0565 28.6361C52.6753 28.9035 53.273 28.5195 53.8836 28.4392C53.8913 28.4371 53.8983 28.4329 53.9037 28.4269C54.1617 28.1911 54.5261 28.1059 54.7407 27.7972C54.8825 27.5934 55.1646 27.4732 55.238 27.2354C55.3074 27.0114 55.5501 26.8662 55.5058 26.6018C55.5065 26.5898 55.5101 26.5783 55.5164 26.5681C55.5227 26.558 55.5314 26.5496 55.5418 26.5437C55.7466 26.4634 55.7175 26.2862 55.7239 26.1207C55.7308 25.9287 55.6747 25.719 55.8815 25.5792C55.9096 25.56 55.9101 25.4905 55.9106 25.4438C55.9106 25.1341 55.9106 24.8239 55.9106 24.5137C55.9106 24.461 55.9022 24.3813 55.8687 24.3601C55.6988 24.2533 55.7047 24.0849 55.7294 23.9342C55.7865 23.5896 55.4418 23.3848 55.4404 23.0647C55.4404 23.0539 55.4177 23.0441 55.4069 23.0327C55.1351 22.7427 54.8751 22.4419 54.5856 22.1701C54.4946 22.085 54.3985 21.9707 54.275 21.9333C53.9914 21.8482 53.76 21.5887 53.4237 21.6724C53.4079 21.6742 53.3919 21.6721 53.3771 21.6664C53.3622 21.6606 53.349 21.6514 53.3385 21.6394C53.2302 21.4612 53.0544 21.4809 52.8915 21.4942C52.5498 21.5227 52.2111 21.4297 51.8664 21.6483C51.6837 21.764 51.3942 21.7443 51.1589 21.8733C50.9807 21.9771 50.8101 22.0934 50.6483 22.2214C50.4406 22.3755 50.2973 22.5896 50.122 22.7743C49.9812 22.922 49.7946 23.0411 49.7941 23.2809C49.7982 23.3091 49.7943 23.3378 49.7829 23.3639C49.7715 23.39 49.753 23.4124 49.7296 23.4286C49.5819 23.5128 49.5819 23.6605 49.5642 23.8023C49.5548 23.8801 49.5809 23.982 49.512 24.0268C49.3446 24.1361 49.3727 24.2971 49.3707 24.4532C49.3677 24.658 49.3692 24.8638 49.3692 25.14Z" fill="#DBDCE0"/>
<path d="M0.036438 16C0.64941 16 1.26287 15.9961 1.87585 15.9961C2.23575 15.9961 2.23969 15.9995 2.24018 16.3511C2.24018 17.8626 2.24018 19.3741 2.24412 20.8856C2.24412 21.0042 2.16042 21.1928 2.35441 21.2258C2.53707 21.2573 2.67345 21.1712 2.67739 20.9471C2.67739 20.8024 2.84626 20.7738 2.92356 20.6803C3.03188 20.5538 3.1594 20.3967 3.346 20.3681C3.4937 20.346 3.56115 20.2234 3.63697 20.1431C3.81028 19.9585 4.09289 19.9713 4.24256 19.767C4.24699 19.7606 4.25585 19.7527 4.26176 19.7532C4.64333 19.8054 4.9284 19.4839 5.29864 19.4868C5.85598 19.4908 6.41332 19.4868 6.97263 19.4868C7.09522 19.4868 7.20944 19.4918 7.2833 19.6168C7.29774 19.6355 7.31624 19.6506 7.33739 19.6611C7.35854 19.6716 7.38179 19.6772 7.4054 19.6774C7.71952 19.6483 8.00754 19.8088 8.22663 19.9501C8.49841 20.1259 8.88392 20.1604 9.04541 20.5016C9.05472 20.5186 9.06783 20.5332 9.08372 20.5443C9.0996 20.5554 9.11783 20.5627 9.13698 20.5656C9.42353 20.5414 9.48803 20.8117 9.65543 20.9447C9.92671 21.1613 10.0532 21.4863 10.2659 21.7502C10.3939 21.9072 10.4767 22.1647 10.5958 22.3488C10.7435 22.5788 10.7346 22.8698 10.9365 23.0662C11.0089 23.1371 10.969 23.2494 10.9857 23.3414C11.035 23.6127 10.9365 23.9175 11.1886 24.1425C11.2285 24.1784 11.2167 24.2788 11.2171 24.3493C11.2194 24.7792 11.2194 25.2089 11.2171 25.6382C11.2171 25.816 11.2122 25.972 11.0793 26.1409C10.9582 26.295 10.9956 26.551 10.9838 26.7647C10.9759 26.9124 11.002 27.0675 10.8395 27.1665C10.7755 27.2059 10.7903 27.2974 10.7903 27.3678C10.7873 27.4766 10.774 27.5746 10.6485 27.614C10.6219 27.6224 10.581 27.6573 10.5835 27.6756C10.615 27.9291 10.389 28.0694 10.3216 28.2861C10.2428 28.5391 10.0262 28.7267 9.84104 28.9005C9.65592 29.0743 9.49197 29.2978 9.27336 29.4515C8.99519 29.6484 8.80219 29.932 8.45213 30.0654C8.10207 30.1988 7.80518 30.4366 7.4182 30.477C7.31628 30.4878 7.30397 30.573 7.30053 30.6567H4.8639C4.86095 30.4105 4.65269 30.4312 4.51581 30.4342C4.2465 30.4406 4.0919 30.1619 3.82653 30.188C3.81717 30.188 3.80585 30.1658 3.79403 30.1555C3.54146 29.929 3.35929 29.6139 2.99151 29.5317C2.97651 29.5271 2.96284 29.519 2.95162 29.508C2.9404 29.497 2.93196 29.4836 2.92701 29.4687C2.89599 29.29 2.77143 29.1703 2.68083 29.0256C2.59024 28.8808 2.4839 28.8803 2.35933 28.902C2.21704 28.9266 2.24462 29.0546 2.24363 29.1536C2.24068 29.4982 2.23231 29.8379 2.24363 30.1796C2.25249 30.4036 2.15944 30.4696 1.94822 30.4667C1.31112 30.4583 0.674028 30.4637 0.0369303 30.4637L0.036438 16ZM8.78446 24.9868H8.78151C8.78151 24.7003 8.78151 24.4142 8.78151 24.1277C8.78151 24.0494 8.7948 23.9559 8.71849 23.9081C8.60574 23.8377 8.59196 23.7348 8.58998 23.6206C8.58998 23.5566 8.58999 23.4832 8.53386 23.4443C8.32953 23.3001 8.27784 23.0436 8.18921 22.851C7.95387 22.3533 7.50978 22.1514 7.08931 21.9156C6.84806 21.7787 6.59696 21.6015 6.28285 21.6694C6.26334 21.6687 6.24426 21.6635 6.22716 21.6541C6.21005 21.6447 6.1954 21.6314 6.18438 21.6153C6.10905 21.4907 5.99088 21.4917 5.86977 21.4922C5.62359 21.4922 5.37742 21.4922 5.13125 21.4922C5.06035 21.4922 4.96582 21.473 4.92692 21.532C4.8063 21.7152 4.62561 21.6748 4.45575 21.6857C4.39273 21.6896 4.31395 21.6812 4.27013 21.7147C3.97472 21.9427 3.60546 22.0682 3.37701 22.3863C3.20371 22.627 2.93932 22.7836 2.83543 23.1012C2.7862 23.2533 2.72662 23.4596 2.62471 23.5674C2.42481 23.7791 2.44943 24.0105 2.43171 24.2508C2.42481 24.3438 2.43909 24.4374 2.37066 24.5221C2.12448 24.8313 2.19883 25.2114 2.2968 25.5132C2.3613 25.7101 2.44451 25.9011 2.43171 26.104C2.41546 26.4078 2.62421 26.6303 2.73105 26.8725C2.86448 27.1763 3.02942 27.5077 3.34156 27.7174C3.55524 27.8607 3.67587 28.1201 3.92844 28.2265C4.19579 28.3387 4.43753 28.5342 4.75805 28.4766C4.77389 28.4771 4.78937 28.4815 4.80317 28.4893C4.81697 28.4971 4.82868 28.5081 4.83732 28.5214C4.91609 28.6617 5.05592 28.6745 5.18885 28.6834C5.45078 28.7006 5.71369 28.6834 5.97661 28.6834C6.21441 28.6834 6.37541 28.5125 6.57973 28.4746C6.82591 28.4284 7.0061 28.2605 7.21978 28.163C7.42657 28.0689 7.56049 27.8282 7.81552 27.7804C7.84851 27.7745 7.90168 27.7312 7.89971 27.71C7.87657 27.4712 8.11586 27.3974 8.19906 27.226C8.23402 27.1542 8.33396 27.133 8.3576 27.0291C8.42456 26.7337 8.68353 26.4988 8.61953 26.1636C8.61959 26.1556 8.6216 26.1477 8.62538 26.1407C8.62915 26.1337 8.63458 26.1277 8.64119 26.1232C8.82237 26.0173 8.78889 25.8406 8.78889 25.6771C8.78594 25.4477 8.78446 25.2173 8.78446 24.9868Z" fill="#DBDCE0"/>
<path d="M16.4815 30.6602C16.4869 30.4426 16.3112 30.4594 16.1792 30.4387C15.8641 30.3894 15.5987 30.2378 15.3285 30.0793C15.164 29.9833 14.9681 29.9439 14.8263 29.7981C14.65 29.617 14.4575 29.4535 14.2847 29.2664C14.1119 29.0793 13.9016 28.9149 13.7387 28.7091C13.6215 28.5614 13.4925 28.4304 13.394 28.2571C13.2695 28.0326 13.2158 27.7716 13.043 27.5737C13.0277 27.556 13.0041 27.5343 13.0051 27.5151C13.0179 27.1257 12.686 26.8199 12.7441 26.4167C12.7643 26.2788 12.7697 26.1282 12.6127 26.0371C12.5634 26.0085 12.5664 25.9386 12.5634 25.8835C12.5255 25.3419 12.4876 24.8048 12.5634 24.2656C12.5679 24.2341 12.5605 24.1898 12.5782 24.1736C12.8544 23.9274 12.7205 23.5965 12.7515 23.3021C12.7643 23.1815 12.7574 23.0638 12.8844 22.9924C12.9139 22.9669 12.934 22.9322 12.9416 22.894C13.0326 22.5853 13.2266 22.3209 13.3408 22.0309C13.4831 21.6705 13.7598 21.4504 13.9878 21.1762C14.0293 21.1184 14.0597 21.0535 14.0774 20.9846C14.0863 20.946 14.1052 20.9104 14.1323 20.8814C14.1593 20.8525 14.1936 20.8312 14.2315 20.8197C14.4462 20.7517 14.5761 20.5735 14.7381 20.4347C14.8691 20.3195 14.9799 20.1329 15.2019 20.1526C15.2251 20.1526 15.2649 20.1526 15.2704 20.1422C15.3831 19.8995 15.6903 19.9743 15.839 19.7917C15.8533 19.7744 15.8779 19.7503 15.8951 19.7523C16.3225 19.7976 16.6568 19.4569 17.0886 19.484C17.5888 19.5155 18.092 19.4918 18.5937 19.4928C18.7055 19.4928 18.8167 19.4879 18.8891 19.6066C18.9017 19.6264 18.9186 19.6431 18.9385 19.6555C18.9585 19.6678 18.981 19.6755 19.0043 19.6779C19.3184 19.6504 19.5459 19.8946 19.8413 19.9295C19.9929 19.9473 20.0466 20.1043 20.1229 20.1865C20.2972 20.3751 20.566 20.3662 20.7354 20.5637C20.8294 20.6725 20.9466 20.7916 21.0382 20.9039C21.1298 21.0161 21.2765 21.0624 21.3385 21.1993C21.3435 21.2081 21.3503 21.2158 21.3585 21.2218C21.3667 21.2277 21.3761 21.2318 21.386 21.2337C21.396 21.2356 21.4062 21.2354 21.416 21.2329C21.4259 21.2304 21.435 21.2259 21.4429 21.2195C21.4981 21.184 21.4971 21.1245 21.4971 21.0718C21.4995 20.738 21.4971 20.4037 21.5 20.0694C21.503 19.7351 21.5069 19.7277 21.853 19.7272C22.3631 19.7272 22.873 19.7272 23.3828 19.7272C23.7412 19.7272 23.7466 19.7316 23.7466 20.0831C23.7466 21.8336 23.7466 23.5839 23.7466 25.334C23.7466 26.9253 23.7466 28.5172 23.7466 30.1098C23.7466 30.4603 23.7304 30.4761 23.3852 30.4771C22.8515 30.4771 22.3173 30.4697 21.7841 30.4805C21.5626 30.485 21.4887 30.3998 21.4961 30.1851C21.5079 29.8434 21.5005 29.5008 21.4961 29.1586C21.4961 29.0601 21.5197 28.9336 21.374 28.9124C21.2406 28.8927 21.1672 28.9616 21.1012 29.0872C20.9338 29.4048 20.7182 29.6923 20.3533 29.8016C20.2372 29.8365 20.1791 29.9266 20.1274 29.9985C19.9619 30.226 19.667 30.2147 19.4711 30.3894C19.3864 30.4653 19.2136 30.4446 19.0801 30.4623C18.9561 30.4791 18.8655 30.5239 18.8714 30.6691L16.4815 30.6602ZM14.9553 25.1459C15.0124 25.4561 14.9144 25.8274 15.1089 26.2217C15.2787 26.5664 15.3595 26.9657 15.6248 27.267C15.8686 27.5437 16.0837 27.8435 16.3964 28.0646C16.548 28.1719 16.7321 28.2059 16.8587 28.3186C17.0704 28.5067 17.3426 28.5441 17.5829 28.6406C17.8729 28.7563 18.2116 28.716 18.5287 28.6928C18.861 28.6687 19.1249 28.3782 19.4819 28.4329C19.6473 28.2246 19.9585 28.2359 20.1155 28.0232C20.2726 27.8105 20.4779 27.6702 20.6537 27.4895C20.8294 27.3088 20.9112 27.0779 21.0146 26.8795C21.1465 26.6269 21.3774 26.3812 21.3164 26.0381C21.2859 25.8672 21.2696 25.6698 21.4592 25.5428C21.4882 25.5231 21.5 25.4532 21.4936 25.4098C21.4493 25.0947 21.6339 24.7403 21.3351 24.4665C21.326 24.4533 21.3197 24.4385 21.3165 24.4229C21.3133 24.4072 21.3133 24.3911 21.3164 24.3754C21.3429 24.1971 21.3338 24.0154 21.2897 23.8406C21.2456 23.6659 21.1673 23.5016 21.0594 23.3573C20.9245 23.1667 20.8875 22.9338 20.7147 22.7615C20.5582 22.603 20.3701 22.4543 20.2519 22.2844C20.0387 21.9792 19.7 21.8965 19.4248 21.7187C19.2397 21.5991 18.9241 21.7296 18.7355 21.5026C18.3268 21.5587 17.8827 21.3258 17.5046 21.6547C17.4847 21.6681 17.4621 21.6771 17.4385 21.6813C17.4148 21.6854 17.3906 21.6846 17.3673 21.6788C17.0315 21.5878 16.7533 21.8162 16.5608 21.9718C16.2861 22.1943 15.8247 22.2672 15.7701 22.7285C15.7701 22.7458 15.7337 22.7576 15.7209 22.7753C15.5795 22.9378 15.327 23.0264 15.3629 23.308C15.3621 23.32 15.3586 23.3316 15.3526 23.342C15.3466 23.3524 15.3384 23.3613 15.3285 23.3681C15.1448 23.4749 15.166 23.6635 15.1443 23.8314C15.1355 23.9018 15.1537 23.9934 15.0897 24.0318C14.9346 24.1253 14.9548 24.2701 14.9538 24.4114C14.9518 24.6329 14.9553 24.856 14.9553 25.145V25.1459Z" fill="#DBDCE0"/>
<path d="M63.8037 30.6611C63.8037 30.5331 63.7396 30.4775 63.6131 30.4701C63.4625 30.4607 63.2916 30.4785 63.1666 30.4135C62.9435 30.2968 62.6629 30.2889 62.4945 30.0688C62.481 30.0492 62.4631 30.0328 62.4423 30.0211C62.4215 30.0094 62.3982 30.0027 62.3744 30.0014C62.1144 29.9891 61.9805 29.7985 61.8111 29.6405C61.693 29.5307 61.5694 29.4081 61.4049 29.3352C61.3012 29.2943 61.2069 29.2327 61.1278 29.1541C61.0486 29.0756 60.9863 28.9818 60.9446 28.8783C60.8422 28.6248 60.628 28.4264 60.4326 28.2289C60.405 28.2014 60.3459 28.1797 60.3464 28.1541C60.3543 27.9399 60.1839 27.8095 60.1165 27.6327C60.0456 27.4491 60.1051 27.2157 59.9013 27.0818C59.9535 26.6106 59.5769 26.2359 59.633 25.7441C59.6945 25.2099 59.6463 24.6639 59.6497 24.1228C59.6497 23.9475 59.6497 23.7693 59.8181 23.6491C59.8432 23.6293 59.8596 23.6006 59.8639 23.5689C59.8816 23.306 59.9624 23.0662 60.0436 22.8156C60.1264 22.5453 60.2623 22.2942 60.4434 22.0771C60.5615 21.9333 60.5788 21.7221 60.7344 21.5818C60.916 21.4183 61.0598 21.214 61.2351 21.0431C61.4222 20.861 61.6393 20.7093 61.8185 20.5208C61.8968 20.4385 61.982 20.4119 62.0721 20.3667C62.2902 20.2569 62.4984 20.1269 62.7097 20.0033C62.7362 19.988 62.7554 19.9452 62.7801 19.9437C63.1311 19.9181 63.4132 19.637 63.7835 19.6783C63.8854 19.6902 63.9893 19.6759 64.0543 19.5686C64.1079 19.4804 64.2054 19.4908 64.2921 19.4908C64.9292 19.4908 65.5663 19.4908 66.2034 19.4908C66.2659 19.4908 66.3575 19.4839 66.3865 19.5198C66.5766 19.7552 66.8404 19.7133 67.0906 19.7266C67.1733 19.7305 67.2486 19.7463 67.2954 19.8251C67.3422 19.9038 67.4214 19.9147 67.5031 19.9162C67.6257 19.9162 67.7449 19.9206 67.7887 20.0717C67.7975 20.0946 67.8134 20.114 67.8341 20.1271C67.8547 20.1402 67.879 20.1463 67.9034 20.1446C68.1663 20.15 68.317 20.3253 68.4637 20.508C68.4829 20.5316 68.513 20.5665 68.5356 20.5636C68.7768 20.5262 68.8734 20.7261 69.0083 20.8531C69.2367 21.0678 69.5203 21.2612 69.6552 21.5276C69.8196 21.8526 70.0648 22.1209 70.2376 22.4404C70.3903 22.723 70.313 23.0618 70.5636 23.3124C70.7088 23.4576 70.6355 23.7392 70.6404 23.9618C70.6433 24.1026 70.6202 24.2473 70.7709 24.3448C70.8442 24.394 70.8255 24.4891 70.8255 24.5678C70.8275 24.8695 70.8275 25.1718 70.8255 25.4748C70.8255 25.6225 70.8491 25.7766 70.6891 25.879C70.6271 25.9188 70.6399 26.0094 70.6399 26.0803C70.636 26.2556 70.6399 26.4309 70.6291 26.6052C70.6212 26.7401 70.6074 26.8784 70.4671 26.9557C70.4565 26.9613 70.4472 26.969 70.4398 26.9784C70.4324 26.9879 70.4271 26.9988 70.4242 27.0104C70.415 27.2631 70.3341 27.508 70.1909 27.7164C70.1106 27.8405 70.0624 28.0177 69.9659 28.1556C69.6616 28.5898 69.3386 29.0024 68.9255 29.348C68.6764 29.5563 68.349 29.6612 68.156 29.9389C68.1343 29.9699 68.0708 29.9733 68.026 29.9881C67.7616 30.0659 67.5337 30.2229 67.2585 30.2973C67.0792 30.3465 66.8921 30.445 66.6918 30.4647C66.5633 30.477 66.4741 30.5139 66.4786 30.6616L63.8037 30.6611ZM62.0804 25.0641C62.0804 25.3187 62.1129 25.5786 62.073 25.8268C62.009 26.2207 62.1858 26.5491 62.3507 26.8651C62.4339 27.0247 62.4645 27.2098 62.5802 27.3496C62.7279 27.5318 62.9603 27.6544 62.9952 27.9222C62.9997 27.9542 63.0445 28.0064 63.0686 28.0054C63.269 27.9995 63.3807 28.1418 63.4885 28.2673C63.6284 28.4303 63.8563 28.4126 63.9922 28.5224C64.1243 28.6339 64.2915 28.6952 64.4644 28.6957C64.8548 28.7036 65.2452 28.7006 65.6352 28.6957C65.7543 28.6957 65.8942 28.6996 65.971 28.6031C66.0694 28.4771 66.1915 28.4638 66.3299 28.4633C66.4776 28.4633 66.5953 28.4505 66.7124 28.2989C66.804 28.1807 66.9419 28.0118 67.1556 28.0241C67.2245 28.0281 67.254 27.9517 67.3033 27.9212C67.5115 27.7878 67.5494 27.5347 67.7232 27.3742C67.9591 27.1551 68.0516 26.8326 68.1782 26.5545C68.2929 26.3009 68.1289 25.9528 68.3874 25.7145C68.3874 25.2138 68.574 24.6944 68.2318 24.2276C68.2072 24.1937 68.2121 24.1361 68.2087 24.0888C68.19 23.8293 68.1983 23.591 68.0423 23.3321C67.8695 23.044 67.7764 22.6974 67.5253 22.4576C67.382 22.3208 67.289 22.0958 67.033 22.0992C67.0134 22.0967 66.9945 22.0902 66.9775 22.08C66.9606 22.0698 66.9459 22.0563 66.9345 22.0401C66.7563 21.7846 66.5283 21.6349 66.2014 21.6773C66.1393 21.6852 66.0645 21.6773 66.0291 21.6162C65.9567 21.4902 65.8366 21.501 65.7179 21.4843C65.3148 21.4317 64.9064 21.4335 64.5038 21.4897C64.4412 21.4976 64.3595 21.4823 64.3255 21.5389C64.2212 21.7093 64.0567 21.6773 63.9006 21.6866C63.8086 21.6925 63.7081 21.6689 63.6363 21.7595C63.4063 22.0515 63.0646 22.2267 62.8431 22.533C62.7195 22.7038 62.4984 22.8067 62.5034 23.0608C62.5019 23.1004 62.4877 23.1385 62.463 23.1696C62.2011 23.4921 62.0376 23.8426 62.0765 24.2754C62.1011 24.5368 62.0819 24.8012 62.0819 25.0641H62.0804Z" fill="#DBDCE0"/>
<path d="M76.3276 30.6603C76.3276 30.5328 76.2651 30.4787 76.1376 30.4688C75.9436 30.4541 75.7378 30.4688 75.6024 30.2748C75.5616 30.2162 75.4685 30.2369 75.3976 30.2335C75.2263 30.2251 75.0372 30.2625 74.9545 30.0449C74.948 30.0349 74.9392 30.0265 74.9288 30.0205C74.9185 30.0145 74.9069 30.0111 74.8949 30.0104C74.5188 30.0104 74.3755 29.6756 74.1347 29.4817C73.7561 29.1764 73.4617 28.7865 73.1111 28.4527C73.0896 28.4357 73.0718 28.4145 73.0587 28.3903C73.0457 28.3662 73.0377 28.3397 73.0353 28.3123C73.0294 28.1814 73.0225 28.0544 72.8625 28.01C72.8438 28.0051 72.8172 27.9736 72.8192 27.9608C72.8556 27.7053 72.5637 27.5669 72.5898 27.3158C72.6016 27.2051 72.4657 27.1972 72.4322 27.1282C72.3662 26.9929 72.3657 26.8378 72.3613 26.6851C72.3564 26.5148 72.3928 26.3351 72.2136 26.2125C72.1545 26.1721 72.1732 26.0795 72.1732 26.0086C72.1732 25.3883 72.1732 24.7679 72.1732 24.1476C72.1732 24.0437 72.1732 23.9413 72.2776 23.8733C72.382 23.8054 72.3559 23.6907 72.3603 23.5902C72.3711 23.3628 72.3347 23.1225 72.5573 22.9591C72.5782 22.935 72.5901 22.9043 72.5907 22.8724C72.6257 22.5612 72.802 22.3205 72.9807 22.0807C72.995 22.062 73.0151 22.0403 73.0146 22.0197C73.0112 21.6543 73.3445 21.516 73.5301 21.2851C73.7157 21.0542 73.9496 20.8597 74.1672 20.6568C74.2947 20.5377 74.4656 20.4387 74.6177 20.3393C74.8255 20.2029 75.1253 20.2329 75.2578 19.9813C75.2647 19.968 75.2814 19.9498 75.2922 19.9503C75.5763 19.9725 75.7541 19.6648 76.0588 19.7174C76.2425 19.7494 76.4399 19.7238 76.5684 19.5353C76.6098 19.4747 76.7013 19.4929 76.7722 19.4924H78.7072C78.8135 19.4924 78.9041 19.5087 78.977 19.6062C79.0809 19.7406 79.2487 19.714 79.3974 19.7238C79.5673 19.7352 79.7495 19.6908 79.8686 19.877C79.9075 19.9375 80.0015 19.9163 80.0719 19.9213C80.1635 19.9272 80.2477 19.9429 80.2876 20.0394C80.3235 20.1256 80.3954 20.1473 80.4796 20.1541C80.7258 20.1753 80.9099 20.3467 81.0818 20.4791C81.4737 20.7908 81.8421 21.131 82.1841 21.4968C82.3023 21.6204 82.4874 21.7395 82.4564 21.968C82.4537 22.0006 82.4624 22.0331 82.481 22.06C82.4996 22.0869 82.5269 22.1066 82.5583 22.1157C82.5933 22.1304 82.6523 22.1649 82.6499 22.1811C82.6203 22.4347 82.8724 22.5696 82.9029 22.7961C82.9157 22.8906 82.9349 22.9832 83.0324 23.0378C83.1137 23.0836 83.1107 23.1708 83.1122 23.2505C83.1161 23.4332 83.1181 23.6163 83.1201 23.799C83.1201 23.9113 83.1176 24.0215 83.2333 24.0944C83.3116 24.1436 83.3057 24.2313 83.3057 24.3105C83.3057 24.8196 83.3057 25.3284 83.3057 25.8368C83.3057 25.892 83.3116 25.9727 83.2806 25.9973C83.0482 26.177 83.1329 26.4296 83.1181 26.6571C83.1097 26.7777 83.1181 26.8944 82.9896 26.9682C82.9202 27.0091 82.933 27.0933 82.9236 27.1652C82.899 27.3419 82.9236 27.5379 82.7311 27.6501C82.7215 27.6573 82.7137 27.6666 82.7082 27.6773C82.7028 27.6879 82.6998 27.6997 82.6996 27.7117C82.7277 28.0017 82.4574 28.1016 82.3308 28.2926C82.318 28.3119 82.2865 28.3242 82.2816 28.3419C82.2063 28.7495 81.8464 28.9327 81.5967 29.2C81.4426 29.365 81.3117 29.5742 81.0552 29.6112C80.969 29.624 80.9331 29.7096 80.8809 29.7662C80.6869 29.9809 80.3989 30.0577 80.162 30.1862C79.8814 30.3379 79.5574 30.5102 79.1961 30.4737C79.0651 30.4605 78.9548 30.4979 78.9578 30.6638L76.3276 30.6603ZM80.9139 25.0855C80.9139 24.8314 80.9139 24.5769 80.9139 24.3224C80.9139 24.2446 80.9306 24.1491 80.8553 24.1013C80.7243 24.0186 80.7351 23.8925 80.7194 23.7665C80.7007 23.6188 80.7061 23.4612 80.5476 23.3726C80.4983 23.3426 80.4954 23.2771 80.4919 23.2215C80.4772 22.9723 80.3048 22.7828 80.168 22.6208C79.9065 22.3131 79.6234 22.03 79.2325 21.8286C78.9415 21.6809 78.5742 21.7666 78.3463 21.4909C77.7806 21.4727 77.2227 21.355 76.6639 21.6484C76.3685 21.8025 76.0608 21.9286 75.7747 22.1073C75.661 22.1782 75.6393 22.3008 75.5212 22.3722C75.3101 22.505 75.1422 22.6964 75.0382 22.9231C74.9205 23.1762 74.728 23.4155 74.7605 23.7232C74.7614 23.7431 74.7577 23.763 74.7497 23.7813C74.7417 23.7996 74.7295 23.8157 74.7142 23.8285C74.5321 23.9344 74.5636 24.1087 74.5621 24.2716C74.5621 24.5498 74.5394 24.8295 74.5621 25.1057C74.599 25.5488 74.4365 26.0086 74.7413 26.4306C74.8614 26.5975 74.8708 26.8466 74.9471 27.0544C75.0372 27.3006 75.2115 27.4369 75.3469 27.6211C75.5438 27.8879 75.8048 28.0819 76.0716 28.2725C76.1494 28.3286 76.1622 28.4556 76.2957 28.462C76.4926 28.4719 76.7171 28.4172 76.8372 28.6629C76.8535 28.6964 76.9549 28.6959 77.0169 28.6978C77.176 28.7038 77.3355 28.7033 77.4945 28.7033C77.7653 28.7033 78.0361 28.6752 78.3054 28.7033C78.6008 28.7358 78.8061 28.5216 79.0321 28.4226C79.3275 28.2941 79.6382 28.1361 79.8765 27.8495C80.134 27.5399 80.3994 27.2587 80.5003 26.8579C80.5054 26.8267 80.5215 26.7982 80.5456 26.7777C80.713 26.6792 80.6933 26.5099 80.7199 26.3572C80.7322 26.2799 80.7022 26.1756 80.7691 26.1308C80.9414 26.0141 80.9119 25.8452 80.9134 25.6822C80.9153 25.4833 80.9139 25.2844 80.9139 25.0855Z" fill="#DBDCE0"/>
<path d="M86.6419 20.8268C86.4749 20.8268 86.3075 20.8268 86.1401 20.8268C86.0013 20.8268 85.9299 20.7638 85.9373 20.6244C85.9535 20.2916 85.8777 19.91 86.016 19.6397C86.1844 19.3078 86.1485 18.9912 86.1834 18.6648C86.184 18.6168 86.1986 18.5701 86.2253 18.5303C86.4139 18.3334 86.4124 18.0838 86.4139 17.8361C86.4139 17.7076 86.4139 17.581 86.5468 17.5032C86.599 17.4732 86.602 17.4082 86.6025 17.3521C86.6059 17.1428 86.7251 16.9582 86.7625 16.7755C86.827 16.4614 87.0087 16.1915 87.0441 15.8749C87.0599 15.7361 87.0589 15.5835 87.2101 15.4998C87.2283 15.4894 87.2519 15.4599 87.249 15.4436C87.1741 15.067 87.4794 14.7976 87.5375 14.449C87.5739 14.227 87.6424 13.9424 87.8743 13.7814C87.8925 13.7686 87.9191 13.7439 87.9171 13.7282C87.8807 13.4593 88.1008 13.285 88.1943 13.0748C88.2851 12.8521 88.3875 12.6344 88.5011 12.4224C88.6138 12.2254 88.7615 12.0285 88.8182 11.7862C88.8674 11.5834 89.0063 11.4017 89.1097 11.2166C89.2273 11.0053 89.4051 10.8433 89.5193 10.604C89.6493 10.3258 89.7655 9.99447 90.0757 9.80097C90.1978 9.72465 90.1958 9.50554 90.3111 9.36176C90.3938 9.25935 90.508 9.19386 90.5892 9.09243C90.7626 8.87973 90.8098 8.59316 91.0171 8.41246C91.1947 8.2524 91.3627 8.08207 91.5203 7.90235C91.7729 7.62662 92.0437 7.36665 92.3081 7.10076C92.5627 6.84325 92.8005 6.56899 93.091 6.34151C93.2811 6.1938 93.4254 5.98503 93.6203 5.83141C93.9591 5.56405 94.1654 5.14208 94.6213 5.00471C94.7439 4.96778 94.8468 4.84419 94.9429 4.74473C95.094 4.58815 95.2339 4.41681 95.4559 4.36461C95.5854 4.33409 95.642 4.2169 95.7248 4.1455C95.9818 3.92147 96.3156 3.82546 96.5726 3.59158C96.7149 3.46356 96.9665 3.38183 97.1492 3.26858C97.3708 3.1317 97.616 3.04701 97.842 2.93179C98.0478 2.82691 98.226 2.63243 98.4821 2.62652C98.5181 2.62934 98.5541 2.62065 98.5849 2.60172C98.6157 2.58279 98.6397 2.55458 98.6534 2.52115C98.6923 2.42513 98.7952 2.434 98.8617 2.39017C99.0926 2.23655 99.421 2.27988 99.5958 2.02089C99.6042 2.00858 99.6214 1.99233 99.6328 1.99332C99.9075 2.02384 100.068 1.72251 100.351 1.75402C100.467 1.76682 100.609 1.74073 100.681 1.60631C100.693 1.5857 100.712 1.56903 100.733 1.55809C100.755 1.54715 100.779 1.54237 100.804 1.54427C101.017 1.54181 101.203 1.42511 101.388 1.38178C101.713 1.30645 101.994 1.08636 102.337 1.09916C102.513 1.10507 102.613 0.934703 102.767 0.915993C103.204 0.863308 103.594 0.586592 104.06 0.657987C104.128 0.669869 104.197 0.661755 104.261 0.634641C104.324 0.607526 104.377 0.562591 104.415 0.505349C104.481 0.406873 104.605 0.450203 104.705 0.43937C104.917 0.416229 105.154 0.507811 105.321 0.282794C105.351 0.242911 105.456 0.253744 105.527 0.249312C105.812 0.230602 106.098 0.215831 106.384 0.19712C106.433 0.194166 106.498 0.19712 106.52 0.167085C106.729 -0.0992918 107.02 0.0400513 107.276 0.0114934C107.394 -0.00180085 107.451 0.0735331 107.45 0.187765C107.45 0.514376 107.448 0.840659 107.442 1.16661C107.442 1.19763 107.442 1.24146 107.424 1.2577C107.172 1.47583 107.252 1.78209 107.214 2.05437C107.194 2.19421 107.22 2.33355 107.073 2.43597C106.984 2.49801 107.028 2.62898 107.019 2.73139C107.008 2.95892 106.958 3.18287 106.871 3.39364C106.75 3.67282 106.613 3.9845 106.586 4.30947C106.568 4.51036 106.606 4.73144 106.396 4.86832C106.386 4.8755 106.378 4.88486 106.373 4.89564C106.367 4.90641 106.365 4.91831 106.365 4.93036C106.434 5.24597 106.253 5.51579 106.104 5.7285C105.898 6.02393 105.96 6.37549 105.766 6.67436C105.634 6.87722 105.43 7.11258 105.467 7.41588C105.47 7.46026 105.462 7.50476 105.442 7.54464C105.422 7.58452 105.392 7.6183 105.355 7.64238C105.323 7.66355 105.272 7.70048 105.276 7.72411C105.314 8.0028 105.112 8.20221 104.993 8.3967C104.87 8.60319 104.766 8.82001 104.682 9.04467C104.547 9.38934 104.269 9.61829 104.127 9.95262C104.007 10.2343 103.869 10.5435 103.613 10.7601C103.584 10.7847 103.542 10.8167 103.539 10.8483C103.524 11.0452 103.386 11.1678 103.283 11.3111C103.037 11.6523 102.822 12.0167 102.5 12.2958C102.488 12.3062 102.467 12.3151 102.465 12.3274C102.389 12.7754 101.97 12.9699 101.723 13.2895C101.575 13.483 101.362 13.6647 101.178 13.8439C100.938 14.0773 100.694 14.3156 100.467 14.5662C100.215 14.8444 99.9154 15.0783 99.6544 15.3486C99.4826 15.5263 99.3098 15.7051 99.1035 15.8361C98.7558 16.0547 98.4934 16.4077 98.1409 16.5771C97.8267 16.7282 97.6229 17.0379 97.2718 17.1079C97.1689 17.1281 97.1418 17.2369 97.0655 17.295C96.7898 17.5052 96.4436 17.5973 96.1792 17.7952C95.9823 17.9429 95.6711 17.8937 95.5628 18.165C95.3082 18.1492 95.1408 18.3501 94.9325 18.4412C94.7095 18.5397 94.479 18.6549 94.258 18.7549C94.0369 18.8548 93.8493 19.0803 93.5686 19.0631C93.5326 19.0595 93.4964 19.0665 93.4643 19.0833C93.4323 19.1001 93.4059 19.126 93.3884 19.1576C93.3727 19.1842 93.3456 19.2226 93.3229 19.2231C92.9906 19.2325 92.7321 19.4969 92.3963 19.4925C92.2697 19.4925 92.1393 19.4801 92.0831 19.6431C92.056 19.7214 91.9699 19.7189 91.8975 19.7234C91.705 19.7352 91.4928 19.685 91.3623 19.8928C90.9566 19.8435 90.6597 20.2374 90.2421 20.1621C90.1057 20.137 89.9856 20.1798 89.8571 20.2862C89.7015 20.4152 89.4632 20.3689 89.2593 20.391C89.0752 20.4112 88.8738 20.3551 88.7409 20.5506C88.7217 20.5791 88.6527 20.5772 88.6064 20.5831C88.2573 20.6259 87.9107 20.5397 87.5577 20.749C87.3159 20.8918 86.954 20.8435 86.6419 20.8268Z" fill="#DBDCE0"/>
<path d="M26.5693 25.069C26.5693 23.3979 26.5693 21.7266 26.5693 20.0551C26.5693 19.7454 26.586 19.7252 26.8879 19.7232C27.4856 19.7198 28.0829 19.7272 28.6806 19.7198C28.884 19.7173 28.9701 19.7902 28.9608 19.999C28.9494 20.253 28.9568 20.5081 28.9608 20.7627C28.9608 20.8469 28.9381 20.9547 29.041 20.9931C29.1626 21.0389 29.1622 20.9079 29.2188 20.8528C29.46 20.6159 29.7264 20.4037 29.9573 20.1575C30.1415 19.9606 30.4359 19.966 30.6107 19.7592C30.6452 19.7183 30.7466 19.7326 30.817 19.7247C31.0032 19.7035 31.1991 19.7247 31.3375 19.5465C31.3926 19.4746 31.4995 19.4923 31.5866 19.4918C32.0884 19.4918 32.5906 19.4918 33.0923 19.4918C33.147 19.4874 33.202 19.496 33.2527 19.5168C33.3035 19.5377 33.3486 19.5703 33.3843 19.612C33.4975 19.738 33.6797 19.737 33.8329 19.7203C34.1475 19.6863 34.371 19.8975 34.596 20.0295C34.92 20.2196 35.1825 20.5219 35.4607 20.7833C35.6326 20.9491 35.7937 21.1259 35.9427 21.3126C35.9865 21.3663 35.9772 21.4633 35.9919 21.5406C36.0042 21.6051 36.0569 21.7031 36.0993 21.647C36.1928 21.5234 36.3799 21.4697 36.4011 21.3077C36.4223 21.1457 36.5045 21.0694 36.6123 20.966C36.7773 20.8075 36.9279 20.6312 37.0944 20.4712C37.1457 20.4217 37.2098 20.3876 37.2795 20.3727C37.4868 20.3235 37.6163 20.1669 37.7581 20.028C37.7798 20.0064 37.7985 19.9556 37.8147 19.9576C38.0831 19.9862 38.2357 19.6957 38.5075 19.7154C38.6434 19.7257 38.7931 19.6996 38.8837 19.5548C38.9329 19.479 39.026 19.4943 39.1048 19.4943C39.6628 19.4943 40.2208 19.4943 40.7788 19.4943C40.7951 19.4943 40.8163 19.4889 40.8281 19.4967C41.1009 19.7134 41.4721 19.6706 41.7636 19.8591C41.9244 19.9545 42.0953 20.0317 42.2732 20.0891C42.5942 20.2048 42.773 20.452 42.9955 20.6597C43.2028 20.8542 43.4318 21.0497 43.5652 21.292C43.677 21.4948 43.8513 21.6804 43.8754 21.9321C43.8789 21.9714 43.8754 22.0305 43.9 22.0458C44.1669 22.2388 44.094 22.5254 44.1127 22.7873C44.1167 22.8425 44.1083 22.9242 44.1398 22.9473C44.3722 23.1187 44.2979 23.3644 44.2984 23.584C44.3026 25.7505 44.3038 27.9151 44.3018 30.078C44.3018 30.4162 44.2614 30.4645 43.9197 30.4689C43.3781 30.4765 42.8365 30.4765 42.2949 30.4689C41.9537 30.4645 41.9128 30.4157 41.9128 30.078C41.9108 27.9056 41.909 25.7331 41.9074 23.5604C41.9074 23.4126 41.9384 23.2482 41.74 23.1857C41.7217 23.1797 41.6961 23.1482 41.6981 23.132C41.736 22.8774 41.5125 22.7317 41.4376 22.5209C41.3421 22.2511 41.1117 22.0438 40.8537 21.9257C40.6075 21.8134 40.3835 21.5972 40.0728 21.674C39.7616 21.3683 39.3701 21.5288 39.0127 21.4973C38.8512 21.483 38.6739 21.4599 38.5646 21.6401C38.5505 21.654 38.5335 21.6646 38.5147 21.6711C38.496 21.6776 38.476 21.6798 38.4563 21.6775C38.0131 21.6228 37.7059 21.9065 37.4085 22.1502C37.2697 22.2644 37.0407 22.3845 37.0781 22.6426C36.7985 22.837 36.9432 23.228 36.7039 23.4456C36.6212 23.5205 36.6547 23.6426 36.6547 23.7411C36.6521 25.834 36.6507 27.9269 36.6507 30.0199C36.6507 30.4453 36.631 30.4665 36.2076 30.4674C35.7054 30.4674 35.2036 30.4704 34.7019 30.4674C34.3016 30.465 34.2588 30.4226 34.2588 30.0346C34.2588 28.268 34.2538 26.5013 34.2617 24.7347C34.2617 24.296 34.2223 23.8612 34.2125 23.424C34.2125 23.3329 34.1943 23.2526 34.1066 23.1989C34.0896 23.1891 34.0749 23.1758 34.0633 23.16C34.0516 23.1441 34.0434 23.126 34.0392 23.1069C34.0352 22.7396 33.7881 22.4983 33.5813 22.2418C33.4572 22.0876 33.2942 21.9803 33.112 21.8799C32.8703 21.7474 32.5704 21.7632 32.3828 21.6445C32.0199 21.4146 31.6634 21.5318 31.3074 21.4933C31.1671 21.4786 31.0209 21.4732 30.9263 21.6258C30.886 21.6918 30.7959 21.6878 30.7294 21.6785C30.4157 21.6361 30.2129 21.8026 30.0401 22.032C30.0269 22.0519 30.0098 22.069 29.9899 22.082C29.9699 22.0951 29.9474 22.1039 29.9239 22.1078C29.7402 22.1344 29.6407 22.2117 29.5994 22.4185C29.5733 22.55 29.4128 22.6549 29.3108 22.7701C29.2852 22.7991 29.2242 22.8267 29.2271 22.8474C29.2902 23.2575 28.9499 23.5599 28.9524 23.9641C28.9662 26.009 28.9583 28.0543 28.9573 30.0996C28.9573 30.4665 28.9573 30.4679 28.5816 30.4689C28.0479 30.4689 27.5142 30.4724 26.9804 30.4689C26.6092 30.4655 26.5678 30.4197 26.5678 30.0578L26.5693 25.069Z" fill="#DBDCE0"/>
<path d="M80.6827 8.07451C80.6699 7.17986 80.6802 6.35119 80.727 5.52694C80.727 5.47771 80.7142 5.41419 80.7398 5.38662C81.0387 5.06214 80.8767 4.6643 80.9161 4.30043C80.9328 4.14484 80.9343 4.01091 81.0535 3.86861C81.1726 3.72632 81.1401 3.49047 81.1519 3.29302C81.1628 3.12315 81.1445 2.96559 81.2947 2.81492C81.4158 2.6938 81.338 2.47912 81.3469 2.3063C81.3543 2.16154 81.3469 2.01727 81.5005 1.93356C81.5138 1.92517 81.525 1.91399 81.5335 1.90082C81.542 1.88764 81.5476 1.87277 81.5498 1.85725C81.5587 1.58554 81.6348 1.32028 81.7713 1.0852C81.8152 1.00789 81.792 0.880859 81.922 0.880859C82.0412 0.880859 82.146 0.90991 82.2174 1.04039C82.3949 1.37981 82.5941 1.70743 82.8137 2.02121C82.9407 2.20191 83.0934 2.41511 83.1382 2.67706C83.1687 2.85333 83.3056 3.02172 83.3947 3.18815C83.5424 3.46979 83.665 3.76718 83.8186 4.03848C83.9255 4.22706 83.9486 4.4767 84.1466 4.61506C84.1707 4.6318 84.1997 4.66725 84.1958 4.69138C84.1663 4.9868 84.2864 5.23299 84.4346 5.47475C84.5828 5.71651 84.5946 6.00948 84.6931 6.24976C84.7857 6.47477 84.7965 6.74213 84.9176 6.91348C85.0875 7.15179 85.0516 7.38617 85.09 7.62645C85.1033 7.71212 85.1047 7.81355 85.1884 7.8618C85.3165 7.93714 85.313 8.05285 85.314 8.17348C85.314 8.34056 85.316 8.50764 85.3199 8.67472C85.3199 8.80126 85.3106 8.9283 85.445 9.01151C85.5208 9.06075 85.5026 9.15331 85.5085 9.2316C85.5238 9.44579 85.5385 9.65948 85.5577 9.87169C85.5617 9.92093 85.5577 9.98839 85.5858 10.0076C85.8157 10.1686 85.7409 10.4064 85.7443 10.6191C85.7542 11.2159 85.7522 11.8126 85.7552 12.4094C85.7552 12.5281 85.7438 12.6477 85.8679 12.728C85.9526 12.7831 85.9369 12.8826 85.9374 12.9692C85.9374 13.2716 85.9374 13.5739 85.9374 13.8762C85.9374 13.9811 85.9374 14.0805 85.8315 14.15C85.7256 14.2194 85.7562 14.3351 85.7552 14.4356C85.7509 15.072 85.7478 15.7087 85.7458 16.3455C85.7458 16.4809 85.7567 16.6163 85.6134 16.7034C85.5553 16.7389 85.5641 16.8152 85.5577 16.8787C85.5415 17.1486 85.5228 17.4179 85.5085 17.6877C85.5031 17.8015 85.4972 17.9029 85.3883 17.9831C85.2795 18.0634 85.3253 18.1875 85.3189 18.2953C85.3056 18.5267 85.3642 18.7714 85.1436 18.9551C85.0944 18.9955 85.0944 19.1028 85.0875 19.1816C85.0644 19.4022 85.1328 19.6439 84.9112 19.8153C84.8758 19.8424 84.8812 19.9364 84.8851 19.9984C84.8999 20.2274 84.7694 20.382 84.6252 20.5312C84.5759 20.5844 84.4834 20.6046 84.4622 20.5445C84.4061 20.3874 84.2224 20.3264 84.2037 20.1334C84.185 19.9403 83.9787 19.8542 83.8881 19.6902C83.8511 19.6242 83.7896 19.5716 83.7862 19.4878C83.7812 19.3785 83.7556 19.2835 83.6384 19.2417C83.6178 19.2343 83.5853 19.2106 83.5867 19.1973C83.6114 18.9551 83.4105 18.8 83.3071 18.6365C83.1594 18.4071 83.2086 18.0796 82.9348 17.926C82.9154 17.9118 82.9022 17.8906 82.8979 17.8669C82.8334 17.5513 82.5971 17.3071 82.5079 17.021C82.4301 16.7719 82.2322 16.569 82.2371 16.2898C82.2423 16.2298 82.2314 16.1695 82.2054 16.1151C82.1794 16.0607 82.1394 16.0143 82.0894 15.9806C81.9806 15.9092 82.0234 15.7778 82.0165 15.6704C82.0072 15.5291 82.0348 15.375 81.8688 15.2977C81.8618 15.2939 81.8557 15.2884 81.8511 15.2819C81.8465 15.2753 81.8435 15.2677 81.8422 15.2598C81.8486 14.924 81.5685 14.6689 81.5833 14.3307C81.5892 14.1997 81.5788 14.0805 81.4326 14.0121C81.341 13.9688 81.3592 13.8644 81.3508 13.7767C81.3267 13.5271 81.3671 13.2878 81.1967 13.0382C81.0722 12.855 81.1308 12.5458 81.1115 12.2927C81.1037 12.1878 81.0992 12.0889 80.9934 12.0244C80.9146 11.9751 80.922 11.887 80.921 11.8082C80.9176 11.5694 80.9171 11.3306 80.9141 11.0918C80.9141 10.9505 80.9343 10.8052 80.7797 10.7102C80.7162 10.6713 80.7304 10.5812 80.7304 10.5098C80.693 9.67425 80.6591 8.84016 80.6827 8.07451Z" fill="#DBDCE0"/>
</svg>
