<svg width="160" height="34" viewBox="0 0 160 34" fill="none" xmlns="http://www.w3.org/2000/svg">
<path d="M29.0865 8.76758H29.085V8.76915L29.0865 8.76758Z" fill="#DBDCE0"/>
<path d="M22.7621 12.5799C22.785 12.5853 22.8089 12.5852 22.8318 12.5795C22.8547 12.5738 22.8759 12.5627 22.8936 12.5472C22.9824 12.3631 23.1139 12.2245 23.3314 12.233C23.4899 12.2394 23.5909 12.1932 23.6413 12.0418C23.6512 12.0197 23.6657 11.9999 23.6838 11.9839C23.702 11.9678 23.7234 11.9558 23.7465 11.9487C24.0123 11.8357 24.1879 11.5493 24.5163 11.5542C24.5407 11.5516 24.564 11.5422 24.5834 11.5272C24.6029 11.5121 24.6178 11.492 24.6264 11.4689C24.6504 11.4105 24.6898 11.3597 24.7406 11.3221C24.7913 11.2845 24.8514 11.2615 24.9143 11.2557C25.205 11.2095 25.4118 11.0162 25.6414 10.8648C25.7893 10.82 26.0459 10.9359 26.0018 10.6089C25.989 10.5122 26.0871 10.5293 26.151 10.5243L26.5249 10.4959C26.5896 10.4916 26.687 10.5037 26.6735 10.4092C26.6294 10.0851 26.8767 10.1903 27.0289 10.1547C27.0619 10.0757 27.1115 10.0047 27.1744 9.94653C27.2374 9.8884 27.3121 9.8445 27.3935 9.81783L27.6735 9.8093C27.7446 9.61099 27.9116 9.53139 28.0922 9.46884C28.1874 9.42193 28.3822 9.53352 28.38 9.37218C28.375 9.07863 28.5783 9.15113 28.7304 9.11914C28.759 9.03742 28.8059 8.96331 28.8675 8.90246C28.9291 8.84161 29.0038 8.79563 29.0858 8.76802C29.174 8.50432 29.1569 8.46808 28.9095 8.44533C28.8548 8.44036 28.7965 8.45173 28.7546 8.40126C28.4899 8.2775 28.2625 8.0863 28.095 7.84686C28.0715 7.81149 28.0387 7.78324 28.0002 7.76519C27.9617 7.74715 27.9191 7.74 27.8768 7.74451C27.628 7.74451 27.4304 7.65496 27.3309 7.40974C27.0644 7.39766 26.7993 7.38344 26.6912 7.07426C26.5455 7.02592 26.2854 7.14533 26.3273 6.81838C26.3373 6.74162 26.2562 6.74304 26.2008 6.73948C26.0672 6.73024 25.9328 6.71887 25.7985 6.71034C25.7274 6.71034 25.6436 6.71034 25.6564 6.61368C25.6912 6.35496 25.5234 6.36704 25.3543 6.37344C25.1666 6.318 25.0124 6.22275 24.9378 6.03014L24.6577 6.01947C24.4651 5.97043 24.3649 5.8098 24.2448 5.67404C24.2171 5.6478 24.1842 5.62786 24.1481 5.61559C24.112 5.60332 24.0737 5.59901 24.0358 5.60296C23.8112 5.63424 23.6861 5.51625 23.5958 5.33429C23.3385 5.26677 23.2035 4.96185 22.9035 4.97891C22.6669 4.86945 22.5098 4.60291 22.2056 4.62352C22.0897 4.54463 21.9355 4.52046 21.8772 4.35912C21.8502 4.28306 21.7564 4.27027 21.6789 4.25748C21.2865 4.19209 21.0442 3.91417 20.7997 3.63911C20.5573 3.57372 20.2453 3.63911 20.15 3.29652L19.8224 3.27732C19.7397 3.25256 19.6638 3.20946 19.6002 3.15125C19.5365 3.09304 19.4869 3.02121 19.4549 2.94113C19.3518 2.88071 19.1343 2.9852 19.1358 2.853C19.1358 2.54594 18.9403 2.59783 18.7662 2.57935C18.6842 2.55424 18.6089 2.51134 18.5455 2.45371C18.4821 2.39608 18.4322 2.32515 18.3994 2.246L18.0689 2.23107C17.9865 2.20619 17.9108 2.16313 17.8473 2.10506C17.7839 2.047 17.7342 1.97541 17.7021 1.89559C17.5934 1.85294 17.3794 1.94605 17.3794 1.81954C17.3794 1.52172 17.1861 1.56082 17.0113 1.53523C16.7774 1.45491 16.6637 1.14857 16.3638 1.19264C16.105 1.12725 15.9721 0.81664 15.6693 0.837252V0.839384C15.4362 0.723529 15.2777 0.461255 14.9735 0.483999C14.8573 0.422716 14.725 0.398709 14.5946 0.415241C14.4643 0.431772 14.3422 0.488042 14.2449 0.576399C14.1395 0.670892 14.0261 0.756032 13.9059 0.830855C13.8007 0.934627 13.6138 0.791052 13.5413 0.92752C13.4688 1.06399 13.3224 1.10592 13.2094 1.18766L13.1013 1.19477C12.8639 1.23955 12.7516 1.49827 12.5114 1.53878C12.4055 1.57148 12.2036 1.48974 12.2015 1.60559C12.1944 2.00576 11.893 1.8437 11.7082 1.89985C11.6414 1.92046 11.517 1.8764 11.5319 1.98941C11.576 2.31494 11.3287 2.20762 11.1766 2.24529C11.1452 2.32547 11.0958 2.39737 11.0322 2.45542C10.9686 2.51347 10.8925 2.55611 10.8098 2.58006L10.4793 2.59499C10.4473 2.67452 10.398 2.74592 10.3349 2.80396C10.2718 2.862 10.1966 2.90522 10.1147 2.93047C10.0088 2.97667 9.7941 2.87645 9.79624 3.01221C9.80263 3.33205 9.58301 3.24747 9.41882 3.28443C9.23544 3.65616 8.76064 3.56874 8.51543 3.85305C8.48825 3.88759 8.45291 3.91484 8.41259 3.93233C8.37226 3.94983 8.32822 3.95702 8.28443 3.95327C8.08044 3.90991 8.01789 4.05633 7.94468 4.1928C7.68738 4.37404 7.4706 4.63418 7.11237 4.62708C7.08776 4.62801 7.06396 4.63611 7.04388 4.65038C7.02381 4.66464 7.00833 4.68446 6.99936 4.70739C6.94889 4.87087 6.78613 4.89006 6.67383 4.96825C6.56508 5.06349 6.38028 4.92631 6.30778 5.06065C6.23528 5.19498 6.09242 5.24047 5.98367 5.32932C5.89695 5.51554 5.77044 5.63139 5.54512 5.60012C5.50659 5.59642 5.46771 5.60083 5.43098 5.61308C5.39425 5.62532 5.3605 5.64512 5.33189 5.6712C5.19898 5.85742 5.0419 5.99318 4.78886 5.9555C4.75968 5.95505 4.73077 5.96121 4.7043 5.97351C4.67784 5.98582 4.6545 6.00397 4.63605 6.02658C4.56497 6.22204 4.41073 6.31658 4.22238 6.37131L3.9466 6.38339C3.91488 6.46296 3.86572 6.5344 3.80274 6.59246C3.73977 6.65052 3.66457 6.69372 3.58269 6.71887C3.47536 6.76578 3.25858 6.67125 3.26071 6.79492C3.26426 7.10269 3.05601 7.04369 2.88898 7.07497C2.86148 7.15712 2.81383 7.23106 2.75038 7.29004C2.68693 7.34902 2.60971 7.39116 2.52577 7.41258C2.45896 7.58175 2.37367 7.72106 2.15546 7.7104C2.05169 7.70542 1.97848 7.77721 1.92375 7.86321C1.89063 7.91639 1.8453 7.9609 1.79153 7.99304C1.73775 8.02518 1.67709 8.04402 1.61457 8.04801C1.52847 8.05919 1.44735 8.09469 1.38072 8.15036C1.09641 8.36999 0.773014 8.53276 0.487285 8.75025C0.438732 8.71159 0.37818 8.69113 0.316127 8.69243C0.254073 8.69373 0.19443 8.7167 0.147537 8.75736C0.0345242 8.89383 0.050872 9.05375 0.050872 9.20728C0.050872 10.1678 0.050872 11.129 0.050872 12.0909C0.050872 16.5474 0.050872 21.0037 0.050872 25.4597C0.050872 25.9431 0.0608227 25.9537 0.439663 26.0035C0.460038 26.012 0.47994 26.0212 0.499368 26.0312V26.3006C0.586082 26.4164 0.810685 26.2849 0.827743 26.4179C0.873233 26.7654 1.15043 26.6439 1.33239 26.7022C1.4191 26.7306 1.54562 26.6865 1.54562 26.8329C1.54562 26.9794 1.65792 26.9659 1.75245 27.0092C1.89461 27.0739 2.13911 26.9801 2.16399 27.1357C2.20948 27.42 2.37722 27.349 2.54283 27.3454C2.61391 27.4876 2.8577 27.3191 2.86836 27.4932C2.88542 27.7847 3.0752 27.6994 3.2337 27.7065C3.20029 27.9766 3.32752 28.0789 3.58908 28.0562C3.70281 28.0469 3.81795 28.0562 3.93239 28.0562C4.02123 28.1543 4.24299 28.0263 4.25152 28.1727C4.26574 28.4293 4.41571 28.403 4.57776 28.4009C4.52801 28.7421 4.71992 28.7861 4.99214 28.7435L5.27645 28.7534C5.23665 29.0378 5.34753 29.1572 5.63823 29.0896C5.65315 29.097 5.66929 29.1016 5.68585 29.1031C5.64818 29.3576 5.74485 29.4813 6.01423 29.4514C6.12023 29.4447 6.22651 29.4432 6.33266 29.4472C6.43714 29.4983 6.65179 29.3967 6.65037 29.5303C6.65037 29.8452 6.85649 29.7777 7.02708 29.8011C6.97093 30.0762 7.08678 30.1792 7.3583 30.1494C7.45608 30.1428 7.55425 30.144 7.65184 30.153C7.67551 30.1546 7.69926 30.1546 7.72292 30.153C7.7151 30.3264 7.67317 30.5218 7.95961 30.4941C7.99301 30.4906 8.05769 30.5169 8.05912 30.5339C8.09252 30.8993 8.39389 30.7884 8.60001 30.8396C8.67109 30.858 8.77486 30.8396 8.7706 30.9483C8.76349 31.1388 8.90138 31.1061 9.0151 31.1509C9.14588 31.202 9.37688 31.1196 9.39821 31.2696C9.4373 31.5468 9.59722 31.5006 9.76994 31.4871C9.84883 31.615 10.0805 31.4821 10.0891 31.6043C10.1097 31.8993 10.2916 31.846 10.4693 31.8375C10.5589 31.9398 10.7913 31.8176 10.7906 31.9498C10.7906 32.2675 11.0038 32.163 11.1623 32.1957C11.1083 32.4985 11.2547 32.5816 11.5263 32.5283C11.635 32.571 11.8475 32.4765 11.8489 32.6094C11.8525 32.9072 12.0394 32.8724 12.2185 32.8873C12.2463 32.9134 12.2793 32.9332 12.3153 32.9455C12.3514 32.9577 12.3896 32.9621 12.4275 32.9584C12.6521 32.9271 12.7779 33.0444 12.8675 33.227L12.9144 33.2398C13.0025 33.3005 13.1094 33.3278 13.2158 33.3166C13.3131 33.3272 13.4119 33.3358 13.4723 33.4282C13.6095 33.6414 13.8334 33.6322 14.041 33.6499C14.2293 33.6663 14.348 33.5654 14.3381 33.3777C14.3046 32.775 14.4305 32.185 14.4617 31.588C14.4731 31.379 14.4887 31.1836 14.6607 31.0386C14.7003 30.9186 14.7158 30.7921 14.7062 30.6661C14.7062 26.3067 14.7062 21.9473 14.7062 17.588C14.7062 17.4501 14.7283 17.3037 14.6387 17.1835C14.8448 17.0677 15.0872 17.0904 15.304 17.0151C15.2379 16.7073 15.4362 16.6803 15.6594 16.6803C15.7468 16.4863 15.8847 16.3647 16.1093 16.359C16.1711 16.359 16.2422 16.3846 16.2941 16.3228C16.3019 16.3104 16.3085 16.2973 16.314 16.2837C16.4562 15.9937 16.7568 16.0506 16.9978 15.9766C17.2487 15.6923 17.4768 15.3796 17.9068 15.3561C17.9779 15.3519 18.0554 15.3277 18.0781 15.2616C18.1343 15.1003 18.2914 15.0747 18.4072 14.9979C18.5017 14.8956 18.6304 14.9432 18.7427 14.9212C18.8266 14.7833 18.9616 14.7079 19.0981 14.6368C19.1275 14.5557 19.1763 14.4831 19.2402 14.4251C19.3042 14.3671 19.3813 14.3256 19.4648 14.3042L19.7427 14.2907C19.8671 14.1592 19.9659 13.9957 20.1593 13.9474L20.4393 13.9374C20.4692 13.8565 20.518 13.7839 20.5817 13.7256C20.6454 13.6674 20.7221 13.6252 20.8053 13.6027C20.924 13.5508 21.1565 13.6595 21.1607 13.5231C21.1785 13.1492 21.445 13.2864 21.6291 13.2388C21.7002 13.2189 21.8459 13.2786 21.8324 13.1528C21.7976 12.8329 22.04 12.9353 22.1878 12.8919C22.3044 12.6531 22.5005 12.56 22.7621 12.5799ZM7.33058 29.1856C7.33051 29.1868 7.33051 29.188 7.33058 29.1891C7.32986 29.1965 7.32986 29.2039 7.33058 29.2112L7.29788 29.1948L7.33058 29.1856Z" fill="#DBDCE0"/>
<path d="M143.242 19.1285C143.163 19.0098 143.281 18.84 143.124 18.734C142.879 18.5691 142.71 18.3282 142.534 18.0944L142.539 18.0901C142.381 18.0226 142.252 17.9008 142.176 17.7468L141.849 17.729C141.768 17.7039 141.693 17.6609 141.63 17.6031C141.567 17.5453 141.517 17.4742 141.485 17.395L141.148 17.3807C141.115 17.3533 141.077 17.3329 141.036 17.3206C140.995 17.3084 140.951 17.3047 140.909 17.3097C140.812 17.3282 140.711 17.3118 140.625 17.2633C140.538 17.2148 140.472 17.1373 140.437 17.0445L139.753 17.0261C139.636 16.9422 139.499 16.955 139.366 16.95C139.127 16.9372 138.861 17.0211 138.694 16.7496C138.659 16.6927 138.569 16.719 138.503 16.719C138.416 16.719 138.33 16.719 138.266 16.6479C137.974 16.5541 137.675 16.611 137.379 16.6039C137.101 16.5953 136.802 16.6749 136.612 16.3672C136.573 16.3046 136.47 16.3203 136.399 16.3174C136.275 16.3212 136.151 16.3157 136.027 16.3011C135.999 16.2924 135.97 16.2855 135.941 16.2805C135.737 16.3096 135.688 16.1262 135.585 16.021C135.263 16.0409 135.048 15.8952 134.936 15.5946C134.936 15.4595 134.951 15.3259 134.794 15.2513C134.705 15.2086 134.705 15.1091 134.702 15.021C134.698 14.8376 134.714 14.6535 134.698 14.4708C134.676 14.2278 134.736 14.0366 134.964 13.9193C135.042 13.7942 135.115 13.6641 135.265 13.608C135.277 13.5993 135.291 13.5928 135.306 13.5888C135.392 13.4388 135.487 13.2988 135.672 13.2576L136.004 13.2433C136.126 13.0543 136.31 12.991 136.523 12.9832C136.621 12.9895 136.718 12.9646 136.8 12.9121C136.932 12.7074 137.122 12.6278 137.363 12.6328C137.642 12.6399 137.921 12.6463 138.198 12.6328C138.436 12.6193 138.613 12.6762 138.691 12.9207C138.752 12.9665 138.828 12.9875 138.904 12.9797C139.138 12.9498 139.308 13.0323 139.413 13.2441L139.743 13.2604C139.922 13.3073 140.027 13.4409 140.113 13.5902L140.442 13.6058C140.525 13.6314 140.601 13.6772 140.662 13.7393C140.723 13.8013 140.768 13.8776 140.792 13.9612C140.797 14.0721 140.802 14.183 140.806 14.2946C140.886 14.3321 140.957 14.3854 141.016 14.4514C141.074 14.5174 141.119 14.5946 141.146 14.6784C141.355 14.7281 141.445 14.8561 141.421 15.0722C141.416 15.1149 141.419 15.1583 141.431 15.1999C141.442 15.2414 141.462 15.2802 141.489 15.3138C141.515 15.3346 141.545 15.3501 141.578 15.3593C142.151 15.3984 142.726 15.3693 143.301 15.3749C143.388 15.3805 143.474 15.352 143.54 15.2953C143.54 15.0821 143.54 14.8689 143.54 14.6556C143.316 14.5306 143.3 14.3116 143.276 14.0927C143.259 13.9264 143.31 13.7473 143.195 13.5952C143.191 13.4857 143.186 13.3756 143.181 13.2661C143.119 13.1666 142.951 13.19 142.924 13.0529C142.893 12.8937 142.772 12.8432 142.64 12.7998C142.529 12.5489 142.277 12.4089 142.142 12.1786C141.91 11.991 141.659 11.8232 141.489 11.5723L141.161 11.5581C141.127 11.5307 141.088 11.5103 141.047 11.4981C141.005 11.4859 140.962 11.4821 140.919 11.487C140.69 11.5155 140.534 11.4273 140.451 11.212C140.197 11.1821 139.944 11.126 139.687 11.1309C139.415 11.1359 139.177 11.0762 139.022 10.8296C138.821 10.7329 138.605 10.7699 138.396 10.7741C137.724 10.7862 137.05 10.7294 136.378 10.8054C136.226 10.8765 136.201 11.1331 135.97 11.0961C135.94 11.1014 135.911 11.1093 135.882 11.1196C135.574 11.134 135.268 11.1649 134.964 11.212C134.884 11.433 134.702 11.5169 134.49 11.5574L134.27 11.5716C134.096 11.8524 133.825 12.023 133.559 12.2014C133.324 12.2014 133.153 12.2596 133.211 12.5489C133.184 12.6303 133.14 12.7048 133.082 12.767C133.023 12.8293 132.951 12.8776 132.872 12.9086L132.864 12.9036C132.803 13.0641 132.683 13.1947 132.528 13.2682L132.51 13.6009C132.363 13.8255 132.439 14.0757 132.428 14.3159C132.411 14.7672 132.423 15.2193 132.422 15.6706C132.411 15.7866 132.441 15.9028 132.508 15.9983L132.523 16.3345C132.603 16.3663 132.674 16.4158 132.731 16.4793C132.789 16.5427 132.831 16.6184 132.854 16.7005C132.879 16.8733 132.818 17.1156 133.139 17.0474C133.186 17.2827 133.338 17.4134 133.565 17.4703C133.494 17.7973 133.746 17.7191 133.914 17.7468C133.995 17.7731 134.069 17.8166 134.132 17.8742C134.195 17.9318 134.245 18.0023 134.278 18.0808L134.611 18.0979C134.757 18.2166 134.995 18.0979 135.095 18.218C135.244 18.3986 135.425 18.4042 135.614 18.4348L135.958 18.4405C136.09 18.5514 136.249 18.5244 136.401 18.5265C136.63 18.5265 136.862 18.4938 137.017 18.7362C137.076 18.8279 137.209 18.8073 137.315 18.8122C137.546 18.8229 137.777 18.7866 138.007 18.8371C138.039 18.8468 138.071 18.8537 138.104 18.8577C138.273 18.8918 138.506 18.798 138.602 18.9245C138.781 19.1584 139.001 19.0987 139.221 19.1093C139.304 19.1129 139.396 19.0852 139.46 19.169C139.61 19.2565 139.835 19.1484 139.929 19.2614C140.077 19.4405 140.26 19.4526 140.449 19.4896L140.455 19.4846C140.585 19.5656 140.739 19.619 140.792 19.7867C140.875 19.8104 140.951 19.8558 141.011 19.9182C141.072 19.9806 141.115 20.0578 141.136 20.1421L141.156 20.4761C141.529 20.6183 141.529 21.0348 141.16 21.1869C141.153 21.2999 141.146 21.4122 141.138 21.5245C141.114 21.6068 141.072 21.6825 141.014 21.7454C140.956 21.8083 140.884 21.8568 140.804 21.887C140.857 22.1763 140.691 22.2424 140.448 22.2325C140.363 22.4457 140.207 22.5367 139.975 22.5047C139.897 22.4933 139.819 22.5121 139.755 22.5573C139.728 22.5736 139.705 22.5954 139.688 22.6212C139.617 22.7911 139.453 22.8167 139.3 22.8238C138.451 22.8657 137.601 22.8643 136.752 22.8238C136.599 22.8167 136.44 22.789 136.362 22.6212C136.344 22.595 136.319 22.5736 136.291 22.5587C136.106 22.5438 135.914 22.5686 135.744 22.4649C135.666 22.4066 135.676 22.2922 135.596 22.2353C135.347 22.1834 135.064 22.1905 134.956 21.8799C134.877 21.848 134.805 21.7999 134.745 21.7388C134.685 21.6776 134.638 21.6046 134.608 21.5245H134.603C134.524 21.4932 134.452 21.4441 134.395 21.381C134.337 21.318 134.294 21.2426 134.27 21.1606V21.1649C134.168 21.049 134.325 20.8457 134.135 20.7619C133.989 20.6979 133.997 20.5714 133.992 20.447C133.987 20.3226 133.997 20.2153 133.904 20.1257C133.865 20.0819 133.812 20.0534 133.754 20.0454C133.157 20.0113 132.56 20.0113 131.963 20.0454C131.904 20.046 131.847 20.0691 131.805 20.1098C131.762 20.1506 131.736 20.2061 131.733 20.265C131.709 20.4555 131.677 20.6496 131.804 20.8209L131.809 20.8173C131.866 20.9851 131.825 21.1585 131.836 21.3284C131.842 21.4122 131.815 21.5124 131.907 21.5601C132.041 21.6269 132.072 21.7662 132.149 21.8721C132.239 21.9823 132.105 22.1664 132.24 22.2396C132.375 22.3128 132.417 22.4578 132.503 22.5679L132.51 22.563C132.668 22.6433 132.823 22.725 132.773 22.9468C132.764 23.0411 132.792 23.1352 132.852 23.2091C132.933 23.236 133.007 23.2817 133.067 23.3424C133.128 23.4032 133.173 23.4773 133.2 23.5588C133.299 23.6462 133.428 23.6391 133.545 23.6696C133.867 23.7613 134.066 24.0008 134.255 24.2553C134.326 24.3107 134.406 24.2681 134.478 24.288C134.746 24.3641 135.072 24.3008 135.246 24.605L135.24 24.615C135.311 24.6621 135.395 24.6868 135.481 24.686C135.708 24.6533 135.852 24.7635 135.957 24.9476L136.641 24.9639C136.737 25.0457 136.855 25.0507 136.97 25.0514C137.569 25.0547 138.168 25.0547 138.767 25.0514C138.883 25.0514 139 25.0457 139.096 24.9654L139.38 24.9511C139.414 24.856 139.482 24.7768 139.571 24.7286C139.66 24.6805 139.764 24.6669 139.862 24.6903C139.948 24.6967 140.035 24.6967 140.121 24.6903C140.345 24.6818 140.578 24.7493 140.786 24.61L140.78 24.6007C140.869 24.3292 141.085 24.3164 141.319 24.3335C141.378 24.3301 141.435 24.3112 141.485 24.2788C141.549 24.116 141.687 24.035 141.834 23.9653C142.005 23.944 142.161 23.8568 142.269 23.7222C142.385 23.5801 142.515 23.4088 142.676 23.3142C142.747 23.2771 142.808 23.2229 142.853 23.1564C142.898 23.0899 142.926 23.0132 142.935 22.9333C142.931 22.8546 142.953 22.7768 142.997 22.7115C143.041 22.6462 143.105 22.5968 143.179 22.5708C143.304 22.3192 143.275 21.9908 143.554 21.8159C143.559 21.693 143.578 21.57 143.587 21.4485C143.628 20.9062 143.67 20.361 143.555 19.8194C143.314 19.6595 143.249 19.4079 143.242 19.1285Z" fill="#DBDCE0"/>
<path d="M135.594 22.2305L135.595 22.2317H135.596L135.594 22.2305Z" fill="#DBDCE0"/>
<path d="M56.0688 23.4809C56.0645 20.8738 56.0773 18.2667 56.0602 15.6625C56.056 15.4457 56.1043 15.2239 56.0012 15.0157C55.7823 14.9076 55.6949 14.7427 55.6949 14.4897C55.6939 14.309 55.67 14.1292 55.6238 13.9545C55.4319 13.8621 55.3267 13.7206 55.3495 13.4968C55.3559 13.4535 55.3524 13.4093 55.3392 13.3675C55.326 13.3258 55.3035 13.2876 55.2734 13.2558L55.2784 13.2508C55.0453 13.0376 54.7887 12.8407 54.6387 12.55C54.6671 12.2856 54.5356 12.1847 54.2833 12.2053C54.2638 12.1876 54.2426 12.1719 54.2201 12.1584C54.0495 12.152 54.0019 12.0162 53.945 11.8954C53.8227 11.7866 53.6415 11.7419 53.5846 11.5627L53.5804 11.5663C53.3145 11.5151 52.9954 11.5663 52.8859 11.2109C52.8149 11.1747 52.7317 11.2045 52.6578 11.1875C52.3486 11.1164 51.9946 11.1512 51.7921 10.8264C51.7137 10.7891 51.6272 10.772 51.5405 10.7766C50.8188 10.7724 50.0974 10.7724 49.3762 10.7766C49.2893 10.7719 49.2027 10.7895 49.1246 10.8278C48.9639 11.083 48.7137 11.1334 48.4394 11.1363C48.3254 11.1275 48.2107 11.1351 48.0989 11.159C47.9148 11.2059 47.6803 11.1555 47.6092 11.4199C47.5999 11.4547 47.5466 11.4711 47.5104 11.4725C47.2019 11.486 46.961 11.6523 46.7172 11.8136C46.5594 11.9331 46.2957 11.8463 46.1948 12.0866C46.1813 12.12 46.108 12.0823 46.0867 12.0333C46.07 11.969 46.04 11.9089 45.9986 11.857L45.9922 11.2273C45.9048 11.1342 45.7889 11.1256 45.6723 11.1249C45.0767 11.1206 44.4804 11.1192 43.8848 11.1249C43.778 11.1157 43.6716 11.1458 43.5855 11.2095C43.4903 11.3609 43.5244 11.5301 43.5237 11.6921C43.5237 14.8939 43.5237 18.0954 43.5237 21.2967C43.5237 22.1802 43.5237 23.063 43.5237 23.9458C43.5237 24.2862 43.5905 24.3523 43.9345 24.3609C44.3716 24.3722 44.8088 24.368 45.2459 24.3609C45.6723 24.3559 45.7313 24.2898 45.7434 23.8669C45.7434 23.7894 45.7434 23.7119 45.7434 23.6338C45.7434 21.4706 45.7434 19.3073 45.7434 17.1437C45.7434 16.4209 45.6496 15.6852 46.0057 15.0057C46.0825 15.0057 46.2132 15.0242 46.2267 14.9936C46.3213 14.7754 46.6198 14.6717 46.6532 14.5139C46.7094 14.258 46.8359 14.3085 46.9844 14.3006C47.0555 14.14 47.1486 14.0028 47.3398 13.9765C47.4478 13.8216 47.553 13.6645 47.7499 13.6076L48.0342 13.6012C48.1202 13.388 48.2759 13.3056 48.5019 13.3311C48.5884 13.3398 48.6749 13.3143 48.7429 13.2601L48.7372 13.2522C48.8367 13.0703 49.0073 13.0156 49.1985 13.0006C49.5069 12.9772 49.8168 12.9814 50.126 12.985C50.2056 12.985 50.2852 12.985 50.3648 12.985C50.6605 13.0063 51.0095 12.8585 51.1893 13.2444L51.1829 13.2565C51.3834 13.27 51.576 13.3418 51.7793 13.3333C52.006 13.28 52.1013 13.4257 52.1809 13.5963L52.1759 13.6019C52.2561 13.6301 52.3293 13.6751 52.3906 13.734C52.4519 13.7928 52.4999 13.8641 52.5313 13.9431C52.6114 13.9738 52.6839 14.0215 52.7439 14.0828C52.8039 14.1442 52.8499 14.2177 52.8788 14.2985C52.9593 14.3277 53.0318 14.3755 53.0904 14.438C53.1489 14.5005 53.1919 14.5759 53.2157 14.6581C53.22 14.752 53.2236 14.8458 53.2278 14.9425C53.5484 15.0782 53.5292 15.3774 53.5676 15.649L53.5825 15.9873C53.8498 16.2098 53.8284 16.5204 53.8291 16.8196C53.8291 19.2547 53.8291 21.6903 53.8291 24.1263C53.8291 24.299 53.8035 24.4817 53.9187 24.6317C54.5058 24.7738 55.0943 24.7376 55.6842 24.6523C56.0354 24.4973 56.0937 24.2045 56.0617 23.864C56.0595 23.734 56.0688 23.6067 56.0688 23.4809Z" fill="#DBDCE0"/>
<path d="M29.4199 17.745C29.3083 17.772 29.0965 17.6696 29.0986 17.8239C29.1036 18.143 28.8854 18.0485 28.7304 18.0847C28.6939 18.1617 28.6368 18.227 28.5654 18.2734C28.494 18.3198 28.4111 18.3455 28.326 18.3477C28.2213 18.3445 28.1187 18.3779 28.036 18.4422C27.9202 18.7464 27.6458 18.7493 27.3878 18.7834C27.2862 19.0386 27.0871 19.126 26.8263 19.1082C26.8035 19.1027 26.7797 19.103 26.757 19.1089C26.7343 19.1149 26.7134 19.1264 26.6962 19.1423C26.6045 19.2134 26.5946 19.3335 26.4887 19.4075C26.2513 19.5738 26.0423 19.7806 25.7239 19.7792C25.6993 19.7799 25.6755 19.7877 25.6553 19.8017C25.6351 19.8157 25.6194 19.8353 25.6102 19.8581C25.5583 20.018 25.3969 20.0408 25.2875 20.1232C24.9875 20.1097 24.8532 20.4153 24.5952 20.4786C24.4978 20.5454 24.3379 20.4395 24.2789 20.5617C24.2078 20.7103 24.0607 20.738 23.9512 20.824C23.8439 20.8745 23.6285 20.7778 23.6271 20.9036C23.6236 21.205 23.4366 21.168 23.2547 21.178C23.2246 21.2583 23.1763 21.3307 23.1137 21.3894C23.0511 21.448 22.9757 21.4915 22.8936 21.5163L22.5617 21.5341C22.4195 21.6762 22.4565 21.8603 22.4565 22.0316C22.4536 24.3326 22.4536 26.6331 22.4565 28.9332C22.4527 29.0498 22.4581 29.1665 22.4728 29.2822C22.4934 29.4094 22.556 29.5032 22.6896 29.5217C22.8815 29.548 23.0777 29.5835 23.2476 29.4442V29.44C23.2794 29.3607 23.3285 29.2896 23.3913 29.2318C23.4542 29.174 23.5292 29.131 23.6108 29.1059L23.8951 29.0967C23.9583 28.8934 24.131 28.8209 24.3066 28.7512L24.5909 28.7392C24.6691 28.5522 24.8283 28.4627 25.006 28.3951C25.0456 28.3074 25.1115 28.2341 25.1945 28.1854C25.2775 28.1366 25.3735 28.1148 25.4694 28.1229C25.5032 28.1239 25.5368 28.1181 25.5683 28.1059C25.5998 28.0937 25.6285 28.0753 25.6528 28.0518C25.7608 27.8045 25.9563 27.7114 26.2172 27.7306C26.2401 27.7362 26.264 27.736 26.2869 27.73C26.3097 27.7241 26.3307 27.7125 26.3479 27.6965C26.3888 27.5927 26.4627 27.5053 26.5584 27.448C26.654 27.3906 26.766 27.3665 26.8768 27.3794C26.9105 27.3857 26.9453 27.3804 26.9756 27.3644C27.0059 27.3484 27.0299 27.3227 27.0438 27.2913C27.149 27.0468 27.4702 27.0404 27.5825 26.8073C27.9521 26.8123 28.1433 26.4739 28.4504 26.3588C28.5634 26.3197 28.7702 26.4299 28.7781 26.2394C28.788 25.9785 28.9501 26.0261 29.0993 26.0148C29.5301 25.9302 29.5372 25.9302 29.5379 25.5769C29.5412 23.0926 29.5412 20.6084 29.5379 18.1245C29.5251 17.9902 29.5336 17.8502 29.4199 17.745Z" fill="#DBDCE0"/>
<path d="M82.5264 10.8441C82.299 10.7339 82.068 10.7517 81.8348 10.8242C81.7332 10.9045 81.7069 11.0637 81.5335 11.0708C81.2918 11.0801 81.0551 11.1533 80.8099 11.1298C80.7047 11.1298 80.5967 11.1298 80.4943 11.1298C80.3621 11.1298 80.2029 11.0964 80.1176 11.2172C79.9428 11.4646 79.6663 11.4717 79.4189 11.5527C79.3479 11.7062 79.2391 11.8022 79.0636 11.7965C78.8873 11.8285 78.7046 11.8406 78.6208 12.0453C78.5909 12.1164 78.4964 12.1256 78.4352 12.169C78.3158 12.2983 78.2561 12.4902 78.0535 12.5314C77.9711 12.5826 77.9825 12.7127 77.851 12.7532C77.7347 12.51 77.687 12.2397 77.7131 11.9714C77.7557 11.5989 77.5944 11.3558 77.3257 11.1476C76.7095 11.0708 76.0904 11.1184 75.472 11.1206C75.3929 11.1234 75.3174 11.1541 75.2588 11.2073C75.17 11.3374 75.1877 11.4866 75.1877 11.6337C75.1877 15.7008 75.1877 19.7673 75.1877 23.8334C75.1877 23.9755 75.1742 24.1262 75.2588 24.2599C75.4081 24.3842 75.6078 24.365 75.7748 24.4432C76.207 24.6458 76.6441 24.5911 77.072 24.4248C77.4622 24.2719 77.475 24.2485 77.4764 23.8277C77.4764 22.7616 77.4764 21.6954 77.4764 20.6292C77.4764 19.274 77.4764 17.9181 77.4764 16.5615C77.4764 16.4023 77.4387 16.2239 77.6186 16.1159C77.6469 16.0973 77.671 16.0731 77.6896 16.0448C77.6967 15.7605 77.7358 15.4897 78.0386 15.3546C78.0616 15.2719 78.1048 15.1961 78.1642 15.1341C78.2236 15.0721 78.2974 15.0258 78.3791 14.9992C78.4038 14.9163 78.4482 14.8407 78.5087 14.7788C78.5691 14.7168 78.6437 14.6705 78.7259 14.6439C78.8354 14.5863 79.0678 14.7085 79.0607 14.5365C79.0472 14.2089 79.2597 14.3105 79.4161 14.2892C79.4484 14.2099 79.4973 14.1384 79.5596 14.0797C79.6219 14.021 79.6961 13.9763 79.7772 13.9487L79.7729 13.9423C79.8603 13.7334 80.0153 13.6474 80.2406 13.6729C80.2829 13.6784 80.326 13.6749 80.3669 13.6627C80.4078 13.6504 80.4456 13.6297 80.478 13.6019L80.8163 13.5933C80.9236 13.368 81.1113 13.3332 81.3416 13.3318C81.6451 13.3318 81.9607 13.4028 82.2499 13.2451C82.343 13.0595 82.5982 12.9906 82.6053 12.7376C82.6139 12.1775 82.616 11.6181 82.6053 11.058C82.6057 10.9795 82.5777 10.9035 82.5264 10.8441Z" fill="#DBDCE0"/>
<path d="M78.3782 15.002L78.377 15.0032V15.0044L78.3782 15.002Z" fill="#DBDCE0"/>
<path d="M110.101 23.9082C110.072 23.9241 110.042 23.9368 110.01 23.9461C110.027 23.9468 110.044 23.9438 110.06 23.9372C110.075 23.9307 110.089 23.9208 110.101 23.9082Z" fill="#DBDCE0"/>
<path d="M104.01 22.1712L103.96 22.1426C103.973 22.1577 103.991 22.1678 104.01 22.1712Z" fill="#DBDCE0"/>
<path d="M104.716 22.5039L104.645 22.4785C104.654 22.4876 104.665 22.4945 104.678 22.4989C104.69 22.5033 104.703 22.505 104.716 22.5039Z" fill="#DBDCE0"/>
<path d="M113.196 15.9958C112.896 15.838 112.959 15.5224 112.878 15.2687C112.89 15.1116 112.887 14.9737 112.7 14.8955C112.567 14.8401 112.549 14.6872 112.529 14.5536C112.517 14.4705 112.555 14.3816 112.497 14.3041C112.441 14.2402 112.355 14.2331 112.284 14.1926C112.207 13.9473 111.928 13.8485 111.857 13.6019C111.826 13.4306 111.881 13.1868 111.565 13.2536C111.541 13.0006 111.274 12.9515 111.175 12.7909C111.104 12.6701 111.119 12.5265 110.92 12.5564C110.875 12.5628 110.8 12.5564 110.811 12.4981C110.868 12.1825 110.628 12.2379 110.455 12.2045C110.301 12.1939 110.106 12.2984 110.086 11.997C110.074 11.8271 109.836 11.9821 109.747 11.8662C109.58 11.8548 109.415 11.884 109.378 11.6238C109.362 11.5115 109.15 11.5606 109.036 11.567C108.759 11.5819 108.667 11.4646 108.71 11.2073V11.2116C108.349 11.155 107.983 11.126 107.617 11.1249C107.366 11.1249 107.137 11.0645 106.997 10.8271C106.547 10.7389 106.084 10.7389 105.634 10.8271C105.511 11.0687 105.288 11.105 105.05 11.1263C104.801 11.1483 104.547 11.0986 104.299 11.1647H104.292C104.295 11.1737 104.294 11.1832 104.29 11.1918C104.287 11.2004 104.28 11.2076 104.272 11.2123C104.118 11.2464 103.889 11.1412 103.891 11.4518C103.891 11.5499 103.744 11.5087 103.663 11.5229C103.52 11.5421 103.378 11.557 103.231 11.5734C103.267 11.8762 103.093 11.901 102.862 11.8491C102.767 11.9494 102.639 11.8961 102.527 11.9202C102.507 12.0347 102.612 12.2443 102.376 12.2045C102.199 12.1768 101.902 12.3588 101.867 11.97C101.856 11.8363 101.833 11.702 101.833 11.567C101.833 9.26621 101.827 6.96545 101.833 4.66539C101.833 4.41023 101.78 4.31001 101.5 4.32138C100.931 4.34697 100.354 4.3356 99.7804 4.33915C99.7804 4.33204 99.7804 4.32422 99.7804 4.31641C99.7706 4.32412 99.7614 4.33243 99.7526 4.34128C99.6745 4.46354 99.6816 4.60214 99.6816 4.73718C99.6816 11.226 99.6816 17.7147 99.6816 24.203C99.6816 24.3416 99.6695 24.4838 99.7484 24.6089H99.7832H101.812C101.821 24.3864 101.833 24.1647 101.839 23.9422C101.844 23.7197 101.948 23.6159 102.181 23.5868C102.509 23.5484 102.541 23.5626 102.522 23.9123C102.658 23.8882 102.794 23.9265 102.925 23.9187C103.196 23.9024 103.27 24.0197 103.223 24.2606C103.357 24.272 103.492 24.2734 103.627 24.2649C103.906 24.2293 103.964 24.3701 103.929 24.6039L104.213 24.6146H104.965H107.721H108.417L108.698 24.6011C108.66 24.3608 108.735 24.2322 109.005 24.2634C109.14 24.272 109.275 24.272 109.409 24.2634V24.2592C109.374 24.0289 109.438 23.9038 109.706 23.9137C109.836 23.9194 109.969 23.8896 110.102 23.9045L110.109 23.9095C110.021 23.5911 110.222 23.5584 110.456 23.5584C110.467 23.5513 110.477 23.5449 110.487 23.5392C110.546 23.4262 110.62 23.3259 110.758 23.294C110.868 23.1682 110.92 22.9841 111.113 22.9386C111.217 22.7627 111.363 22.6159 111.539 22.5121C111.577 22.3117 111.782 22.2783 111.895 22.1525C112.087 21.9293 112.237 21.667 112.497 21.5071L112.51 21.1773C112.537 21.143 112.557 21.1036 112.57 21.0614C112.582 21.0192 112.586 20.975 112.581 20.9314C112.561 20.7082 112.652 20.5589 112.865 20.485C112.922 20.396 112.952 20.2923 112.952 20.1865C112.954 20.1007 112.978 20.0169 113.021 19.9432C113.065 19.8695 113.127 19.8083 113.202 19.7657C113.202 19.6712 113.208 19.5766 113.211 19.4814C113.378 18.3328 113.308 17.1849 113.211 16.037C113.205 16.0236 113.2 16.0098 113.196 15.9958ZM110.815 18.4408C110.81 18.6503 110.805 18.8602 110.799 19.0706C110.525 19.2312 110.566 19.5404 110.463 19.7813L110.453 19.7749V20.1232C110.507 20.4033 110.406 20.5348 110.111 20.4786L110.103 20.4729C110.158 20.753 110.064 20.8901 109.762 20.8283C109.814 21.1076 109.718 21.2441 109.418 21.1837C109.498 21.5007 109.33 21.5654 109.062 21.5298C109.133 21.8468 108.969 21.9108 108.707 21.8696L108.713 21.8781C108.784 22.1965 108.615 22.2555 108.351 22.2122L108.067 22.2243C108.06 22.4275 107.979 22.5221 107.752 22.5405C107.511 22.5604 107.27 22.5718 107.03 22.586C107.035 22.7765 106.977 22.8575 106.753 22.8824C106.311 22.9263 105.865 22.9218 105.424 22.8689C105.194 22.8448 105.282 22.6884 105.268 22.5683C104.973 22.6209 104.679 22.5718 104.385 22.5633C104.161 22.5569 104.228 22.3714 104.205 22.2434L104.179 22.237C104.073 22.2227 103.965 22.2174 103.858 22.2214C103.584 22.2498 103.524 22.1127 103.567 21.8802C103.397 21.8497 103.184 21.9144 103.201 21.5959C103.208 21.463 102.988 21.5661 102.879 21.5213C102.583 21.5817 102.468 21.4616 102.528 21.1659C102.499 21.011 102.599 20.7956 102.272 20.8105C102.097 20.8198 102.23 20.5845 102.166 20.4779C101.893 20.5355 101.825 20.4224 101.827 20.1545C101.839 18.6256 101.833 17.0982 101.832 15.5672C101.832 15.4606 101.863 15.3539 101.864 15.253C101.864 15.0199 101.994 14.9851 102.179 15C102.131 14.7256 102.223 14.5849 102.522 14.6446L102.527 14.6489C102.469 14.3596 102.579 14.2373 102.874 14.2935C102.817 13.9957 102.945 13.8919 103.23 13.9502L103.557 13.9338C103.486 13.6119 103.655 13.5472 103.926 13.5976L103.922 13.592C103.884 13.3332 103.993 13.2259 104.255 13.2501C104.379 13.2622 104.505 13.2501 104.629 13.2501L104.624 13.2423C104.58 12.9771 104.739 12.9039 104.958 12.8997C105.2 12.8954 105.442 12.8997 105.683 12.9032H106.314C106.34 12.9173 106.368 12.9249 106.397 12.9252C106.369 12.9204 106.341 12.9131 106.314 12.9032C106.555 12.9032 106.798 12.9217 107.036 12.899C107.305 12.8734 107.407 12.9764 107.374 13.2351C107.488 13.2492 107.603 13.253 107.718 13.2465C107.993 13.2096 108.101 13.3261 108.074 13.5905L108.358 13.5991C108.62 13.5571 108.8 13.6055 108.724 13.9331L109.052 13.9502C109.336 13.8933 109.467 13.9978 109.407 14.2956C109.701 14.2402 109.809 14.3667 109.754 14.651C109.76 14.759 109.765 14.8642 109.77 14.9758C110.094 14.9047 110.157 15.0718 110.109 15.3426L110.118 15.3369C110.436 15.2658 110.507 15.425 110.453 15.6994L110.461 15.9837C110.482 16.0036 110.499 16.0276 110.51 16.0543C110.522 16.0809 110.528 16.1096 110.528 16.1386C110.494 16.4002 110.599 16.5957 110.799 16.7506C110.804 16.8451 110.807 16.939 110.812 17.0349C110.956 17.4923 110.957 17.9827 110.815 18.4408Z" fill="#DBDCE0"/>
<path d="M96.3381 21.5234C96.3381 21.5767 96.3381 21.6293 96.3381 21.6826C96.3481 21.63 96.3481 21.576 96.3381 21.5234Z" fill="#DBDCE0"/>
<path d="M86.2239 16.1113C86.0107 16.3089 86.0327 16.4774 86.2836 16.6664C86.177 16.4951 86.2232 16.2997 86.2239 16.1113Z" fill="#DBDCE0"/>
<path d="M96.6958 16.6892C96.6958 16.6138 96.6908 16.5385 96.6879 16.4624C96.597 16.3203 96.6538 16.1639 96.6325 16.0153C96.6112 15.8668 96.6794 15.6706 96.4122 15.6763C96.3461 15.6763 96.3411 15.5981 96.3411 15.5405C96.3461 15.36 96.297 15.1788 96.3461 14.9982H96.3503C96.3271 14.9724 96.3138 14.9391 96.3127 14.9044C96.2714 14.7679 96.253 14.6151 96.0234 14.6109C95.9573 14.6109 95.9907 14.4083 96.0013 14.2981L95.9807 13.9655C95.6851 14.0159 95.5919 13.8781 95.646 13.6044L95.6417 13.608C95.3425 13.6641 95.2415 13.5319 95.2984 13.249C95.2934 13.1396 95.2891 13.0294 95.2842 12.9199C94.9835 12.9846 94.889 12.8446 94.9338 12.5646C94.7021 12.6051 94.5315 12.5724 94.5784 12.2724C94.3915 12.3122 94.223 12.2014 94.0467 12.1942C93.9565 12.1893 93.9472 12.1189 93.9458 12.0521C93.9465 12.0145 93.9336 11.9779 93.9095 11.949L93.8975 11.9384C93.8698 11.9177 93.835 11.9088 93.8008 11.9135C93.5222 11.9377 93.5087 11.7713 93.5414 11.5666C93.4703 11.5162 93.3921 11.5517 93.3189 11.5361C93.1057 11.4906 92.8334 11.5261 92.6963 11.3648C92.5591 11.2034 92.4013 11.1857 92.2208 11.1857C92.0729 11.1181 91.9137 11.1515 91.7616 11.1309C91.4446 11.0876 91.0906 11.1395 90.8739 10.8161C90.4483 10.7452 90.0137 10.749 89.5895 10.8274C89.5275 10.9129 89.446 10.9823 89.3518 11.03C89.2576 11.0777 89.1535 11.1023 89.0479 11.1018C88.7138 11.1196 88.3819 11.1658 88.0528 11.2091L87.7166 11.2198C87.6043 11.4622 87.4096 11.5588 87.148 11.5382C87.125 11.5328 87.1011 11.5328 87.0782 11.5382C87.0552 11.5436 87.0339 11.5543 87.0158 11.5695C86.9497 11.7258 86.8026 11.7827 86.6696 11.8666C86.5794 11.9732 86.3406 11.8076 86.3398 11.9917C86.3398 12.2575 86.1941 12.2262 86.03 12.2141C85.8835 12.298 85.853 12.512 85.6596 12.5425C85.5608 12.7179 85.4161 12.8631 85.241 12.9626C85.204 13.1204 85.0747 13.1872 84.9517 13.2597C84.9219 13.4495 84.7818 13.5383 84.6269 13.6151L84.6326 13.6243C84.5615 13.8823 84.6255 14.2107 84.2566 14.3017C84.2078 14.3822 84.1852 14.4758 84.1919 14.5696C84.2438 14.8028 84.1144 14.925 83.9225 15.0089C83.882 15.07 83.9168 15.1454 83.8941 15.2051C83.7917 15.473 83.9652 15.8448 83.5856 16.0089L83.5707 16.348C83.4826 16.4525 83.4818 16.5797 83.4811 16.7034C83.4783 17.4971 83.4783 18.2905 83.4811 19.0837C83.4811 19.2095 83.4811 19.3368 83.5671 19.4427C83.5714 19.5564 83.5757 19.6694 83.5806 19.7831C83.6735 19.8168 83.7513 19.8826 83.7998 19.9687C83.8483 20.0547 83.8644 20.1553 83.845 20.2522C83.8368 20.3565 83.8617 20.4607 83.9161 20.5501C83.9197 20.6439 83.9239 20.7377 83.9275 20.8344C84.1677 20.9488 84.2665 21.1421 84.2452 21.403C84.2399 21.4259 84.2399 21.4497 84.2452 21.4726C84.2505 21.4955 84.2609 21.5169 84.2758 21.5352C84.5857 21.6446 84.5828 21.9233 84.6255 22.1749C84.8636 22.2005 85.0107 22.3071 84.9809 22.5708C85.2581 22.7527 85.4464 23.0264 85.6838 23.2488C86.1174 23.3199 86.4323 23.5623 86.6604 23.9291C86.6934 23.9576 86.7321 23.9787 86.7739 23.9909C86.8157 24.0032 86.8596 24.0063 86.9028 24.0001C87.143 23.9653 87.2809 24.0804 87.3598 24.2915C87.4571 24.3464 87.5696 24.3683 87.6804 24.3541L87.7038 24.3498V24.288C87.9682 24.2375 88.1388 24.293 88.0734 24.6149L88.0656 24.6285H88.7053H89.4018H91.8746H92.8562L92.8512 24.6192C92.8178 24.3605 92.9223 24.2439 93.1895 24.2759C93.3118 24.2901 93.4369 24.2809 93.5606 24.283V24.278C93.5229 24.0243 93.6124 23.8928 93.8889 23.9227C94.0119 23.9362 94.1377 23.9269 94.2621 23.9283C94.2543 23.7528 94.191 23.5445 94.4974 23.573C94.5464 23.5779 94.6025 23.5538 94.6011 23.4983C94.594 23.209 94.8065 23.2979 94.9565 23.2851C95.1207 23.2481 95.368 23.3135 95.3062 23.0008C95.2941 22.9404 95.3503 22.9169 95.3993 22.9262C95.7106 22.9823 95.6346 22.7499 95.6538 22.5893C95.5592 22.2808 95.7874 22.2339 95.9942 22.1713C95.9942 22.015 95.9516 21.8607 96.216 21.8572C96.3844 21.8572 96.216 21.6105 96.3482 21.5338C96.3454 21.3049 96.343 21.0765 96.3411 20.8486H93.9081L93.8975 21.1784C93.9522 21.4534 93.8569 21.5906 93.5606 21.5409L93.5535 21.5366C93.6295 21.8501 93.4689 21.9218 93.1981 21.8827C93.1007 21.9247 92.9038 21.8266 92.9067 21.9588C92.9123 22.2431 92.7389 22.2246 92.5605 22.2353C92.6039 22.4926 92.5022 22.6042 92.2371 22.5793C92.1144 22.5757 91.9916 22.5809 91.8696 22.5949C91.9002 22.8501 91.7396 22.8792 91.5398 22.8956C90.8107 22.9578 90.0776 22.9578 89.3485 22.8956C89.1282 22.875 89.0991 22.7705 89.1097 22.5992C88.9665 22.5795 88.8221 22.5707 88.6776 22.5729C88.4103 22.5964 88.3627 22.4642 88.4103 22.2438C88.3957 22.2346 88.3781 22.2316 88.3613 22.2353C88.249 22.273 88.1338 22.231 88.0244 22.2417C87.7401 22.2687 87.6789 22.1287 87.7159 21.8863L87.7209 21.8799C87.6396 21.8535 87.5654 21.8091 87.5039 21.7498C87.4423 21.6906 87.395 21.6182 87.3655 21.538C87.2848 21.5083 87.2117 21.461 87.1516 21.3996C87.0915 21.3381 87.0458 21.264 87.0179 21.1826C86.9373 21.154 86.8644 21.107 86.8051 21.0453C86.7457 20.9836 86.7015 20.909 86.676 20.8273L86.6704 20.8322C86.4209 20.7249 86.3285 20.5287 86.3484 20.2672C86.3532 20.2441 86.3531 20.2204 86.3482 20.1974C86.3434 20.1743 86.3337 20.1526 86.3199 20.1335C86.2326 20.082 86.1614 20.0071 86.1142 19.9174C86.067 19.8276 86.0457 19.7265 86.0527 19.6253C86.0527 19.491 86.0527 19.3567 86.0527 19.2223C86.0527 19.2053 86.0527 19.1896 86.0527 19.174C85.9987 19.1136 86.0214 19.078 86.0591 19.0546C86.0712 18.9281 86.111 18.8982 86.2553 18.8883C86.2759 18.8554 86.2997 18.8247 86.3263 18.7966C86.6561 18.793 86.9866 18.7859 87.3164 18.7859H96.6453C96.732 18.6885 96.7164 18.5727 96.7164 18.4554C96.6986 17.8626 96.6965 17.2748 96.6958 16.6892ZM94.5748 16.9024C94.5642 17.132 94.3531 16.9941 94.2337 17.0289C91.5721 17.0289 88.9105 17.0308 86.2489 17.0346C86.0911 17.0346 86.02 17.009 85.9916 16.8214C85.9454 16.5285 85.9724 16.2456 85.9859 15.9563C85.9965 15.7232 86.0797 15.6401 86.3029 15.6905C86.3099 15.6759 86.3136 15.6599 86.3136 15.6436C86.2681 15.3444 86.5794 15.2299 86.6526 14.9918L86.6604 14.9982C86.7411 14.9698 86.814 14.9229 86.8733 14.8612C86.9326 14.7994 86.9765 14.7247 87.0016 14.6428C87.0853 14.619 87.1617 14.5746 87.2237 14.5136C87.2858 14.4527 87.3316 14.3771 87.357 14.2939C87.4396 14.269 87.5151 14.2245 87.577 14.1643C87.6389 14.104 87.6853 14.0297 87.7123 13.9477L87.7081 13.9427C87.6512 13.6407 87.7891 13.5476 88.0691 13.6058L88.4018 13.5881C88.3464 13.3293 88.4373 13.2099 88.7131 13.2469C88.828 13.2565 88.9433 13.2594 89.0585 13.2554L89.3976 13.2412C89.3556 12.986 89.463 12.9043 89.7189 12.9114C90.2299 12.9249 90.7409 12.8887 91.2541 12.9384C91.4986 12.9619 91.5121 13.0713 91.5079 13.2462V13.2504L92.1937 13.2625C92.4873 13.1915 92.601 13.3116 92.557 13.6009L92.5506 13.6115C92.8924 13.4942 92.8562 13.7665 92.9059 13.9527C93.2343 13.8567 93.2613 14.065 93.2556 14.301C93.4824 14.2541 93.6217 14.301 93.5634 14.576C93.7596 14.6471 93.9977 14.6926 93.8975 15.0025C93.8975 15.0963 93.9024 15.1909 93.9053 15.2868C94.1341 15.3266 94.3147 15.4091 94.2607 15.6948C94.3367 15.7971 94.2969 15.9173 94.3104 16.0288C94.3275 16.171 94.2898 16.2869 94.5094 16.3636C94.7291 16.4404 94.5834 16.7197 94.5748 16.9024Z" fill="#DBDCE0"/>
<path d="M149.079 11.5644C149.102 11.551 149.125 11.5399 149.15 11.5312C149.123 11.5338 149.098 11.5455 149.079 11.5644Z" fill="#DBDCE0"/>
<path d="M159.05 16.693C158.859 16.7186 158.756 16.6781 158.759 16.4421C158.762 16.081 158.718 15.7193 158.694 15.3575C158.481 15.376 158.41 15.2928 158.378 15.0661C158.355 14.8948 158.479 14.5941 158.114 14.5472C158.061 14.5401 158.043 14.2707 158.01 14.1207C157.997 14.0589 158.026 13.9551 157.939 13.9566C157.644 13.9608 157.726 13.7533 157.719 13.5941C157.661 13.4867 157.754 13.3517 157.655 13.2522C157.471 13.2906 157.304 13.3069 157.337 13.0297C157.344 12.97 157.313 12.9053 157.243 12.9131C156.933 12.9487 157.018 12.7234 157.004 12.562C156.716 12.6203 156.604 12.4966 156.645 12.2152C156.54 12.1725 156.322 12.2862 156.331 12.1377C156.353 11.8029 156.111 11.9095 155.96 11.8534C155.709 11.9131 155.553 11.8626 155.613 11.5577C155.42 11.6053 155.24 11.5065 155.05 11.5065C155.001 11.5065 154.935 11.4923 154.937 11.4426C154.954 11.1305 154.715 11.2421 154.564 11.2087C154.158 11.2563 153.763 11.144 153.36 11.1476C153.153 11.1476 153.242 10.972 153.217 10.8633H151.128C151.153 11.0559 151.108 11.1476 150.874 11.1639C150.51 11.1845 150.148 11.235 149.781 11.2087C149.835 11.4561 149.743 11.5577 149.483 11.5499C149.352 11.5463 149.218 11.5755 149.084 11.5613L149.077 11.8456C148.925 11.9287 148.698 11.9053 148.676 12.1739C148.671 12.2294 148.483 12.196 148.378 12.1981C148.278 12.2784 148.037 12.1064 148.044 12.331C148.051 12.6032 147.895 12.5528 147.741 12.5492C147.506 12.7816 147.292 13.0347 147.04 13.25C146.943 13.351 147.032 13.4853 146.98 13.5948C146.909 13.845 146.624 13.9388 146.553 14.1854C146.482 14.2288 146.398 14.2345 146.34 14.2991C146.275 14.4925 146.371 14.7619 146.157 14.8742C145.955 14.9808 145.939 15.1243 145.962 15.3006C146.002 15.6013 145.87 15.8173 145.646 15.9958L145.641 15.9901C145.596 16.3021 145.533 16.6106 145.541 16.9304C145.566 17.8637 145.491 18.7997 145.612 19.7316C145.806 19.8801 145.875 20.0827 145.915 20.3194C145.943 20.4871 145.936 20.6605 145.992 20.824C146.237 20.9349 146.332 21.1296 146.312 21.3926C146.306 21.4156 146.306 21.4394 146.312 21.4624C146.317 21.4853 146.328 21.5066 146.343 21.5248C146.396 21.5909 146.485 21.5959 146.551 21.6343C146.599 21.8816 146.887 21.9492 146.96 22.1773C147.119 22.2797 147.267 22.3905 147.328 22.5825C147.28 22.8625 147.41 22.9634 147.676 22.9293C147.758 22.9558 147.832 23.0007 147.894 23.0604C147.956 23.1202 148.003 23.1933 148.032 23.274C148.187 23.2868 148.398 23.203 148.387 23.4922C148.387 23.5484 148.441 23.5733 148.489 23.5676C148.786 23.5356 148.747 23.7332 148.732 23.9159C148.854 23.9223 148.977 23.9223 149.1 23.9159C149.361 23.891 149.47 24.0026 149.437 24.2599L149.718 24.2734C149.966 24.2457 150.191 24.2471 150.139 24.6025L150.481 24.6188H154.217H154.913L154.905 24.606C154.905 24.2599 154.905 24.2599 155.326 24.272L155.606 24.2563C155.568 23.9997 155.694 23.9009 155.936 23.9137C156.062 23.9194 156.188 23.9137 156.313 23.9137C156.295 23.7282 156.258 23.5313 156.557 23.5583C156.586 23.5583 156.645 23.5221 156.645 23.5036C156.64 23.2314 156.839 23.2762 157.001 23.2662L157.352 23.2065C157.312 23.0217 157.306 22.8895 157.575 22.8867C157.771 22.8867 157.636 22.6656 157.702 22.564C157.721 22.4126 157.639 22.2228 157.922 22.2086C158.089 22.1979 157.93 21.9598 158.064 21.8823L158.344 21.8653C158.383 21.7551 158.299 21.6215 158.407 21.5234C158.4 21.3585 158.298 21.168 158.616 21.151C158.767 21.1431 158.654 20.9427 158.687 20.8354H158.693L155.964 20.8404L155.951 21.1694C156.011 21.4538 155.91 21.586 155.61 21.5284C155.675 21.829 155.539 21.9229 155.254 21.8745L155.259 21.8788C155.33 22.1986 155.159 22.2591 154.893 22.2157L154.565 22.2356C154.602 22.4232 154.581 22.5554 154.334 22.5455C154.18 22.5494 154.026 22.5653 153.875 22.5931C153.733 22.6102 153.549 22.5519 153.556 22.8063C153.556 22.8774 153.471 22.8717 153.414 22.8732C152.864 22.8881 152.315 22.9364 151.762 22.8966C151.524 22.8803 151.425 22.812 151.468 22.5753C151.295 22.5661 151.123 22.5562 150.949 22.5476C150.883 22.5476 150.769 22.5476 150.774 22.4879C150.806 22.1802 150.576 22.2576 150.419 22.2278C150.249 22.2811 150.078 22.2278 149.909 22.2164C149.669 22.1965 149.804 22.0032 149.773 21.8823L149.777 21.8774C149.506 21.9193 149.351 21.8397 149.422 21.5334C149.132 21.5867 149.018 21.4665 149.076 21.178C148.78 21.2341 148.672 21.1069 148.732 20.8226C148.726 20.7131 148.721 20.603 148.715 20.4935C148.398 20.5568 148.324 20.4011 148.383 20.1253C148.383 20.0308 148.376 19.937 148.371 19.841C148.087 19.8694 148.027 19.7244 148.021 19.4643C148.005 18.7805 147.992 18.7798 148.666 18.7791L158.873 18.7749C158.931 18.7749 158.99 18.7791 159.048 18.782C159.048 18.0859 159.048 17.3898 159.048 16.6937L159.05 16.693ZM156.436 16.7428C156.384 16.7492 156.329 16.7662 156.333 16.8217C156.355 17.0996 156.156 17.0349 156.004 17.0349C153.445 17.0349 150.88 17.0278 148.319 17.0349C148.114 17.0349 148.01 16.9965 148.034 16.7676C148.041 16.6984 148.044 16.6289 148.043 16.5594C148.042 16.5483 148.042 16.5371 148.043 16.526C148.041 16.452 148.035 16.3782 148.025 16.3049C147.99 16.0284 148.107 15.9346 148.367 15.9815L148.382 15.6972C148.382 15.5814 148.382 15.4655 148.382 15.3497C148.334 15.0767 148.425 14.9367 148.722 14.9943L148.73 14.9985C148.685 14.7284 148.762 14.5721 149.071 14.6432C149.018 14.3588 149.129 14.2366 149.418 14.2878C149.347 13.9821 149.498 13.8968 149.774 13.9416L149.769 13.9359C149.852 13.9122 149.928 13.8695 149.991 13.8114C150.054 13.7533 150.102 13.6813 150.133 13.6012L150.464 13.5862C150.416 13.3289 150.519 13.2188 150.781 13.2486C150.894 13.2607 151.009 13.2529 151.123 13.2543L151.118 13.2458C151.097 13.0326 151.178 12.9615 151.402 12.9373C152.076 12.8613 152.748 12.8961 153.42 12.9082C153.665 12.9124 153.545 13.1164 153.571 13.238L153.856 13.2543H154.203C154.469 13.211 154.629 13.2813 154.563 13.5905L154.557 13.6005C154.824 13.555 154.991 13.6196 154.923 13.9374C155.099 13.9509 155.333 13.8905 155.272 14.211C155.269 14.2232 155.27 14.2357 155.274 14.2474C155.278 14.2592 155.285 14.2698 155.293 14.2783C155.302 14.2869 155.313 14.293 155.325 14.2963C155.337 14.2996 155.35 14.2998 155.362 14.297C155.687 14.233 155.575 14.4918 155.617 14.6375C155.933 14.5664 156.001 14.7313 155.954 15L155.965 15.2843C156.31 15.2359 156.355 15.4264 156.303 15.7029L156.318 16.0405C156.435 16.0761 156.661 15.9453 156.634 16.199C156.616 16.3874 156.847 16.693 156.434 16.7428H156.436Z" fill="#DBDCE0"/>
<path d="M128.732 11.1996C128.636 11.1229 128.518 11.1214 128.406 11.12C128.051 11.115 127.69 11.1136 127.333 11.12C127.112 11.1236 126.886 11.0816 126.673 11.1762C126.539 11.228 126.602 11.3432 126.589 11.4356C126.599 11.5611 126.602 11.6872 126.596 11.813C126.592 11.9338 126.624 12.0852 126.447 12.1115C126.27 12.1378 126.092 12.157 126.026 11.9232C126.011 11.8988 125.992 11.8762 125.972 11.8557C125.841 11.7746 125.693 11.7135 125.626 11.5593V11.5635C125.28 11.4683 124.871 11.5493 124.618 11.1968C124.61 11.184 124.582 11.1804 124.564 11.1833C124.342 11.2167 124.133 11.0994 123.912 11.1236C123.776 11.1236 123.64 11.1278 123.505 11.1236C122.936 11.1044 122.361 11.0077 121.789 11.0688C121.344 11.1098 120.898 11.1274 120.451 11.1214C120.238 11.0902 120.037 11.2096 119.824 11.1826C119.676 11.4868 119.406 11.5429 119.106 11.5379C119.035 11.695 118.893 11.7782 118.751 11.8507C118.645 11.9253 118.515 11.8564 118.406 11.9097C118.334 12.0611 118.187 12.1229 118.064 12.2103L118.053 12.199L118.062 12.2118C117.991 12.3672 117.861 12.4883 117.701 12.5494V12.5529C117.67 12.6322 117.623 12.7041 117.563 12.764C117.503 12.8239 117.43 12.8704 117.351 12.9005C117.321 12.9802 117.274 13.0526 117.214 13.1132C117.155 13.1737 117.083 13.2208 117.003 13.2516C116.941 13.4104 116.818 13.538 116.662 13.607V13.6034C116.535 13.8288 116.28 13.9851 116.298 14.2879L116.303 14.295C116.184 14.5253 115.94 14.6888 115.936 14.9802C115.887 15.133 115.825 15.2773 115.663 15.3448C115.633 15.6007 115.571 15.8523 115.565 16.1117C115.565 16.2539 115.572 16.4387 115.464 16.5233C115.256 16.6839 115.287 16.8865 115.283 17.0919C115.283 17.2163 115.263 17.3407 115.255 17.4629C115.225 17.8936 115.184 18.3272 115.286 18.7558C115.544 18.898 115.577 19.141 115.581 19.3955C115.581 19.5377 115.581 19.6855 115.581 19.8305C115.574 19.928 115.592 20.0256 115.631 20.1148C115.665 20.2399 115.57 20.4041 115.698 20.4894C115.825 20.5747 115.875 20.7026 115.955 20.8192C116.037 20.9322 115.909 21.1149 116.042 21.1895C116.176 21.2641 116.22 21.4077 116.303 21.52L116.299 21.5278C116.317 21.741 116.381 21.9294 116.571 22.0566C116.597 22.0744 116.602 22.1227 116.624 22.154C116.742 22.2763 116.94 22.3196 116.979 22.5165C117.136 22.6188 117.285 22.7297 117.355 22.9124C117.435 22.9427 117.508 22.989 117.569 23.0485C117.63 23.1081 117.678 23.1796 117.71 23.2585C117.853 23.3296 117.986 23.4128 118.047 23.5727C118.234 23.6097 118.337 23.7383 118.406 23.9032L118.411 23.8982C118.543 23.8755 118.676 23.9153 118.804 23.9103C119.07 23.9004 119.138 24.024 119.104 24.2543C119.228 24.2629 119.351 24.2629 119.475 24.2543C119.747 24.2202 119.837 24.3474 119.809 24.5976L119.919 24.6062H120.502C120.615 24.6098 120.729 24.6068 120.843 24.5969C121.12 24.5571 121.198 24.6858 121.153 24.9367L122.895 24.9402C122.858 24.6723 122.977 24.5756 123.241 24.599C123.461 24.6189 123.682 24.6083 123.903 24.6111L124.583 24.5891C124.522 24.2223 124.752 24.2259 125.004 24.2586L125.633 24.2437C125.547 23.911 125.763 23.9039 125.993 23.9096L125.987 23.8982C126.008 23.7909 125.925 23.6253 126.053 23.5862C126.238 23.5271 126.437 23.5271 126.622 23.5862C126.718 23.6196 126.685 23.7362 126.687 23.8193C126.687 23.9615 126.687 24.1036 126.687 24.2493L126.697 24.2437C127.27 24.2437 127.845 24.2316 128.417 24.2529C128.681 24.2621 128.739 24.1754 128.739 23.9238C128.732 19.6805 128.73 15.4372 128.734 11.1939C128.722 11.2067 128.727 11.2039 128.732 11.1996ZM126.324 20.8241C126.367 21.0935 126.29 21.2506 125.981 21.1795C126.014 21.4439 125.914 21.5754 125.634 21.5285C125.697 21.8342 125.55 21.9194 125.279 21.8704L125.283 21.8761C125.354 22.1796 125.184 22.2407 124.936 22.2279C124.955 22.5982 124.627 22.4994 124.446 22.5577C124.266 22.616 124.068 22.5684 123.878 22.5677C123.919 22.7809 123.85 22.8783 123.614 22.8918C122.903 22.9302 122.193 22.9629 121.478 22.879C121.259 22.8904 121.074 22.8655 121.143 22.5684C121.096 22.5589 121.048 22.552 121.001 22.5478C120.755 22.5371 120.518 22.5165 120.439 22.2208C120.317 22.2457 120.195 22.2158 120.074 22.2208C119.816 22.2293 119.738 22.1178 119.79 21.8818C119.775 21.8784 119.759 21.8738 119.745 21.8683C119.426 21.9607 119.371 21.7808 119.389 21.525C119.232 21.5193 119.04 21.5605 119.093 21.2876C119.106 21.2229 119.072 21.1618 119 21.1753C118.679 21.2371 118.769 20.9926 118.739 20.8369C118.716 20.7538 118.673 20.6773 118.614 20.6141C118.556 20.5509 118.483 20.5028 118.401 20.4737C118.401 20.3806 118.395 20.2868 118.392 20.1937C118.343 20.0032 118.25 19.849 118.055 19.7729L118.044 19.7793C117.902 19.5661 117.973 19.3322 117.964 19.1055C117.954 18.9256 117.954 18.7452 117.964 18.5653C117.983 18.3407 117.909 18.1815 117.705 18.0841V17.7408C117.919 17.6406 117.983 17.4743 117.964 17.2433C117.954 17.0499 117.954 16.856 117.964 16.6626C117.969 16.4494 117.912 16.2361 118.043 16.0407L118.052 16.0471C118.136 16.0058 118.209 15.9467 118.268 15.874C118.326 15.8013 118.368 15.7168 118.39 15.6263L118.401 15.347C118.482 15.3171 118.555 15.2688 118.613 15.2059C118.672 15.1429 118.715 15.0671 118.74 14.9845H118.751L118.742 14.9312C118.666 14.6092 118.877 14.622 119.089 14.6341C119.089 14.4286 119.095 14.2353 119.391 14.3007C119.424 14.0996 119.403 13.8423 119.746 13.9546C119.76 13.9481 119.775 13.9434 119.79 13.9403C119.732 13.6304 119.889 13.5587 120.157 13.6084L120.488 13.5892C120.45 13.3675 120.495 13.2239 120.772 13.2566C120.895 13.2613 121.018 13.2553 121.139 13.2388C121.104 12.9637 121.238 12.8948 121.495 12.9005C122.173 12.9154 122.854 12.9183 123.532 12.9005C123.808 12.8927 123.93 12.9716 123.887 13.2509L123.882 13.2587C124.007 13.2658 124.132 13.2658 124.257 13.2587C124.525 13.2274 124.623 13.3469 124.59 13.5999L124.925 13.6113C125.205 13.5551 125.344 13.6489 125.288 13.9503L125.283 13.9574C125.567 13.9013 125.702 13.9965 125.638 14.2986C125.938 14.2318 126.035 14.3696 125.989 14.6476C126.314 14.5637 126.352 14.7563 126.332 15.0029C126.562 14.9589 126.666 15.0406 126.663 15.2873C126.655 15.7315 126.673 16.1764 126.674 16.6214C126.674 17.9178 126.663 19.215 126.674 20.5114C126.671 20.7858 126.579 20.8703 126.324 20.8241Z" fill="#DBDCE0"/>
<path d="M63.2997 22.1818C63.285 22.1748 63.2706 22.1669 63.2568 22.1582C63.2679 22.1709 63.2831 22.1792 63.2997 22.1818Z" fill="#DBDCE0"/>
<path d="M72.5439 16.3386L72.5325 16.3464C72.4405 16.3103 72.3639 16.2434 72.3158 16.157C72.2677 16.0707 72.2511 15.9703 72.2688 15.8731C72.2736 15.8305 72.2698 15.7875 72.2576 15.7464C72.2454 15.7054 72.225 15.6672 72.1977 15.6343C72.1927 15.4253 72.1885 15.217 72.1842 15.0081C72.1047 14.9766 72.0334 14.9275 71.9757 14.8645C71.9179 14.8014 71.8752 14.7261 71.8509 14.6442L71.8338 14.3115C71.6767 14.2312 71.5495 14.1246 71.4997 13.9462L71.4912 13.9519C71.4094 13.9244 71.3357 13.8772 71.2764 13.8145C71.2172 13.7518 71.1743 13.6754 71.1515 13.5922C70.9816 13.5346 70.9326 13.3584 70.8139 13.2525C70.4327 12.9161 70.074 12.5552 69.7399 12.1721C69.5266 12.0804 69.435 11.794 69.1492 11.8082C68.9566 11.8174 68.8329 11.6994 68.7448 11.5395C68.6723 11.4892 68.583 11.4693 68.496 11.4841C68.2686 11.5161 68.1357 11.4066 68.0497 11.2126C67.7787 11.1646 67.505 11.134 67.2302 11.1209C66.9807 11.1145 66.7575 11.0576 66.6246 10.8202C66.5166 10.7768 66.4 10.7593 66.2841 10.769C65.7335 10.769 65.1829 10.769 64.6323 10.769C64.516 10.7573 64.3987 10.7759 64.2918 10.8231C64.1397 11.0711 63.8981 11.1202 63.6329 11.1287C63.4908 11.1337 63.3486 11.1102 63.2065 11.1706C63.1141 11.1962 63.0181 11.1706 62.9222 11.1905C62.8369 11.3746 62.7089 11.5025 62.5007 11.5281C62.5007 11.5352 62.5007 11.5431 62.5007 11.5502C62.3585 11.5779 62.1951 11.5374 62.1823 11.7904C62.1752 11.9326 61.9776 11.8494 61.8646 11.8615V11.8146H61.8582C61.7594 11.9482 61.5646 11.8011 61.4701 11.9482C61.3045 12.2062 61.0571 12.3747 60.814 12.5516C60.7818 12.6302 60.7341 12.7016 60.6738 12.7614C60.6135 12.8212 60.5418 12.8683 60.4629 12.8999C60.4313 12.979 60.384 13.0509 60.3237 13.1111C60.2635 13.1714 60.1916 13.2187 60.1125 13.2503C60.0468 13.4091 59.9245 13.5378 59.7692 13.6114L59.7543 13.9391C59.7285 14.0206 59.6851 14.0954 59.6271 14.1582C59.5691 14.2209 59.498 14.2702 59.4188 14.3023L59.4081 14.2952C59.3278 14.3883 59.3243 14.5006 59.3285 14.615C59.3761 14.8211 59.2383 14.9164 59.0954 15.0095C59.1032 15.2106 59.0506 15.4033 59.0115 15.5987C59.0032 15.6275 58.9972 15.657 58.9938 15.6869C59.0193 15.8916 58.7976 15.9001 58.7258 16.028C58.6725 16.1368 58.691 16.2555 58.6853 16.3699C58.6903 16.5248 58.6853 16.6798 58.6704 16.834C58.5367 17.8121 58.6668 18.7865 58.7094 19.7624C58.7236 19.7931 58.741 19.8222 58.7613 19.8491C58.9035 19.9152 58.998 20.0083 58.9817 20.1825C58.976 20.2883 58.976 20.3944 58.9817 20.5002C58.9817 20.6146 58.9817 20.7291 59.0641 20.8207C59.1352 20.9373 59.0151 21.1186 59.148 21.1939C59.2809 21.2692 59.325 21.4128 59.4117 21.5223L59.4188 21.5173C59.4983 21.5488 59.5698 21.5977 59.628 21.6605C59.6861 21.7232 59.7295 21.7981 59.755 21.8798L59.772 22.2053C59.9249 22.2829 60.0467 22.4103 60.1175 22.5664L60.121 22.5628C60.2779 22.6315 60.4015 22.7592 60.465 22.9182C60.7117 23.1172 61.0024 23.2693 61.158 23.565L61.1673 23.5586C61.2234 23.6134 61.2938 23.5899 61.3578 23.5899C61.5845 23.5899 61.7537 23.6716 61.8276 23.8948C61.8375 23.9012 61.8482 23.9083 61.8582 23.9161C62.0913 23.9161 62.264 23.9744 62.2093 24.2637C62.3225 24.2694 62.4358 24.2694 62.549 24.2637C62.8113 24.2374 62.9364 24.3447 62.9122 24.6113L63.8917 24.6226C64.1575 24.5708 64.3252 24.629 64.2591 24.9496L64.9514 24.9702H66.3573L66.6416 24.9546C66.6025 24.6831 66.722 24.5793 66.9892 24.6141C67.1117 24.6241 67.2346 24.6276 67.3574 24.6248L68.0475 24.6177L68.0404 24.6056C67.9736 24.2836 68.1449 24.2282 68.4086 24.2765V24.3398L68.4328 24.344C68.5405 24.3577 68.6497 24.3375 68.7455 24.2865C68.8443 24.1159 68.9659 23.9453 69.172 23.9503C69.3696 23.9559 69.4456 23.8593 69.506 23.7086C69.5892 23.6304 69.7079 23.6276 69.801 23.57C69.8437 23.5174 69.8614 23.4414 69.9133 23.4015C70.1784 23.199 70.3789 22.9282 70.6241 22.7157C70.8046 22.5607 70.9148 22.3297 71.1422 22.2302H71.1458C71.169 22.1476 71.2117 22.0718 71.2703 22.0092C71.329 21.9466 71.4018 21.8991 71.4827 21.8705L71.4884 21.8748C71.5438 21.7 71.6732 21.5905 71.8267 21.5095L71.8416 21.1775C71.9046 21.0839 71.9299 20.9699 71.9127 20.8584C71.8622 20.6345 72.0151 20.5506 72.1764 20.4725C72.1814 20.3609 72.1856 20.2493 72.1899 20.137C72.2724 20.0289 72.261 19.9017 72.2681 19.7766C72.2724 19.6807 72.2681 19.5733 72.3662 19.52C72.5332 19.4291 72.5567 19.2649 72.5986 19.1078C72.6245 18.8794 72.6309 18.6492 72.6178 18.4198C72.6292 18.0729 72.6263 17.726 72.6178 17.3792C72.6064 17.0338 72.713 16.6755 72.5439 16.3386ZM70.1749 17.5924C70.1607 17.8526 70.1692 18.1148 70.1749 18.3743C70.1749 18.5548 70.1635 18.7218 69.9844 18.8285C69.8899 18.8853 69.892 18.9919 69.8891 19.0893C69.8861 19.312 69.8538 19.5332 69.7932 19.7475C69.7818 19.7752 69.7712 19.8036 69.7619 19.8321C69.639 19.9124 69.4861 19.9742 69.5309 20.1697C69.5463 20.2784 69.521 20.389 69.4598 20.4803C69.4229 20.6438 69.5004 20.8648 69.1755 20.847C69.027 20.8385 69.14 21.056 69.0952 21.1619C68.9402 21.234 68.8171 21.3605 68.7491 21.5173C68.5912 21.5841 68.4643 21.7079 68.3937 21.8642L68.0625 21.8762C68.103 22.125 68.0298 22.26 67.7462 22.2188C67.6512 22.2123 67.5558 22.2166 67.4619 22.2316L67.432 22.2437C67.4441 22.4719 67.3609 22.5749 67.1008 22.5756C67.0368 22.5756 66.9522 22.555 66.8733 22.5522C66.8265 22.5646 66.7791 22.5745 66.7312 22.582C66.675 22.6154 66.636 22.6837 66.6324 22.8145C66.6324 22.8749 66.5144 22.8564 66.449 22.8599C65.9267 22.8954 65.4028 22.9027 64.8796 22.882C64.6337 22.8678 64.5733 22.7867 64.6174 22.5714C64.3807 22.5913 64.1433 22.6197 63.9173 22.5138C63.6557 22.5884 63.5285 22.5038 63.5683 22.221L63.5633 22.2259C63.4403 22.2508 63.3159 22.2195 63.1965 22.2259C62.9243 22.2465 62.8412 22.1207 62.8625 21.8755C62.5703 21.9253 62.5071 21.7554 62.5213 21.5166C62.237 21.5756 62.1944 21.4078 62.2171 21.1839C61.9392 21.223 61.797 21.1292 61.8688 20.8286H61.8653C61.8432 20.7453 61.8008 20.6687 61.7419 20.6058C61.6829 20.5429 61.6093 20.4957 61.5276 20.4682C61.5134 20.4495 61.5034 20.4279 61.4982 20.405C61.4931 20.3821 61.4929 20.3583 61.4978 20.3353C61.5191 20.0751 61.4225 19.8811 61.1815 19.7667C61.1772 19.6728 61.1723 19.5783 61.1673 19.4824C61.0536 19.2734 61.0855 19.0474 61.0884 18.8249C61.0792 18.1141 61.0749 17.4034 61.0884 16.6926C61.0998 16.4524 61.0251 16.2022 61.1687 15.9768C61.173 15.8837 61.1765 15.7899 61.1808 15.6961C61.2672 15.6596 61.3433 15.6023 61.4022 15.5292C61.4611 15.4562 61.501 15.3697 61.5184 15.2774C61.522 15.1836 61.5255 15.0898 61.5284 14.9931C61.6093 14.9637 61.682 14.9153 61.7404 14.852C61.7987 14.7887 61.8411 14.7123 61.8638 14.6292L61.8752 14.6257C61.8752 14.6072 61.8695 14.5887 61.8674 14.5702C61.8091 14.2575 62.0188 14.2753 62.2228 14.2859C62.1617 13.9938 62.2939 13.8957 62.5703 13.9355C62.5035 13.627 62.6535 13.546 62.9257 13.5958L63.21 13.5879C63.2214 13.2411 63.2214 13.2411 63.6301 13.2525L63.9144 13.2375C63.8476 12.9191 64.0139 12.858 64.2797 12.9077C65.1085 12.8992 65.9373 12.8551 66.7674 12.9298C67.0041 12.9511 67.0311 13.0577 67.0162 13.239C67.0336 13.2383 67.0508 13.2417 67.0667 13.2489C67.1044 13.2432 67.1427 13.2432 67.1804 13.2489C67.2577 13.2536 67.3353 13.2507 67.4121 13.2404C67.7042 13.1928 67.7575 13.3449 67.7213 13.5851L68.0532 13.6C68.3375 13.5382 68.4712 13.6377 68.4129 13.9391C68.4399 14.0211 68.4863 14.0954 68.5482 14.1557C68.61 14.2159 68.6855 14.2604 68.7683 14.2852C68.7944 14.3673 68.8393 14.4421 68.8994 14.5038C68.9594 14.5655 69.0331 14.6123 69.1144 14.6406C69.1542 14.8766 69.4151 14.9313 69.511 15.1218C69.5349 15.1966 69.5462 15.2749 69.5444 15.3535C69.5508 15.4111 69.5444 15.4885 69.5814 15.5205C69.9716 15.8276 69.838 16.2761 69.9041 16.6706C70.187 16.9207 70.1934 17.2491 70.1749 17.5924Z" fill="#DBDCE0"/>
</svg>
