<svg width="154" height="34" viewBox="0 0 154 34" fill="none" xmlns="http://www.w3.org/2000/svg">
<g clip-path="url(#clip0_3290_11454)">
<path d="M5.39975 28.6433C5.58239 28.5307 5.70066 28.6674 5.81974 28.7109C6.41433 28.9297 6.99926 29.1703 7.61155 29.3409C8.20855 29.5074 8.7951 29.7198 9.39773 29.8582C9.88048 29.9701 10.3632 30.0908 10.8621 30.1664C11.4148 30.2509 11.9627 30.3667 12.5179 30.4416C13.024 30.5099 13.5309 30.5566 14.0354 30.6226C14.8399 30.728 15.6397 30.6789 16.4411 30.7191C16.6189 30.7288 16.7935 30.7916 16.9769 30.7763C17.0518 30.7698 17.1378 30.7875 17.1612 30.6878C17.1845 30.588 17.0807 30.6234 17.0389 30.5912C16.6841 30.3168 16.2914 30.0948 15.9551 29.7955C15.9342 29.7762 15.8996 29.7681 15.9294 29.6957H16.1764C18.772 29.6957 21.3675 29.6893 23.9631 29.7013C24.5642 29.7013 25.0727 29.1574 25.0332 28.6554C25.0027 28.274 24.7484 27.8733 24.3252 27.7663C24.1288 27.7182 23.9271 27.6953 23.725 27.6979C20.46 27.6979 17.1944 27.6998 13.9284 27.7036C13.8365 27.7062 13.7455 27.6854 13.6638 27.6432C13.5822 27.6009 13.5127 27.5387 13.4617 27.4622C13.2782 27.2313 13.0859 27.0076 12.9162 26.767C12.8771 26.7088 12.8229 26.6624 12.7594 26.6327C12.6959 26.6031 12.6254 26.5914 12.5557 26.5989C9.70186 26.6029 6.84719 26.5989 3.99253 26.6045C3.5669 26.6045 3.27403 26.4436 3.08817 26.055C2.85726 25.5682 3.28369 25.0009 3.72621 24.9543C3.86279 24.9453 3.99974 24.9431 4.13655 24.9478C12.1449 24.9478 20.1524 24.9478 28.1591 24.9478C28.6281 24.9478 28.9564 24.7564 29.1873 24.342C29.4858 23.8061 29.0393 23.1464 28.6104 23.0233C28.4151 22.9706 28.2132 22.9465 28.011 22.9517C22.3559 22.9517 16.7004 22.9517 11.0447 22.9517C10.8572 22.9517 10.7164 22.9653 10.6577 22.7103C10.6046 22.481 10.4775 22.2629 10.4163 22.0264C10.4068 21.9705 10.3758 21.9206 10.33 21.8874C10.2841 21.8541 10.227 21.8402 10.1709 21.8486C9.76865 21.8558 9.36635 21.8486 8.96406 21.8486C6.46984 21.8486 3.9708 21.8446 1.47417 21.8542C1.13705 21.8542 0.795907 21.5976 0.669587 21.2636C0.559359 20.982 0.684874 20.5749 0.932687 20.369C1.04253 20.2678 1.18569 20.2106 1.33498 20.208C1.48705 20.208 1.63992 20.2032 1.79198 20.2032C11.1166 20.2032 20.4409 20.2032 29.765 20.2032C29.9828 20.205 30.1989 20.1649 30.4014 20.0849C30.778 19.9337 30.9325 19.6022 30.9646 19.2248C31.0017 18.837 30.7788 18.5417 30.4819 18.3269C30.3582 18.2405 30.2103 18.1955 30.0595 18.1982C29.946 18.203 29.8318 18.1982 29.7175 18.1982H9.9191C9.60612 18.1982 9.60612 18.1982 9.59727 17.8836C9.59727 17.6784 9.586 17.4724 9.59003 17.2681C9.59003 17.153 9.55623 17.0951 9.43635 17.1031C9.3752 17.1031 9.31405 17.1031 9.25371 17.1031C6.48272 17.1031 3.71199 17.1031 0.941537 17.1031C0.592347 17.1031 0.313156 16.9849 0.136952 16.6542C-0.133389 16.1449 0.224652 15.4803 0.793494 15.4602C0.930273 15.4553 1.06786 15.4602 1.20464 15.4602C10.7266 15.4602 20.2476 15.4602 29.7674 15.4602C30.089 15.4587 30.4016 15.3537 30.6589 15.1609C30.8898 15 31.0073 14.5116 30.9003 14.2332C30.6589 13.6 30.4441 13.4543 29.7739 13.4543H10.2329C10.1267 13.4662 10.0193 13.4585 9.91588 13.4318C9.99634 13.1309 10.039 12.8244 10.1428 12.5307C10.2039 12.3569 10.0744 12.3585 9.95129 12.3585C8.61031 12.3585 7.26933 12.3585 5.92836 12.3585C4.58872 12.3585 3.24909 12.3625 1.90945 12.3585C1.39371 12.3585 0.968893 11.9771 1.0051 11.4493C1.02521 11.1484 1.39291 10.7252 1.72923 10.7147C1.83624 10.7147 1.94244 10.7147 2.05106 10.7147C10.7358 10.7147 19.4207 10.7147 28.106 10.7147C28.5718 10.7147 28.9709 10.5498 29.1986 10.0936C29.4456 9.59636 29.135 8.95993 28.6249 8.79579C28.4161 8.73463 28.1987 8.70746 27.9812 8.71533H11.7157C11.9096 8.38385 12.0762 8.07167 12.2717 7.77558C12.3844 7.60581 12.2999 7.61466 12.1727 7.61466C11.3961 7.61466 10.6196 7.61466 9.84347 7.61466C8.16832 7.61466 6.49371 7.61466 4.81964 7.61466C4.61022 7.6168 4.40702 7.54352 4.24718 7.4082C4.08734 7.27288 3.98152 7.08456 3.94908 6.87766C3.89034 6.52043 4.29022 5.92423 4.67884 5.96848C4.8231 5.9749 4.96762 5.97329 5.1117 5.96365C11.3075 5.96365 17.5029 5.96097 23.6976 5.95561C24.0106 5.95561 24.3477 5.96446 24.6277 5.7271C25.0759 5.34654 25.1716 4.79137 24.7726 4.30701C24.5408 4.02541 24.2456 3.96023 23.898 3.96104C21.333 3.96828 18.7671 3.96506 16.2021 3.96506H15.8746C16.2584 3.50886 16.7838 3.29967 17.2328 2.88692C16.8031 2.88692 16.4395 2.85473 16.083 2.89416C15.4643 2.96255 14.8408 2.92554 14.2244 2.98669C13.695 3.03979 13.1632 3.09209 12.637 3.17013C12.1108 3.24818 11.591 3.33105 11.0713 3.43404C10.5845 3.53139 10.1058 3.68265 9.62301 3.77357C9.09601 3.87253 8.5859 4.02702 8.07097 4.16621C7.65258 4.27965 7.25029 4.45345 6.83432 4.57735C6.38347 4.71594 5.93985 4.87705 5.50515 5.0601C5.48101 5.06976 5.44802 5.05608 5.36193 5.04884C7.17305 3.26507 9.21107 1.93107 11.5492 1.04603C13.9444 0.138453 16.4306 -0.15522 18.957 0.0748911C23.3597 0.477184 27.064 2.37037 30.0096 5.64423C32.4016 8.29936 33.7799 11.459 34.1629 15.0225C34.5748 18.8459 33.7493 22.4046 31.7354 25.6776C29.9509 28.5741 27.4784 30.7232 24.392 32.1497C21.7063 33.392 18.8629 33.8393 15.9294 33.5827C11.8308 33.2294 8.34372 31.5181 5.39975 28.6433Z" fill="#DBDCE0"/>
<path d="M146.579 21.2882C146.74 20.7878 146.901 20.3042 147.047 19.8182C147.153 19.4795 147.238 19.1343 147.35 18.798C147.498 18.3515 147.608 17.8921 147.77 17.4487C147.892 17.1165 147.97 16.7681 148.079 16.4309C148.227 15.9755 148.342 15.5105 148.507 15.0631C148.63 14.7317 148.699 14.3801 148.812 14.0445C148.961 13.5972 149.07 13.1386 149.234 12.6953C149.356 12.363 149.445 12.0178 149.535 11.675C149.558 11.5857 149.582 11.5415 149.677 11.5423H154C153.753 12.2922 153.525 13.0292 153.267 13.7557C152.987 14.5466 152.717 15.3407 152.443 16.1332C152.186 16.8767 151.944 17.6249 151.661 18.3603C151.439 18.9372 151.282 19.5383 151.081 20.124C150.887 20.6872 150.668 21.2408 150.473 21.8032C150.302 22.298 150.157 22.8008 149.99 23.2965C149.829 23.7688 149.647 24.2346 149.481 24.7053C149.344 25.0947 149.219 25.4882 149.087 25.88C148.955 26.2718 148.824 26.6612 148.69 27.0515C148.549 27.4618 148.404 27.8705 148.264 28.2809C148.103 28.7548 147.942 29.2287 147.781 29.7018C147.639 30.1121 147.496 30.5216 147.354 30.932C147.213 31.3423 147.072 31.7527 146.931 32.163C146.828 32.4623 146.719 32.76 146.627 33.0625C146.584 33.2066 146.516 33.2757 146.359 33.2757C145.018 33.272 143.679 33.272 142.341 33.2757C142.166 33.2757 142.126 33.2605 142.209 33.0585C142.402 32.5894 142.536 32.093 142.703 31.6167C142.871 31.1404 143.053 30.6802 143.217 30.2087C143.357 29.8064 143.476 29.3936 143.615 28.9889C143.747 28.6075 143.897 28.2326 144.032 27.8512C144.17 27.4546 144.273 27.0466 144.434 26.6588C144.613 26.2308 144.309 25.9347 144.192 25.5871C144.044 25.1333 143.862 24.6908 143.69 24.2451C143.503 23.7567 143.315 23.2699 143.121 22.7848C142.938 22.3278 142.751 21.874 142.587 21.4097C142.443 21.0018 142.265 20.6051 142.105 20.2028C141.93 19.7587 141.763 19.3114 141.591 18.8664C141.458 18.5237 141.32 18.1825 141.189 17.8406C140.986 17.32 140.787 16.7946 140.584 16.2773C140.39 15.7857 140.182 15.2989 139.993 14.8065C139.82 14.3607 139.661 13.9094 139.488 13.4636C139.297 12.9704 139.103 12.478 138.896 11.992C138.856 11.8971 138.866 11.7917 138.791 11.7C138.716 11.6083 138.767 11.5391 138.901 11.5391C139.142 11.5455 139.383 11.5391 139.631 11.5391H142.944C143.328 11.5391 143.316 11.5391 143.422 11.8987C143.583 12.4354 143.761 12.9648 143.949 13.4918C144.127 13.9914 144.271 14.5048 144.432 15.0092C144.593 15.5137 144.785 16.0069 144.953 16.5098C145.12 17.0127 145.268 17.5228 145.436 18.0272C145.603 18.5317 145.81 19.0201 145.948 19.5302C146.066 19.9663 146.221 20.3887 146.358 20.8175C146.403 20.9728 146.387 21.182 146.579 21.2882Z" fill="#DBDCE0"/>
<path d="M40.8419 19.9096C40.8419 18.4881 40.8419 17.0667 40.8419 15.6452C40.8419 15.2228 40.858 15.3009 40.4839 15.2993C39.7839 15.2993 39.0831 15.2936 38.3831 15.2993C38.2222 15.2993 38.1739 15.2534 38.1763 15.0933C38.1844 14.4496 38.1763 13.8011 38.1763 13.1551C38.1671 13.0978 38.1787 13.0392 38.2092 12.9898C38.2396 12.9405 38.2868 12.9037 38.3421 12.8863C39.2186 12.4699 39.9842 11.852 40.5764 11.0833C41.0687 10.47 41.472 9.79043 41.7744 9.06454C41.9791 8.58409 42.1582 8.09314 42.3111 7.59376C42.3223 7.54596 42.3506 7.50387 42.3905 7.47531C42.4305 7.44675 42.4794 7.43366 42.5283 7.43848C43.2524 7.43848 43.9766 7.44411 44.7007 7.43848C44.8898 7.43848 44.8568 7.55997 44.8568 7.66859C44.8568 8.86259 44.8568 10.0558 44.8568 11.2498C44.8568 11.5829 44.8141 11.5394 45.1464 11.5403C46.5006 11.5403 47.8555 11.5403 49.2104 11.5403C49.3834 11.5403 49.4437 11.5765 49.4421 11.7631C49.4325 12.8654 49.4325 13.9677 49.4421 15.07C49.4421 15.2703 49.3737 15.3049 49.1935 15.3041C47.8539 15.2977 46.5142 15.3041 45.1754 15.2961C44.9903 15.2961 44.9421 15.354 44.9429 15.5294C44.9477 18.0225 44.9501 20.5167 44.9501 23.012C44.9501 23.4336 45.1151 23.7788 45.527 23.9188C45.8215 24.0194 46.1514 23.9928 46.4539 23.9317C46.8521 23.8549 47.2335 23.7081 47.5803 23.498C47.7412 23.4023 47.8925 23.3025 48.0437 23.1971C48.195 23.0917 48.2908 23.1126 48.3374 23.288C48.4822 23.8383 48.6367 24.3863 48.7751 24.9382C48.8821 25.3622 48.9602 25.7935 49.0688 26.2167C49.1372 26.483 49.1999 26.7501 49.2699 27.014C49.3045 27.1436 49.2699 27.1878 49.1895 27.2425C48.8878 27.4461 48.5458 27.57 48.2103 27.6939C47.8515 27.8267 47.4862 27.9353 47.1145 28.0407C46.9642 28.0838 46.8109 28.1152 46.6558 28.1348C46.0033 28.2153 45.3452 28.3078 44.6886 28.2346C43.884 28.1445 43.0843 27.9635 42.4197 27.4718C41.9336 27.1184 41.5486 26.6437 41.3029 26.0952C41.1085 25.655 40.9779 25.1893 40.9151 24.7121C40.7647 23.6074 40.8781 22.5019 40.8427 21.398C40.8282 20.8984 40.8419 20.4036 40.8419 19.9096Z" fill="#DBDCE0"/>
<path d="M55.5818 13.7093C55.8465 13.2636 56.1016 12.8243 56.4403 12.4308C56.7991 12.0177 57.2492 11.6937 57.755 11.4846C58.043 11.3648 58.3472 11.2433 58.6819 11.2537C58.9136 11.2634 59.134 11.1572 59.3746 11.1813C60.1864 11.2618 60.9427 11.4822 61.5792 12.0181C61.6685 12.0937 61.761 12.1669 61.8479 12.2466C62.1818 12.5523 61.9453 12.9031 61.905 13.2121C61.8745 13.4454 61.8415 13.6948 61.7884 13.9362C61.7312 14.1929 61.6983 14.4689 61.6532 14.7328C61.5768 15.1785 61.5454 15.6347 61.4118 16.0708C61.4106 16.0784 61.409 16.0859 61.407 16.0933C61.3676 16.1818 61.4609 16.3274 61.3161 16.3653C61.1841 16.3991 61.1214 16.2663 61.0465 16.1915C60.6265 15.7739 60.118 15.5341 59.5573 15.3619C59.2221 15.2661 58.87 15.245 58.5258 15.3C57.6271 15.4175 56.9432 15.8753 56.5545 16.7169C56.3725 17.1211 56.2427 17.547 56.1683 17.9841C56.0489 18.6894 55.9951 19.4042 56.0074 20.1195C56.0114 22.6217 56.0074 25.1232 56.0139 27.6246C56.0139 27.8346 55.9575 27.8893 55.7492 27.8869C54.5691 27.8773 53.389 27.8773 52.209 27.8869C52.0271 27.8869 51.9628 27.8507 51.9628 27.6528C51.9687 22.3602 51.9687 17.0679 51.9628 11.7759C51.9628 11.5836 52.0175 11.5345 52.2041 11.5394C53.1479 11.549 54.0925 11.5474 55.0363 11.5394C55.1972 11.5394 55.2592 11.5627 55.2857 11.751C55.3565 12.2482 55.4233 12.7446 55.4667 13.2459C55.495 13.4027 55.5334 13.5575 55.5818 13.7093Z" fill="#DBDCE0"/>
<path d="M64.054 19.6852C64.054 17.0568 64.0524 14.4261 64.0492 11.793C64.0492 11.591 64.1015 11.5363 64.301 11.5371C65.5111 11.5457 66.7215 11.5457 67.9321 11.5371C68.1091 11.5371 68.1606 11.5798 68.1598 11.7616C68.155 17.0617 68.155 22.3615 68.1598 27.661C68.1598 27.8477 68.1003 27.8847 67.9281 27.8839C66.7253 27.8766 65.5224 27.8734 64.3204 27.8839C64.087 27.8839 64.0484 27.8034 64.0492 27.5975C64.0562 24.9616 64.0578 22.3242 64.054 19.6852Z" fill="#DBDCE0"/>
<path d="M66.1632 4.23633C66.9324 4.24357 67.6573 4.4777 68.194 5.14229C68.4842 5.48967 68.6601 5.91818 68.6977 6.36928C68.7318 6.68543 68.7369 7.00403 68.713 7.32111C68.6156 8.22064 68.0073 9.10246 67.0434 9.36797C66.7651 9.44441 66.4843 9.4428 66.2075 9.50395C65.9307 9.5651 65.6065 9.442 65.3055 9.39211C65.0206 9.3411 64.7494 9.23151 64.509 9.07028C64.0624 8.77585 63.7339 8.33342 63.5813 7.82076C63.4741 7.48648 63.4217 7.13707 63.426 6.78606C63.4309 6.11584 63.6143 5.47861 64.1027 4.9862C64.4429 4.64466 64.877 4.41194 65.3498 4.31759C65.6181 4.26742 65.8903 4.24024 66.1632 4.23633Z" fill="#DBDCE0"/>
<path d="M87.5415 19.3406C87.5152 17.9688 87.2045 16.6173 86.6291 15.3716C86.3863 14.8276 86.0754 14.3166 85.7038 13.851C85.2565 13.2878 84.7592 12.7656 84.151 12.3794C83.5693 12.0109 82.9666 11.6882 82.2811 11.5032C81.6818 11.3535 81.0721 11.2494 80.4571 11.1918C80.1465 11.1572 79.8295 11.2111 79.5149 11.2417C79.0245 11.2774 78.5421 11.3859 78.0836 11.5635C77.2428 11.9119 76.4495 12.3512 75.9112 13.1252C75.8997 13.1443 75.8821 13.159 75.8613 13.167C75.8404 13.1751 75.8175 13.1759 75.7962 13.1695C75.7479 13.1614 75.7495 13.1172 75.7487 13.0802C75.7487 13.019 75.7487 12.9587 75.7487 12.8975C75.7487 10.7533 75.7487 8.60909 75.7527 6.46487C75.7527 6.28705 75.706 6.23475 75.525 6.23636C74.3527 6.24441 73.1804 6.23636 72.0082 6.24119C71.6702 6.24119 71.7089 6.20096 71.7089 6.54854C71.7089 13.5511 71.7089 20.5537 71.7089 27.5563C71.7117 27.6099 71.7117 27.6636 71.7089 27.7172C71.6936 27.8524 71.7587 27.8853 71.8818 27.8781C72.1103 27.8709 72.3389 27.8781 72.5674 27.8781C73.2746 27.8781 73.9826 27.8781 74.6907 27.8781C74.7711 27.8781 74.8894 27.9119 74.9071 27.7759C74.953 27.4211 75.0278 27.0711 75.0929 26.7195C75.1455 26.3792 75.2191 26.0425 75.3134 25.7114C75.3753 25.7565 75.428 25.8131 75.4687 25.8779C75.7841 26.3704 76.1891 26.7994 76.6627 27.1427C77.1167 27.4825 77.6252 27.7426 78.1665 27.9119C78.6457 28.0711 79.1416 28.1748 79.6445 28.2209C80.3674 28.2747 81.0943 28.2251 81.8032 28.0736C82.2457 27.9891 82.6793 27.8636 83.0986 27.6987C84.1041 27.2865 84.9896 26.6277 85.6732 25.783C86.1936 25.1355 86.61 24.411 86.9075 23.6355C87.2132 22.872 87.3749 22.0762 87.5077 21.2749C87.5761 20.8605 87.5294 20.4317 87.5986 20.0117C87.626 19.792 87.5463 19.5595 87.5415 19.3406ZM83.492 20.0189C83.4542 21.0528 83.2096 22.0368 82.6416 22.9042C82.2216 23.5451 81.5901 24.0183 80.857 24.2414C80.2093 24.4522 79.5584 24.4618 78.9131 24.3822C78.3854 24.3063 77.8837 24.1046 77.4504 23.794C76.6651 23.2558 76.196 22.5115 75.9016 21.6281C75.7095 21.0749 75.6185 20.4917 75.6328 19.9063C75.6401 19.3052 75.6143 18.8603 75.7398 18.4242C75.9152 17.816 76.1116 17.2173 76.4688 16.6839C76.8497 16.1001 77.3881 15.6359 78.0216 15.3451C78.436 15.1433 78.8866 15.0265 79.3468 15.0015C79.8617 14.9846 80.3702 15.0015 80.8522 15.1978C81.5204 15.4629 82.0916 15.9261 82.4887 16.5254C82.7912 16.9684 83.0295 17.4519 83.1967 17.9616C83.2946 18.2893 83.3678 18.6239 83.4156 18.9625C83.4767 19.3111 83.5023 19.6651 83.492 20.0189Z" fill="#DBDCE0"/>
<path d="M121.516 18.3159C121.473 18.0368 121.427 17.7527 121.387 17.4719C121.373 17.3083 121.342 17.1465 121.294 16.9892C121.14 16.5756 121.053 16.1428 120.876 15.7316C120.619 15.1282 120.342 14.5392 119.966 14.0026C119.531 13.3761 118.998 12.8238 118.387 12.3668C117.628 11.8132 116.751 11.4429 115.824 11.2847C115.386 11.2042 114.927 11.1101 114.474 11.1913C114.208 11.2397 113.937 11.2634 113.666 11.2621C113.433 11.2718 113.203 11.313 112.981 11.3844C112.4 11.5454 111.828 11.7481 111.324 12.0941C110.831 12.4213 110.4 12.8347 110.053 13.3146C109.962 13.445 109.932 13.6365 109.731 13.7113C109.71 13.478 109.663 13.2527 109.651 13.0395C109.626 12.6243 109.503 12.2212 109.525 11.8028C109.536 11.6226 109.455 11.5341 109.253 11.5357C108.294 11.5438 107.335 11.5438 106.376 11.5357C106.196 11.5357 106.15 11.5832 106.15 11.7626C106.154 18.8569 106.154 25.9512 106.15 33.0455C106.15 33.2209 106.191 33.278 106.375 33.2772C107.586 33.2686 108.796 33.2686 110.007 33.2772C110.206 33.2772 110.262 33.2177 110.261 33.0173C110.254 30.7975 110.256 28.5768 110.261 26.357C110.261 26.262 110.236 26.1615 110.304 26.0593C110.397 26.1199 110.474 26.2008 110.531 26.2958C110.818 26.7327 111.225 27.0489 111.658 27.316C112.122 27.6073 112.605 27.8744 113.157 27.9991C113.549 28.0876 113.935 28.2027 114.336 28.2292C114.968 28.2644 115.602 28.2116 116.22 28.0723C116.582 27.9976 116.937 27.8874 117.278 27.7433C118.227 27.3515 119.06 26.7249 119.7 25.9225C120.18 25.3278 120.572 24.6675 120.864 23.9617C121.063 23.4764 121.224 22.9766 121.347 22.4668C121.479 21.9621 121.56 21.4454 121.589 20.9244C121.605 20.0563 121.648 19.1857 121.516 18.3159ZM117.413 20.9888C117.349 21.3378 117.254 21.6804 117.129 22.0122C116.899 22.6619 116.5 23.2382 115.972 23.6809C115.613 23.9744 115.198 24.1932 114.754 24.3246C114.446 24.4252 114.141 24.3898 113.949 24.4115C112.736 24.4662 111.849 24.0277 111.133 23.2151C110.811 22.8474 110.602 22.4105 110.432 21.9527C110.122 21.1143 110.041 20.247 110.082 19.3667C110.113 18.7571 110.225 18.1543 110.415 17.5741C110.63 16.8975 111.016 16.2878 111.535 15.804C111.857 15.4951 112.259 15.3213 112.683 15.174C113.165 15.0019 113.653 14.9962 114.149 15.0027C114.713 15.0091 115.195 15.236 115.658 15.5281C116.382 15.9859 116.802 16.6754 117.106 17.4486C117.244 17.8002 117.311 18.1727 117.405 18.5372C117.506 18.9226 117.472 19.3112 117.535 19.6966C117.607 20.1222 117.481 20.5599 117.413 20.9888Z" fill="#DBDCE0"/>
<path d="M102.945 22.1639C102.879 20.6811 103.047 18.8209 102.873 16.9647C102.849 16.704 102.834 16.4433 102.797 16.1818C102.723 15.6753 102.585 15.1802 102.386 14.7086C102.002 13.7827 101.365 12.9835 100.549 12.4027C99.6868 11.7799 98.6883 11.4372 97.6416 11.2835C97.1838 11.2175 96.7131 11.1226 96.2424 11.1837C95.6205 11.2642 94.9929 11.2739 94.3734 11.4251C93.8553 11.5445 93.3478 11.706 92.8559 11.9079C92.4076 12.1087 91.977 12.3469 91.5686 12.6199C90.8744 13.0702 90.2599 13.6328 89.7502 14.2846C89.7276 14.3091 89.7141 14.3406 89.7119 14.3738C89.7097 14.407 89.719 14.44 89.7381 14.4673C89.8339 14.6418 89.924 14.8189 90.0246 14.9894C90.5242 15.8367 91.0287 16.6791 91.5235 17.5295C91.5774 17.6212 91.6096 17.7298 91.7263 17.7371C91.8574 17.7451 91.9218 17.6196 91.9676 17.5311C92.1897 17.1232 92.5027 16.7877 92.8189 16.4594C93.0744 16.2043 93.3497 15.9697 93.642 15.7578C94.2728 15.2815 94.9712 14.9379 95.7532 14.8526C96.3776 14.7843 97.0124 14.7722 97.6319 14.9951C98.2515 15.2179 98.7165 15.5317 98.8702 16.2309C98.9603 16.6445 98.8967 16.9591 98.5862 17.2278C98.2217 17.5448 97.7767 17.7105 97.3222 17.8296C96.9295 17.935 96.5361 18.0444 96.1418 18.145C95.6905 18.2609 95.2318 18.3502 94.7797 18.4668C94.4071 18.5602 94.029 18.6318 93.6589 18.7428C92.9074 18.9665 92.1776 19.2384 91.5203 19.6729C90.8629 20.1074 90.3351 20.6449 89.9827 21.3457C89.7861 21.719 89.6521 22.1221 89.5861 22.5389C89.5289 22.946 89.3994 23.3523 89.4598 23.7602C89.5016 24.0386 89.5032 24.3154 89.5273 24.5922C89.526 24.6377 89.5308 24.6831 89.5418 24.7273C89.673 25.0797 89.7204 25.4515 89.8781 25.8031C90.1196 26.3674 90.5006 26.861 90.9852 27.2376C91.4576 27.5912 91.9935 27.8507 92.5638 28.002C93.0012 28.1233 93.4498 28.1998 93.9027 28.2305C94.8127 28.2933 95.7074 28.2128 96.5852 27.899C97.1701 27.6983 97.7149 27.3957 98.1943 27.0051C98.5823 26.6963 98.9067 26.3151 99.1494 25.8827C99.1703 25.8441 99.2049 25.7475 99.3039 25.7862C99.3787 25.8159 99.3779 25.8747 99.3843 25.9342C99.3847 26.0482 99.3941 26.162 99.4125 26.2745C99.5287 26.7129 99.6139 27.159 99.6675 27.6094C99.686 27.7952 99.748 27.8934 99.9588 27.8918C100.871 27.8826 101.783 27.8826 102.694 27.8918C102.896 27.8918 102.948 27.8354 102.946 27.6351C102.942 25.9302 102.945 24.2341 102.945 22.1639ZM98.9177 22.2532C98.9032 22.53 98.7632 22.7995 98.5958 23.0393C98.1332 23.6886 97.508 24.0853 96.7525 24.3266C96.1639 24.5294 95.5411 24.6142 94.9197 24.5761C94.4723 24.5431 94.0346 24.4465 93.7064 24.1078C93.5745 23.9765 93.4897 23.8054 93.465 23.621C93.3684 22.736 93.5945 22.3594 94.4305 21.9451C94.9221 21.7037 95.4644 21.6063 95.9914 21.4623C96.8129 21.2386 97.6617 21.0793 98.4148 20.6481C98.6079 20.5378 98.7463 20.3649 98.9394 20.1653C98.9329 20.9047 98.9539 21.5806 98.9177 22.2532Z" fill="#DBDCE0"/>
<path d="M136.943 21.9308C136.915 19.9998 137.066 18.0616 136.845 16.1314C136.792 15.7194 136.683 15.3165 136.523 14.9334C136.34 14.452 136.088 13.9997 135.775 13.5905C135.293 12.9782 134.746 12.4544 134.062 12.0811C133.635 11.8333 133.176 11.6452 132.699 11.5219C132.263 11.4205 131.84 11.2805 131.389 11.2637C131.305 11.2678 131.221 11.2621 131.139 11.2468C130.698 11.1237 130.242 11.1478 129.807 11.2057C129.33 11.2693 128.846 11.3023 128.371 11.4286C127.906 11.544 127.449 11.69 127.003 11.8655C126.288 12.1588 125.623 12.5598 125.029 13.0547C124.584 13.4177 124.179 13.828 123.822 14.2784C123.792 14.3167 123.776 14.3649 123.779 14.414C123.781 14.463 123.802 14.5093 123.837 14.5439C123.879 14.5945 123.918 14.6483 123.952 14.7049C124.475 15.6478 125.021 16.5779 125.582 17.4984C125.768 17.8033 125.884 17.8106 126.054 17.5153C126.295 17.0953 126.627 16.7461 126.948 16.3889C127.322 15.9769 127.789 15.6647 128.273 15.4016C128.858 15.0798 129.467 14.8014 130.163 14.8167C130.592 14.8264 131.023 14.7877 131.45 14.906C131.78 14.9985 132.103 15.0991 132.371 15.3164C132.706 15.5875 132.916 15.9125 132.948 16.372C132.979 16.8185 132.827 17.1653 132.433 17.3865C131.695 17.8009 130.871 17.9578 130.07 18.1767C129.535 18.3239 128.986 18.4293 128.442 18.5443C127.822 18.681 127.215 18.8716 126.627 19.114C126.15 19.3063 125.672 19.5243 125.284 19.8623C124.665 20.4005 124.109 20.9887 123.843 21.8086C123.686 22.2872 123.581 22.7814 123.531 23.2826C123.504 23.6435 123.521 24.0064 123.583 24.3631C123.64 24.7728 123.734 25.1767 123.863 25.57C124.139 26.4003 124.687 27.011 125.399 27.4761C126.149 27.9668 127.016 28.1382 127.893 28.2147C128.607 28.2818 129.327 28.2313 130.025 28.065C130.495 27.9508 130.954 27.8236 131.376 27.5895C131.952 27.2677 132.473 26.8887 132.879 26.3496C133.04 26.1412 133.142 25.8942 133.331 25.706C133.47 25.9224 133.445 26.1509 133.502 26.3577C133.603 26.7687 133.682 27.185 133.737 27.6048C133.772 27.822 133.832 27.8775 134.042 27.8751C134.931 27.8649 135.822 27.8649 136.713 27.8751C136.914 27.8751 136.967 27.8252 136.965 27.6233C136.945 25.7317 136.97 23.8313 136.943 21.9308ZM132.984 22.1722C132.945 22.5651 132.778 22.9343 132.51 23.2238C132.156 23.6189 131.768 23.9705 131.268 24.1668C130.897 24.3135 130.516 24.4303 130.126 24.516C129.755 24.5964 129.391 24.5828 129.023 24.5884C128.656 24.6002 128.294 24.5031 127.982 24.3092C127.857 24.2305 127.75 24.1256 127.669 24.0017C127.588 23.8779 127.534 23.7379 127.512 23.5915C127.432 23.1586 127.493 22.7749 127.783 22.4361C128.027 22.1681 128.337 21.9682 128.681 21.856C129.241 21.661 129.812 21.5017 130.392 21.3789C130.903 21.2602 131.405 21.1089 131.896 20.9259C132.238 20.7988 132.572 20.6314 132.825 20.349C132.868 20.3016 132.905 20.2477 132.942 20.197L133 20.2356C132.998 20.8809 133.035 21.5294 132.984 22.1706V22.1722Z" fill="#DBDCE0"/>
</g>
<defs>
<clipPath id="clip0_3290_11454">
<rect width="153.95" height="33.6518" fill="white" transform="translate(0.0498047)"/>
</clipPath>
</defs>
</svg>
