<svg width="140" height="26" viewBox="0 0 140 26" fill="none" xmlns="http://www.w3.org/2000/svg">
<path d="M19.9665 2.08203H1.16913C0.532236 2.08203 0.000894953 2.61874 0.000894953 3.26458V5.38458C0.000894953 6.04652 0.532236 6.56891 1.17002 6.56891H19.9656C20.6186 6.56891 21.1347 6.03042 21.1499 5.38547V3.27979C21.1499 2.61963 20.6186 2.08203 19.9665 2.08203ZM19.9665 13.8825H1.16913C1.01525 13.8827 0.862956 13.9136 0.721077 13.9732C0.579197 14.0327 0.450552 14.1199 0.342599 14.2295C0.122824 14.4524 -0.000268174 14.7529 4.38703e-07 15.0659V17.1859C4.38703e-07 17.8478 0.531342 18.3693 1.16913 18.3693H19.9647C20.6177 18.3693 21.1338 17.8469 21.149 17.1868V15.0659C21.149 14.4049 20.6186 13.8825 19.9665 13.8825ZM11.7521 19.7684H1.17002C0.859629 19.7684 0.561755 19.8927 0.343494 20.1145C0.123719 20.3374 0.00062634 20.6379 0.000894953 20.9509V23.0709C0.000894953 23.7329 0.532236 24.2544 1.17002 24.2544H11.7369C12.3899 24.2544 12.9061 23.7176 12.9061 23.0718V20.9509C12.91 20.7969 12.8831 20.6437 12.8268 20.5003C12.7706 20.3568 12.6862 20.2261 12.5787 20.1158C12.4711 20.0055 12.3426 19.9179 12.2006 19.858C12.0587 19.7982 11.9062 19.7683 11.7521 19.7684ZM21.1499 7.98135H1.17002C0.859629 7.98135 0.561755 8.10659 0.343494 8.32753C0.123501 8.55062 0.000390795 8.85148 0.000894953 9.1648V11.2848C0.000894953 11.9458 0.532236 12.4682 1.17002 12.4682H21.1356C21.7886 12.4682 22.3038 11.9306 22.3038 11.2848V9.1648C22.3064 9.01114 22.2786 8.8585 22.2219 8.71567C22.1652 8.57284 22.0807 8.44265 21.9735 8.33263C21.8662 8.2226 21.7382 8.13491 21.5968 8.07462C21.4555 8.01433 21.3036 7.98263 21.1499 7.98135Z" fill="#DBDCE0"/>
<path d="M42.4498 7.82866C41.8724 7.23092 41.1806 6.75545 40.4157 6.43054C39.6464 6.10723 38.8206 5.93999 37.9862 5.93856C37.173 5.91978 36.3669 6.09357 35.6336 6.44575C35.1416 6.681 34.698 7.00929 34.3276 7.41361V7.04596C34.3247 6.85882 34.2549 6.67891 34.1308 6.53878C34.0696 6.46566 33.9929 6.40704 33.9063 6.36714C33.8197 6.32723 33.7253 6.30703 33.6299 6.30799H31.0027C30.9071 6.30546 30.8122 6.32496 30.7254 6.36498C30.6385 6.405 30.562 6.46446 30.5018 6.53878C30.3713 6.67498 30.3002 6.85739 30.3041 7.04596V24.548C30.3041 24.7323 30.3801 24.9166 30.5009 25.0543C30.5668 25.1195 30.6451 25.1708 30.7311 25.2052C30.8171 25.2396 30.9092 25.2564 31.0018 25.2547H33.6594C33.8419 25.2547 34.0083 25.1778 34.1452 25.0543C34.2168 24.9917 34.2732 24.9135 34.3101 24.8258C34.347 24.738 34.3634 24.643 34.358 24.548V18.57C34.7373 18.985 35.223 19.2928 35.7544 19.477C36.453 19.7382 37.182 19.8617 37.9254 19.8617C38.7752 19.8617 39.6106 19.7069 40.3853 19.3697C41.1632 19.0454 41.866 18.5643 42.4498 17.9564C43.0556 17.3228 43.5304 16.5759 43.8471 15.7585C44.2067 14.8439 44.3821 13.8671 44.3632 12.8845C44.3745 11.8978 44.1994 10.9178 43.8471 9.99607C43.5202 9.19275 43.0469 8.45764 42.4498 7.82866ZM40.0516 14.1591C39.9126 14.5303 39.701 14.87 39.429 15.1583C39.1596 15.448 38.8327 15.6782 38.4692 15.8342C38.1056 15.9902 37.7136 16.0687 37.318 16.0645C36.9083 16.0645 36.5138 15.9875 36.1498 15.8185C35.7904 15.6635 35.4651 15.4392 35.1926 15.1583C34.9212 14.8667 34.7051 14.5281 34.5548 14.1591C34.2514 13.3679 34.2514 12.4923 34.5548 11.701C34.6917 11.3325 34.9198 10.9943 35.1926 10.7171C35.4674 10.4349 35.7919 10.206 36.1498 10.0417C36.5146 9.86961 36.9147 9.78536 37.318 9.7957C37.7286 9.7957 38.1231 9.87263 38.5023 10.0408C38.8512 10.2108 39.1705 10.4254 39.4443 10.7027C39.7171 10.9944 39.9148 11.3164 40.0668 11.6858C40.3578 12.4855 40.3524 13.3631 40.0516 14.1591ZM58.6647 6.3071H56.0232C55.9317 6.30675 55.8411 6.32569 55.7574 6.36268C55.6738 6.39967 55.5988 6.45388 55.5375 6.52178C55.4694 6.59076 55.4157 6.6725 55.3793 6.76229C55.3429 6.85209 55.3246 6.94819 55.3255 7.04507V7.36709C54.9932 6.98078 54.5849 6.66713 54.1259 6.44575C53.4075 6.09676 52.6166 5.92295 51.8181 5.93856C50.117 5.94147 48.4858 6.61519 47.2784 7.81346C46.656 8.4455 46.161 9.19136 45.8204 10.0104C45.4413 10.9256 45.2556 11.9093 45.2747 12.8997C45.2585 13.8898 45.4441 14.8729 45.8204 15.7889C46.1593 16.6052 46.6488 17.3505 47.2632 17.9859C47.8502 18.5907 48.5539 19.07 49.3316 19.3947C50.1093 19.7194 50.9449 19.8829 51.7877 19.8751C52.5927 19.8912 53.3817 19.7221 54.1107 19.3679C54.566 19.138 54.9909 18.8312 55.3255 18.4465V18.7999C55.3255 18.9841 55.4006 19.1684 55.5375 19.3071C55.6743 19.4296 55.8416 19.5065 56.0232 19.5065H58.6647C58.8503 19.5031 59.0284 19.4322 59.1656 19.3071C59.2314 19.2405 59.2828 19.1611 59.3168 19.0739C59.3508 18.9867 59.3666 18.8934 59.3633 18.7999V7.04507C59.3674 6.85662 59.2966 6.67423 59.1665 6.53788C59.1063 6.46357 59.0298 6.4041 58.9429 6.36409C58.8561 6.32407 58.7603 6.30457 58.6647 6.3071ZM55.0974 14.1439C54.9584 14.5151 54.7467 14.8548 54.4748 15.1431C54.2017 15.42 53.8835 15.6484 53.5337 15.8185C52.7895 16.1566 51.9236 16.1566 51.1803 15.8185C50.8224 15.6542 50.4979 15.4252 50.2231 15.1431C49.9515 14.8548 49.7401 14.5151 49.6015 14.1439C49.313 13.3552 49.313 12.4898 49.6015 11.701C49.7374 11.3325 49.9503 11.0096 50.224 10.7171C50.4969 10.4406 50.8153 10.2108 51.1803 10.0417C51.5499 9.87469 51.9509 9.78831 52.3566 9.78831C52.7622 9.78831 53.1632 9.87469 53.5329 10.0417C53.8826 10.2108 54.2019 10.4254 54.4748 10.7018C54.7333 10.9943 54.9453 11.3164 55.0974 11.6858C55.4015 12.4846 55.4015 13.3603 55.0974 14.1439ZM85.0072 12.5606C84.6266 12.2255 84.1896 11.9605 83.7164 11.7779C83.2152 11.5779 82.697 11.4235 82.168 11.3164L80.1482 10.9174C79.6321 10.8253 79.268 10.6866 79.0703 10.5176C78.9882 10.4604 78.9207 10.3847 78.8733 10.2966C78.8259 10.2085 78.8 10.1104 78.7975 10.0104C78.7975 9.7957 78.9192 9.61143 79.1768 9.45757C79.5256 9.2733 79.9058 9.18027 80.3003 9.21158C80.8164 9.21158 81.3326 9.31893 81.8031 9.5184C82.2593 9.71877 82.7146 9.94956 83.1243 10.2251C83.7164 10.5945 84.2174 10.5328 84.5662 10.1177L85.5386 9.01211C85.7202 8.82694 85.8266 8.58185 85.8427 8.32065C85.8345 8.18607 85.7977 8.05478 85.7348 7.93555C85.6719 7.81631 85.5842 7.71187 85.4777 7.62919C85.0672 7.27586 84.4151 6.89121 83.5492 6.52267C82.6842 6.15413 81.5902 5.95376 80.3003 5.95376C79.513 5.94321 78.7289 6.05733 77.9772 6.29189C77.3347 6.49008 76.7329 6.80215 76.2007 7.21324C75.7213 7.58858 75.3322 8.06665 75.062 8.61226C74.8046 9.14421 74.6698 9.72714 74.6675 10.3181C74.6675 11.4094 75.0012 12.3003 75.6542 12.9605C76.3072 13.6215 77.1731 14.0518 78.251 14.2665L80.3459 14.7281C80.8021 14.805 81.2565 14.9427 81.6823 15.1431C81.9095 15.2352 82.0616 15.4651 82.0616 15.7263C82.0616 15.9571 81.9399 16.1718 81.6823 16.357C81.4238 16.5412 80.9989 16.6638 80.4524 16.6638C79.8794 16.6735 79.3122 16.5472 78.7975 16.2952C78.3096 16.0598 77.8553 15.7602 77.4468 15.4043C77.2676 15.2536 77.0611 15.1388 76.8385 15.0662C76.5961 14.9893 76.3072 15.0662 75.9887 15.3274L74.8348 16.2031C74.6778 16.3163 74.556 16.4716 74.4835 16.6511C74.411 16.8306 74.3908 17.027 74.4251 17.2175C74.4851 17.6021 74.8044 17.985 75.3966 18.4313C76.852 19.4139 78.575 19.9237 80.3307 19.8912C81.148 19.9018 81.9621 19.7878 82.745 19.5531C83.4165 19.3501 84.048 19.033 84.6119 18.6156C85.1128 18.231 85.5386 17.739 85.8266 17.171C86.1044 16.6122 86.2498 15.997 86.2515 15.373C86.2642 14.8121 86.1501 14.2556 85.9178 13.745C85.6884 13.2987 85.3798 12.8968 85.0072 12.5606ZM96.5456 15.7576C96.4864 15.6527 96.4033 15.5632 96.3031 15.4964C96.2028 15.4295 96.0882 15.3873 95.9686 15.373C95.7262 15.373 95.4829 15.4499 95.2852 15.5877C94.9636 15.7991 94.5916 15.9213 94.2073 15.9419C94.0857 15.9419 93.9497 15.9267 93.828 15.8954C93.6964 15.869 93.5752 15.805 93.4792 15.7111C93.3579 15.5981 93.2598 15.4626 93.1903 15.3122C93.1045 15.0867 93.0632 14.8467 93.0686 14.6055V9.81091H96.5C96.7004 9.80615 96.891 9.72335 97.0313 9.58012C97.1025 9.51608 97.1595 9.4379 97.1988 9.35057C97.2381 9.26324 97.2587 9.16868 97.2594 9.07293V7.04596C97.2607 6.94768 97.241 6.85025 97.2017 6.76017C97.1623 6.67009 97.1043 6.58943 97.0313 6.52357C96.8936 6.38774 96.7085 6.31075 96.5152 6.30889H93.0838V3.03496C93.0894 2.93762 93.0732 2.84027 93.0366 2.74992C92.9999 2.65958 92.9436 2.57851 92.8718 2.51257C92.7401 2.38777 92.5666 2.31664 92.3852 2.31309H89.7133C89.5217 2.30936 89.3364 2.381 89.1971 2.51257C89.0556 2.65001 88.974 2.83772 88.9699 3.03496V6.30889H87.451C87.3555 6.30625 87.2607 6.32561 87.1738 6.36547C87.0869 6.40533 87.0104 6.46463 86.9501 6.53878C86.8261 6.67891 86.7562 6.85882 86.7533 7.04596V9.07383C86.7533 9.2581 86.8285 9.44326 86.9501 9.58102C87.008 9.65795 87.084 9.71931 87.1715 9.75959C87.2589 9.79987 87.355 9.81781 87.451 9.8118H88.9699V15.5125C88.955 16.1893 89.0897 16.8609 89.3644 17.4796C89.6092 17.9851 89.9554 18.4348 90.3815 18.8008C90.8064 19.1541 91.3073 19.4001 91.8234 19.554C92.3595 19.7203 92.9179 19.8032 93.4792 19.7999C94.2171 19.7985 94.95 19.6789 95.6502 19.4457C96.2996 19.2291 96.8878 18.8605 97.3658 18.3705C97.511 18.2212 97.5995 18.0259 97.616 17.8183C97.6325 17.6108 97.576 17.4039 97.4562 17.2336L96.5456 15.7576ZM111.014 6.3071H108.373C108.281 6.30675 108.191 6.32569 108.107 6.36268C108.023 6.39967 107.948 6.45388 107.887 6.52178C107.819 6.59066 107.765 6.67235 107.728 6.76216C107.692 6.85197 107.673 6.94812 107.674 7.04507V7.36709C107.342 6.98054 106.934 6.66685 106.475 6.44575C105.752 6.09513 104.956 5.9213 104.153 5.93856C103.312 5.93861 102.48 6.10422 101.704 6.42592C100.927 6.74762 100.222 7.21911 99.6281 7.81346C99.0009 8.44162 98.5052 9.18848 98.17 10.0104C97.7924 10.9204 97.6063 11.8985 97.6235 12.8836C97.6077 13.8738 97.7936 14.8568 98.17 15.7728C98.5046 16.5869 99.0055 17.34 99.6129 17.9698C100.198 18.5737 100.899 19.0536 101.674 19.3809C102.448 19.7083 103.281 19.8763 104.122 19.8751C104.924 19.8901 105.718 19.7218 106.444 19.3831C106.9 19.1532 107.325 18.8464 107.659 18.4618V18.7999C107.661 18.9877 107.734 19.1666 107.865 19.2981C107.995 19.4301 108.172 19.505 108.358 19.5065H111.014C111.198 19.5068 111.375 19.4342 111.506 19.3047C111.637 19.1752 111.711 18.9992 111.713 18.8151V7.04596C111.715 6.95258 111.698 6.85973 111.665 6.77271C111.631 6.68568 111.58 6.60619 111.515 6.53878C111.455 6.46441 111.379 6.40491 111.292 6.36489C111.205 6.32486 111.11 6.3045 111.014 6.3071ZM107.447 14.1439C107.308 14.515 107.096 14.8546 106.824 15.1431C106.551 15.4201 106.233 15.6485 105.883 15.8185C105.513 15.9923 105.107 16.0766 104.699 16.0645C104.288 16.0645 103.894 15.9723 103.53 15.8185C103.172 15.6542 102.848 15.4252 102.573 15.1431C102.301 14.8546 102.089 14.515 101.95 14.1439C101.662 13.3551 101.662 12.4899 101.95 11.701C102.09 11.3346 102.301 11 102.573 10.7171C102.847 10.4406 103.165 10.2108 103.53 10.0417C103.897 9.87508 104.296 9.79111 104.699 9.7957C105.109 9.7957 105.503 9.87263 105.883 10.0408C106.232 10.2108 106.551 10.4254 106.824 10.7027C107.097 10.9944 107.31 11.3164 107.447 11.6858C107.765 12.4743 107.765 13.3555 107.447 14.1439ZM125.514 15.5886L123.996 14.4203C123.707 14.1904 123.434 14.1287 123.191 14.2209C122.978 14.3125 122.786 14.4488 122.63 14.6207C122.298 15.0229 121.909 15.3749 121.476 15.6655C121.02 15.9267 120.519 16.0501 120.002 16.0188C119.409 16.0255 118.829 15.8456 118.343 15.5045C117.855 15.1615 117.485 14.6755 117.285 14.1135C117.147 13.7288 117.075 13.3235 117.073 12.9149C117.073 12.4998 117.133 12.0848 117.285 11.6858C117.422 11.3164 117.619 10.9791 117.892 10.7018C118.166 10.4254 118.484 10.1947 118.833 10.0408C119.205 9.86978 119.609 9.78099 120.018 9.78049C120.534 9.76192 121.044 9.88969 121.491 10.149C121.928 10.4352 122.317 10.7877 122.645 11.1938C122.796 11.3629 122.978 11.5006 123.191 11.5937C123.434 11.6858 123.708 11.6241 123.98 11.3933L125.499 10.2412C125.681 10.1177 125.833 9.93346 125.894 9.71877C125.937 9.60386 125.954 9.48082 125.943 9.35858C125.933 9.23633 125.895 9.11798 125.833 9.01211C125.247 8.09761 124.444 7.34251 123.495 6.81429C122.493 6.24627 121.293 5.95376 119.957 5.95376C119.015 5.95402 118.082 6.13657 117.209 6.49137C116.375 6.83169 115.617 7.33326 114.977 7.96731C114.335 8.59549 113.829 9.34831 113.489 10.1794C112.776 11.9385 112.776 13.9065 113.489 15.6655C113.838 16.4947 114.339 17.2479 114.977 17.8624C116.306 19.1646 118.096 19.8881 119.957 19.8751C121.293 19.8751 122.493 19.5835 123.495 19.0146C124.452 18.4857 125.261 17.7251 125.848 16.8024C125.91 16.6993 125.948 16.5835 125.958 16.4637C125.969 16.3439 125.952 16.2233 125.909 16.111C125.837 15.899 125.699 15.7159 125.514 15.5886ZM139.573 18.3231L135.398 12.1921L138.966 7.47533C139.049 7.3677 139.106 7.24212 139.133 7.10857C139.159 6.97503 139.154 6.8372 139.117 6.70605C139.056 6.52267 138.89 6.3223 138.45 6.3223H135.626C135.463 6.32689 135.303 6.36336 135.155 6.42964C134.98 6.51744 134.837 6.65711 134.745 6.82949L131.891 10.8253H131.207V1.37474C131.209 1.28142 131.193 1.18859 131.159 1.10156C131.125 1.01453 131.075 0.935015 131.01 0.867555C130.944 0.802738 130.866 0.751721 130.78 0.717474C130.694 0.683227 130.602 0.666436 130.509 0.668079H127.867C127.681 0.671638 127.503 0.742528 127.366 0.867555C127.295 0.931216 127.24 1.00971 127.203 1.0974C127.167 1.18508 127.15 1.2798 127.154 1.37474V18.7999C127.154 18.9994 127.229 19.1845 127.366 19.3071C127.432 19.372 127.51 19.423 127.596 19.4573C127.682 19.4915 127.774 19.5083 127.867 19.5065H130.509C130.695 19.503 130.873 19.4321 131.01 19.3071C131.075 19.2396 131.125 19.1601 131.159 19.0731C131.193 18.986 131.209 18.8932 131.207 18.7999V14.1904H131.967L135.079 18.9689C135.261 19.3071 135.611 19.5218 135.99 19.5218H138.951C139.406 19.5218 139.588 19.3071 139.664 19.1228C139.717 18.9926 139.737 18.851 139.721 18.7112C139.705 18.5714 139.654 18.4379 139.573 18.3231ZM73.6809 6.3071H70.7201C70.6106 6.30069 70.501 6.31799 70.3988 6.35782C70.2966 6.39765 70.2042 6.45907 70.1279 6.53788C69.994 6.67412 69.8997 6.84417 69.8551 7.02986L67.668 15.1735H67.1375L64.8002 7.02986C64.7556 6.8577 64.6781 6.6958 64.5721 6.55309C64.5076 6.47489 64.4264 6.41218 64.3344 6.3696C64.2424 6.32702 64.1421 6.30566 64.0407 6.3071H60.9734C60.5798 6.3071 60.3365 6.43054 60.2301 6.69174C60.154 6.92163 60.154 7.18372 60.2301 7.41361L63.9799 18.8616C64.0407 19.0307 64.132 19.1997 64.2688 19.3223C64.4209 19.4609 64.6177 19.537 64.8297 19.5218H66.4094L66.2725 19.8912L65.9237 20.9512C65.8163 21.2732 65.6195 21.5657 65.3467 21.7804C65.0943 21.9743 64.7839 22.0774 64.4656 22.0729C64.1928 22.0729 63.92 22.0112 63.6766 21.903C63.4273 21.7948 63.1926 21.6556 62.978 21.4888C62.783 21.3496 62.5494 21.2746 62.3098 21.2741H62.2794C62.1421 21.2809 62.0087 21.3225 61.8919 21.395C61.775 21.4674 61.6784 21.5683 61.6112 21.6883L60.6702 23.0712C60.2909 23.6705 60.5029 24.0551 60.7462 24.2698C61.2482 24.7335 61.8436 25.0846 62.4923 25.2994C63.2108 25.5448 63.9649 25.6693 64.7241 25.668C66.0748 25.668 67.2136 25.2994 68.0785 24.5623C68.9819 23.7692 69.6403 22.735 69.9767 21.5809L74.3196 7.41361C74.4108 7.16762 74.426 6.90642 74.3348 6.66043C74.2588 6.49137 74.0906 6.3071 73.6809 6.3071Z" fill="#DBDCE0"/>
</svg>
