<svg width="156" height="32" viewBox="0 0 156 32" fill="none" xmlns="http://www.w3.org/2000/svg">
<g clip-path="url(#clip0_3290_11467)">
<path d="M124.322 7.24618C124.318 7.19727 124.313 7.14768 124.309 7.09878C124.353 6.96103 124.209 6.92314 124.161 6.83429C124.161 6.81963 124.159 6.80498 124.155 6.7909C124.17 6.66968 124.118 6.61733 123.997 6.63524L123.841 6.64213L123.694 6.62215C123.7 6.50989 123.642 6.47131 123.535 6.47269C123.293 6.47682 123.053 6.47682 122.809 6.47269C122.7 6.47269 122.647 6.51471 122.651 6.62422L122.656 6.63524C122.536 6.61527 122.443 6.63524 122.443 6.7847L122.344 6.79986C122.188 6.91557 122.177 7.12977 122.033 7.25375C121.987 7.52444 121.875 7.78135 121.874 8.06305C121.859 14.3701 121.919 20.6771 121.824 26.9841C121.824 27.1391 121.819 27.2948 121.817 27.4497L121.832 27.4621L121.817 27.4484C121.634 27.5627 121.675 27.7487 121.667 27.9188C121.487 27.9746 121.56 28.2081 121.408 28.2838C121.408 28.3871 121.299 28.3816 121.251 28.436C121.176 28.5607 121.029 28.5903 120.921 28.662C120.677 28.8224 120.438 29.0153 120.116 29.0132L118.909 29.0167L118.763 29.0091C118.757 28.7591 118.567 28.8817 118.451 28.8548C118.451 28.6062 118.259 28.726 118.144 28.6957C118.124 28.6989 118.103 28.6974 118.083 28.6915C118.063 28.6856 118.044 28.6753 118.029 28.6614C118.013 28.6475 118.001 28.6304 117.993 28.6112C117.985 28.592 117.981 28.5712 117.982 28.5504C117.991 28.2928 117.792 28.4174 117.678 28.3851L117.673 28.3892C117.678 28.3038 117.661 28.2349 117.554 28.2349H116.865C116.758 28.2349 116.741 28.3038 116.745 28.3899C116.63 28.4174 116.433 28.2935 116.44 28.5518C116.249 28.6661 116.088 28.8243 115.971 29.0132C115.713 29.0187 115.833 29.2082 115.818 29.3294V29.7812C115.843 29.8997 115.713 30.0932 115.973 30.0973L115.978 30.0925C115.955 30.2124 116.004 30.2668 116.126 30.2537C116.112 30.3687 116.154 30.4293 116.278 30.4121C116.271 30.5251 116.314 30.585 116.436 30.5643C116.428 30.6821 116.479 30.7358 116.599 30.7131L116.737 30.7255C116.737 30.8343 116.784 30.8956 116.904 30.8722L116.898 30.8805C116.898 30.9983 116.951 31.0465 117.067 31.023L117.21 31.0375C117.21 31.156 117.264 31.2021 117.379 31.1753L117.523 31.1897C117.517 31.3061 117.571 31.3537 117.686 31.3351H117.84L117.989 31.3502C117.982 31.4666 118.04 31.5114 118.152 31.4921L118.309 31.4866L118.612 31.5052C118.605 31.6209 118.661 31.6657 118.774 31.6478H119.085H120.011L120.323 31.6526C120.432 31.6409 120.587 31.7173 120.588 31.5086L120.637 31.4928H120.79L120.945 31.4962C121.06 31.5169 121.112 31.4666 121.109 31.3537L121.255 31.3371L121.41 31.3406C121.528 31.3612 121.58 31.3089 121.574 31.1932L121.568 31.1835H121.72C121.835 31.2069 121.888 31.1574 121.887 31.0458L121.985 31.0368C122.108 31.0616 122.151 30.9721 122.199 30.8887C122.303 30.8853 122.315 30.7951 122.351 30.7283V30.7241L122.497 30.72C122.609 30.7372 122.623 30.6401 122.666 30.5753C122.764 30.5664 122.771 30.4955 122.771 30.4204C122.845 30.4204 122.921 30.4204 122.924 30.3143C123.115 30.1766 123.313 30.0388 123.391 29.7957C123.391 29.7647 123.395 29.7337 123.397 29.702C123.47 29.6469 123.585 29.6207 123.554 29.4892C123.599 29.3989 123.725 29.3576 123.709 29.2309C123.789 29.182 123.886 29.1448 123.859 29.0194C123.902 28.9113 124.035 28.8472 124.012 28.7067C124.062 28.6007 124.172 28.527 124.176 28.3968L124.157 28.392V28.383L124.176 28.3968C124.199 28.2335 124.327 28.1047 124.329 27.9339L124.475 27.0461C124.475 26.9511 124.475 26.856 124.475 26.761C124.475 20.4418 124.475 14.1226 124.475 7.80339C124.475 7.60227 124.466 7.41148 124.324 7.25237L124.322 7.24618ZM122.033 7.41286H122.058C122.049 7.42801 122.041 7.44247 122.032 7.45694C122.032 7.44316 122.032 7.42939 122.032 7.41561L122.033 7.41286Z" fill="#DBDCE0"/>
<path d="M99.0909 16.2129C99.0985 16.1351 99.0909 16.0669 98.9945 16.0503L98.9883 15.9022C98.9525 15.7066 99.0888 15.4676 98.8429 15.3251L98.8285 15.3388L98.8436 15.3251C98.9063 15.0496 98.7059 14.834 98.6852 14.5826C98.6652 14.3174 98.4855 14.1046 98.4703 13.8408C98.4703 13.816 98.4076 13.7946 98.3739 13.7719C98.3388 13.4654 98.1673 13.2071 98.066 12.9261C97.8539 12.3565 97.5646 11.8241 97.2774 11.2944C97.2236 11.1064 97.1672 10.9211 96.9764 10.8205C96.9688 10.7241 96.9426 10.6463 96.8221 10.6573L96.8035 10.5195C96.829 10.4031 96.7801 10.348 96.6657 10.3494L96.6534 10.2117C96.674 10.0918 96.6251 10.036 96.5025 10.0484L96.4963 10.0533C96.5177 9.93685 96.4736 9.87899 96.351 9.89001L96.3462 9.89346C96.3462 9.84387 96.3462 9.79428 96.3462 9.74537C96.3648 9.62346 96.3152 9.56836 96.1912 9.5842V9.58834C96.2146 9.46918 96.1643 9.41545 96.0438 9.4251L96.0397 9.42854C96.0569 9.31352 96.01 9.25704 95.8909 9.26737H95.8868C95.9005 9.15441 95.8578 9.09311 95.7366 9.10413C95.7366 9.0573 95.7304 9.01115 95.727 8.96638C95.7456 8.84585 95.6973 8.78937 95.5734 8.80452C95.592 8.68468 95.541 8.63164 95.4205 8.64473C95.4356 8.52833 95.386 8.47391 95.2676 8.487C95.2827 8.36991 95.2324 8.31687 95.114 8.32996C95.1284 8.21425 95.0802 8.15915 94.9617 8.17154C94.9748 8.05514 94.9232 8.00349 94.8061 8.01588C94.8192 7.89948 94.7668 7.84714 94.6497 7.8616C94.6594 7.74313 94.6098 7.68941 94.4886 7.71214H94.3419C94.222 7.69423 94.169 7.7452 94.1827 7.86504C94.0636 7.85196 94.0133 7.90568 94.0285 8.02208C93.9086 8.00624 93.8583 8.05997 93.8728 8.17774C93.7509 8.16259 93.7006 8.21631 93.7206 8.33685V8.3334C93.6007 8.31894 93.5484 8.3706 93.5642 8.48975C93.443 8.47322 93.3927 8.52764 93.4093 8.64748C93.4093 8.69638 93.4038 8.74529 93.4017 8.7935C93.2784 8.77835 93.2391 8.8424 93.2495 8.95329C93.1282 8.94365 93.0855 9.00357 93.1035 9.11722L93.0986 9.11378C92.9767 9.1 92.9285 9.15579 92.9485 9.27426V9.27081C92.8197 9.25566 92.7742 9.31558 92.797 9.4375C92.7928 9.48227 92.7887 9.52772 92.7839 9.57525C92.6606 9.56423 92.6241 9.62966 92.6372 9.73986L92.6323 9.73642C92.509 9.72471 92.4629 9.78188 92.487 9.90035L92.4815 9.89484C92.3582 9.88037 92.3079 9.93547 92.3272 10.0567C92.3231 10.1028 92.319 10.1497 92.3155 10.1944C92.197 10.1944 92.1502 10.2509 92.1778 10.3666C92.1729 10.4114 92.1674 10.4569 92.1619 10.5044C91.9408 10.5044 92.0558 10.7689 91.9057 10.8233C91.854 10.8632 91.8706 10.9259 91.8533 10.9769C91.6302 11.0279 91.6756 11.2765 91.5441 11.395C91.4063 11.406 91.3822 11.4935 91.3939 11.6078L91.3877 11.7049C91.25 11.7173 91.2266 11.8048 91.2383 11.9184L91.2321 12.0162C91.0296 12.0459 91.0888 12.2036 91.0785 12.3276C90.9948 12.4849 90.921 12.6473 90.8574 12.8138C90.7885 13.037 90.6184 13.2216 90.6081 13.4661C90.491 13.4874 90.4641 13.5804 90.4593 13.6727C90.4545 13.765 90.3904 13.8477 90.3759 13.9262C90.3181 14.2292 90.1004 14.491 90.148 14.8174C90.1259 14.9752 89.984 15.1067 90.0453 15.283C90.0701 15.6054 89.8897 15.8919 89.8821 16.2087C89.8721 16.2305 89.8655 16.2538 89.8628 16.2776C89.8187 16.4622 89.8304 16.6606 89.7299 16.8286C89.6527 16.8975 89.6768 16.9898 89.6817 17.0718C89.7423 18.1118 89.5646 19.1553 89.8098 20.1981C89.8973 20.5686 90.0164 20.9468 90.0405 21.3359C90.046 21.3793 90.057 21.4241 90.1094 21.4317C90.3932 21.4723 90.2781 21.2546 90.305 21.1293C90.3146 21.1154 90.3214 21.0997 90.325 21.0831C90.3939 20.9123 90.336 20.7312 90.3518 20.5562L90.3622 20.2029C90.5812 20.0961 90.4923 19.8964 90.5068 19.7277C90.4614 19.4521 90.7458 19.2379 90.6618 18.9521C90.8037 18.618 90.8863 18.2633 90.9814 17.919C91.0826 17.9114 91.0847 17.8384 91.0833 17.764C91.1035 17.7351 91.1119 17.6996 91.1067 17.6648C91.1646 17.4885 91.2954 17.3363 91.2851 17.1379C91.2576 17.0132 91.438 16.9609 91.3919 16.8293C91.4607 16.4911 91.6557 16.2053 91.8203 15.9119C91.8809 15.8038 91.8396 15.6247 92.0145 15.5847C92.0875 15.5551 92.0524 15.4194 92.1667 15.4291C92.2356 15.3333 92.3348 15.2548 92.3272 15.1198C92.3272 15.0695 92.3272 15.0193 92.332 14.969L92.3382 14.9738C92.4071 14.9683 92.4836 14.9641 92.4884 14.8657C92.5759 14.8216 92.6613 14.7761 92.6385 14.6535C92.6385 14.6039 92.6427 14.5536 92.644 14.5034L92.6482 14.5075C92.7171 14.5006 92.7956 14.502 92.7983 14.4001C92.8837 14.3546 92.974 14.3126 92.9512 14.1893C92.9512 14.1569 92.9512 14.1245 92.9547 14.0922C93.0332 14.044 93.1413 14.0192 93.1172 13.889C93.2357 13.8986 93.2777 13.8373 93.2681 13.7271V13.7313C93.381 13.7381 93.4292 13.683 93.421 13.5735C93.5339 13.5846 93.5835 13.5301 93.5787 13.4199C93.7116 13.4509 93.7337 13.3345 93.7853 13.2615C93.8948 13.2512 93.9314 13.1307 94.0271 13.1003C94.0422 13.0039 94.1414 13.0025 94.1965 12.9509C94.3343 12.9674 94.3949 12.8304 94.5072 12.7959V12.7918L94.6573 12.7987C94.6573 12.9054 94.7007 12.9647 94.8157 12.9509C94.8109 13.0597 94.8543 13.1196 94.9714 13.1065C94.9673 13.2133 95.0086 13.276 95.125 13.2643C95.1195 13.3752 95.1704 13.4282 95.2834 13.4179C95.2758 13.5267 95.3213 13.5846 95.4356 13.5756H95.4391C95.4267 13.6892 95.4742 13.7464 95.592 13.7354C95.583 13.847 95.6347 13.9014 95.7476 13.8973L95.758 14.035C95.7442 14.15 95.7958 14.2024 95.9109 14.1941C95.8971 14.305 95.9453 14.3601 96.0589 14.3539L96.0658 14.3498C96.0521 14.4607 96.1023 14.5144 96.2132 14.5116L96.2174 14.5075C96.1994 14.626 96.2614 14.6714 96.3696 14.6756C96.3696 14.721 96.3772 14.7665 96.3806 14.8133C96.3641 14.9256 96.4137 14.9793 96.5266 14.9759L96.5321 14.9724C96.5032 15.1005 96.6065 15.1336 96.685 15.1846C96.685 15.2162 96.6892 15.2479 96.6905 15.2803C96.6816 15.4146 96.7863 15.4869 96.851 15.5861L96.9888 15.6026C96.9764 15.7404 97.121 15.7914 97.1499 15.9057C97.1272 16.0483 97.2774 16.0999 97.3111 16.2129C97.2767 16.3596 97.5033 16.3761 97.4675 16.5235C97.4468 16.6613 97.577 16.7301 97.6204 16.8369C97.5928 16.9795 97.7347 17.0401 97.7726 17.151L97.7809 17.2929C97.8222 17.4217 97.8628 17.5512 97.9041 17.6806C97.9037 17.7118 97.9134 17.7422 97.9317 17.7674C97.9468 17.768 97.9617 17.7719 97.9751 17.7788C97.9886 17.7857 98.0004 17.7954 98.0097 17.8074C98.019 17.8193 98.0256 17.8331 98.029 17.8479C98.0325 17.8626 98.0326 17.878 98.0295 17.8928C98.0109 18.1759 98.1741 18.4149 98.232 18.6814C98.3312 19.1346 98.4972 19.5768 98.5075 20.0472C98.5075 20.2484 98.5075 20.4502 98.5075 20.6513C98.5075 20.7587 98.5289 20.8338 98.6556 20.8311C98.69 20.9846 98.617 21.1506 98.7107 21.2973C98.7238 21.3414 98.6976 21.4193 98.7672 21.4186C98.8367 21.4179 98.8113 21.3414 98.8237 21.296C98.8925 21.2175 98.8657 21.1224 98.867 21.0322C99.0675 20.7374 99.0282 20.3772 99.135 20.0562C99.1866 19.7056 99.2844 19.3543 99.2796 19.0051C99.2707 18.3666 99.3733 17.724 99.197 17.0869C99.0854 16.808 99.1715 16.5001 99.0909 16.2129Z" fill="#DBDCE0"/>
<path d="M42.3366 6.7822L42.2347 6.77807C42.243 6.61483 42.1348 6.61965 42.0219 6.63274C40.3013 6.63274 38.5808 6.63274 36.8603 6.63274C34.4138 6.63274 31.9671 6.63435 29.5201 6.63756H28.9002C28.7817 6.61276 28.7349 6.66924 28.7349 6.78082C28.6233 6.77394 28.5792 6.83386 28.5813 6.93786C28.4732 6.93786 28.425 6.98401 28.4277 7.09421C28.4318 7.23196 28.4277 7.36972 28.4277 7.50747V22.0404C28.4277 23.3959 28.4339 24.7514 28.4236 26.1041C28.4182 26.1933 28.4383 26.2821 28.4814 26.3603C28.5246 26.4384 28.5891 26.5027 28.6674 26.5456C28.768 26.6042 28.9195 26.5739 29.0483 26.5835C29.0924 26.7902 29.2549 26.7288 29.3844 26.7288C33.4096 26.7288 37.4347 26.7288 41.4598 26.7288C41.5198 26.7288 41.5804 26.7288 41.641 26.7288C41.7498 26.7288 41.7663 26.66 41.7643 26.5746C41.9165 26.5098 42.1431 26.6827 42.2354 26.4272C42.442 26.3734 42.5371 26.2357 42.5371 26.0284C42.5371 25.4888 42.5371 24.9495 42.5371 24.4105C42.5584 24.2858 42.5102 24.2293 42.3821 24.2507C42.4028 24.1267 42.3497 24.075 42.2251 24.095H42.0735L41.7698 24.0764C41.776 23.9387 41.6899 23.929 41.5838 23.9297C40.9272 23.9297 40.2708 23.9297 39.6146 23.9297C39.5072 23.9297 39.4225 23.9414 39.4294 24.0771C37.943 24.0771 36.4567 24.0854 34.9703 24.0854C33.778 24.0854 32.5858 24.0799 31.3935 24.0771C31.3997 23.9593 31.3412 23.9173 31.2296 23.9345L31.0781 23.9311C31.0891 23.8229 31.0436 23.7651 30.9314 23.7678C30.9272 23.7189 30.9224 23.6707 30.9183 23.6218C30.9183 23.328 30.9171 23.0336 30.9148 22.7388V18.7006C30.9148 18.3893 30.9148 18.0777 30.9148 17.7659C30.9197 17.7177 30.9238 17.6695 30.9279 17.6213C31.0388 17.6213 31.0898 17.5669 31.0726 17.4546L31.222 17.4498C31.3364 17.4712 31.3949 17.4264 31.3873 17.3072C31.4996 17.3038 31.6119 17.2983 31.7241 17.2983L39.2703 17.2935H39.7324C39.8585 17.3162 39.9074 17.2625 39.8874 17.1392C40.0072 17.1543 40.061 17.104 40.0424 16.9821C40.0424 16.8788 40.0424 16.7755 40.0424 16.6715C40.0424 16.5523 40.0424 16.4325 40.0424 16.3133C40.0424 15.9738 40.0424 15.6342 40.0493 15.2953C40.0493 15.1858 40.03 15.1108 39.9005 15.1183C39.906 14.9992 39.8523 14.9503 39.7338 14.9764L39.5871 14.9627C39.5871 14.7609 39.4342 14.8132 39.3267 14.8132C37.7054 14.8091 36.0838 14.8075 34.462 14.8084C33.4874 14.8084 32.5128 14.8139 31.5382 14.8173L31.2379 14.8063C31.2468 14.6885 31.1862 14.6458 31.076 14.6562C31.0912 14.5446 31.0409 14.4902 30.9293 14.4902L30.9169 14.3469C30.9169 14.0866 30.9158 13.8264 30.9135 13.5665V10.3583C30.9135 10.1493 30.9123 9.94065 30.91 9.73218C30.9155 9.63369 30.9217 9.5352 30.9272 9.4367C31.0409 9.4367 31.0884 9.38091 31.0753 9.27002L31.2241 9.26382C31.3419 9.23972 31.5278 9.36369 31.543 9.1178L33.8738 9.12194C33.8662 9.25969 33.9516 9.27002 34.0591 9.27002C35.995 9.27002 37.9313 9.27002 39.8681 9.27002C39.9756 9.27002 40.061 9.25762 40.0534 9.12194L42.1693 9.10747C42.2884 9.11918 42.4069 9.13158 42.3759 8.94837C42.5026 8.96903 42.5419 8.90704 42.5419 8.78926C42.5419 8.21621 42.5474 7.64247 42.5364 7.06735C42.5364 6.95301 42.5481 6.77807 42.3366 6.7822Z" fill="#DBDCE0"/>
<path d="M146.414 4.49983V4.50328C146.465 4.68993 146.617 4.58179 146.723 4.61003C147.092 4.65281 147.464 4.56376 147.773 4.35863C147.846 4.31111 147.968 4.3242 147.969 4.19333C148.059 4.18369 148.147 4.17129 148.127 4.04456C148.218 4.0294 148.299 4.00599 148.289 3.88821C148.373 3.83999 148.463 3.79591 148.432 3.67125C148.432 3.63887 148.439 3.60719 148.444 3.57551C148.555 3.57551 148.609 3.52661 148.586 3.41089C148.586 3.35992 148.586 3.30827 148.586 3.2573L148.597 3.26419C148.713 3.26832 148.761 3.21253 148.741 3.09888C148.741 3.04791 148.741 2.99626 148.741 2.94529L148.758 2.80134C148.869 2.7972 148.925 2.74899 148.895 2.63121C148.902 2.58369 148.907 2.53616 148.913 2.48795C149.026 2.48795 149.077 2.43698 149.055 2.32264V2.17043L149.066 2.17731C149.18 2.17731 149.228 2.12566 149.209 2.01201C149.209 1.99686 149.215 1.9817 149.218 1.96724C149.28 1.88528 149.394 1.82949 149.365 1.7C149.365 1.64834 149.365 1.596 149.365 1.54434L149.379 1.39901C149.494 1.40314 149.544 1.3508 149.522 1.23508C149.522 1.18411 149.522 1.13315 149.522 1.08218L149.537 0.934781C149.661 0.939603 149.685 0.865905 149.687 0.760524C149.688 0.655143 149.643 0.607618 149.54 0.61175C149.545 0.498104 149.488 0.449202 149.378 0.456089C149.382 0.339688 149.328 0.291474 149.213 0.314204H148.904L148.597 0.297673V0.152344H148.442V0.303183L148.447 0.314204H148.293C148.176 0.290786 148.126 0.343132 148.13 0.457467L147.985 0.47262C147.867 0.443692 147.815 0.495349 147.815 0.610373L147.673 0.624837C147.55 0.602108 147.5 0.65652 147.512 0.777054C147.385 0.760524 147.34 0.819758 147.364 0.94098L147.35 1.07873C147.108 1.08975 147.226 1.27641 147.196 1.39143C146.983 1.38661 147.059 1.54434 147.045 1.65454C147.011 1.71171 146.949 1.7427 146.927 1.81709C146.848 2.0802 146.72 2.32333 146.616 2.57473C146.535 2.77447 146.369 2.95562 146.416 3.19806C146.119 3.39092 146.008 4.04042 146.219 4.3483C146.261 4.42613 146.288 4.53151 146.414 4.49983Z" fill="#DBDCE0"/>
<path d="M14.6923 12.6351L14.6737 12.175C14.6737 12.0882 14.6737 12.0021 14.6771 11.9146C14.6847 11.7707 14.7157 11.6164 14.5338 11.5454L14.5194 11.2947C14.5194 11.2431 14.5194 11.1907 14.5194 11.1391C14.5476 11.0172 14.4615 10.9717 14.3761 10.9262L14.3637 10.8271C14.3637 10.7761 14.3637 10.7251 14.3637 10.6735C14.3844 10.5357 14.2618 10.4668 14.2108 10.3608C14.237 10.2196 14.1034 10.1541 14.0586 10.0474C14.091 9.91857 13.9897 9.88276 13.9084 9.83592C13.9222 9.71057 13.7356 9.70574 13.7528 9.57832C13.7852 9.44608 13.6736 9.41991 13.5971 9.36825L13.5916 9.27182C13.6068 9.15955 13.5586 9.10445 13.4442 9.10927L13.4394 9.11272C13.3189 9.12512 13.2686 9.07139 13.2892 8.95223C13.1639 8.96808 13.115 8.91366 13.1391 8.79106C13.0213 8.81448 12.969 8.76282 12.9724 8.64642C12.8546 8.64642 12.8037 8.59614 12.8278 8.47836C12.7045 8.50316 12.6542 8.44944 12.6687 8.32684C12.5454 8.35163 12.4979 8.29446 12.5075 8.17668C12.3842 8.20148 12.3436 8.13811 12.3477 8.02653C12.2244 8.05064 12.19 7.9797 12.1872 7.87638L12.0887 7.87225C11.9765 7.88809 11.92 7.84194 11.9255 7.72692L11.9303 7.71866C11.8139 7.73105 11.7237 7.71177 11.7189 7.56575L11.6211 7.56024C11.4964 7.58848 11.4502 7.50238 11.4075 7.41216L11.3097 7.40527C11.1823 7.43626 11.1424 7.34259 11.0969 7.25581L10.9991 7.24823C10.8806 7.2682 10.789 7.24823 10.7801 7.10428L10.6857 7.09532H10.5321C10.4081 7.12632 10.3634 7.03816 10.3172 6.95206L10.0665 6.93622H9.91017C9.77241 6.9617 9.70354 6.82877 9.59333 6.79227L9.4418 6.78193H9.13186H8.82054C6.31389 6.78193 3.80747 6.78377 1.30129 6.78744C1.17455 6.78744 1.08226 6.76196 1.03404 6.63867H0.935551C0.935551 6.77229 0.852899 6.78882 0.746141 6.784C0.65178 6.77987 0.55673 6.784 0.46168 6.784H0.308774L0.313596 6.79089C0.319795 6.90109 0.267449 6.95068 0.157935 6.94311L0.151047 6.93828C0.151047 6.98925 0.151047 7.04022 0.151047 7.09119C0.123497 7.2069 0.248163 7.39149 0.00571766 7.40871C0.00571766 8.28758 0.00571766 9.16644 0.00571766 10.0453C0.0745942 10.0508 0.147603 10.0563 0.151047 10.1534C0.151047 10.1961 0.151047 10.2395 0.151047 10.2822C0.151047 15.5582 0.151047 20.8341 0.151047 26.1101L0.00571766 26.1059V26.2575C-0.0142565 26.3814 0.0408447 26.4303 0.161379 26.4145C0.138649 26.5364 0.191684 26.586 0.312218 26.5722L0.616653 26.5846H0.620097C0.620097 26.7169 0.699993 26.7334 0.808129 26.732C1.10154 26.7284 1.39473 26.7284 1.68768 26.732C1.7972 26.732 1.87709 26.7148 1.87503 26.5833C1.97765 26.5833 2.08166 26.5736 2.18359 26.5764C2.28553 26.5791 2.34339 26.533 2.33994 26.4255C2.33994 26.4062 2.33994 26.3863 2.3365 26.367C2.45841 26.2251 2.44739 26.0543 2.44739 25.8848C2.44739 25.0124 2.44739 24.1418 2.44739 23.273C2.44739 23.1814 2.41777 23.0823 2.49009 22.9975C2.49009 21.8762 2.4917 20.7551 2.49492 19.6343C2.45979 19.5034 2.55828 19.4656 2.64438 19.418C2.64438 19.387 2.6492 19.3567 2.65195 19.3257C2.87787 19.2362 3.09965 19.1591 3.35312 19.1611C4.76715 19.1708 6.1805 19.1611 7.59454 19.1694C7.82321 19.1694 8.04292 19.0771 8.2833 19.1508C8.41963 19.1844 8.54809 19.2443 8.66143 19.3271C8.77715 19.3092 8.83156 19.3574 8.82329 19.4759C8.94245 19.4656 8.99066 19.5207 8.97344 19.6377L8.97758 19.7349C9.13737 19.73 9.14426 19.8306 9.12566 19.9484C9.12566 19.9807 9.13186 20.0124 9.1353 20.0448C9.29716 20.0379 9.29854 20.1426 9.28339 20.2583C9.28339 20.2907 9.28959 20.3231 9.29234 20.3554C9.53548 20.3685 9.41908 20.5524 9.4418 20.6702C9.61331 20.6585 9.60711 20.7687 9.5892 20.8865C9.5892 20.9182 9.59471 20.9492 9.59678 20.9808C9.84749 20.9863 9.72833 21.1751 9.75175 21.2928C10.0031 21.2977 9.88055 21.4878 9.90672 21.6042C10.1602 21.6042 10.0362 21.7991 10.0617 21.9162C10.3179 21.9217 10.1891 22.1145 10.2153 22.2323C10.218 22.2894 10.2346 22.3449 10.2635 22.3942C10.4333 22.6864 10.5749 22.994 10.6864 23.313C10.9357 23.3199 10.8138 23.5093 10.8407 23.625C11.0914 23.6319 10.9674 23.8213 10.9936 23.9377C11.1183 23.926 11.1651 23.9818 11.1396 24.1023C11.1231 24.3269 11.3511 24.4811 11.3132 24.7119C11.338 24.7188 11.3779 24.7181 11.3821 24.7332C11.5515 25.0955 11.7051 25.4661 11.8897 25.8201C12.0054 26.0412 12.0894 26.2974 12.3436 26.4179C12.3828 26.6673 12.5729 26.5557 12.7114 26.5736C13.2087 26.5736 13.706 26.5736 14.2032 26.564C14.3203 26.564 14.4725 26.5963 14.518 26.4207C14.6131 26.4241 14.6826 26.4014 14.6778 26.283C14.673 26.1645 14.6737 26.0667 14.6723 25.9585C14.7026 25.8339 14.6131 25.7912 14.5263 25.7464C14.5228 25.7133 14.5187 25.6775 14.5153 25.6479C14.5153 25.5963 14.5153 25.5446 14.5153 25.4929C14.5394 25.3717 14.456 25.3249 14.3679 25.2822C14.3679 25.1768 14.2673 25.1713 14.2136 25.1189L14.2053 25.0239C14.2411 24.8951 14.1364 24.8607 14.0586 24.8083L14.0496 24.7133C14.0855 24.5838 13.9808 24.5493 13.9029 24.497C13.9029 24.4653 13.8967 24.4343 13.894 24.4026C13.9298 24.2731 13.8251 24.2387 13.7473 24.1863C13.7438 24.1547 13.7404 24.1237 13.7376 24.092C13.7638 23.9494 13.6212 23.8916 13.582 23.7814C13.6081 23.6388 13.4656 23.5809 13.4263 23.4707C13.2121 23.4707 13.2796 23.3199 13.2782 23.2042C13.2797 23.189 13.2768 23.1737 13.27 23.1601C13.0234 23.1511 13.1432 22.9638 13.1171 22.8474C12.865 22.8412 12.9869 22.6525 12.9642 22.5347C12.7114 22.5312 12.8354 22.3398 12.8085 22.2234C12.5543 22.2234 12.679 22.0284 12.6521 21.9127C12.3987 21.9093 12.524 21.7171 12.4965 21.6007C12.4965 21.5532 12.4917 21.5057 12.4889 21.4582C12.2706 21.3969 12.2954 21.173 12.2134 21.0263C12.0068 20.6571 11.8346 20.2687 11.6479 19.8905C11.4826 19.5537 11.3118 19.2197 11.1541 18.8801C11.121 18.8112 11.101 18.7017 11.2436 18.6948C11.2856 18.4951 11.5157 18.5233 11.6142 18.3918C11.7216 18.3477 11.7795 18.2113 11.92 18.2278C12.0109 18.1893 12.0391 18.0467 12.1707 18.0736C12.1858 17.9785 12.2155 17.9 12.3374 17.922L12.3332 17.9186C12.3332 17.8146 12.3739 17.7478 12.493 17.7677C12.493 17.6617 12.5282 17.5928 12.6515 17.6155V17.6121C12.648 17.5005 12.6928 17.4413 12.8126 17.4626C12.8009 17.3462 12.8498 17.2904 12.9704 17.309C12.9538 17.1933 12.9938 17.1313 13.1198 17.1492C13.1102 17.0397 13.1487 16.9757 13.2707 16.9894L13.2741 16.9929C13.2651 16.8834 13.3023 16.8166 13.4249 16.831C13.4291 16.7849 13.4325 16.7387 13.436 16.6933C13.5413 16.6878 13.6088 16.6478 13.5861 16.5273L13.5923 16.5321C13.7039 16.5321 13.7576 16.4825 13.7363 16.3675L13.7487 16.2297C13.8582 16.2263 13.9202 16.1808 13.8954 16.0603C13.936 15.9515 14.08 15.8936 14.051 15.7497C14.0917 15.6401 14.237 15.583 14.206 15.4383C14.2473 15.3288 14.3885 15.2668 14.3534 15.1229C14.3596 15.074 14.3651 15.0251 14.3713 14.9762C14.4849 14.9762 14.5304 14.9225 14.5091 14.8116C14.5091 14.7599 14.5091 14.7076 14.5056 14.6559C14.5097 14.6056 14.5132 14.556 14.5173 14.5064C14.6206 14.3687 14.706 14.2206 14.6654 14.0353C14.6654 13.932 14.6654 13.8287 14.6654 13.7261C14.6702 13.6228 14.6744 13.5194 14.6792 13.4168C14.715 13.3603 14.7536 13.3052 14.7859 13.2467C14.9023 13.0559 14.8397 12.7033 14.6923 12.6351ZM12.2602 13.4767C12.2127 13.5876 12.2403 13.7316 12.2403 13.8611C12.2403 13.9671 12.2244 14.0539 12.0867 14.0388C12.0226 14.3832 11.8532 14.6786 11.6734 14.9693C11.6143 15.0598 11.5747 15.1616 11.557 15.2682L11.4213 15.4438C11.4144 15.5162 11.4082 15.5892 11.3111 15.5968C11.3173 15.7152 11.2629 15.7641 11.1465 15.7407C11.1685 15.8716 11.1093 15.9177 10.984 15.8964L10.8462 15.9067C10.8462 16.0141 10.8076 16.081 10.6843 16.0562L10.6878 16.061C10.6912 16.1739 10.6471 16.2346 10.5245 16.207L10.5294 16.2125C10.5438 16.3826 10.4316 16.3764 10.3165 16.3654L10.2201 16.3716C10.2263 16.4949 10.1705 16.5431 10.0493 16.5135L9.91154 16.5273C9.91912 16.6444 9.86746 16.696 9.74899 16.674L9.59333 16.6685L9.44525 16.685C9.45351 16.811 9.38119 16.8434 9.27099 16.8372C9.16079 16.831 9.06918 16.8324 8.96862 16.8296H3.19815C3.06866 16.8296 2.93917 16.8255 2.80968 16.8234C2.69259 16.8476 2.63336 16.8049 2.64369 16.6809C2.58685 16.6178 2.543 16.5442 2.51464 16.4642C2.48627 16.3842 2.47395 16.2994 2.47839 16.2146C2.4793 14.0477 2.47976 11.8816 2.47976 9.71608C2.47976 9.62103 2.48941 9.52667 2.49423 9.43162C2.45772 9.30075 2.55759 9.26356 2.64231 9.21465C2.65058 9.10445 2.72772 9.11272 2.80417 9.11892L5.39117 9.10721C5.39117 8.97359 5.47245 8.9605 5.57921 8.96119C6.13022 8.96394 6.68123 8.96394 7.23225 8.96119C7.33832 8.96119 7.4251 8.97083 7.42097 9.10583L8.81572 9.12374H9.12635H9.28201C9.39221 9.10721 9.448 9.15267 9.44387 9.26562L9.59127 9.28422L9.74693 9.28078C9.86057 9.26149 9.9143 9.3097 9.91154 9.42404L9.90466 9.43575H10.0576C10.1726 9.41302 10.2242 9.46399 10.2236 9.57695L10.218 9.5859C10.3558 9.55008 10.3909 9.69128 10.4805 9.73812C10.4958 9.73739 10.5111 9.74022 10.5252 9.74638C10.6471 9.71883 10.6871 9.78426 10.6892 9.89171L10.6857 9.89515C10.8097 9.87174 10.8441 9.94199 10.8462 10.046C10.9688 10.024 11.0005 10.099 11.0108 10.1975C11.1286 10.1844 11.1555 10.2581 11.1589 10.3532C11.2815 10.3353 11.3008 10.4221 11.3208 10.5116L11.4117 10.5247L11.6183 10.8291C11.8187 10.8525 11.7802 11.0557 11.8415 11.1666C11.9427 11.3498 12.117 11.5213 12.0798 11.7645C12.0825 11.7801 12.0846 11.7959 12.086 11.812C12.1803 11.8526 12.1989 11.9298 12.1865 12.0186C12.2671 12.5028 12.4779 12.9746 12.2602 13.4767Z" fill="#DBDCE0"/>
<path d="M33.7271 4.1941V4.29466C33.7271 4.39728 33.7271 4.50129 33.7271 4.60323C33.7808 4.6721 33.8359 4.76371 33.922 4.75544C34.358 4.71412 34.7933 4.887 35.2306 4.76233C35.3071 4.76233 35.3787 4.76233 35.3932 4.66384C35.4476 4.65833 35.5075 4.66797 35.544 4.61218C35.7073 4.4944 35.7203 4.27813 35.854 4.14106C35.9187 4.04464 35.8925 3.90206 36.0124 3.83387C36.0813 3.73745 36.2039 3.67064 36.1694 3.52324C36.2886 3.417 36.3626 3.2691 36.3761 3.10998C36.4642 3.10998 36.5248 3.08656 36.5255 2.98325C36.5255 2.7959 36.6729 2.66779 36.7377 2.50525C36.841 2.24558 37.0083 2.01209 36.9966 1.71523C37.0979 1.69939 37.1034 1.62914 37.0924 1.54924C37.1213 1.4349 37.0731 1.282 37.246 1.23861C37.3073 1.1408 37.4147 1.0671 37.4058 0.932106C37.4195 0.815016 37.3665 0.763358 37.2494 0.777134H37.0937H36.9381L36.6853 0.761981C36.6392 0.693104 36.6054 0.613207 36.4959 0.615274C36.2383 0.619406 35.98 0.619406 35.7224 0.615274C35.6115 0.615274 35.5798 0.693104 35.5358 0.764736L35.4352 0.771623C35.3181 0.755782 35.2244 0.771623 35.221 0.921085C35.0454 0.954146 34.9944 1.08432 34.9717 1.23792C34.9958 1.38049 34.7891 1.4046 34.8112 1.54648C34.7478 1.58712 34.7699 1.70834 34.6603 1.70628C34.6245 1.92393 34.4372 2.08923 34.4496 2.32617C34.3449 2.32617 34.3442 2.404 34.3428 2.47838C34.2918 2.63473 34.2402 2.79108 34.1892 2.94743V3.04593C34.1334 3.16715 33.9957 3.25256 34.0308 3.41304C33.9991 3.55699 33.8207 3.64653 33.8772 3.8263C33.8187 3.94477 33.6809 4.03224 33.7271 4.1941Z" fill="#DBDCE0"/>
<path d="M96.3538 22.0637L96.3414 21.8102C96.351 21.698 96.3579 21.5885 96.1926 21.5988L96.1857 21.6022L96.1816 21.2964C96.2057 21.1793 96.1561 21.1263 96.0383 21.1325C96.0383 21.0994 96.0321 21.0636 96.0287 21.034C96.0424 20.9204 96.0466 20.8136 95.8833 20.8191L95.8751 20.7213C95.8875 20.6077 95.8882 20.5023 95.727 20.5085L95.7125 20.3645C95.7442 20.2405 95.6809 20.1985 95.5686 20.2006C95.5686 20.1675 95.5686 20.1352 95.5631 20.1021C95.5775 19.9871 95.5741 19.8838 95.415 19.8879C95.4212 19.7756 95.364 19.7295 95.2566 19.735V19.6351C95.2697 19.5194 95.2648 19.4168 95.1071 19.4216C95.1147 19.3093 95.0527 19.2666 94.9501 19.2659L94.9459 19.1688C94.9604 19.0517 94.9087 18.9994 94.7917 19.0104C94.8047 18.8961 94.7531 18.8444 94.6388 18.8534C94.5313 18.9085 94.4321 18.5028 94.3205 18.8472C94.2007 18.8368 94.1566 18.8961 94.169 19.009H94.1642C94.0492 19.0021 94.0016 19.0579 94.0161 19.1702C93.8976 19.1592 93.8467 19.2122 93.8632 19.33C93.8632 19.3624 93.8632 19.3954 93.8632 19.4285C93.7564 19.4237 93.6972 19.4677 93.7041 19.5807C93.5505 19.5759 93.5415 19.6764 93.5512 19.7873C93.4307 19.7798 93.3845 19.8376 93.4059 19.954C93.4059 19.9864 93.4059 20.0181 93.401 20.0504C93.2681 20.0601 93.2316 20.14 93.2474 20.2571L93.2385 20.3535C93.1255 20.3452 93.0808 20.4052 93.0821 20.5112C92.9637 20.505 92.9168 20.5615 92.9382 20.6765C92.9382 20.7454 92.9382 20.8143 92.9382 20.879C92.9382 20.9114 92.932 20.9438 92.9292 20.9768C92.6833 20.9879 92.7997 21.1724 92.7784 21.2909H92.7736C92.5215 21.3054 92.6461 21.4907 92.6276 21.6112C92.6489 21.8867 92.4113 22.1002 92.4609 22.3792C92.3431 22.3702 92.2956 22.4246 92.3135 22.5396V24.5026C92.3059 24.6121 92.2969 24.7223 92.4595 24.7141C92.4636 24.8146 92.4678 24.9152 92.4726 25.0158C92.4926 25.1349 92.3693 25.3188 92.6172 25.3353C92.6172 25.3849 92.6227 25.4345 92.6262 25.4841C92.6489 25.6019 92.5263 25.7865 92.7729 25.8016C92.7777 25.8499 92.7832 25.8988 92.7887 25.947C92.7612 26.0647 92.808 26.1198 92.9265 26.113C92.9306 26.1453 92.9341 26.1777 92.9375 26.2101C92.923 26.3244 92.9182 26.4319 93.0835 26.4236C93.0835 26.456 93.0897 26.4883 93.0932 26.5207C93.0787 26.6344 93.0746 26.7411 93.2378 26.7356C93.2378 26.7687 93.2426 26.801 93.2447 26.8334C93.2323 26.9491 93.2357 27.0531 93.3969 27.0435L93.401 27.1406C93.3907 27.2536 93.3845 27.3631 93.5491 27.3562C93.5436 27.4664 93.6008 27.5139 93.7062 27.5125V27.6138C93.702 27.724 93.6986 27.8328 93.8591 27.8204C93.868 27.9182 93.9362 27.9285 94.0133 27.9258C94.0065 28.0346 94.0533 28.0911 94.1669 28.0808L94.1752 28.0753C94.1716 28.0916 94.1746 28.1086 94.1835 28.1228C94.2084 28.16 94.242 28.1906 94.2814 28.2119C94.3207 28.2332 94.3647 28.2445 94.4095 28.245C94.4543 28.2455 94.4985 28.235 94.5383 28.2146C94.5781 28.1941 94.6124 28.1643 94.6381 28.1276C94.7359 28.1214 94.8192 28.1007 94.793 27.9719C94.8977 27.9719 94.9714 27.9423 94.9439 27.8149C94.9506 27.8025 94.9557 27.7893 94.959 27.7756C95.0768 27.7811 95.1168 27.7185 95.1044 27.6096L95.1112 27.6145C95.2304 27.6214 95.2759 27.5642 95.2573 27.4499C95.2573 27.4175 95.2573 27.3851 95.2621 27.3527C95.373 27.3527 95.4377 27.3142 95.4081 27.1902L95.4157 27.195C95.5851 27.2102 95.5796 27.0979 95.5686 26.9829C95.5686 26.9505 95.5686 26.9181 95.5734 26.8858C95.736 26.8954 95.7387 26.7914 95.7242 26.6743C95.7242 26.6419 95.7291 26.6096 95.7311 26.5765C95.8944 26.5848 95.893 26.4787 95.8799 26.3637C95.8799 26.3313 95.8847 26.2948 95.8875 26.2659C96.0046 26.2707 96.0569 26.2197 96.0307 26.1006C96.0363 26.0523 96.0411 26.0041 96.0459 25.9559C96.2945 25.9332 96.1692 25.7493 96.1836 25.6294C96.1836 25.5819 96.1898 25.5344 96.1933 25.4869C96.4502 25.4717 96.32 25.2837 96.3386 25.1625C96.3386 25.0633 96.3462 24.9648 96.3496 24.8656C96.4536 24.8711 96.5067 24.8277 96.5032 24.7175C96.497 24.557 96.4977 24.3966 96.4957 24.2354V22.851L96.5019 22.2765C96.5053 22.1684 96.5156 22.0554 96.3538 22.0637Z" fill="#DBDCE0"/>
<path d="M72.6856 26.2637L72.6808 26.2686C72.6994 26.1501 72.6512 26.0957 72.53 26.1081C72.5444 25.9958 72.5031 25.9345 72.3812 25.9462C72.3888 25.8381 72.3495 25.774 72.2297 25.7871V25.7906C72.2379 25.681 72.2001 25.6149 72.0768 25.6301C72.0768 25.5826 72.0706 25.535 72.0671 25.4875C72.0837 25.369 72.0334 25.3146 71.9128 25.3277C71.9301 25.2086 71.8784 25.1562 71.7592 25.17C71.7744 25.0543 71.7248 24.9999 71.607 25.0109L71.6029 25.015C71.6194 24.8993 71.5733 24.8421 71.4527 24.8545C71.461 24.745 71.4204 24.683 71.3012 24.694V24.6975C71.3012 24.6479 71.2971 24.5983 71.2957 24.5487C71.3102 24.4302 71.2585 24.3772 71.1394 24.391C71.1559 24.2732 71.1042 24.2209 70.9865 24.2319C71.0044 24.1134 70.9513 24.0624 70.8342 24.0735C70.8508 23.9564 70.7991 23.9047 70.682 23.9151C70.6979 23.7986 70.6455 23.747 70.5298 23.7559C70.545 23.6416 70.4974 23.5858 70.3797 23.5955L70.3714 23.4494C70.3865 23.3317 70.3356 23.2779 70.2164 23.2917C70.2316 23.1739 70.1792 23.1223 70.0621 23.134C70.08 23.0162 70.0263 22.9659 69.9113 22.9742H69.9072C69.9264 22.855 69.8693 22.8082 69.7556 22.8158C69.7715 22.6994 69.7171 22.6505 69.6048 22.656L69.6013 22.6594C69.6227 22.5396 69.5566 22.4983 69.4505 22.4927L69.4402 22.355C69.4567 22.2358 69.4064 22.1814 69.2852 22.1952C69.3052 22.0747 69.2508 22.0251 69.133 22.0361C69.1509 21.9204 69.0965 21.8708 68.9842 21.8749L68.9787 21.8784C69.0007 21.7578 68.9353 21.7186 68.8285 21.7179C68.8478 21.5974 68.7824 21.5581 68.6756 21.5588C68.6963 21.4376 68.6247 21.4017 68.5234 21.3942C68.4793 21.1992 68.2645 21.1228 68.2059 20.9389C68.1556 20.8028 68.0789 20.678 67.9802 20.5716C67.8815 20.4652 67.7627 20.3794 67.6308 20.319C67.5833 20.3004 67.5881 20.2501 67.5736 20.2164C67.358 19.872 67.0825 19.5738 66.8029 19.2803L66.6472 19.1254C66.4482 18.781 66.13 18.531 65.9178 18.1976C65.9323 18.0771 65.882 18.0233 65.7594 18.0413V18.0447C65.7808 17.9249 65.7346 17.8677 65.6093 17.8842C65.6251 17.7706 65.5838 17.7093 65.4612 17.723C65.4701 17.6149 65.4343 17.5481 65.3117 17.5619V17.5653C65.3193 17.4565 65.2814 17.3904 65.1595 17.4028C65.1554 17.3587 65.1505 17.3146 65.1464 17.2698C65.1685 17.1472 65.1237 17.0866 64.9935 17.1045C65.0135 16.9833 64.9646 16.9289 64.8413 16.9454C64.8571 16.8283 64.8096 16.7726 64.6891 16.7863H64.6836C64.7008 16.672 64.6581 16.6121 64.5369 16.6238C64.5451 16.5136 64.5038 16.4516 64.3833 16.4654C64.3833 16.4158 64.3798 16.3669 64.3777 16.3173C64.3936 16.1967 64.3419 16.143 64.22 16.1602C64.2386 16.0411 64.1876 15.9887 64.0664 16.0032V16.0066C64.0871 15.8863 64.0366 15.8331 63.9149 15.8469C63.9307 15.7298 63.8811 15.676 63.762 15.6884C63.7792 15.572 63.7303 15.5176 63.6118 15.528C63.6249 15.4143 63.5808 15.3558 63.4617 15.3675L63.4534 15.2221C63.4534 15.1677 63.4534 15.1126 63.4534 15.0582C63.4534 15.0072 63.4534 14.9563 63.4534 14.9053C63.5712 14.9177 63.6208 14.864 63.6077 14.7483C63.7262 14.7634 63.7765 14.7097 63.7634 14.5933C63.8832 14.6071 63.9328 14.5533 63.917 14.4356C64.0361 14.4487 64.0878 14.397 64.0706 14.2778C64.1897 14.293 64.2421 14.2407 64.2262 14.1222C64.3454 14.1373 64.397 14.0857 64.3819 13.9665C64.501 13.9817 64.5527 13.93 64.5375 13.8115C64.6601 13.8267 64.709 13.7716 64.6911 13.6518C64.6911 13.6042 64.6987 13.5567 64.7022 13.5092C64.8234 13.5264 64.8578 13.4575 64.8578 13.3542C64.977 13.3707 65.0135 13.3032 65.0155 13.2006C65.1388 13.2185 65.1684 13.1441 65.1691 13.0422C65.2945 13.0594 65.3227 12.9843 65.3214 12.8817C65.4412 12.8969 65.4777 12.8301 65.4763 12.7254C65.559 12.7343 65.6196 12.7123 65.6285 12.6179C65.8593 12.538 65.986 12.3527 66.0997 12.1537C66.1225 12.1485 66.1439 12.1381 66.1621 12.1233C66.1802 12.1085 66.1947 12.0896 66.2044 12.0683C66.2249 12.0688 66.2453 12.0651 66.2643 12.0575C66.2834 12.0498 66.3007 12.0385 66.3152 12.024C66.3298 12.0095 66.3412 11.9922 66.3489 11.9732C66.3566 11.9542 66.3604 11.9338 66.36 11.9133C66.3805 11.914 66.4008 11.9104 66.4198 11.9029C66.4389 11.8954 66.4561 11.8841 66.4706 11.8696C66.4851 11.8552 66.4964 11.8379 66.5039 11.8189C66.5114 11.7998 66.515 11.7795 66.5143 11.759C66.535 11.7596 66.5555 11.7559 66.5747 11.7482C66.5938 11.7405 66.6112 11.7289 66.6257 11.7142C66.6402 11.6994 66.6515 11.6819 66.6588 11.6626C66.6662 11.6432 66.6695 11.6226 66.6686 11.602C66.8752 11.5193 66.9765 11.3134 67.1431 11.1887C67.2011 11.1504 67.2463 11.0957 67.273 11.0315C67.2996 10.9673 67.3064 10.8966 67.2926 10.8285C67.4455 10.6859 67.6239 10.5682 67.7134 10.3684C67.8126 10.3601 67.8891 10.3298 67.8684 10.2066C67.9697 10.201 68.0358 10.1625 68.0186 10.0468C68.1233 10.0468 68.1901 10.0109 68.1742 9.8911C68.2789 9.8911 68.3457 9.85528 68.3299 9.73612C68.438 9.73612 68.5014 9.69618 68.4814 9.57633L68.4855 9.57977C68.5957 9.58391 68.6522 9.53707 68.6378 9.42136C68.7521 9.431 68.8058 9.38141 68.792 9.26501C68.9071 9.27603 68.9615 9.22644 68.9477 9.10935C69.0627 9.12037 69.1171 9.07146 69.1034 8.95369C69.2198 8.96471 69.2742 8.91511 69.2563 8.79596H69.2597C69.3761 8.80629 69.4271 8.75394 69.4119 8.63754C69.5311 8.6527 69.5821 8.59966 69.5662 8.48188C69.6854 8.49772 69.7377 8.44675 69.7239 8.3276C69.8445 8.34206 69.8941 8.28765 69.8789 8.16918L69.8865 8.03143C69.9967 8.03143 70.0573 7.98873 70.0428 7.87163C70.1551 7.88059 70.2116 7.83306 70.1985 7.71597C70.3108 7.72493 70.3673 7.6774 70.3542 7.56031C70.4692 7.56927 70.5215 7.5183 70.5064 7.4019C70.6228 7.41223 70.6689 7.35437 70.6586 7.24348C70.7757 7.25657 70.8246 7.20216 70.8143 7.08782C70.9307 7.10228 70.9768 7.04374 70.9761 6.9356C71.0298 6.92389 71.1139 6.94456 71.1139 6.86053C71.1139 6.75515 71.0278 6.78407 70.9651 6.78063L70.8108 6.78614L70.6607 6.77099C70.6469 6.52441 70.4595 6.65183 70.3445 6.62359L69.8769 6.62979H68.9429H68.6371H68.3774H68.1708C68.0516 6.60844 68.0027 6.66285 68.0096 6.77788L67.9132 6.78407C67.7995 6.77168 67.6914 6.76617 67.6955 6.9294C67.5839 6.9294 67.5323 6.97899 67.544 7.09126C67.4186 7.06991 67.3842 7.13879 67.3883 7.24624C67.3124 7.26256 67.2425 7.29998 67.1869 7.35419C67.1312 7.40841 67.0919 7.47722 67.0736 7.55274C66.8945 7.57822 66.8463 7.71391 66.8118 7.8613V7.85717C66.7072 7.85717 66.6417 7.89505 66.6562 8.01283C66.548 8.01283 66.4895 8.05554 66.5026 8.16987C66.3931 8.16574 66.3325 8.20844 66.3476 8.32691C66.2787 8.33586 66.1968 8.32691 66.1975 8.43436C66.1148 8.47981 66.0205 8.51632 66.039 8.64099C65.9288 8.6341 65.8758 8.68438 65.8841 8.79527C65.7739 8.78838 65.7208 8.83866 65.7291 8.95024C65.6554 8.95024 65.5803 8.95024 65.5769 9.05631C65.4887 9.09902 65.4019 9.1431 65.4233 9.26294C65.3076 9.25123 65.2566 9.30358 65.2676 9.4186C65.154 9.40689 65.101 9.45717 65.1099 9.57151C64.9969 9.56187 64.9446 9.61352 64.9542 9.72648C64.8385 9.71776 64.7876 9.77079 64.8013 9.88559L64.791 10.0233C64.6836 10.0233 64.6229 10.0702 64.634 10.1852C64.5189 10.1749 64.4735 10.2334 64.4797 10.3422C64.366 10.3305 64.3178 10.3863 64.3233 10.4958C64.2042 10.4821 64.1629 10.5447 64.1684 10.6542C64.0485 10.6418 64.0093 10.7066 64.0155 10.814C63.9018 10.8044 63.857 10.8629 63.8619 10.9704C63.7468 10.9594 63.7014 11.0172 63.7062 11.1254C63.5912 11.1143 63.5457 11.1729 63.5505 11.281C63.4355 11.27 63.3921 11.3306 63.3949 11.4367C63.3157 11.4326 63.2482 11.445 63.2427 11.5448C63.129 11.5448 63.0718 11.591 63.0987 11.7108C62.9768 11.6929 62.9183 11.7384 62.943 11.8665C62.8211 11.8486 62.7626 11.8933 62.7874 12.0221C62.6634 12.0029 62.6076 12.0524 62.6317 12.1799C62.629 12.193 62.6241 12.2055 62.6173 12.2171C62.5415 12.2171 62.4733 12.2246 62.4664 12.3217C62.35 12.3217 62.2942 12.3686 62.3225 12.4898C62.1964 12.4705 62.1434 12.5215 62.1675 12.6475C62.0408 12.6248 61.9884 12.6758 62.0118 12.8032C61.8851 12.7798 61.8328 12.8314 61.8562 12.9589C61.7294 12.9354 61.6771 12.9871 61.7005 13.1138C61.5256 13.0815 61.5318 13.1985 61.5373 13.3143C61.5373 13.3473 61.5373 13.3831 61.5373 13.4134C61.4202 13.4024 61.3713 13.4575 61.3851 13.5725C61.268 13.5588 61.2163 13.6104 61.2294 13.7275C61.1123 13.7137 61.0607 13.7654 61.0737 13.8825C60.9567 13.8687 60.905 13.9204 60.9181 14.0375C60.801 14.0237 60.7493 14.0753 60.7624 14.1924C60.6474 14.1766 60.5992 14.2317 60.6026 14.3419C60.4897 14.3419 60.438 14.3929 60.4545 14.5065C60.3292 14.4845 60.2865 14.5451 60.2996 14.6608C60.1742 14.6394 60.1315 14.6994 60.1446 14.8158C60.0192 14.7937 59.9765 14.8543 59.9896 14.9701C59.8636 14.948 59.8209 15.0086 59.836 15.125L59.6811 15.28C59.5564 15.2614 59.5061 15.3158 59.5254 15.4377C59.3966 15.4129 59.3518 15.4715 59.3697 15.5927C59.2409 15.5679 59.1962 15.6264 59.2141 15.7477C59.0853 15.7229 59.0405 15.7814 59.0584 15.9033C58.9379 15.8765 58.8897 15.9329 58.8931 16.0473C58.7939 16.0562 58.7877 16.1279 58.7891 16.2036C58.6672 16.185 58.6245 16.2725 58.5825 16.3586C58.4826 16.3662 58.4785 16.4378 58.4778 16.5122C58.3676 16.5053 58.3145 16.5563 58.3228 16.6672C58.0873 16.6754 58.1754 16.4943 58.1754 16.3917C58.1694 13.2927 58.1665 10.1932 58.1665 7.09333C58.1864 6.96797 58.1306 6.91838 58.0087 6.93491C57.955 6.8867 57.9647 6.77719 57.8586 6.77856C57.8689 6.65872 57.8207 6.60155 57.6953 6.62979H56.0024C55.8804 6.60706 55.8253 6.65665 55.8391 6.77994C55.7158 6.76548 55.6649 6.81851 55.6869 6.94111C55.6814 7.29445 55.6718 7.64847 55.6718 8.00181C55.6718 13.8609 55.6738 19.7202 55.6779 25.5798C55.6779 25.7003 55.6848 25.8209 55.6883 25.9414C55.6883 25.9931 55.6883 26.0454 55.6848 26.0971C55.6635 26.2169 55.7213 26.2631 55.835 26.2569L55.8398 26.2534C55.8956 26.5124 56.1077 26.5537 56.3151 26.5599C56.7579 26.573 57.2022 26.5634 57.6464 26.5599C57.7615 26.573 57.8476 26.5441 57.8613 26.4111C58.068 26.3774 58.0108 26.2231 58.0108 26.0943C58.194 26.0303 58.1692 25.8711 58.1692 25.7313C58.1692 24.1954 58.1692 22.6594 58.1692 21.1235C58.1692 20.8363 58.3201 20.598 58.4289 20.3466C58.5067 20.1744 58.5597 19.9843 58.7409 19.8803C58.845 19.7931 58.943 19.699 59.0343 19.5986C59.2492 19.3313 59.5771 19.1695 59.7286 18.8457C59.8264 18.8388 59.8457 18.7769 59.836 18.6942C59.94 18.6942 60.0089 18.6605 59.9917 18.5392C60.0489 18.4931 60.1446 18.4834 60.1439 18.3815C60.2465 18.3815 60.3195 18.3491 60.3009 18.2265H60.3044C60.4118 18.2265 60.4738 18.1845 60.4552 18.0674C60.5689 18.0729 60.6226 18.0233 60.6054 17.9069C60.7225 17.9193 60.7789 17.8711 60.7597 17.7499C60.8788 17.7602 60.9298 17.7079 60.9112 17.5901C61.0324 17.6076 61.0845 17.5557 61.0675 17.4345C61.1867 17.4524 61.239 17.4007 61.2253 17.2809L61.2335 17.1348L61.3782 17.1259L61.549 17.1218L61.6929 17.1307C61.6812 17.2444 61.7322 17.2981 61.8465 17.2891L61.8562 17.4269C61.8355 17.5502 61.8824 17.6094 62.0118 17.5901C61.9877 17.7148 62.0415 17.7658 62.1647 17.7485C62.1434 17.8698 62.1971 17.9207 62.3163 17.909L62.3211 17.9056C62.297 18.0282 62.3548 18.0736 62.4712 18.0647C62.4513 18.1831 62.5064 18.2314 62.6207 18.2252C62.6207 18.2734 62.6255 18.3223 62.6276 18.3705C62.6083 18.4952 62.66 18.5489 62.7853 18.5289C62.7605 18.6543 62.8156 18.7038 62.9382 18.6887C62.9141 18.8113 62.9706 18.8588 63.0877 18.8506H63.0925C63.067 18.9766 63.1325 19.0138 63.244 19.0083C63.2213 19.1302 63.284 19.1715 63.3949 19.1674C63.3721 19.2879 63.4424 19.3237 63.545 19.3306C63.545 19.3637 63.545 19.3995 63.545 19.4298C63.5306 19.5531 63.6105 19.5992 63.7096 19.6289C63.6807 19.7487 63.7399 19.7949 63.8474 19.7976C63.8529 19.9016 63.9411 19.914 64.0113 19.9457C63.9845 20.0704 64.0561 20.1034 64.1608 20.1055C64.1346 20.2308 64.2124 20.2591 64.3116 20.268L64.3158 20.3652C64.3041 20.4781 64.355 20.5298 64.468 20.5229H64.4721C64.448 20.6482 64.541 20.6896 64.6257 20.733C64.6257 20.839 64.7221 20.8445 64.7807 20.89C64.7738 20.9988 64.8778 21.0009 64.9336 21.0491C64.9232 21.1641 65.0355 21.1545 65.0906 21.2027L65.0948 21.2998C65.0727 21.4231 65.1602 21.4665 65.2483 21.5064C65.2483 21.6077 65.3255 21.6104 65.3992 21.6132C65.3792 21.7365 65.4743 21.7737 65.5542 21.8198C65.5486 21.928 65.6595 21.9218 65.7091 21.9769C65.778 22.1394 65.9433 22.2255 66.0301 22.3743L66.0239 22.3853C66.0025 22.5093 66.0928 22.5485 66.1796 22.5919C66.1796 22.6973 66.2794 22.7001 66.3332 22.7503C66.3332 22.8571 66.4137 22.8488 66.4819 22.8585C66.4819 22.9067 66.4881 22.9556 66.4909 23.0038L66.6362 23.1698C66.6452 23.2428 66.65 23.3206 66.7561 23.3138L66.7974 23.3262C66.7974 23.4012 66.8063 23.4694 66.9028 23.477C66.8986 23.5927 66.9489 23.6464 67.0681 23.6237C67.119 23.6926 67.1369 23.8021 67.2568 23.7918C67.2568 23.8689 67.2616 23.944 67.3691 23.9412C67.3691 24.0404 67.4007 24.1169 67.524 24.0996C67.5282 24.1444 67.5323 24.1892 67.5357 24.2339C67.5116 24.3503 67.5523 24.4144 67.6783 24.4089C67.6742 24.5177 67.7231 24.5728 67.8347 24.5659C67.8347 24.6754 67.8794 24.7347 67.9979 24.712C67.9814 24.8249 68.0261 24.8835 68.1439 24.8779C68.1439 24.9847 68.1859 25.0453 68.303 25.0281L68.3072 25.1238C68.2975 25.2361 68.2879 25.3484 68.4539 25.3415C68.4539 25.4558 68.5028 25.5102 68.6212 25.4875C68.5957 25.606 68.6508 25.6556 68.7652 25.6549C68.759 25.7651 68.8141 25.814 68.9215 25.8098C68.9174 25.92 68.9656 25.9751 69.0799 25.9607C69.0799 25.9937 69.0799 26.0261 69.0799 26.0585C69.0703 26.1714 69.0627 26.283 69.2294 26.2741C69.2225 26.4414 69.3341 26.4346 69.4491 26.4222C69.5752 26.4828 69.6943 26.5544 69.8445 26.5544C70.7833 26.5544 71.722 26.564 72.6608 26.5702C72.7531 26.5702 72.8096 26.5351 72.8082 26.4325C72.8564 26.3071 72.8076 26.2507 72.6856 26.2637Z" fill="#DBDCE0"/>
<path d="M155.236 25.6373C155.156 25.441 155.05 25.2523 155.071 25.0285C155.021 25.025 154.94 25.025 154.946 24.972C154.964 24.8087 154.808 24.7068 154.808 24.5546C154.745 24.4761 154.793 24.3617 154.739 24.2908C154.548 24.0421 154.486 23.7356 154.347 23.4643C154.273 23.3706 154.31 23.2218 154.193 23.1488C154.139 22.9959 154.084 22.843 154.03 22.6908C154.017 22.5984 153.993 22.5081 153.957 22.4222C153.781 22.1097 153.633 21.7824 153.515 21.4441C153.465 21.4441 153.381 21.4476 153.384 21.3966C153.395 21.181 153.162 21.0619 153.187 20.8256C153.201 20.7051 153.081 20.5432 153.003 20.4392C152.901 20.3015 152.898 20.183 152.897 20.0418C152.929 19.9281 152.789 19.8896 152.787 19.7904C152.607 19.4363 152.455 19.0694 152.33 18.6925C152.261 18.5451 152.135 18.417 152.165 18.2331C152.12 18.125 151.987 18.0581 152.016 17.9163C151.963 17.8136 151.843 17.7427 151.861 17.6043V17.4513C151.821 17.3418 151.678 17.2819 151.71 17.1373C151.734 16.9568 151.56 16.8459 151.546 16.6785C151.505 16.5683 151.37 16.5029 151.397 16.361C151.352 16.2536 151.217 16.1881 151.25 16.0442L151.233 15.8996C151.119 15.903 151.071 15.8486 151.091 15.7356V15.582C151.086 15.5345 151.082 15.487 151.077 15.4395C150.964 15.4395 150.909 15.3878 150.939 15.27C150.936 15.2377 150.932 15.2011 150.928 15.1715C150.843 15.1261 150.752 15.0834 150.783 14.9587C150.783 14.9077 150.783 14.8568 150.783 14.8058L150.772 14.812C150.657 14.812 150.611 14.759 150.629 14.6474V14.4938C150.624 14.4463 150.619 14.3987 150.614 14.3505C150.498 14.3505 150.451 14.294 150.476 14.1804C150.47 14.1322 150.465 14.084 150.459 14.0351C150.345 14.0351 150.301 13.9813 150.321 13.8711C150.318 13.8381 150.314 13.8057 150.31 13.7726C150.224 13.7265 150.139 13.6804 150.166 13.5584L150.17 13.4035L150.154 13.2581C150.037 13.2623 149.993 13.2051 150.012 13.0928C150.012 13.0419 150.012 12.9902 150.012 12.9392L150 12.9454C149.885 12.9503 149.838 12.8945 149.856 12.7822C149.856 12.7305 149.856 12.6796 149.856 12.6286L149.841 12.484C149.872 12.3634 149.814 12.3166 149.703 12.3152C149.7 12.2828 149.696 12.2505 149.692 12.2181L149.688 12.0211C149.716 11.9013 149.665 11.8482 149.546 11.8531L149.535 11.7559C149.535 11.7029 149.535 11.6499 149.54 11.5968C149.554 11.4853 149.506 11.4308 149.392 11.437L149.382 11.4426C149.382 11.3916 149.382 11.3406 149.382 11.2896C149.412 11.165 149.325 11.1195 149.236 11.0761L149.226 10.9783C149.261 10.8502 149.169 10.8082 149.081 10.7627C149.078 10.7304 149.075 10.6973 149.072 10.6649C149.072 10.6133 149.072 10.5616 149.072 10.5107C149.099 10.3881 149.011 10.344 148.926 10.2971L148.915 10.1993C148.934 10.0884 148.887 10.0327 148.774 10.0347C148.769 9.98582 148.763 9.9376 148.758 9.8887C148.796 9.7599 148.699 9.71995 148.614 9.67312C148.61 9.64074 148.608 9.60837 148.604 9.576C148.604 9.52503 148.604 9.47406 148.604 9.42309C148.623 9.3122 148.577 9.25573 148.462 9.25917C148.457 9.21027 148.451 9.16205 148.445 9.11384C148.478 8.97058 148.34 8.90721 148.299 8.79632C148.329 8.65305 148.186 8.58969 148.148 8.48017C148.145 8.43127 148.142 8.38306 148.139 8.33416C148.167 8.19227 148.032 8.12753 147.99 8.01801C148.017 7.87613 147.878 7.81138 147.839 7.70394H147.835C147.868 7.55861 147.728 7.49731 147.683 7.38986C147.683 7.34165 147.678 7.29343 147.675 7.24522C147.696 7.12675 147.645 7.07165 147.525 7.08198C147.541 6.96214 147.486 6.91323 147.369 6.92563C147.382 6.80441 147.327 6.75482 147.207 6.77548L147.063 6.76102C147.041 6.51719 146.862 6.63635 146.74 6.62326H146.027C145.906 6.64048 145.724 6.52133 145.705 6.76584L145.71 6.77204C145.481 6.75137 145.434 6.94216 145.347 7.08405C145.237 7.08956 145.237 7.16394 145.247 7.24453C145.268 7.46838 145.15 7.65779 145.083 7.85478C145.053 7.97049 144.903 8.02903 144.932 8.17161C144.912 8.22327 144.936 8.28801 144.883 8.32934C144.633 8.39821 144.711 8.64341 144.625 8.80045C144.625 8.84866 144.619 8.89619 144.616 8.9444C144.579 9.05598 144.44 9.11797 144.465 9.25917C144.489 9.43963 144.307 9.54845 144.304 9.71926C144.264 9.82947 144.128 9.8949 144.153 10.0361C144.112 10.1449 143.977 10.2097 144.003 10.3502L143.992 10.448C143.909 10.4955 143.818 10.5375 143.845 10.6608C143.845 10.7118 143.845 10.7627 143.845 10.8137C143.808 10.9246 143.665 10.9845 143.693 11.1271H143.689C143.652 11.238 143.514 11.3014 143.54 11.4426L143.531 11.5865C143.453 11.6802 143.345 11.7594 143.383 11.9068C143.383 11.9385 143.377 11.9701 143.374 12.0018C143.227 12.008 143.213 12.1031 143.229 12.2188L143.221 12.3648C143.217 12.4791 143.286 12.6321 143.074 12.6341L143.063 12.6272V12.7815C143.084 12.8952 143.04 12.9523 142.922 12.9468C142.916 12.995 142.91 13.0426 142.905 13.0908L142.911 13.2485C142.927 13.3635 142.878 13.4179 142.761 13.4104L142.751 13.4042V13.5578C142.77 13.67 142.726 13.7279 142.609 13.7231C142.604 13.7713 142.599 13.8202 142.593 13.8691C142.615 13.9827 142.573 14.0413 142.456 14.0358C142.449 14.084 142.444 14.1322 142.438 14.1797L142.444 14.3347C142.462 14.4483 142.415 14.5041 142.298 14.4986L142.288 14.4931C142.288 14.5441 142.288 14.5957 142.288 14.6467C142.309 14.761 142.261 14.8154 142.144 14.8106C142.14 14.8595 142.135 14.9077 142.13 14.9566C142.154 15.0703 142.11 15.1288 141.993 15.1254C141.988 15.1736 141.982 15.2218 141.978 15.2707C141.973 15.3196 141.978 15.372 141.978 15.4229C141.996 15.5359 141.951 15.5931 141.833 15.5862L141.818 15.7315C141.843 15.8479 141.797 15.9037 141.681 15.8996C141.676 15.9485 141.67 15.9967 141.666 16.0456L141.67 16.2005C141.688 16.3149 141.639 16.37 141.522 16.3631L141.511 16.3576V16.5112C141.534 16.6241 141.486 16.6786 141.374 16.6772C141.368 16.7254 141.363 16.7736 141.358 16.8218V16.9782C141.373 17.1159 141.261 17.1903 141.203 17.2916C141.221 17.4038 141.172 17.4575 141.06 17.4555L141.048 17.4493V17.6015C141.072 17.7158 141.02 17.7675 140.91 17.7682L140.893 17.9128C140.893 17.9638 140.893 18.0154 140.893 18.0664C140.911 18.1801 140.865 18.2358 140.749 18.2317L140.738 18.2255V18.3784C140.761 18.4934 140.708 18.5437 140.6 18.543C140.594 18.5913 140.588 18.6388 140.582 18.6863C140.582 18.7235 140.588 18.7607 140.591 18.7979C140.525 19.0386 140.422 19.2677 140.286 19.477C140.286 19.4563 140.28 19.4364 140.278 19.4157C140.082 19.4453 140.141 19.6058 140.117 19.7256C139.951 19.7256 139.961 19.8359 139.979 19.9495C139.979 19.9805 139.974 20.0108 139.972 20.0418C139.758 20.0707 139.822 20.2312 139.82 20.3607L139.811 20.5053C139.565 20.5177 139.685 20.7023 139.663 20.8201C139.41 20.8263 139.532 21.0143 139.511 21.1335C139.267 21.1755 139.373 21.3649 139.357 21.502C139.363 21.5856 139.345 21.6693 139.305 21.743C139.189 21.94 139.077 22.1418 139.04 22.3733C138.79 22.3843 138.914 22.5716 138.891 22.6894C138.891 22.7369 138.884 22.7838 138.879 22.8313C138.84 22.8437 138.769 22.8513 138.766 22.8692C138.727 23.1261 138.504 23.3306 138.559 23.6117C138.477 23.6117 138.479 23.6757 138.452 23.7301C138.292 24.0621 138.162 24.4099 138.032 24.7516C137.901 25.0932 137.7 25.4211 137.646 25.7957C137.508 25.8109 137.49 25.9121 137.492 26.0168C137.495 26.1215 137.577 26.1029 137.645 26.1029C137.691 26.26 137.507 26.4962 137.805 26.5658C138.032 26.5878 138.218 26.7345 138.463 26.7366C138.808 26.74 139.098 26.5362 139.437 26.5575C139.514 26.563 139.506 26.4769 139.511 26.4198C139.688 26.4377 139.771 26.1994 139.962 26.2538C140.087 26.2786 140.146 26.2304 140.128 26.1002C140.132 26.0862 140.134 26.0719 140.134 26.0575C140.186 25.9707 140.325 25.9335 140.285 25.7944C140.285 25.6931 140.285 25.5912 140.289 25.4899C140.271 25.3721 140.32 25.3177 140.44 25.3281H140.444C140.466 25.2096 140.347 25.0278 140.59 25.0105C140.595 24.9623 140.601 24.9134 140.607 24.8645L140.601 24.7089C140.583 24.5952 140.629 24.5381 140.747 24.547L140.762 24.4024C140.735 24.2867 140.778 24.2274 140.9 24.2322L140.916 24.0876C140.916 24.0353 140.916 23.9836 140.911 23.9319C140.893 23.819 140.938 23.7625 141.055 23.768L141.07 23.6227C141.048 23.5077 141.092 23.4498 141.212 23.4574C141.217 23.4092 141.223 23.361 141.227 23.3127C141.201 23.1957 141.248 23.1399 141.365 23.1447C141.371 23.0965 141.376 23.0483 141.381 23.0007C141.353 22.8816 141.406 22.8313 141.519 22.8334L141.529 22.6956C141.511 22.5696 141.565 22.5172 141.69 22.5365L141.827 22.5269C141.821 22.4077 141.876 22.3588 141.993 22.3843L141.989 22.3767C141.993 22.272 142.068 22.2713 142.144 22.272C142.406 22.1577 142.681 22.2479 142.95 22.2224C143.044 22.2176 143.139 22.2176 143.233 22.2224C145.68 22.2224 148.127 22.2224 150.574 22.2224C150.681 22.2224 150.816 22.1859 150.81 22.3698L150.958 22.3863C151.078 22.3581 151.128 22.4105 151.122 22.5289L151.119 22.5331L151.267 22.5365C151.392 22.5186 151.445 22.5716 151.425 22.6963C151.429 22.7438 151.432 22.79 151.436 22.834C151.674 22.852 151.562 23.0331 151.585 23.1516C151.833 23.1591 151.716 23.3458 151.739 23.4636C151.99 23.4725 151.866 23.6613 151.891 23.779C151.891 23.8279 151.896 23.8768 151.899 23.9257C152.144 23.9388 152.022 24.1255 152.048 24.2419C152.298 24.2543 152.176 24.4396 152.197 24.5587C152.202 24.7295 152.372 24.8432 152.354 25.0216C152.476 25.0092 152.527 25.0636 152.506 25.1841C152.465 25.4596 152.742 25.6663 152.672 25.9507C152.773 25.9617 152.772 26.0547 152.804 26.1188C152.873 26.2565 152.96 26.3853 153.128 26.4232C153.615 26.6092 154.123 26.5038 154.62 26.5134C154.832 26.5176 155.017 26.3171 155.251 26.3626L155.266 25.6401L155.236 25.6373ZM149.929 19.893C149.447 19.893 148.962 19.893 148.477 19.893C146.628 19.893 144.779 19.8916 142.929 19.8889C142.845 19.8889 142.639 19.9846 142.726 19.7346L142.73 19.6299V19.4763C142.702 19.3523 142.788 19.3076 142.877 19.2649C142.877 19.2325 142.884 19.1994 142.888 19.1671C142.851 19.0396 142.943 18.9969 143.03 18.9501C143.033 18.9177 143.037 18.8854 143.04 18.853V18.6994C143.011 18.5747 143.1 18.5313 143.188 18.4879L143.198 18.3901C143.198 18.3385 143.198 18.2861 143.198 18.2345C143.173 18.1132 143.255 18.0664 143.343 18.0223C143.336 17.8984 143.44 17.8412 143.501 17.7578C143.501 17.7096 143.507 17.6607 143.51 17.6118C143.48 17.4693 143.619 17.4052 143.66 17.2964C143.633 17.1545 143.765 17.0897 143.81 16.9802L143.819 16.8335C143.791 16.6916 143.928 16.6269 143.968 16.5174C143.941 16.3755 144.077 16.3108 144.118 16.2005C144.118 16.1523 144.124 16.1034 144.127 16.0545C144.099 15.9126 144.235 15.8479 144.277 15.7384C144.364 15.5327 144.452 15.326 144.54 15.1185C144.5 14.8209 144.647 14.5778 144.79 14.3443C144.847 14.2513 144.835 14.168 144.85 14.0791C144.963 13.7885 145.134 13.5212 145.2 13.212C145.214 13.1486 145.24 13.0977 145.315 13.0935C145.461 12.7271 145.565 12.3421 145.782 12.006C145.799 12.0301 145.814 12.0308 145.828 12.006C145.897 11.8221 145.976 11.6395 146.043 11.455C146.121 11.2414 146.278 11.0575 146.304 10.8192C146.325 10.8201 146.346 10.8165 146.365 10.8087C146.385 10.8008 146.402 10.789 146.417 10.7738C146.431 10.7587 146.442 10.7406 146.449 10.7209C146.455 10.7012 146.458 10.6802 146.456 10.6594C146.637 10.7145 146.602 10.9274 146.725 11.0252C146.718 11.0405 146.717 11.0573 146.72 11.0734C146.647 11.3289 146.899 11.4915 146.911 11.7243C146.911 11.7353 146.987 11.7422 147.028 11.7504C147.004 11.9302 147.175 12.0445 147.185 12.2133C147.254 12.3469 147.384 12.4571 147.339 12.6314H147.342C147.388 12.7374 147.521 12.8036 147.49 12.9461C147.494 12.9943 147.497 13.0419 147.5 13.0901C147.643 13.1534 147.673 13.2698 147.651 13.4104C147.629 13.5509 147.836 13.577 147.808 13.7203C147.851 13.8284 147.981 13.8959 147.957 14.0358L147.962 14.188L147.966 14.1845C148.008 14.2934 148.143 14.3581 148.114 14.5C148.158 14.6088 148.294 14.6742 148.263 14.8175L148.274 14.9621C148.315 15.0717 148.451 15.1378 148.42 15.2804L148.436 15.425C148.553 15.425 148.599 15.4808 148.574 15.5937L148.59 15.7398C148.706 15.7343 148.749 15.7921 148.733 15.9023C148.733 15.954 148.733 16.0049 148.733 16.0566C148.738 16.1055 148.743 16.1537 148.749 16.2026C148.862 16.2026 148.907 16.2577 148.887 16.3686C148.891 16.401 148.894 16.4333 148.898 16.4657C148.984 16.5119 149.07 16.5573 149.044 16.6792C149.044 16.7309 149.044 16.7826 149.044 16.8342L149.06 16.9795C149.176 16.9795 149.219 17.0353 149.198 17.1455C149.201 17.1779 149.205 17.2103 149.209 17.2426C149.294 17.2895 149.382 17.3343 149.354 17.4575C149.354 17.5092 149.354 17.5602 149.35 17.6118L149.367 17.7585C149.484 17.753 149.528 17.8109 149.509 17.9231V18.0774L149.52 18.0712C149.635 18.0657 149.683 18.1215 149.666 18.2345C149.666 18.2861 149.666 18.3371 149.666 18.3888L149.682 18.5348C149.799 18.53 149.842 18.5885 149.823 18.7001C149.823 18.751 149.823 18.802 149.823 18.853L149.84 18.9956C149.96 18.9956 150 19.0541 149.978 19.1664C149.982 19.1987 149.985 19.2311 149.989 19.2635C150.105 19.2635 150.16 19.311 150.131 19.4309L150.135 19.6299L150.139 19.7318C150.172 19.9206 150.04 19.8951 149.929 19.8951V19.893Z" fill="#DBDCE0"/>
</g>
<defs>
<clipPath id="clip0_3290_11467">
<rect width="155.236" height="31.5" fill="white" transform="translate(0.000244141 0.152344)"/>
</clipPath>
</defs>
</svg>
