<svg width="421" height="374" viewBox="0 0 421 374" fill="none" xmlns="http://www.w3.org/2000/svg">
<rect width="421" height="374" rx="10" fill="#FFDBDB"/>
<mask id="mask0_2458_8914" style="mask-type:alpha" maskUnits="userSpaceOnUse" x="0" y="0" width="421" height="374">
<rect width="421" height="374" rx="10" fill="#F4E6FF"/>
</mask>
<g mask="url(#mask0_2458_8914)">
<g opacity="0.2">
<path d="M568.383 219.717C528.933 178.642 490.891 215.176 451.441 174.104C411.99 133.029 450.029 96.4925 410.576 55.4179C371.126 14.3431 333.085 50.8802 293.634 9.80547C254.184 -31.2692 292.223 -67.8062 252.77 -108.878C213.319 -149.953 175.278 -113.416 135.828 -154.491" stroke="#40196D" stroke-miterlimit="10"/>
<path d="M606.86 182.767C567.407 141.694 528.942 178.64 489.489 137.567C450.036 96.4928 488.504 59.545 449.053 18.4727C409.6 -22.6019 371.135 14.3458 331.682 -26.7288C292.229 -67.8035 330.699 -104.751 291.247 -145.823C251.794 -186.898 213.328 -149.95 173.875 -191.025" stroke="#40196D" stroke-miterlimit="10"/>
<path d="M644.899 146.23C605.446 105.158 567.407 141.693 527.956 100.618C488.504 59.5458 526.545 23.0062 487.092 -18.066C447.639 -59.1406 409.6 -22.6061 370.147 -63.6783C330.694 -104.753 368.736 -141.29 329.283 -182.365C289.83 -223.439 251.791 -186.902 212.341 -227.977" stroke="#40196D" stroke-miterlimit="10"/>
<path d="M568.383 219.717C528.933 178.642 490.891 215.176 451.441 174.104C411.99 133.029 450.029 96.4925 410.576 55.4179C371.126 14.3431 333.085 50.8802 293.634 9.80547C254.184 -31.2692 292.223 -67.8062 252.77 -108.878C213.319 -149.953 175.278 -113.416 135.828 -154.491" stroke="#40196D" stroke-miterlimit="10"/>
<path d="M606.86 182.767C567.407 141.694 528.942 178.64 489.489 137.567C450.036 96.4928 488.504 59.545 449.053 18.4727C409.6 -22.6019 371.135 14.3458 331.682 -26.7288C292.229 -67.8035 330.699 -104.751 291.247 -145.823C251.794 -186.898 213.328 -149.95 173.875 -191.025" stroke="#40196D" stroke-miterlimit="10"/>
<path d="M644.899 146.23C605.446 105.158 567.407 141.693 527.956 100.618C488.504 59.5458 526.545 23.0062 487.092 -18.066C447.639 -59.1406 409.6 -22.6061 370.147 -63.6783C330.694 -104.753 368.736 -141.29 329.283 -182.365C289.83 -223.439 251.791 -186.902 212.341 -227.977" stroke="#40196D" stroke-miterlimit="10"/>
<path d="M441.016 342.051C401.563 300.976 363.524 337.511 324.074 296.439C284.621 255.364 322.662 218.827 283.209 177.752C243.756 136.678 205.717 173.215 166.267 132.14C126.817 91.0653 164.853 54.5284 125.403 13.4536C85.9497 -27.6185 47.9083 8.91605 8.46033 -32.1587" stroke="#40196D" stroke-miterlimit="10"/>
<path d="M479.477 305.103C440.024 264.03 401.559 300.976 362.106 259.903C322.653 218.829 361.121 181.881 321.67 140.809C282.218 99.7341 243.752 136.682 204.299 95.6071C164.846 54.5325 203.317 17.5871 163.864 -23.4875C124.411 -64.5622 85.9456 -27.6145 46.4927 -68.6892" stroke="#40196D" stroke-miterlimit="10"/>
<path d="M517.528 268.566C478.075 227.492 440.036 264.029 400.585 222.954C361.133 181.882 399.171 145.342 359.721 104.267C320.268 63.1953 282.227 99.7299 242.779 58.6576C203.326 17.5829 241.365 -18.9566 201.912 -60.0287C162.461 -101.103 124.42 -64.5664 84.9696 -105.641" stroke="#40196D" stroke-miterlimit="10"/>
<path d="M323.336 458.639C283.883 417.564 245.844 454.101 206.394 413.026C166.941 371.954 204.98 335.415 165.529 294.34C126.077 253.268 88.0352 289.802 48.5873 248.727C9.13441 207.655 47.1732 171.116 7.72285 130.043C-31.7301 88.9688 -69.769 125.503 -109.222 84.4312" stroke="#40196D" stroke-miterlimit="10"/>
<path d="M361.801 421.69C322.351 380.616 283.883 417.563 244.43 376.489C204.98 335.414 243.448 298.469 203.995 257.394C164.542 216.319 126.076 253.267 86.6235 212.192C47.1707 171.12 85.6384 134.173 46.188 93.0979C6.73514 52.0257 -31.7302 88.9709 -71.183 47.8987" stroke="#40196D" stroke-miterlimit="10"/>
<path d="M399.84 385.157C360.387 344.082 322.348 380.616 282.898 339.544C243.445 298.47 281.484 261.933 242.031 220.858C202.58 179.783 164.539 216.32 125.089 175.246C85.6382 134.171 123.677 97.6339 84.2242 56.5592C44.7738 15.4869 6.73235 52.0215 -32.7181 10.9468" stroke="#40196D" stroke-miterlimit="10"/>
<path d="M323.336 458.639C283.883 417.564 245.844 454.101 206.394 413.026C166.941 371.954 204.98 335.415 165.529 294.34C126.077 253.268 88.0352 289.802 48.5873 248.727C9.13441 207.655 47.1732 171.116 7.72285 130.043C-31.7301 88.9688 -69.769 125.503 -109.222 84.4312" stroke="#40196D" stroke-miterlimit="10"/>
<path d="M361.801 421.69C322.351 380.616 283.883 417.563 244.43 376.489C204.98 335.414 243.448 298.469 203.995 257.394C164.542 216.319 126.076 253.267 86.6235 212.192C47.1707 171.12 85.6384 134.173 46.188 93.0979C6.73514 52.0257 -31.7302 88.9709 -71.183 47.8987" stroke="#40196D" stroke-miterlimit="10"/>
<path d="M399.84 385.157C360.387 344.082 322.348 380.616 282.898 339.544C243.445 298.47 281.484 261.933 242.031 220.858C202.58 179.783 164.539 216.32 125.089 175.246C85.6382 134.171 123.677 97.6339 84.2242 56.5592C44.7738 15.4869 6.73235 52.0215 -32.7181 10.9468" stroke="#40196D" stroke-miterlimit="10"/>
<path d="M195.969 580.976C156.516 539.902 118.477 576.439 79.0268 535.364C39.574 494.292 77.6152 457.752 38.1623 416.678C-1.29056 375.605 -39.3295 412.14 -78.7798 371.068C-118.233 329.993 -80.194 293.454 -119.644 252.381C-159.097 211.307 -197.136 247.844 -236.587 206.769" stroke="#40196D" stroke-miterlimit="10"/>
<path d="M234.43 544.03C194.977 502.956 156.512 539.903 117.059 498.829C77.606 457.754 116.076 420.809 76.6234 379.734C37.1705 338.659 -1.29485 375.607 -40.7478 334.532C-80.2006 293.46 -41.7328 256.512 -81.1833 215.438C-120.636 174.366 -159.101 211.311 -198.554 170.239" stroke="#40196D" stroke-miterlimit="10"/>
<path d="M272.469 507.49C233.016 466.415 194.977 502.952 155.527 461.878C116.074 420.803 154.113 384.266 114.662 343.191C75.2094 302.117 37.1681 338.654 -2.27989 297.579C-41.7327 256.507 -3.69399 219.967 -43.1469 178.893C-82.5973 137.82 -120.639 174.355 -160.089 133.283" stroke="#40196D" stroke-miterlimit="10"/>
</g>
<rect x="52" y="58.0371" width="316.565" height="258.529" rx="8.81182" fill="white"/>
<path d="M215.949 110.472C215.949 119.454 208.538 126.738 199.393 126.738C190.247 126.738 182.836 119.454 182.836 110.472C182.836 101.49 190.247 94.205 199.393 94.205C208.538 94.205 215.949 101.49 215.949 110.472Z" fill="#F4F4F4" stroke="black" stroke-width="0.218576"/>
<mask id="mask1_2458_8914" style="mask-type:alpha" maskUnits="userSpaceOnUse" x="183" y="94" width="34" height="33">
<path d="M215.417 110.472C215.417 118.894 208.463 125.755 199.844 125.755C191.225 125.755 184.271 118.894 184.271 110.472C184.271 102.049 191.225 95.1886 199.844 95.1886C208.463 95.1886 215.417 102.049 215.417 110.472Z" fill="#DFE3FF" stroke="#40196D" stroke-width="2.18576"/>
</mask>
<g mask="url(#mask1_2458_8914)">
<path d="M194.185 118.11L197.676 116.965H202.356L203.623 117.56L207.759 119.563L206.677 130.092H194.237L194.185 118.11Z" fill="#FBFAFC"/>
<path d="M197.14 114.17L196.361 117.396C196.361 117.396 199.36 124.777 203.507 117.505L202.527 114.17H197.14Z" fill="#CACACA"/>
<path d="M202.298 113.237C202.56 113.849 202.784 115.064 202.882 115.643C202.882 115.643 199.784 115.876 199.131 114.943C198.87 114.557 198.805 114.01 199 113.559C199.555 112.561 201.841 112.175 202.298 113.237Z" fill="#979797"/>
<path d="M204.388 102.328C204.16 100.075 202.266 98.2734 199.915 98.2734C197.564 98.2734 195.637 100.043 195.442 102.328H195.409V110.179H195.442C195.442 110.276 195.409 110.405 195.409 110.501C195.409 112.979 197.433 114.974 199.948 114.974C202.462 114.974 204.487 112.98 204.487 110.501C204.487 110.373 204.454 110.276 204.454 110.179H204.487V102.328H204.388Z" fill="#CACACA"/>
<path d="M195.866 105.223C195.834 104.708 195.409 104.322 194.887 104.322C194.364 104.322 193.94 104.708 193.907 105.223V106.961C193.907 106.993 193.907 106.993 193.907 107.025C193.907 107.572 194.365 108.022 194.92 108.022C195.475 108.022 195.932 107.572 195.932 107.025C195.932 106.993 195.932 106.961 195.932 106.961L195.866 105.223Z" fill="#CACACA"/>
<path d="M205.989 105.223C205.957 104.708 205.532 104.322 205.01 104.322C204.488 104.322 204.063 104.708 204.031 105.223V106.961C204.031 106.993 204.031 106.993 204.031 107.025C204.031 107.572 204.488 108.022 205.043 108.022C205.598 108.022 206.055 107.572 206.055 107.025C206.055 106.993 206.055 106.961 206.055 106.961L205.989 105.223Z" fill="#CACACA"/>
<path d="M199.916 106.995C199.861 106.995 199.817 106.951 199.817 106.898V103.97C199.817 103.916 199.861 103.873 199.916 103.873C199.97 103.873 200.014 103.916 200.014 103.97V106.898C200.014 106.951 199.97 106.995 199.916 106.995Z" fill="black"/>
<path d="M201.025 104.841C200.916 104.841 200.827 104.754 200.827 104.646V104.421C200.827 104.314 200.916 104.227 201.025 104.227C201.135 104.227 201.223 104.314 201.223 104.421V104.646C201.223 104.754 201.135 104.841 201.025 104.841Z" fill="black"/>
<path d="M198.772 104.841C198.663 104.841 198.574 104.754 198.574 104.646V104.421C198.574 104.314 198.663 104.227 198.772 104.227C198.881 104.227 198.97 104.314 198.97 104.421V104.646C198.97 104.754 198.881 104.841 198.772 104.841Z" fill="black"/>
<path d="M200.974 108.79H198.935C196.992 108.79 195.416 107.242 195.416 105.332V110.192H195.449C195.449 110.289 195.416 110.417 195.416 110.514C195.416 112.992 197.44 114.987 199.955 114.987C202.469 114.987 204.493 112.992 204.493 110.514C204.493 110.385 204.461 110.289 204.461 110.192H204.493V105.332C204.493 107.242 202.917 108.79 200.974 108.79Z" fill="black"/>
<path d="M198.48 109.594H201.113C201.113 109.594 201.251 110.956 199.797 110.91C198.342 110.887 198.48 109.594 198.48 109.594Z" fill="white"/>
<path d="M196.027 117.504L187.855 119.957V130.5L198.168 130.09L196.027 117.504Z" fill="black"/>
<path d="M203.622 117.559L211.833 119.958V130.5L201.52 130.091L203.622 117.559Z" fill="black"/>
<path d="M197.637 121.139V122.574C197.637 122.672 197.728 122.744 197.825 122.723L199.981 122.265L201.868 122.718C201.966 122.741 202.06 122.668 202.06 122.569V121.148C202.06 121.043 201.956 120.97 201.855 121.004L200.006 121.623L197.836 120.993C197.736 120.964 197.637 121.037 197.637 121.139Z" fill="#DBF8FF"/>
<path d="M197.371 120.862V122.297C197.371 122.394 197.462 122.467 197.559 122.446L199.716 121.987L201.603 122.44C201.7 122.463 201.795 122.391 201.795 122.292V120.871C201.795 120.766 201.69 120.692 201.589 120.726L199.74 121.346L197.571 120.715C197.471 120.687 197.371 120.76 197.371 120.862Z" fill="#1DCBEF"/>
</g>
<path d="M304.837 141.854C304.837 150.836 297.426 158.121 288.28 158.121C279.135 158.121 271.724 150.836 271.724 141.854C271.724 132.872 279.135 125.588 288.28 125.588C297.426 125.588 304.837 132.872 304.837 141.854Z" fill="#F4F4F4" stroke="black" stroke-width="0.218576"/>
<mask id="mask2_2458_8914" style="mask-type:alpha" maskUnits="userSpaceOnUse" x="272" y="125" width="34" height="33">
<path d="M304.298 141.522C304.298 149.945 297.343 156.805 288.725 156.805C280.106 156.805 273.152 149.945 273.152 141.522C273.152 133.1 280.106 126.239 288.725 126.239C297.343 126.239 304.298 133.1 304.298 141.522Z" fill="#DFE3FF" stroke="#40196D" stroke-width="2.18576"/>
</mask>
<g mask="url(#mask2_2458_8914)">
<path d="M293.676 137.418C293.52 140.882 291.512 145.546 291.512 145.546C291.512 145.546 292.207 154.486 294.137 151.058C295.193 149.184 296.149 144.921 296.084 140.737C294.622 140.157 293.938 138.347 293.676 137.418Z" fill="black"/>
<path d="M288.911 148.859C282.193 148.859 276.413 152.776 273.845 158.483H303.977C301.409 152.776 295.63 148.859 288.911 148.859Z" fill="#FFC83E"/>
<path d="M289.596 145.787C286.657 145.807 284.258 143.444 284.238 140.508L284.191 136.971C284.171 134.035 286.537 131.639 289.476 131.619C292.416 131.599 294.815 133.963 294.835 136.898L294.882 140.436C294.902 143.371 292.535 145.767 289.596 145.787Z" fill="#CACACA"/>
<path d="M289.182 152.433C291.188 152.433 292.815 150.808 292.815 148.804C292.815 146.8 291.188 145.176 289.182 145.176C287.175 145.176 285.548 146.8 285.548 148.804C285.548 150.808 287.175 152.433 289.182 152.433Z" fill="#CACACA"/>
<path d="M285.481 147.444L287.133 144.239L290.937 143.355L292.551 147.558L285.481 147.444Z" fill="#CACACA"/>
<path d="M286.727 143.962C286.447 144.627 286.377 145.991 286.272 146.621C286.272 146.621 289.416 146.832 290.115 145.817C290.394 145.397 290.464 144.802 290.254 144.312C289.661 143.228 287.216 142.808 286.727 143.962Z" fill="#979797"/>
<path d="M293.716 136.009C294.495 136.679 294.755 135.75 293.716 136.009C292.711 135.716 293.456 134.476 291.897 133.957C290.988 133.655 289.965 135.383 289.038 135.992C288.51 136.339 287.814 136.415 287.224 136.189C286.635 135.964 286.079 135.346 285.987 134.675C285.389 134.881 285.424 135.168 284.852 135.405L284.321 140.839C284.365 143.741 286.757 146.057 289.662 146.013C292.568 145.969 294.888 143.581 294.843 140.679L294.763 136.009L294.495 135.992C294.489 135.672 293.775 136.312 293.716 136.009Z" fill="#CACACA"/>
<path d="M291.399 140.402C291.4 140.402 291.401 140.402 291.402 140.402C291.472 140.401 291.528 140.343 291.527 140.273L291.477 137.598C291.476 137.528 291.419 137.473 291.35 137.473C291.349 137.473 291.348 137.473 291.347 137.473C291.277 137.474 291.221 137.532 291.222 137.602L291.272 140.277C291.273 140.347 291.33 140.402 291.399 140.402Z" fill="black"/>
<path d="M289.355 138.332C289.355 138.332 289.356 138.332 289.357 138.332C289.427 138.331 289.483 138.273 289.482 138.203L289.473 137.627C289.472 137.557 289.415 137.502 289.346 137.502C289.346 137.502 289.345 137.502 289.344 137.502C289.274 137.503 289.217 137.561 289.218 137.631L289.227 138.206C289.228 138.276 289.285 138.332 289.355 138.332Z" fill="black"/>
<path d="M293.363 138.271C293.364 138.271 293.364 138.271 293.365 138.271C293.436 138.27 293.492 138.212 293.491 138.142L293.482 137.567C293.481 137.497 293.424 137.441 293.355 137.441C293.354 137.441 293.353 137.441 293.353 137.441C293.282 137.443 293.226 137.5 293.227 137.571L293.236 138.146C293.237 138.215 293.294 138.271 293.363 138.271Z" fill="black"/>
<path d="M289.921 143.826C289.961 143.826 290.001 143.807 290.024 143.77C290.061 143.713 290.044 143.637 289.987 143.6C289.359 143.198 288.879 142.566 288.671 141.865C288.652 141.8 288.584 141.763 288.518 141.782C288.453 141.802 288.416 141.87 288.435 141.935C288.66 142.692 289.178 143.374 289.855 143.807C289.875 143.82 289.898 143.826 289.921 143.826Z" fill="black"/>
<path d="M287.078 134.574C285.677 135.944 287.033 136.57 285.014 137.785C282.344 139.39 284.673 140.508 284.673 140.508C284.673 140.508 288.973 151.071 285.888 154.184C283.291 156.805 284.883 159.241 284.883 159.241C284.883 159.241 282.059 157.611 281.64 154.79C281.222 151.969 280.465 151.281 280.465 151.281L278.521 152.329C278.521 152.329 280.148 137.571 283.163 133.336C285.397 130.2 287.653 132.018 287.653 132.018L290.361 134.722C290.361 134.721 288.442 133.24 287.078 134.574Z" fill="black"/>
<path d="M284.772 140.899C284.012 140.91 283.387 140.305 283.375 139.546L283.354 138.16C283.343 137.401 283.949 136.777 284.709 136.766C285.468 136.754 286.093 137.36 286.105 138.119L286.113 138.659L284.772 140.899Z" fill="#CACACA"/>
<path d="M284.752 141.026C284.76 141.026 284.767 141.026 284.775 141.026C284.846 141.025 284.902 140.967 284.901 140.897C284.9 140.826 284.832 140.769 284.771 140.771C284.765 140.771 284.758 140.771 284.752 140.771C284.072 140.771 283.515 140.225 283.504 139.544L283.483 138.158C283.478 137.825 283.603 137.51 283.835 137.271C284.067 137.032 284.378 136.898 284.712 136.893C285.049 136.882 285.36 137.012 285.6 137.244C285.839 137.476 285.974 137.787 285.979 138.12L285.987 138.66C285.988 138.73 286.045 138.785 286.114 138.785C286.115 138.785 286.116 138.785 286.116 138.785C286.187 138.784 286.243 138.727 286.242 138.656L286.234 138.116C286.227 137.715 286.065 137.34 285.777 137.061C285.489 136.781 285.115 136.629 284.707 136.637C284.306 136.643 283.931 136.805 283.651 137.093C283.372 137.381 283.221 137.76 283.227 138.161L283.249 139.547C283.262 140.368 283.934 141.026 284.752 141.026Z" fill="#979797"/>
<path d="M295.441 135.966C295.001 134.385 294.31 132.998 293.296 131.995C289.849 129.142 287.606 131.955 287.606 131.955L290.373 134.716C290.373 134.716 292.134 132.234 293.791 135.186C294.132 135.888 293.686 136.502 293.952 137.605C294.063 138.506 294.114 139.949 296.075 140.817C296.049 139.134 295.858 137.463 295.441 135.966Z" fill="black"/>
<path d="M296.084 140.738C294.19 140.088 293.921 138.248 293.862 137.207C293.838 136.77 293.862 136.186 293.886 135.457" stroke="#979797" stroke-width="0.0874303" stroke-miterlimit="10"/>
<path d="M290.371 134.714L287.576 131.975" stroke="#979797" stroke-width="0.0874303" stroke-miterlimit="10"/>
<path d="M284.876 140.617C285.11 140.617 285.299 140.427 285.299 140.194C285.299 139.961 285.11 139.771 284.876 139.771C284.642 139.771 284.453 139.961 284.453 140.194C284.453 140.427 284.642 140.617 284.876 140.617Z" fill="#48D38A"/>
</g>
<path d="M148.841 166.028C148.841 175.029 141.331 182.331 132.061 182.331C122.791 182.331 115.282 175.029 115.282 166.028C115.282 157.027 122.791 149.725 132.061 149.725C141.331 149.725 148.841 157.027 148.841 166.028Z" fill="#F4F4F4" stroke="black" stroke-width="0.218576"/>
<mask id="mask3_2458_8914" style="mask-type:alpha" maskUnits="userSpaceOnUse" x="115" y="149" width="34" height="33">
<path d="M147.411 165.476C147.411 173.898 140.457 180.759 131.838 180.759C123.22 180.759 116.266 173.898 116.266 165.476C116.266 157.053 123.22 150.192 131.838 150.192C140.457 150.192 147.411 157.053 147.411 165.476Z" fill="#DFE3FF" stroke="#40196D" stroke-width="2.18576"/>
</mask>
<g mask="url(#mask3_2458_8914)">
<path d="M132.285 173.347C129.437 173.347 127.129 171.043 127.129 168.202C127.129 165.36 129.437 163.057 132.285 163.057C135.132 163.057 137.44 165.36 137.44 168.202C137.44 171.043 135.132 173.347 132.285 173.347Z" fill="black"/>
<path d="M129.498 174.486L130.531 170.26L133.624 170.343L134.495 174.551L129.498 174.486Z" fill="#CACACA"/>
<path opacity="0.5" d="M130.372 170.682C130.213 170.987 130.173 171.613 130.113 171.902C130.113 171.902 131.905 171.999 132.303 171.533C132.462 171.34 132.502 171.067 132.383 170.842C132.044 170.344 130.65 170.152 130.372 170.682Z" fill="#979797"/>
<path d="M136.311 167.179V164.006C135.297 164.182 134.027 164.023 132.765 163.482C130.998 162.726 129.751 161.44 129.458 160.237C128.827 160.937 128.44 161.863 128.44 162.881C128.44 162.881 128.382 165.974 128.44 165.923V167.179C128.44 168.363 128.962 169.423 129.784 170.146V172.702C129.688 172.66 129.593 172.616 129.498 172.569C128.697 172.936 127.808 173.142 126.869 173.142C123.369 173.142 120.531 170.295 120.531 166.782C120.531 164.878 121.366 163.17 122.688 162.005C122.269 161.325 122.022 160.527 122.022 159.669C122.022 157.214 124.006 155.223 126.452 155.223C127.203 155.223 127.909 155.412 128.529 155.743C129.526 154.674 130.94 154.002 132.514 154.002C134.66 154.002 136.511 155.247 137.403 157.054C139.107 157.672 140.327 159.304 140.327 161.226C140.327 162.768 139.543 164.125 138.354 164.922C138.552 165.537 138.661 166.194 138.661 166.876C138.661 169.525 137.047 171.794 134.752 172.751V170.323C135.697 169.602 136.311 168.464 136.311 167.179Z" fill="black"/>
<path d="M141.035 176.416L141.036 176.424C141.043 176.45 141.052 176.475 141.058 176.501C141.063 176.527 141.066 176.554 141.071 176.58L141.984 180.714L142.854 184.65L139.813 185.319C139.772 185.428 139.729 185.536 139.683 185.643H139.684L139.682 185.647C139.336 186.454 138.863 187.194 138.29 187.844L138.217 187.959L137.345 189.335V189.306H126.883V189.371L125.711 187.641C125.38 187.24 125.086 186.807 124.835 186.348L124.835 186.347C124.819 186.319 124.805 186.291 124.791 186.263L124.846 186.014L124.835 185.995L124.85 185.994L125.751 181.919C125.757 181.893 125.759 181.868 125.764 181.842L124.894 185.775L119.778 184.649L120.647 180.716L121.562 176.58C121.567 176.554 121.569 176.527 121.575 176.501C121.581 176.475 121.589 176.45 121.596 176.423L121.598 176.416H121.598C121.711 175.975 121.931 175.589 122.224 175.277C122.739 174.73 123.478 174.415 124.258 174.453V174.439H127.572C128.287 176.499 130.08 177.962 132.186 177.962C134.291 177.962 136.084 176.499 136.799 174.439H138.493V174.448C139.23 174.447 139.92 174.757 140.41 175.277C140.702 175.588 140.921 175.975 141.035 176.416Z" fill="#48D38A"/>
<path d="M147.475 195.496V196.792L146.347 196.777L141.999 196.715C141.598 196.712 141.224 196.607 140.896 196.429C140.724 196.335 140.565 196.219 140.423 196.086C141.425 196.006 142.199 195.779 142.186 195.559C142.172 195.325 141.275 195.188 140.183 195.253C140.072 195.26 139.965 195.269 139.86 195.28C139.826 195.2 139.796 195.118 139.772 195.033C140.761 194.952 141.524 194.727 141.51 194.509C141.497 194.283 140.654 194.147 139.608 194.198C139.584 194.121 139.561 194.043 139.544 193.963L139.542 193.954C139.999 193.849 140.292 193.712 140.284 193.576C140.275 193.43 139.922 193.322 139.392 193.277L138.216 187.958L138.289 187.842C138.862 187.192 139.335 186.452 139.681 185.645L139.683 185.642H139.682C139.728 185.535 139.771 185.427 139.812 185.317L142.854 184.648L141.984 180.713C141.99 180.739 141.999 180.764 142.005 180.79L143.587 187.952L144.458 191.889L156.365 192.893L155.407 195.496H147.475V195.496Z" fill="#9C7ACD"/>
<path d="M130.018 174.43C130.032 174.426 130.047 174.423 130.061 174.42C130.061 174.423 130.061 174.427 130.061 174.43H130.018Z" fill="#6EC6D8"/>
<path d="M124.894 185.775L125.763 181.842C125.758 181.867 125.756 181.893 125.75 181.919L124.849 185.994L124.834 185.994L124.845 186.013L124.79 186.263L123.511 192.05L126.882 192.355L127.383 192.401L137.652 193.333C137.849 193.306 138.059 193.284 138.281 193.271C138.292 193.27 138.303 193.27 138.313 193.269C138.711 193.247 139.082 193.251 139.392 193.277C139.922 193.322 140.275 193.43 140.284 193.576C140.292 193.712 139.999 193.849 139.542 193.954C139.414 193.983 139.277 194.01 139.126 194.033C139.183 194.093 139.235 194.155 139.282 194.221C139.357 194.215 139.43 194.207 139.508 194.202C139.542 194.2 139.575 194.199 139.608 194.197C140.654 194.147 141.497 194.281 141.511 194.508C141.524 194.726 140.761 194.95 139.772 195.032C139.732 195.035 139.692 195.039 139.652 195.041C139.637 195.042 139.622 195.044 139.607 195.045C139.611 195.081 139.617 195.116 139.619 195.152C139.622 195.204 139.621 195.255 139.619 195.306C139.674 195.299 139.731 195.293 139.787 195.287C139.811 195.285 139.835 195.282 139.859 195.279C139.964 195.269 140.072 195.259 140.183 195.253C141.275 195.188 142.172 195.325 142.186 195.559C142.199 195.778 141.425 196.006 140.422 196.085C140.36 196.09 140.297 196.095 140.233 196.098C140.21 196.1 140.188 196.1 140.164 196.101C139.893 196.115 139.634 196.117 139.399 196.107C139.378 196.147 139.355 196.186 139.33 196.224C139.305 196.262 139.279 196.299 139.251 196.336C139.536 196.343 139.79 196.365 139.994 196.401C140.117 196.422 140.222 196.448 140.306 196.478C140.444 196.527 140.524 196.586 140.528 196.655C140.531 196.706 140.489 196.757 140.415 196.807C140.413 196.808 140.411 196.81 140.409 196.811H121.617V196.815L120.149 196.781C118.817 196.758 117.773 195.631 117.855 194.304L117.875 193.967C117.882 193.863 117.897 193.762 117.916 193.663C117.889 193.393 117.901 193.115 117.963 192.835L120.626 180.79C120.631 180.765 120.64 180.74 120.646 180.715L119.777 184.648L124.894 185.775Z" fill="#9C7ACD"/>
<path d="M132.184 177.963C130.079 177.963 128.286 176.499 127.571 174.44C127.57 174.438 127.569 174.435 127.568 174.433H130.015H130.062C130.062 174.429 130.061 174.426 130.061 174.422C130.061 174.406 130.059 174.39 130.059 174.375V173.22L130.944 172.114C131.542 172.638 131.44 171.867 132.3 171.867C133.073 171.867 132.888 171.712 133.459 171.279L133.854 173.218L134.354 174.375C134.354 174.395 134.352 174.414 134.351 174.433H136.801C136.8 174.436 136.799 174.438 136.798 174.441C136.083 176.499 134.29 177.963 132.184 177.963Z" fill="#CACACA"/>
<path d="M128.401 167.127V165.869C128.342 165.921 128.371 164.658 128.401 164.14V162.824C128.401 161.804 128.795 160.877 129.437 160.176C129.734 161.381 131.003 162.669 132.801 163.426C134.084 163.967 135.377 164.127 136.408 163.95V167.128C136.408 168.415 135.784 169.554 134.822 170.276C134.15 170.781 133.314 171.084 132.405 171.084C131.394 171.084 130.473 170.711 129.769 170.1C128.932 169.374 128.401 168.313 128.401 167.127Z" fill="#CACACA"/>
<path d="M133.078 167.127C133.079 167.127 133.079 167.127 133.08 167.127C133.135 167.126 133.179 167.081 133.178 167.026L133.139 164.947C133.138 164.893 133.093 164.85 133.039 164.85C133.039 164.85 133.038 164.85 133.037 164.85C132.982 164.851 132.939 164.896 132.94 164.95L132.979 167.03C132.98 167.084 133.024 167.127 133.078 167.127Z" fill="black"/>
<path d="M131.488 165.519C131.488 165.519 131.489 165.519 131.489 165.519C131.544 165.518 131.588 165.473 131.587 165.418L131.58 164.971C131.58 164.917 131.535 164.873 131.481 164.873C131.48 164.873 131.48 164.873 131.479 164.873C131.425 164.874 131.381 164.919 131.382 164.973L131.388 165.421C131.389 165.475 131.434 165.519 131.488 165.519Z" fill="black"/>
<path d="M134.606 165.472C134.606 165.472 134.607 165.472 134.607 165.472C134.662 165.471 134.706 165.426 134.705 165.372L134.698 164.924C134.698 164.87 134.653 164.826 134.599 164.826C134.598 164.826 134.598 164.826 134.597 164.826C134.543 164.827 134.499 164.872 134.5 164.927L134.506 165.374C134.507 165.429 134.552 165.472 134.606 165.472Z" fill="black"/>
<path d="M127.89 166.662C128.268 166.665 128.576 166.361 128.579 165.984L128.586 164.969C128.588 164.592 128.284 164.284 127.906 164.281C127.528 164.279 127.219 164.582 127.217 164.959L127.21 165.974C127.208 166.351 127.512 166.659 127.89 166.662Z" fill="#CACACA"/>
<path d="M128.779 163.881C127.526 163.881 126.511 162.868 126.511 161.617C126.511 160.367 127.526 159.354 128.779 159.354C130.032 159.354 131.047 160.367 131.047 161.617C131.047 162.868 130.032 163.881 128.779 163.881Z" fill="black"/>
<path d="M131.665 167.87C131.835 167.75 132.072 167.79 132.193 167.96C132.314 168.13 132.273 168.366 132.103 168.487L131.808 168.696C131.628 168.522 131.486 168.306 131.398 168.06L131.665 167.87Z" fill="#979797"/>
<path d="M133.394 169.202C133.427 169.185 133.446 169.147 133.437 169.109C133.427 169.064 133.382 169.036 133.338 169.047C132.482 169.246 131.623 168.712 131.424 167.857C131.413 167.813 131.369 167.785 131.324 167.795C131.28 167.805 131.252 167.85 131.262 167.894C131.482 168.838 132.43 169.427 133.375 169.208C133.382 169.207 133.388 169.205 133.394 169.202Z" fill="black"/>
</g>
<path d="M175.432 146.875C175.432 146.633 175.628 146.438 175.869 146.438H252.515C252.757 146.438 252.952 146.633 252.952 146.875V191.106C252.952 191.347 252.757 191.543 252.515 191.543H175.869C175.628 191.543 175.432 191.347 175.432 191.106V146.875Z" fill="black"/>
<rect x="176.939" y="148.025" width="74.6821" height="40.2296" fill="#F4F4F4"/>
<path d="M168.505 193.654H259.822C259.822 192.276 258.704 191.158 257.326 191.158H171.001C169.623 191.158 168.505 192.276 168.505 193.654Z" fill="#343434"/>
<path d="M168.679 193.654H259.879L254.179 194.989H173.913L168.679 193.654Z" fill="black"/>
<rect x="205.09" y="191.156" width="18.0889" height="1.16103" rx="0.580515" fill="#C4C4C4"/>
<path d="M214.192 174.874C217.927 174.874 220.955 171.899 220.955 168.229C220.955 164.559 217.927 161.584 214.192 161.584C210.458 161.584 207.43 164.559 207.43 168.229C207.43 171.899 210.458 174.874 214.192 174.874Z" fill="#48D38A"/>
<rect x="213.952" y="165.682" width="0.724545" height="5.30308" rx="0.362272" fill="white"/>
<rect x="216.85" y="168.092" width="0.723147" height="5.31333" rx="0.361574" transform="rotate(90 216.85 168.092)" fill="white"/>
<line y1="-0.109288" x2="26.681" y2="-0.109288" transform="matrix(-0.999447 0.0332506 -0.0333791 -0.999443 175.616 164.182)" stroke="black" stroke-width="0.218576"/>
<line y1="-0.109288" x2="23.8939" y2="-0.109288" transform="matrix(-0.372009 -0.928229 0.928724 -0.370773 213.838 147.326)" stroke="black" stroke-width="0.218576"/>
<line y1="-0.109288" x2="28.345" y2="-0.109288" transform="matrix(0.846696 -0.532077 0.53355 0.845769 252.948 168.617)" stroke="black" stroke-width="0.218576"/>
<mask id="path-90-inside-1_2458_8914" fill="white">
<path d="M73.1484 228.992H347.416V246.751H73.1484V228.992Z"/>
</mask>
<path d="M73.1484 228.992H347.416V246.751H73.1484V228.992Z" fill="white"/>
<circle cx="84.0007" cy="237.87" r="4.93288" fill="#F9F9F9"/>
<path d="M85.1976 238.314C85.4561 238.314 85.6656 238.537 85.6656 238.813V239.017C85.6656 239.144 85.6283 239.268 85.5589 239.372C85.2372 239.852 84.7119 240.09 84.0001 240.09C83.2881 240.09 82.7631 239.852 82.4421 239.371C82.373 239.268 82.3359 239.144 82.3359 239.017V238.813C82.3359 238.537 82.5454 238.314 82.8039 238.314H85.1976ZM84.0001 235.65C84.5748 235.65 85.0406 236.147 85.0406 236.76C85.0406 237.374 84.5748 237.871 84.0001 237.871C83.4254 237.871 82.9595 237.374 82.9595 236.76C82.9595 236.147 83.4254 235.65 84.0001 235.65Z" fill="black"/>
<path d="M91.8933 239.371L92.9948 236.937H93.3677L94.4831 239.371H94.0307L93.7338 238.687L93.9133 238.808H92.4527L92.6392 238.687L92.3422 239.371H91.8933ZM93.1778 237.413L92.691 238.567L92.6012 238.459H93.7614L93.6889 238.567L93.1916 237.413H93.1778ZM95.3778 239.406C95.2259 239.406 95.0912 239.37 94.9738 239.299C94.8587 239.225 94.7689 239.12 94.7045 238.984C94.64 238.849 94.6078 238.686 94.6078 238.497C94.6078 238.309 94.64 238.148 94.7045 238.014C94.7689 237.878 94.8587 237.775 94.9738 237.703C95.0912 237.63 95.2259 237.593 95.3778 237.593C95.5228 237.593 95.6506 237.628 95.7611 237.7C95.8739 237.769 95.9487 237.863 95.9855 237.983H95.9406V236.83H96.3723V239.371H95.9476V239.002H95.989C95.9522 239.126 95.8773 239.225 95.7645 239.299C95.654 239.37 95.5251 239.406 95.3778 239.406ZM95.4987 239.074C95.6345 239.074 95.7438 239.027 95.8267 238.933C95.9096 238.836 95.951 238.691 95.951 238.497C95.951 238.304 95.9096 238.16 95.8267 238.066C95.7438 237.971 95.6345 237.924 95.4987 237.924C95.3628 237.924 95.2523 237.971 95.1672 238.066C95.0843 238.16 95.0429 238.304 95.0429 238.497C95.0429 238.691 95.0843 238.836 95.1672 238.933C95.2523 239.027 95.3628 239.074 95.4987 239.074ZM97.6848 239.406C97.3925 239.406 97.1634 239.325 96.9977 239.164C96.8319 239.003 96.7491 238.782 96.7491 238.501C96.7491 238.319 96.7847 238.16 96.8561 238.024C96.9275 237.889 97.0264 237.783 97.1531 237.707C97.282 237.631 97.4316 237.593 97.602 237.593C97.77 237.593 97.9104 237.628 98.0232 237.7C98.136 237.771 98.2212 237.871 98.2787 238C98.3386 238.129 98.3685 238.28 98.3685 238.453V238.567H97.0978V238.339H98.0612L98.0025 238.387C98.0025 238.226 97.968 238.103 97.8989 238.018C97.8322 237.932 97.7343 237.89 97.6054 237.89C97.4627 237.89 97.3522 237.94 97.2739 238.042C97.1979 238.143 97.16 238.285 97.16 238.466V238.511C97.16 238.7 97.206 238.842 97.2981 238.936C97.3925 239.028 97.5248 239.074 97.6952 239.074C97.7942 239.074 97.8862 239.061 97.9714 239.036C98.0589 239.009 98.1418 238.965 98.22 238.905L98.3478 239.195C98.2649 239.262 98.1659 239.314 98.0508 239.35C97.9357 239.387 97.8137 239.406 97.6848 239.406ZM99.4108 239.406C99.2589 239.406 99.1242 239.37 99.0068 239.299C98.8917 239.225 98.8019 239.12 98.7375 238.984C98.673 238.849 98.6408 238.686 98.6408 238.497C98.6408 238.309 98.673 238.148 98.7375 238.014C98.8019 237.878 98.8917 237.775 99.0068 237.703C99.1242 237.63 99.2589 237.593 99.4108 237.593C99.5558 237.593 99.6836 237.628 99.7941 237.7C99.9069 237.769 99.9817 237.863 100.019 237.983H99.9737V236.83H100.405V239.371H99.9806V239.002H100.022C99.9852 239.126 99.9104 239.225 99.7976 239.299C99.6871 239.37 99.5581 239.406 99.4108 239.406ZM99.5317 239.074C99.6675 239.074 99.7768 239.027 99.8597 238.933C99.9426 238.836 99.984 238.691 99.984 238.497C99.984 238.304 99.9426 238.16 99.8597 238.066C99.7768 237.971 99.6675 237.924 99.5317 237.924C99.3959 237.924 99.2854 237.971 99.2002 238.066C99.1173 238.16 99.0759 238.304 99.0759 238.497C99.0759 238.691 99.1173 238.836 99.2002 238.933C99.2854 239.027 99.3959 239.074 99.5317 239.074ZM101.549 239.406C101.397 239.406 101.263 239.37 101.148 239.299C101.033 239.225 100.943 239.12 100.879 238.984C100.814 238.849 100.782 238.686 100.782 238.497C100.782 238.309 100.814 238.148 100.879 238.014C100.943 237.878 101.033 237.775 101.148 237.703C101.263 237.63 101.397 237.593 101.549 237.593C101.696 237.593 101.825 237.63 101.935 237.703C102.048 237.775 102.123 237.871 102.16 237.993H102.122L102.16 237.627H102.574C102.567 237.699 102.56 237.771 102.553 237.845C102.549 237.919 102.547 237.991 102.547 238.062V239.371H102.118L102.115 239.012H102.156C102.12 239.132 102.045 239.227 101.932 239.299C101.819 239.37 101.691 239.406 101.549 239.406ZM101.669 239.074C101.805 239.074 101.915 239.027 101.998 238.933C102.08 238.836 102.122 238.691 102.122 238.497C102.122 238.304 102.08 238.16 101.998 238.066C101.915 237.971 101.805 237.924 101.669 237.924C101.534 237.924 101.424 237.971 101.341 238.066C101.259 238.16 101.217 238.304 101.217 238.497C101.217 238.691 101.257 238.836 101.338 238.933C101.421 239.027 101.531 239.074 101.669 239.074ZM103.017 239.371V238.062C103.017 237.991 103.014 237.919 103.01 237.845C103.005 237.771 102.998 237.699 102.989 237.627H103.407L103.441 237.973H103.4C103.448 237.853 103.522 237.76 103.621 237.693C103.722 237.626 103.842 237.593 103.98 237.593C104.118 237.593 104.232 237.626 104.322 237.693C104.414 237.757 104.478 237.859 104.515 237.997H104.46C104.508 237.872 104.588 237.775 104.698 237.703C104.809 237.63 104.935 237.593 105.078 237.593C105.274 237.593 105.42 237.65 105.517 237.765C105.613 237.881 105.662 238.06 105.662 238.304V239.371H105.23V238.321C105.23 238.183 105.207 238.084 105.161 238.024C105.115 237.962 105.041 237.931 104.94 237.931C104.82 237.931 104.726 237.974 104.657 238.059C104.588 238.142 104.553 238.255 104.553 238.397V239.371H104.122V238.321C104.122 238.183 104.099 238.084 104.052 238.024C104.006 237.962 103.933 237.931 103.831 237.931C103.712 237.931 103.617 237.974 103.548 238.059C103.482 238.142 103.448 238.255 103.448 238.397V239.371H103.017ZM106.91 239.406C106.73 239.406 106.575 239.369 106.443 239.295C106.312 239.221 106.21 239.117 106.136 238.981C106.065 238.845 106.029 238.684 106.029 238.497C106.029 238.311 106.065 238.151 106.136 238.018C106.21 237.882 106.312 237.777 106.443 237.703C106.575 237.63 106.73 237.593 106.91 237.593C107.089 237.593 107.244 237.63 107.376 237.703C107.509 237.777 107.612 237.882 107.683 238.018C107.757 238.151 107.794 238.311 107.794 238.497C107.794 238.684 107.757 238.845 107.683 238.981C107.612 239.117 107.509 239.221 107.376 239.295C107.244 239.369 107.089 239.406 106.91 239.406ZM106.91 239.074C107.045 239.074 107.154 239.027 107.234 238.933C107.315 238.836 107.355 238.691 107.355 238.497C107.355 238.304 107.315 238.16 107.234 238.066C107.154 237.971 107.045 237.924 106.91 237.924C106.774 237.924 106.666 237.971 106.585 238.066C106.504 238.16 106.464 238.304 106.464 238.497C106.464 238.691 106.504 238.836 106.585 238.933C106.666 239.027 106.774 239.074 106.91 239.074ZM108.166 239.371V236.83H108.597V239.371H108.166ZM109.739 239.406C109.587 239.406 109.454 239.37 109.339 239.299C109.224 239.225 109.134 239.12 109.07 238.984C109.005 238.849 108.973 238.686 108.973 238.497C108.973 238.309 109.005 238.148 109.07 238.014C109.134 237.878 109.224 237.775 109.339 237.703C109.454 237.63 109.587 237.593 109.739 237.593C109.887 237.593 110.016 237.63 110.126 237.703C110.239 237.775 110.314 237.871 110.351 237.993H110.313L110.351 237.627H110.765C110.758 237.699 110.751 237.771 110.744 237.845C110.74 237.919 110.737 237.991 110.737 238.062V239.371H110.309L110.306 239.012H110.347C110.31 239.132 110.236 239.227 110.123 239.299C110.01 239.37 109.882 239.406 109.739 239.406ZM109.86 239.074C109.996 239.074 110.105 239.027 110.188 238.933C110.271 238.836 110.313 238.691 110.313 238.497C110.313 238.304 110.271 238.16 110.188 238.066C110.105 237.971 109.996 237.924 109.86 237.924C109.724 237.924 109.615 237.971 109.532 238.066C109.449 238.16 109.408 238.304 109.408 238.497C109.408 238.691 109.448 238.836 109.529 238.933C109.612 239.027 109.722 239.074 109.86 239.074ZM112.11 238.152C112.11 237.897 112.156 237.676 112.248 237.489C112.343 237.303 112.477 237.159 112.652 237.058C112.827 236.954 113.035 236.902 113.277 236.902C113.517 236.902 113.724 236.954 113.899 237.058C114.074 237.159 114.208 237.303 114.303 237.489C114.399 237.676 114.448 237.896 114.448 238.149C114.448 238.404 114.399 238.626 114.303 238.815C114.208 239.002 114.074 239.147 113.899 239.25C113.724 239.354 113.517 239.406 113.277 239.406C113.035 239.406 112.827 239.354 112.652 239.25C112.48 239.147 112.346 239.002 112.252 238.815C112.157 238.626 112.11 238.405 112.11 238.152ZM112.576 238.152C112.576 238.426 112.635 238.64 112.752 238.794C112.87 238.949 113.045 239.026 113.277 239.026C113.503 239.026 113.677 238.949 113.799 238.794C113.921 238.64 113.982 238.426 113.982 238.152C113.982 237.876 113.921 237.662 113.799 237.51C113.679 237.358 113.505 237.282 113.277 237.282C113.045 237.282 112.87 237.358 112.752 237.51C112.635 237.662 112.576 237.876 112.576 238.152ZM114.873 239.371V238.062C114.873 237.991 114.871 237.919 114.866 237.845C114.861 237.771 114.854 237.699 114.845 237.627H115.263L115.298 237.973H115.256C115.311 237.851 115.393 237.757 115.501 237.693C115.609 237.626 115.735 237.593 115.878 237.593C116.083 237.593 116.237 237.65 116.34 237.765C116.444 237.881 116.496 238.06 116.496 238.304V239.371H116.064V238.325C116.064 238.184 116.036 238.084 115.981 238.024C115.928 237.962 115.848 237.931 115.74 237.931C115.606 237.931 115.5 237.973 115.422 238.055C115.344 238.138 115.304 238.249 115.304 238.387V239.371H114.873ZM117.627 239.406C117.475 239.406 117.341 239.37 117.226 239.299C117.111 239.225 117.021 239.12 116.957 238.984C116.892 238.849 116.86 238.686 116.86 238.497C116.86 238.309 116.892 238.148 116.957 238.014C117.021 237.878 117.111 237.775 117.226 237.703C117.341 237.63 117.475 237.593 117.627 237.593C117.774 237.593 117.903 237.63 118.013 237.703C118.126 237.775 118.201 237.871 118.238 237.993H118.2L118.238 237.627H118.652C118.645 237.699 118.638 237.771 118.632 237.845C118.627 237.919 118.625 237.991 118.625 238.062V239.371H118.196L118.193 239.012H118.234C118.198 239.132 118.123 239.227 118.01 239.299C117.897 239.37 117.769 239.406 117.627 239.406ZM117.748 239.074C117.883 239.074 117.993 239.027 118.076 238.933C118.158 238.836 118.2 238.691 118.2 238.497C118.2 238.304 118.158 238.16 118.076 238.066C117.993 237.971 117.883 237.924 117.748 237.924C117.612 237.924 117.502 237.971 117.42 238.066C117.337 238.16 117.295 238.304 117.295 238.497C117.295 238.691 117.336 238.836 117.416 238.933C117.499 239.027 117.609 239.074 117.748 239.074ZM120.093 239.406C119.945 239.406 119.816 239.37 119.706 239.299C119.595 239.225 119.522 239.126 119.485 239.002H119.523V239.371H119.095V236.83H119.526V237.983H119.485C119.524 237.863 119.599 237.769 119.709 237.7C119.82 237.628 119.948 237.593 120.093 237.593C120.247 237.593 120.381 237.63 120.497 237.703C120.612 237.777 120.701 237.882 120.766 238.018C120.83 238.151 120.863 238.312 120.863 238.501C120.863 238.69 120.83 238.852 120.766 238.988C120.701 239.121 120.611 239.225 120.493 239.299C120.378 239.37 120.245 239.406 120.093 239.406ZM119.972 239.074C120.108 239.074 120.217 239.027 120.3 238.933C120.385 238.838 120.428 238.694 120.428 238.501C120.428 238.308 120.385 238.164 120.3 238.069C120.217 237.973 120.108 237.924 119.972 237.924C119.836 237.924 119.727 237.971 119.644 238.066C119.561 238.16 119.519 238.304 119.519 238.497C119.519 238.691 119.561 238.836 119.644 238.933C119.727 239.027 119.836 239.074 119.972 239.074ZM121.909 239.406C121.757 239.406 121.624 239.37 121.509 239.299C121.394 239.225 121.304 239.12 121.239 238.984C121.175 238.849 121.143 238.686 121.143 238.497C121.143 238.309 121.175 238.148 121.239 238.014C121.304 237.878 121.394 237.775 121.509 237.703C121.624 237.63 121.757 237.593 121.909 237.593C122.057 237.593 122.186 237.63 122.296 237.703C122.409 237.775 122.484 237.871 122.52 237.993H122.482L122.52 237.627H122.935C122.928 237.699 122.921 237.771 122.914 237.845C122.909 237.919 122.907 237.991 122.907 238.062V239.371H122.479L122.476 239.012H122.517C122.48 239.132 122.405 239.227 122.293 239.299C122.18 239.37 122.052 239.406 121.909 239.406ZM122.03 239.074C122.166 239.074 122.275 239.027 122.358 238.933C122.441 238.836 122.482 238.691 122.482 238.497C122.482 238.304 122.441 238.16 122.358 238.066C122.275 237.971 122.166 237.924 122.03 237.924C121.894 237.924 121.785 237.971 121.702 238.066C121.619 238.16 121.578 238.304 121.578 238.497C121.578 238.691 121.618 238.836 121.699 238.933C121.782 239.027 121.892 239.074 122.03 239.074ZM123.377 239.371V238.062C123.377 237.991 123.375 237.919 123.37 237.845C123.366 237.771 123.359 237.699 123.35 237.627H123.767L123.802 237.973H123.76C123.816 237.851 123.897 237.757 124.006 237.693C124.114 237.626 124.239 237.593 124.382 237.593C124.587 237.593 124.741 237.65 124.845 237.765C124.948 237.881 125 238.06 125 238.304V239.371H124.568V238.325C124.568 238.184 124.541 238.084 124.486 238.024C124.433 237.962 124.352 237.931 124.244 237.931C124.11 237.931 124.005 237.973 123.926 238.055C123.848 238.138 123.809 238.249 123.809 238.387V239.371H123.377ZM125.285 240.138C125.241 240.138 125.194 240.134 125.144 240.127C125.091 240.12 125.045 240.109 125.005 240.093V239.751C125.035 239.76 125.068 239.768 125.102 239.775C125.137 239.782 125.17 239.785 125.202 239.785C125.285 239.785 125.35 239.76 125.396 239.709C125.444 239.659 125.468 239.574 125.468 239.454V237.627H125.9V239.478C125.9 239.695 125.85 239.858 125.751 239.968C125.652 240.081 125.497 240.138 125.285 240.138ZM125.441 237.299V236.878H125.92V237.299H125.441ZM127.145 239.406C126.966 239.406 126.81 239.369 126.679 239.295C126.548 239.221 126.446 239.117 126.372 238.981C126.301 238.845 126.265 238.684 126.265 238.497C126.265 238.311 126.301 238.151 126.372 238.018C126.446 237.882 126.548 237.777 126.679 237.703C126.81 237.63 126.966 237.593 127.145 237.593C127.325 237.593 127.48 237.63 127.612 237.703C127.745 237.777 127.848 237.882 127.919 238.018C127.993 238.151 128.029 238.311 128.029 238.497C128.029 238.684 127.993 238.845 127.919 238.981C127.848 239.117 127.745 239.221 127.612 239.295C127.48 239.369 127.325 239.406 127.145 239.406ZM127.145 239.074C127.281 239.074 127.389 239.027 127.47 238.933C127.551 238.836 127.591 238.691 127.591 238.497C127.591 238.304 127.551 238.16 127.47 238.066C127.389 237.971 127.281 237.924 127.145 237.924C127.01 237.924 126.901 237.971 126.821 238.066C126.74 238.16 126.7 238.304 126.7 238.497C126.7 238.691 126.74 238.836 126.821 238.933C126.901 239.027 127.01 239.074 127.145 239.074Z" fill="black"/>
<path d="M190.935 239.402C190.691 239.402 190.482 239.352 190.307 239.25C190.134 239.149 190.002 239.005 189.91 238.819C189.817 238.63 189.771 238.408 189.771 238.152C189.771 237.897 189.817 237.676 189.91 237.489C190.002 237.303 190.134 237.159 190.307 237.058C190.482 236.956 190.691 236.906 190.935 236.906C191.11 236.906 191.265 236.932 191.401 236.985C191.537 237.036 191.656 237.111 191.757 237.21L191.64 237.468C191.529 237.372 191.42 237.303 191.311 237.261C191.206 237.218 191.082 237.196 190.942 237.196C190.673 237.196 190.467 237.279 190.324 237.444C190.181 237.61 190.11 237.846 190.11 238.152C190.11 238.458 190.181 238.695 190.324 238.864C190.467 239.029 190.673 239.112 190.942 239.112C191.082 239.112 191.206 239.091 191.311 239.05C191.42 239.006 191.529 238.936 191.64 238.839L191.757 239.095C191.656 239.194 191.536 239.27 191.398 239.323C191.262 239.376 191.108 239.402 190.935 239.402ZM192.225 239.371V236.937H193.765V237.199H192.546V238.014H193.686V238.276H192.546V239.371H192.225ZM194.034 238.152C194.034 237.897 194.079 237.676 194.168 237.489C194.258 237.303 194.387 237.159 194.555 237.058C194.725 236.956 194.928 236.906 195.163 236.906C195.395 236.906 195.596 236.956 195.764 237.058C195.934 237.159 196.065 237.303 196.157 237.489C196.249 237.676 196.295 237.896 196.295 238.149C196.295 238.404 196.249 238.626 196.157 238.815C196.065 239.002 195.934 239.147 195.764 239.25C195.596 239.352 195.395 239.402 195.163 239.402C194.928 239.402 194.727 239.352 194.559 239.25C194.391 239.147 194.26 239.002 194.168 238.815C194.079 238.626 194.034 238.405 194.034 238.152ZM194.372 238.152C194.372 238.456 194.439 238.693 194.572 238.864C194.706 239.034 194.903 239.119 195.163 239.119C195.414 239.119 195.608 239.035 195.746 238.867C195.887 238.697 195.957 238.458 195.957 238.152C195.957 237.846 195.888 237.609 195.75 237.441C195.612 237.273 195.416 237.189 195.163 237.189C194.903 237.189 194.706 237.273 194.572 237.441C194.439 237.609 194.372 237.846 194.372 238.152Z" fill="black"/>
<path d="M289.257 239.371L290.334 236.937H290.614L291.708 239.371H291.377L291.076 238.68L291.215 238.763H289.733L289.885 238.68L289.585 239.371H289.257ZM290.469 237.296L289.93 238.573L289.847 238.501H291.101L291.035 238.573L290.483 237.296H290.469ZM292.666 239.402C292.514 239.402 292.381 239.366 292.266 239.295C292.151 239.224 292.061 239.12 291.996 238.984C291.932 238.849 291.9 238.687 291.9 238.501C291.9 238.314 291.932 238.154 291.996 238.021C292.061 237.885 292.151 237.782 292.266 237.71C292.381 237.639 292.514 237.603 292.666 237.603C292.818 237.603 292.95 237.641 293.063 237.717C293.178 237.793 293.255 237.898 293.295 238.031H293.253V236.83H293.567V239.371H293.257V238.967H293.295C293.258 239.103 293.182 239.21 293.067 239.288C292.954 239.364 292.82 239.402 292.666 239.402ZM292.739 239.154C292.895 239.154 293.021 239.098 293.115 238.988C293.212 238.877 293.26 238.715 293.26 238.501C293.26 238.287 293.212 238.126 293.115 238.018C293.021 237.909 292.895 237.855 292.739 237.855C292.582 237.855 292.456 237.909 292.359 238.018C292.264 238.126 292.217 238.287 292.217 238.501C292.217 238.715 292.264 238.877 292.359 238.988C292.456 239.098 292.582 239.154 292.739 239.154ZM294.094 239.371V238.045C294.094 237.978 294.092 237.91 294.087 237.841C294.082 237.772 294.075 237.703 294.066 237.634H294.37L294.405 238.007H294.363C294.409 237.878 294.483 237.779 294.584 237.71C294.686 237.639 294.806 237.603 294.947 237.603C295.09 237.603 295.207 237.638 295.299 237.707C295.391 237.773 295.453 237.879 295.485 238.024H295.434C295.477 237.896 295.555 237.793 295.665 237.717C295.776 237.641 295.904 237.603 296.052 237.603C296.243 237.603 296.387 237.66 296.483 237.772C296.58 237.883 296.628 238.055 296.628 238.29V239.371H296.314V238.308C296.314 238.149 296.287 238.035 296.231 237.966C296.176 237.894 296.089 237.859 295.969 237.859C295.828 237.859 295.718 237.907 295.637 238.004C295.557 238.098 295.517 238.227 295.517 238.39V239.371H295.202V238.308C295.202 238.149 295.175 238.035 295.119 237.966C295.066 237.894 294.979 237.859 294.857 237.859C294.717 237.859 294.606 237.907 294.526 238.004C294.447 238.098 294.408 238.227 294.408 238.39V239.371H294.094ZM297.142 239.371V237.634H297.456V239.371H297.142ZM297.115 237.254V236.916H297.488V237.254H297.115ZM297.982 239.371V238.045C297.982 237.978 297.98 237.91 297.975 237.841C297.97 237.772 297.963 237.703 297.954 237.634H298.258L298.293 238.007H298.251C298.304 237.876 298.386 237.776 298.496 237.707C298.607 237.638 298.736 237.603 298.883 237.603C299.088 237.603 299.242 237.66 299.346 237.772C299.449 237.883 299.501 238.055 299.501 238.29V239.371H299.187V238.308C299.187 238.149 299.156 238.035 299.094 237.966C299.032 237.894 298.935 237.859 298.804 237.859C298.647 237.859 298.523 237.906 298.431 238C298.341 238.095 298.296 238.222 298.296 238.384V239.371H297.982Z" fill="black"/>
<path d="M334.951 237.776C334.948 237.689 334.916 237.615 334.849 237.548L332.922 235.662C332.865 235.608 332.798 235.578 332.716 235.578C332.55 235.578 332.421 235.707 332.421 235.873C332.421 235.952 332.453 236.027 332.51 236.084L334.244 237.776L332.51 239.468C332.453 239.525 332.421 239.597 332.421 239.678C332.421 239.844 332.55 239.973 332.716 239.973C332.795 239.973 332.865 239.943 332.922 239.889L334.849 238.001C334.918 237.937 334.951 237.862 334.951 237.776Z" fill="#CACACA"/>
<path d="M347.416 246.504H73.1484V246.997H347.416V246.504Z" fill="#DBDCE0" fill-opacity="0.5" mask="url(#path-90-inside-1_2458_8914)"/>
<mask id="path-98-inside-2_2458_8914" fill="white">
<path d="M73.1484 246.75H347.416V264.508H73.1484V246.75Z"/>
</mask>
<path d="M73.1484 246.75H347.416V264.508H73.1484V246.75Z" fill="white"/>
<circle cx="84.0007" cy="255.628" r="4.93288" fill="#FFF5DB"/>
<rect x="81.7809" y="253.408" width="4.43959" height="4.43959" rx="2.21979" fill="#FFC83E"/>
<path d="M91.8933 257.129L92.9948 254.695H93.3677L94.4831 257.129H94.0307L93.7338 256.445L93.9133 256.566H92.4527L92.6392 256.445L92.3422 257.129H91.8933ZM93.1778 255.171L92.691 256.324L92.6012 256.217H93.7614L93.6889 256.324L93.1916 255.171H93.1778ZM95.3778 257.163C95.2259 257.163 95.0912 257.128 94.9738 257.056C94.8587 256.983 94.7689 256.878 94.7045 256.742C94.64 256.606 94.6078 256.444 94.6078 256.255C94.6078 256.067 94.64 255.905 94.7045 255.772C94.7689 255.636 94.8587 255.532 94.9738 255.461C95.0912 255.387 95.2259 255.351 95.3778 255.351C95.5228 255.351 95.6506 255.386 95.7611 255.458C95.8739 255.527 95.9487 255.621 95.9855 255.741H95.9406V254.587H96.3723V257.129H95.9476V256.759H95.989C95.9522 256.884 95.8773 256.983 95.7645 257.056C95.654 257.128 95.5251 257.163 95.3778 257.163ZM95.4987 256.832C95.6345 256.832 95.7438 256.785 95.8267 256.69C95.9096 256.594 95.951 256.449 95.951 256.255C95.951 256.062 95.9096 255.918 95.8267 255.824C95.7438 255.729 95.6345 255.682 95.4987 255.682C95.3628 255.682 95.2523 255.729 95.1672 255.824C95.0843 255.918 95.0429 256.062 95.0429 256.255C95.0429 256.449 95.0843 256.594 95.1672 256.69C95.2523 256.785 95.3628 256.832 95.4987 256.832ZM97.6848 257.163C97.3925 257.163 97.1634 257.083 96.9977 256.922C96.8319 256.761 96.7491 256.54 96.7491 256.259C96.7491 256.077 96.7847 255.918 96.8561 255.782C96.9275 255.646 97.0264 255.541 97.1531 255.465C97.282 255.389 97.4316 255.351 97.602 255.351C97.77 255.351 97.9104 255.386 98.0232 255.458C98.136 255.529 98.2212 255.629 98.2787 255.758C98.3386 255.887 98.3685 256.038 98.3685 256.21V256.324H97.0978V256.096H98.0612L98.0025 256.145C98.0025 255.984 97.968 255.86 97.8989 255.775C97.8322 255.69 97.7343 255.648 97.6054 255.648C97.4627 255.648 97.3522 255.698 97.2739 255.799C97.1979 255.901 97.16 256.042 97.16 256.224V256.269C97.16 256.458 97.206 256.599 97.2981 256.694C97.3925 256.786 97.5248 256.832 97.6952 256.832C97.7942 256.832 97.8862 256.819 97.9714 256.794C98.0589 256.766 98.1418 256.723 98.22 256.663L98.3478 256.953C98.2649 257.02 98.1659 257.071 98.0508 257.108C97.9357 257.145 97.8137 257.163 97.6848 257.163ZM99.4108 257.163C99.2589 257.163 99.1242 257.128 99.0068 257.056C98.8917 256.983 98.8019 256.878 98.7375 256.742C98.673 256.606 98.6408 256.444 98.6408 256.255C98.6408 256.067 98.673 255.905 98.7375 255.772C98.8019 255.636 98.8917 255.532 99.0068 255.461C99.1242 255.387 99.2589 255.351 99.4108 255.351C99.5558 255.351 99.6836 255.386 99.7941 255.458C99.9069 255.527 99.9817 255.621 100.019 255.741H99.9737V254.587H100.405V257.129H99.9806V256.759H100.022C99.9852 256.884 99.9104 256.983 99.7976 257.056C99.6871 257.128 99.5581 257.163 99.4108 257.163ZM99.5317 256.832C99.6675 256.832 99.7768 256.785 99.8597 256.69C99.9426 256.594 99.984 256.449 99.984 256.255C99.984 256.062 99.9426 255.918 99.8597 255.824C99.7768 255.729 99.6675 255.682 99.5317 255.682C99.3959 255.682 99.2854 255.729 99.2002 255.824C99.1173 255.918 99.0759 256.062 99.0759 256.255C99.0759 256.449 99.1173 256.594 99.2002 256.69C99.2854 256.785 99.3959 256.832 99.5317 256.832ZM101.549 257.163C101.397 257.163 101.263 257.128 101.148 257.056C101.033 256.983 100.943 256.878 100.879 256.742C100.814 256.606 100.782 256.444 100.782 256.255C100.782 256.067 100.814 255.905 100.879 255.772C100.943 255.636 101.033 255.532 101.148 255.461C101.263 255.387 101.397 255.351 101.549 255.351C101.696 255.351 101.825 255.387 101.935 255.461C102.048 255.532 102.123 255.629 102.16 255.751H102.122L102.16 255.385H102.574C102.567 255.456 102.56 255.529 102.553 255.603C102.549 255.676 102.547 255.749 102.547 255.82V257.129H102.118L102.115 256.77H102.156C102.12 256.889 102.045 256.985 101.932 257.056C101.819 257.128 101.691 257.163 101.549 257.163ZM101.669 256.832C101.805 256.832 101.915 256.785 101.998 256.69C102.08 256.594 102.122 256.449 102.122 256.255C102.122 256.062 102.08 255.918 101.998 255.824C101.915 255.729 101.805 255.682 101.669 255.682C101.534 255.682 101.424 255.729 101.341 255.824C101.259 255.918 101.217 256.062 101.217 256.255C101.217 256.449 101.257 256.594 101.338 256.69C101.421 256.785 101.531 256.832 101.669 256.832ZM103.017 257.129V255.82C103.017 255.749 103.014 255.676 103.01 255.603C103.005 255.529 102.998 255.456 102.989 255.385H103.407L103.441 255.73H103.4C103.448 255.611 103.522 255.518 103.621 255.451C103.722 255.384 103.842 255.351 103.98 255.351C104.118 255.351 104.232 255.384 104.322 255.451C104.414 255.515 104.478 255.616 104.515 255.755H104.46C104.508 255.63 104.588 255.532 104.698 255.461C104.809 255.387 104.935 255.351 105.078 255.351C105.274 255.351 105.42 255.408 105.517 255.523C105.613 255.638 105.662 255.818 105.662 256.062V257.129H105.23V256.079C105.23 255.941 105.207 255.842 105.161 255.782C105.115 255.72 105.041 255.689 104.94 255.689C104.82 255.689 104.726 255.732 104.657 255.817C104.588 255.9 104.553 256.012 104.553 256.155V257.129H104.122V256.079C104.122 255.941 104.099 255.842 104.052 255.782C104.006 255.72 103.933 255.689 103.831 255.689C103.712 255.689 103.617 255.732 103.548 255.817C103.482 255.9 103.448 256.012 103.448 256.155V257.129H103.017ZM106.91 257.163C106.73 257.163 106.575 257.127 106.443 257.053C106.312 256.979 106.21 256.875 106.136 256.739C106.065 256.603 106.029 256.442 106.029 256.255C106.029 256.069 106.065 255.909 106.136 255.775C106.21 255.64 106.312 255.535 106.443 255.461C106.575 255.387 106.73 255.351 106.91 255.351C107.089 255.351 107.244 255.387 107.376 255.461C107.509 255.535 107.612 255.64 107.683 255.775C107.757 255.909 107.794 256.069 107.794 256.255C107.794 256.442 107.757 256.603 107.683 256.739C107.612 256.875 107.509 256.979 107.376 257.053C107.244 257.127 107.089 257.163 106.91 257.163ZM106.91 256.832C107.045 256.832 107.154 256.785 107.234 256.69C107.315 256.594 107.355 256.449 107.355 256.255C107.355 256.062 107.315 255.918 107.234 255.824C107.154 255.729 107.045 255.682 106.91 255.682C106.774 255.682 106.666 255.729 106.585 255.824C106.504 255.918 106.464 256.062 106.464 256.255C106.464 256.449 106.504 256.594 106.585 256.69C106.666 256.785 106.774 256.832 106.91 256.832ZM108.166 257.129V254.587H108.597V257.129H108.166ZM109.739 257.163C109.587 257.163 109.454 257.128 109.339 257.056C109.224 256.983 109.134 256.878 109.07 256.742C109.005 256.606 108.973 256.444 108.973 256.255C108.973 256.067 109.005 255.905 109.07 255.772C109.134 255.636 109.224 255.532 109.339 255.461C109.454 255.387 109.587 255.351 109.739 255.351C109.887 255.351 110.016 255.387 110.126 255.461C110.239 255.532 110.314 255.629 110.351 255.751H110.313L110.351 255.385H110.765C110.758 255.456 110.751 255.529 110.744 255.603C110.74 255.676 110.737 255.749 110.737 255.82V257.129H110.309L110.306 256.77H110.347C110.31 256.889 110.236 256.985 110.123 257.056C110.01 257.128 109.882 257.163 109.739 257.163ZM109.86 256.832C109.996 256.832 110.105 256.785 110.188 256.69C110.271 256.594 110.313 256.449 110.313 256.255C110.313 256.062 110.271 255.918 110.188 255.824C110.105 255.729 109.996 255.682 109.86 255.682C109.724 255.682 109.615 255.729 109.532 255.824C109.449 255.918 109.408 256.062 109.408 256.255C109.408 256.449 109.448 256.594 109.529 256.69C109.612 256.785 109.722 256.832 109.86 256.832ZM112.11 255.91C112.11 255.654 112.156 255.433 112.248 255.247C112.343 255.061 112.477 254.917 112.652 254.815C112.827 254.712 113.035 254.66 113.277 254.66C113.517 254.66 113.724 254.712 113.899 254.815C114.074 254.917 114.208 255.061 114.303 255.247C114.399 255.433 114.448 255.653 114.448 255.907C114.448 256.162 114.399 256.384 114.303 256.573C114.208 256.759 114.074 256.904 113.899 257.008C113.724 257.112 113.517 257.163 113.277 257.163C113.035 257.163 112.827 257.112 112.652 257.008C112.48 256.904 112.346 256.759 112.252 256.573C112.157 256.384 112.11 256.163 112.11 255.91ZM112.576 255.91C112.576 256.184 112.635 256.398 112.752 256.552C112.87 256.706 113.045 256.784 113.277 256.784C113.503 256.784 113.677 256.706 113.799 256.552C113.921 256.398 113.982 256.184 113.982 255.91C113.982 255.634 113.921 255.42 113.799 255.268C113.679 255.116 113.505 255.04 113.277 255.04C113.045 255.04 112.87 255.116 112.752 255.268C112.635 255.42 112.576 255.634 112.576 255.91ZM114.873 257.129V255.82C114.873 255.749 114.871 255.676 114.866 255.603C114.861 255.529 114.854 255.456 114.845 255.385H115.263L115.298 255.73H115.256C115.311 255.608 115.393 255.515 115.501 255.451C115.609 255.384 115.735 255.351 115.878 255.351C116.083 255.351 116.237 255.408 116.34 255.523C116.444 255.638 116.496 255.818 116.496 256.062V257.129H116.064V256.083C116.064 255.942 116.036 255.842 115.981 255.782C115.928 255.72 115.848 255.689 115.74 255.689C115.606 255.689 115.5 255.73 115.422 255.813C115.344 255.896 115.304 256.007 115.304 256.145V257.129H114.873ZM117.627 257.163C117.475 257.163 117.341 257.128 117.226 257.056C117.111 256.983 117.021 256.878 116.957 256.742C116.892 256.606 116.86 256.444 116.86 256.255C116.86 256.067 116.892 255.905 116.957 255.772C117.021 255.636 117.111 255.532 117.226 255.461C117.341 255.387 117.475 255.351 117.627 255.351C117.774 255.351 117.903 255.387 118.013 255.461C118.126 255.532 118.201 255.629 118.238 255.751H118.2L118.238 255.385H118.652C118.645 255.456 118.638 255.529 118.632 255.603C118.627 255.676 118.625 255.749 118.625 255.82V257.129H118.196L118.193 256.77H118.234C118.198 256.889 118.123 256.985 118.01 257.056C117.897 257.128 117.769 257.163 117.627 257.163ZM117.748 256.832C117.883 256.832 117.993 256.785 118.076 256.69C118.158 256.594 118.2 256.449 118.2 256.255C118.2 256.062 118.158 255.918 118.076 255.824C117.993 255.729 117.883 255.682 117.748 255.682C117.612 255.682 117.502 255.729 117.42 255.824C117.337 255.918 117.295 256.062 117.295 256.255C117.295 256.449 117.336 256.594 117.416 256.69C117.499 256.785 117.609 256.832 117.748 256.832ZM120.093 257.163C119.945 257.163 119.816 257.128 119.706 257.056C119.595 256.983 119.522 256.884 119.485 256.759H119.523V257.129H119.095V254.587H119.526V255.741H119.485C119.524 255.621 119.599 255.527 119.709 255.458C119.82 255.386 119.948 255.351 120.093 255.351C120.247 255.351 120.381 255.387 120.497 255.461C120.612 255.535 120.701 255.64 120.766 255.775C120.83 255.909 120.863 256.07 120.863 256.259C120.863 256.448 120.83 256.61 120.766 256.746C120.701 256.879 120.611 256.983 120.493 257.056C120.378 257.128 120.245 257.163 120.093 257.163ZM119.972 256.832C120.108 256.832 120.217 256.785 120.3 256.69C120.385 256.596 120.428 256.452 120.428 256.259C120.428 256.065 120.385 255.922 120.3 255.827C120.217 255.73 120.108 255.682 119.972 255.682C119.836 255.682 119.727 255.729 119.644 255.824C119.561 255.918 119.519 256.062 119.519 256.255C119.519 256.449 119.561 256.594 119.644 256.69C119.727 256.785 119.836 256.832 119.972 256.832ZM121.909 257.163C121.757 257.163 121.624 257.128 121.509 257.056C121.394 256.983 121.304 256.878 121.239 256.742C121.175 256.606 121.143 256.444 121.143 256.255C121.143 256.067 121.175 255.905 121.239 255.772C121.304 255.636 121.394 255.532 121.509 255.461C121.624 255.387 121.757 255.351 121.909 255.351C122.057 255.351 122.186 255.387 122.296 255.461C122.409 255.532 122.484 255.629 122.52 255.751H122.482L122.52 255.385H122.935C122.928 255.456 122.921 255.529 122.914 255.603C122.909 255.676 122.907 255.749 122.907 255.82V257.129H122.479L122.476 256.77H122.517C122.48 256.889 122.405 256.985 122.293 257.056C122.18 257.128 122.052 257.163 121.909 257.163ZM122.03 256.832C122.166 256.832 122.275 256.785 122.358 256.69C122.441 256.594 122.482 256.449 122.482 256.255C122.482 256.062 122.441 255.918 122.358 255.824C122.275 255.729 122.166 255.682 122.03 255.682C121.894 255.682 121.785 255.729 121.702 255.824C121.619 255.918 121.578 256.062 121.578 256.255C121.578 256.449 121.618 256.594 121.699 256.69C121.782 256.785 121.892 256.832 122.03 256.832ZM123.377 257.129V255.82C123.377 255.749 123.375 255.676 123.37 255.603C123.366 255.529 123.359 255.456 123.35 255.385H123.767L123.802 255.73H123.76C123.816 255.608 123.897 255.515 124.006 255.451C124.114 255.384 124.239 255.351 124.382 255.351C124.587 255.351 124.741 255.408 124.845 255.523C124.948 255.638 125 255.818 125 256.062V257.129H124.568V256.083C124.568 255.942 124.541 255.842 124.486 255.782C124.433 255.72 124.352 255.689 124.244 255.689C124.11 255.689 124.005 255.73 123.926 255.813C123.848 255.896 123.809 256.007 123.809 256.145V257.129H123.377ZM125.285 257.895C125.241 257.895 125.194 257.892 125.144 257.885C125.091 257.878 125.045 257.867 125.005 257.851V257.509C125.035 257.518 125.068 257.526 125.102 257.533C125.137 257.54 125.17 257.543 125.202 257.543C125.285 257.543 125.35 257.518 125.396 257.467C125.444 257.417 125.468 257.331 125.468 257.212V255.385H125.9V257.236C125.9 257.452 125.85 257.616 125.751 257.726C125.652 257.839 125.497 257.895 125.285 257.895ZM125.441 255.057V254.636H125.92V255.057H125.441ZM127.145 257.163C126.966 257.163 126.81 257.127 126.679 257.053C126.548 256.979 126.446 256.875 126.372 256.739C126.301 256.603 126.265 256.442 126.265 256.255C126.265 256.069 126.301 255.909 126.372 255.775C126.446 255.64 126.548 255.535 126.679 255.461C126.81 255.387 126.966 255.351 127.145 255.351C127.325 255.351 127.48 255.387 127.612 255.461C127.745 255.535 127.848 255.64 127.919 255.775C127.993 255.909 128.029 256.069 128.029 256.255C128.029 256.442 127.993 256.603 127.919 256.739C127.848 256.875 127.745 256.979 127.612 257.053C127.48 257.127 127.325 257.163 127.145 257.163ZM127.145 256.832C127.281 256.832 127.389 256.785 127.47 256.69C127.551 256.594 127.591 256.449 127.591 256.255C127.591 256.062 127.551 255.918 127.47 255.824C127.389 255.729 127.281 255.682 127.145 255.682C127.01 255.682 126.901 255.729 126.821 255.824C126.74 255.918 126.7 256.062 126.7 256.255C126.7 256.449 126.74 256.594 126.821 256.69C126.901 256.785 127.01 256.832 127.145 256.832Z" fill="black"/>
<path d="M190.935 257.16C190.691 257.16 190.482 257.109 190.307 257.008C190.134 256.907 190.002 256.763 189.91 256.576C189.817 256.388 189.771 256.166 189.771 255.91C189.771 255.654 189.817 255.433 189.91 255.247C190.002 255.061 190.134 254.917 190.307 254.815C190.482 254.714 190.691 254.663 190.935 254.663C191.11 254.663 191.265 254.69 191.401 254.743C191.537 254.794 191.656 254.868 191.757 254.967L191.64 255.226C191.529 255.13 191.42 255.061 191.311 255.019C191.206 254.975 191.082 254.954 190.942 254.954C190.673 254.954 190.467 255.036 190.324 255.202C190.181 255.368 190.11 255.604 190.11 255.91C190.11 256.216 190.181 256.453 190.324 256.621C190.467 256.787 190.673 256.87 190.942 256.87C191.082 256.87 191.206 256.849 191.311 256.808C191.42 256.764 191.529 256.694 191.64 256.597L191.757 256.853C191.656 256.952 191.536 257.028 191.398 257.081C191.262 257.134 191.108 257.16 190.935 257.16ZM192.225 257.129V254.695H193.765V254.957H192.546V255.772H193.686V256.034H192.546V257.129H192.225ZM194.034 255.91C194.034 255.654 194.079 255.433 194.168 255.247C194.258 255.061 194.387 254.917 194.555 254.815C194.725 254.714 194.928 254.663 195.163 254.663C195.395 254.663 195.596 254.714 195.764 254.815C195.934 254.917 196.065 255.061 196.157 255.247C196.249 255.433 196.295 255.653 196.295 255.907C196.295 256.162 196.249 256.384 196.157 256.573C196.065 256.759 195.934 256.904 195.764 257.008C195.596 257.109 195.395 257.16 195.163 257.16C194.928 257.16 194.727 257.109 194.559 257.008C194.391 256.904 194.26 256.759 194.168 256.573C194.079 256.384 194.034 256.163 194.034 255.91ZM194.372 255.91C194.372 256.214 194.439 256.451 194.572 256.621C194.706 256.792 194.903 256.877 195.163 256.877C195.414 256.877 195.608 256.793 195.746 256.625C195.887 256.454 195.957 256.216 195.957 255.91C195.957 255.604 195.888 255.367 195.75 255.199C195.612 255.031 195.416 254.947 195.163 254.947C194.903 254.947 194.706 255.031 194.572 255.199C194.439 255.367 194.372 255.604 194.372 255.91Z" fill="black"/>
<path d="M289.257 257.129L290.334 254.695H290.614L291.708 257.129H291.377L291.076 256.438L291.215 256.521H289.733L289.885 256.438L289.585 257.129H289.257ZM290.469 255.054L289.93 256.331L289.847 256.259H291.101L291.035 256.331L290.483 255.054H290.469ZM292.02 257.875V255.803C292.02 255.736 292.018 255.668 292.013 255.599C292.009 255.53 292.002 255.461 291.992 255.392H292.296L292.334 255.793H292.296C292.331 255.659 292.405 255.554 292.517 255.478C292.63 255.4 292.765 255.361 292.921 255.361C293.076 255.361 293.21 255.397 293.325 255.468C293.44 255.539 293.529 255.643 293.591 255.779C293.656 255.912 293.688 256.072 293.688 256.259C293.688 256.445 293.656 256.606 293.591 256.742C293.529 256.878 293.44 256.982 293.325 257.053C293.21 257.124 293.076 257.16 292.921 257.16C292.767 257.16 292.634 257.122 292.521 257.046C292.41 256.968 292.335 256.863 292.296 256.732H292.334V257.875H292.02ZM292.849 256.911C293.008 256.911 293.134 256.856 293.229 256.746C293.323 256.635 293.37 256.473 293.37 256.259C293.37 256.045 293.323 255.884 293.229 255.775C293.134 255.667 293.008 255.613 292.849 255.613C292.69 255.613 292.563 255.667 292.469 255.775C292.377 255.884 292.331 256.045 292.331 256.259C292.331 256.473 292.377 256.635 292.469 256.746C292.563 256.856 292.69 256.911 292.849 256.911ZM294.111 257.875V255.803C294.111 255.736 294.108 255.668 294.104 255.599C294.099 255.53 294.092 255.461 294.083 255.392H294.387L294.425 255.793H294.387C294.422 255.659 294.495 255.554 294.608 255.478C294.721 255.4 294.855 255.361 295.012 255.361C295.166 255.361 295.301 255.397 295.416 255.468C295.531 255.539 295.62 255.643 295.682 255.779C295.746 255.912 295.779 256.072 295.779 256.259C295.779 256.445 295.746 256.606 295.682 256.742C295.62 256.878 295.531 256.982 295.416 257.053C295.301 257.124 295.166 257.16 295.012 257.16C294.858 257.16 294.724 257.122 294.611 257.046C294.501 256.968 294.426 256.863 294.387 256.732H294.425V257.875H294.111ZM294.939 256.911C295.098 256.911 295.225 256.856 295.319 256.746C295.414 256.635 295.461 256.473 295.461 256.259C295.461 256.045 295.414 255.884 295.319 255.775C295.225 255.667 295.098 255.613 294.939 255.613C294.781 255.613 294.654 255.667 294.56 255.775C294.468 255.884 294.422 256.045 294.422 256.259C294.422 256.473 294.468 256.635 294.56 256.746C294.654 256.856 294.781 256.911 294.939 256.911ZM296.198 257.129V255.817C296.198 255.748 296.196 255.677 296.191 255.606C296.189 255.532 296.183 255.461 296.174 255.392H296.478L296.516 255.827L296.464 255.831C296.487 255.725 296.526 255.637 296.581 255.568C296.639 255.497 296.707 255.445 296.785 255.413C296.866 255.378 296.948 255.361 297.034 255.361C297.07 255.361 297.102 255.362 297.127 255.364C297.152 255.367 297.178 255.372 297.203 255.382L297.196 255.661C297.161 255.648 297.129 255.64 297.099 255.637C297.072 255.633 297.037 255.63 296.996 255.63C296.894 255.63 296.807 255.653 296.733 255.699C296.662 255.745 296.607 255.806 296.567 255.882C296.531 255.958 296.512 256.04 296.512 256.128V257.129H296.198ZM298.188 257.16C298.018 257.16 297.87 257.124 297.746 257.053C297.622 256.979 297.525 256.876 297.456 256.742C297.387 256.606 297.352 256.445 297.352 256.259C297.352 256.075 297.387 255.916 297.456 255.782C297.525 255.646 297.622 255.543 297.746 255.471C297.87 255.398 298.018 255.361 298.188 255.361C298.358 255.361 298.506 255.398 298.63 255.471C298.757 255.543 298.853 255.646 298.92 255.782C298.989 255.916 299.024 256.075 299.024 256.259C299.024 256.445 298.989 256.606 298.92 256.742C298.853 256.876 298.757 256.979 298.63 257.053C298.506 257.124 298.358 257.16 298.188 257.16ZM298.188 256.911C298.344 256.911 298.47 256.856 298.564 256.746C298.659 256.635 298.706 256.473 298.706 256.259C298.706 256.045 298.659 255.884 298.564 255.775C298.47 255.667 298.344 255.613 298.188 255.613C298.029 255.613 297.902 255.667 297.808 255.775C297.716 255.884 297.67 256.045 297.67 256.259C297.67 256.473 297.716 256.635 297.808 256.746C297.902 256.856 298.029 256.911 298.188 256.911ZM299.929 257.129L299.187 255.392H299.525L300.13 256.884H300.033L300.648 255.392H300.969L300.223 257.129H299.929ZM302.027 257.16C301.75 257.16 301.532 257.081 301.371 256.922C301.212 256.763 301.132 256.544 301.132 256.266C301.132 256.081 301.167 255.923 301.236 255.789C301.307 255.653 301.405 255.549 301.529 255.475C301.654 255.399 301.799 255.361 301.965 255.361C302.123 255.361 302.258 255.395 302.369 255.465C302.479 255.531 302.563 255.627 302.621 255.751C302.678 255.875 302.707 256.023 302.707 256.193V256.297H301.378V256.11H302.493L302.434 256.155C302.434 255.976 302.394 255.836 302.313 255.737C302.235 255.638 302.119 255.589 301.965 255.589C301.797 255.589 301.666 255.648 301.574 255.765C301.482 255.88 301.436 256.038 301.436 256.238V256.269C301.436 256.481 301.488 256.641 301.592 256.749C301.698 256.857 301.844 256.911 302.03 256.911C302.134 256.911 302.23 256.896 302.32 256.866C302.41 256.837 302.496 256.787 302.579 256.718L302.683 256.936C302.605 257.007 302.507 257.062 302.389 257.101C302.274 257.14 302.153 257.16 302.027 257.16ZM303.114 257.129V255.817C303.114 255.748 303.112 255.677 303.107 255.606C303.105 255.532 303.099 255.461 303.09 255.392H303.394L303.432 255.827L303.38 255.831C303.403 255.725 303.442 255.637 303.497 255.568C303.555 255.497 303.623 255.445 303.701 255.413C303.782 255.378 303.865 255.361 303.95 255.361C303.987 255.361 304.018 255.362 304.043 255.364C304.068 255.367 304.094 255.372 304.119 255.382L304.112 255.661C304.078 255.648 304.045 255.64 304.015 255.637C303.988 255.633 303.953 255.63 303.912 255.63C303.81 255.63 303.723 255.653 303.649 255.699C303.578 255.745 303.523 255.806 303.484 255.882C303.447 255.958 303.428 256.04 303.428 256.128V257.129H303.114Z" fill="black"/>
<path d="M334.951 255.533C334.948 255.447 334.916 255.372 334.849 255.306L332.922 253.42C332.865 253.366 332.798 253.336 332.716 253.336C332.55 253.336 332.421 253.465 332.421 253.631C332.421 253.71 332.453 253.784 332.51 253.841L334.244 255.533L332.51 257.226C332.453 257.283 332.421 257.354 332.421 257.436C332.421 257.602 332.55 257.731 332.716 257.731C332.795 257.731 332.865 257.701 332.922 257.647L334.849 255.759C334.918 255.694 334.951 255.62 334.951 255.533Z" fill="#CACACA"/>
<path d="M347.416 264.262H73.1484V264.755H347.416V264.262Z" fill="#DBDCE0" fill-opacity="0.5" mask="url(#path-98-inside-2_2458_8914)"/>
<mask id="path-106-inside-3_2458_8914" fill="white">
<path d="M73.1484 264.51H347.416V282.268H73.1484V264.51Z"/>
</mask>
<path d="M73.1484 264.51H347.416V282.268H73.1484V264.51Z" fill="white"/>
<circle cx="84.0007" cy="273.39" r="4.93288" fill="#DCFFEC"/>
<path d="M81.9554 273.565C81.8591 273.469 81.8591 273.313 81.9554 273.216L83.8264 271.345C83.9227 271.249 84.0789 271.249 84.1752 271.345L86.0462 273.216C86.1425 273.313 86.1425 273.469 86.0462 273.565L84.1752 275.436C84.0789 275.532 83.9227 275.532 83.8264 275.436L81.9554 273.565Z" fill="#48D38A"/>
<path d="M91.8933 274.889L92.9948 272.454H93.3677L94.4831 274.889H94.0307L93.7338 274.205L93.9133 274.326H92.4527L92.6392 274.205L92.3422 274.889H91.8933ZM93.1778 272.931L92.691 274.084L92.6012 273.977H93.7614L93.6889 274.084L93.1916 272.931H93.1778ZM95.3778 274.923C95.2259 274.923 95.0912 274.888 94.9738 274.816C94.8587 274.742 94.7689 274.638 94.7045 274.502C94.64 274.366 94.6078 274.204 94.6078 274.015C94.6078 273.826 94.64 273.665 94.7045 273.532C94.7689 273.396 94.8587 273.292 94.9738 273.221C95.0912 273.147 95.2259 273.11 95.3778 273.11C95.5228 273.11 95.6506 273.146 95.7611 273.217C95.8739 273.286 95.9487 273.381 95.9855 273.501H95.9406V272.347H96.3723V274.889H95.9476V274.519H95.989C95.9522 274.644 95.8773 274.742 95.7645 274.816C95.654 274.888 95.5251 274.923 95.3778 274.923ZM95.4987 274.592C95.6345 274.592 95.7438 274.545 95.8267 274.45C95.9096 274.353 95.951 274.208 95.951 274.015C95.951 273.822 95.9096 273.678 95.8267 273.583C95.7438 273.489 95.6345 273.442 95.4987 273.442C95.3628 273.442 95.2523 273.489 95.1672 273.583C95.0843 273.678 95.0429 273.822 95.0429 274.015C95.0429 274.208 95.0843 274.353 95.1672 274.45C95.2523 274.545 95.3628 274.592 95.4987 274.592ZM97.6848 274.923C97.3925 274.923 97.1634 274.843 96.9977 274.681C96.8319 274.52 96.7491 274.299 96.7491 274.019C96.7491 273.837 96.7847 273.678 96.8561 273.542C96.9275 273.406 97.0264 273.3 97.1531 273.224C97.282 273.148 97.4316 273.11 97.602 273.11C97.77 273.11 97.9104 273.146 98.0232 273.217C98.136 273.289 98.2212 273.389 98.2787 273.518C98.3386 273.647 98.3685 273.798 98.3685 273.97V274.084H97.0978V273.856H98.0612L98.0025 273.905C98.0025 273.743 97.968 273.62 97.8989 273.535C97.8322 273.45 97.7343 273.407 97.6054 273.407C97.4627 273.407 97.3522 273.458 97.2739 273.559C97.1979 273.661 97.16 273.802 97.16 273.984V274.029C97.16 274.218 97.206 274.359 97.2981 274.454C97.3925 274.546 97.5248 274.592 97.6952 274.592C97.7942 274.592 97.8862 274.579 97.9714 274.554C98.0589 274.526 98.1418 274.482 98.22 274.423L98.3478 274.713C98.2649 274.779 98.1659 274.831 98.0508 274.868C97.9357 274.905 97.8137 274.923 97.6848 274.923ZM99.4108 274.923C99.2589 274.923 99.1242 274.888 99.0068 274.816C98.8917 274.742 98.8019 274.638 98.7375 274.502C98.673 274.366 98.6408 274.204 98.6408 274.015C98.6408 273.826 98.673 273.665 98.7375 273.532C98.8019 273.396 98.8917 273.292 99.0068 273.221C99.1242 273.147 99.2589 273.11 99.4108 273.11C99.5558 273.11 99.6836 273.146 99.7941 273.217C99.9069 273.286 99.9817 273.381 100.019 273.501H99.9737V272.347H100.405V274.889H99.9806V274.519H100.022C99.9852 274.644 99.9104 274.742 99.7976 274.816C99.6871 274.888 99.5581 274.923 99.4108 274.923ZM99.5317 274.592C99.6675 274.592 99.7768 274.545 99.8597 274.45C99.9426 274.353 99.984 274.208 99.984 274.015C99.984 273.822 99.9426 273.678 99.8597 273.583C99.7768 273.489 99.6675 273.442 99.5317 273.442C99.3959 273.442 99.2854 273.489 99.2002 273.583C99.1173 273.678 99.0759 273.822 99.0759 274.015C99.0759 274.208 99.1173 274.353 99.2002 274.45C99.2854 274.545 99.3959 274.592 99.5317 274.592ZM101.549 274.923C101.397 274.923 101.263 274.888 101.148 274.816C101.033 274.742 100.943 274.638 100.879 274.502C100.814 274.366 100.782 274.204 100.782 274.015C100.782 273.826 100.814 273.665 100.879 273.532C100.943 273.396 101.033 273.292 101.148 273.221C101.263 273.147 101.397 273.11 101.549 273.11C101.696 273.11 101.825 273.147 101.935 273.221C102.048 273.292 102.123 273.389 102.16 273.511H102.122L102.16 273.145H102.574C102.567 273.216 102.56 273.289 102.553 273.362C102.549 273.436 102.547 273.509 102.547 273.58V274.889H102.118L102.115 274.53H102.156C102.12 274.649 102.045 274.745 101.932 274.816C101.819 274.888 101.691 274.923 101.549 274.923ZM101.669 274.592C101.805 274.592 101.915 274.545 101.998 274.45C102.08 274.353 102.122 274.208 102.122 274.015C102.122 273.822 102.08 273.678 101.998 273.583C101.915 273.489 101.805 273.442 101.669 273.442C101.534 273.442 101.424 273.489 101.341 273.583C101.259 273.678 101.217 273.822 101.217 274.015C101.217 274.208 101.257 274.353 101.338 274.45C101.421 274.545 101.531 274.592 101.669 274.592ZM103.017 274.889V273.58C103.017 273.509 103.014 273.436 103.01 273.362C103.005 273.289 102.998 273.216 102.989 273.145H103.407L103.441 273.49H103.4C103.448 273.37 103.522 273.277 103.621 273.211C103.722 273.144 103.842 273.11 103.98 273.11C104.118 273.11 104.232 273.144 104.322 273.211C104.414 273.275 104.478 273.376 104.515 273.514H104.46C104.508 273.39 104.588 273.292 104.698 273.221C104.809 273.147 104.935 273.11 105.078 273.11C105.274 273.11 105.42 273.168 105.517 273.283C105.613 273.398 105.662 273.578 105.662 273.822V274.889H105.23V273.839C105.23 273.701 105.207 273.602 105.161 273.542C105.115 273.48 105.041 273.449 104.94 273.449C104.82 273.449 104.726 273.491 104.657 273.577C104.588 273.659 104.553 273.772 104.553 273.915V274.889H104.122V273.839C104.122 273.701 104.099 273.602 104.052 273.542C104.006 273.48 103.933 273.449 103.831 273.449C103.712 273.449 103.617 273.491 103.548 273.577C103.482 273.659 103.448 273.772 103.448 273.915V274.889H103.017ZM106.91 274.923C106.73 274.923 106.575 274.886 106.443 274.813C106.312 274.739 106.21 274.634 106.136 274.498C106.065 274.363 106.029 274.202 106.029 274.015C106.029 273.829 106.065 273.669 106.136 273.535C106.21 273.399 106.312 273.295 106.443 273.221C106.575 273.147 106.73 273.11 106.91 273.11C107.089 273.11 107.244 273.147 107.376 273.221C107.509 273.295 107.612 273.399 107.683 273.535C107.757 273.669 107.794 273.829 107.794 274.015C107.794 274.202 107.757 274.363 107.683 274.498C107.612 274.634 107.509 274.739 107.376 274.813C107.244 274.886 107.089 274.923 106.91 274.923ZM106.91 274.592C107.045 274.592 107.154 274.545 107.234 274.45C107.315 274.353 107.355 274.208 107.355 274.015C107.355 273.822 107.315 273.678 107.234 273.583C107.154 273.489 107.045 273.442 106.91 273.442C106.774 273.442 106.666 273.489 106.585 273.583C106.504 273.678 106.464 273.822 106.464 274.015C106.464 274.208 106.504 274.353 106.585 274.45C106.666 274.545 106.774 274.592 106.91 274.592ZM108.166 274.889V272.347H108.597V274.889H108.166ZM109.739 274.923C109.587 274.923 109.454 274.888 109.339 274.816C109.224 274.742 109.134 274.638 109.07 274.502C109.005 274.366 108.973 274.204 108.973 274.015C108.973 273.826 109.005 273.665 109.07 273.532C109.134 273.396 109.224 273.292 109.339 273.221C109.454 273.147 109.587 273.11 109.739 273.11C109.887 273.11 110.016 273.147 110.126 273.221C110.239 273.292 110.314 273.389 110.351 273.511H110.313L110.351 273.145H110.765C110.758 273.216 110.751 273.289 110.744 273.362C110.74 273.436 110.737 273.509 110.737 273.58V274.889H110.309L110.306 274.53H110.347C110.31 274.649 110.236 274.745 110.123 274.816C110.01 274.888 109.882 274.923 109.739 274.923ZM109.86 274.592C109.996 274.592 110.105 274.545 110.188 274.45C110.271 274.353 110.313 274.208 110.313 274.015C110.313 273.822 110.271 273.678 110.188 273.583C110.105 273.489 109.996 273.442 109.86 273.442C109.724 273.442 109.615 273.489 109.532 273.583C109.449 273.678 109.408 273.822 109.408 274.015C109.408 274.208 109.448 274.353 109.529 274.45C109.612 274.545 109.722 274.592 109.86 274.592ZM112.11 273.67C112.11 273.414 112.156 273.193 112.248 273.007C112.343 272.82 112.477 272.676 112.652 272.575C112.827 272.472 113.035 272.42 113.277 272.42C113.517 272.42 113.724 272.472 113.899 272.575C114.074 272.676 114.208 272.82 114.303 273.007C114.399 273.193 114.448 273.413 114.448 273.666C114.448 273.922 114.399 274.144 114.303 274.333C114.208 274.519 114.074 274.664 113.899 274.768C113.724 274.871 113.517 274.923 113.277 274.923C113.035 274.923 112.827 274.871 112.652 274.768C112.48 274.664 112.346 274.519 112.252 274.333C112.157 274.144 112.11 273.923 112.11 273.67ZM112.576 273.67C112.576 273.944 112.635 274.158 112.752 274.312C112.87 274.466 113.045 274.543 113.277 274.543C113.503 274.543 113.677 274.466 113.799 274.312C113.921 274.158 113.982 273.944 113.982 273.67C113.982 273.394 113.921 273.179 113.799 273.027C113.679 272.876 113.505 272.8 113.277 272.8C113.045 272.8 112.87 272.876 112.752 273.027C112.635 273.179 112.576 273.394 112.576 273.67ZM114.873 274.889V273.58C114.873 273.509 114.871 273.436 114.866 273.362C114.861 273.289 114.854 273.216 114.845 273.145H115.263L115.298 273.49H115.256C115.311 273.368 115.393 273.275 115.501 273.211C115.609 273.144 115.735 273.11 115.878 273.11C116.083 273.11 116.237 273.168 116.34 273.283C116.444 273.398 116.496 273.578 116.496 273.822V274.889H116.064V273.842C116.064 273.702 116.036 273.602 115.981 273.542C115.928 273.48 115.848 273.449 115.74 273.449C115.606 273.449 115.5 273.49 115.422 273.573C115.344 273.656 115.304 273.766 115.304 273.905V274.889H114.873ZM117.627 274.923C117.475 274.923 117.341 274.888 117.226 274.816C117.111 274.742 117.021 274.638 116.957 274.502C116.892 274.366 116.86 274.204 116.86 274.015C116.86 273.826 116.892 273.665 116.957 273.532C117.021 273.396 117.111 273.292 117.226 273.221C117.341 273.147 117.475 273.11 117.627 273.11C117.774 273.11 117.903 273.147 118.013 273.221C118.126 273.292 118.201 273.389 118.238 273.511H118.2L118.238 273.145H118.652C118.645 273.216 118.638 273.289 118.632 273.362C118.627 273.436 118.625 273.509 118.625 273.58V274.889H118.196L118.193 274.53H118.234C118.198 274.649 118.123 274.745 118.01 274.816C117.897 274.888 117.769 274.923 117.627 274.923ZM117.748 274.592C117.883 274.592 117.993 274.545 118.076 274.45C118.158 274.353 118.2 274.208 118.2 274.015C118.2 273.822 118.158 273.678 118.076 273.583C117.993 273.489 117.883 273.442 117.748 273.442C117.612 273.442 117.502 273.489 117.42 273.583C117.337 273.678 117.295 273.822 117.295 274.015C117.295 274.208 117.336 274.353 117.416 274.45C117.499 274.545 117.609 274.592 117.748 274.592ZM120.093 274.923C119.945 274.923 119.816 274.888 119.706 274.816C119.595 274.742 119.522 274.644 119.485 274.519H119.523V274.889H119.095V272.347H119.526V273.501H119.485C119.524 273.381 119.599 273.286 119.709 273.217C119.82 273.146 119.948 273.11 120.093 273.11C120.247 273.11 120.381 273.147 120.497 273.221C120.612 273.295 120.701 273.399 120.766 273.535C120.83 273.669 120.863 273.83 120.863 274.019C120.863 274.207 120.83 274.37 120.766 274.505C120.701 274.639 120.611 274.742 120.493 274.816C120.378 274.888 120.245 274.923 120.093 274.923ZM119.972 274.592C120.108 274.592 120.217 274.545 120.3 274.45C120.385 274.356 120.428 274.212 120.428 274.019C120.428 273.825 120.385 273.681 120.3 273.587C120.217 273.49 120.108 273.442 119.972 273.442C119.836 273.442 119.727 273.489 119.644 273.583C119.561 273.678 119.519 273.822 119.519 274.015C119.519 274.208 119.561 274.353 119.644 274.45C119.727 274.545 119.836 274.592 119.972 274.592ZM121.909 274.923C121.757 274.923 121.624 274.888 121.509 274.816C121.394 274.742 121.304 274.638 121.239 274.502C121.175 274.366 121.143 274.204 121.143 274.015C121.143 273.826 121.175 273.665 121.239 273.532C121.304 273.396 121.394 273.292 121.509 273.221C121.624 273.147 121.757 273.11 121.909 273.11C122.057 273.11 122.186 273.147 122.296 273.221C122.409 273.292 122.484 273.389 122.52 273.511H122.482L122.52 273.145H122.935C122.928 273.216 122.921 273.289 122.914 273.362C122.909 273.436 122.907 273.509 122.907 273.58V274.889H122.479L122.476 274.53H122.517C122.48 274.649 122.405 274.745 122.293 274.816C122.18 274.888 122.052 274.923 121.909 274.923ZM122.03 274.592C122.166 274.592 122.275 274.545 122.358 274.45C122.441 274.353 122.482 274.208 122.482 274.015C122.482 273.822 122.441 273.678 122.358 273.583C122.275 273.489 122.166 273.442 122.03 273.442C121.894 273.442 121.785 273.489 121.702 273.583C121.619 273.678 121.578 273.822 121.578 274.015C121.578 274.208 121.618 274.353 121.699 274.45C121.782 274.545 121.892 274.592 122.03 274.592ZM123.377 274.889V273.58C123.377 273.509 123.375 273.436 123.37 273.362C123.366 273.289 123.359 273.216 123.35 273.145H123.767L123.802 273.49H123.76C123.816 273.368 123.897 273.275 124.006 273.211C124.114 273.144 124.239 273.11 124.382 273.11C124.587 273.11 124.741 273.168 124.845 273.283C124.948 273.398 125 273.578 125 273.822V274.889H124.568V273.842C124.568 273.702 124.541 273.602 124.486 273.542C124.433 273.48 124.352 273.449 124.244 273.449C124.11 273.449 124.005 273.49 123.926 273.573C123.848 273.656 123.809 273.766 123.809 273.905V274.889H123.377ZM125.285 275.655C125.241 275.655 125.194 275.652 125.144 275.645C125.091 275.638 125.045 275.626 125.005 275.61V275.269C125.035 275.278 125.068 275.286 125.102 275.293C125.137 275.3 125.17 275.303 125.202 275.303C125.285 275.303 125.35 275.278 125.396 275.227C125.444 275.176 125.468 275.091 125.468 274.972V273.145H125.9V274.996C125.9 275.212 125.85 275.376 125.751 275.486C125.652 275.599 125.497 275.655 125.285 275.655ZM125.441 272.817V272.396H125.92V272.817H125.441ZM127.145 274.923C126.966 274.923 126.81 274.886 126.679 274.813C126.548 274.739 126.446 274.634 126.372 274.498C126.301 274.363 126.265 274.202 126.265 274.015C126.265 273.829 126.301 273.669 126.372 273.535C126.446 273.399 126.548 273.295 126.679 273.221C126.81 273.147 126.966 273.11 127.145 273.11C127.325 273.11 127.48 273.147 127.612 273.221C127.745 273.295 127.848 273.399 127.919 273.535C127.993 273.669 128.029 273.829 128.029 274.015C128.029 274.202 127.993 274.363 127.919 274.498C127.848 274.634 127.745 274.739 127.612 274.813C127.48 274.886 127.325 274.923 127.145 274.923ZM127.145 274.592C127.281 274.592 127.389 274.545 127.47 274.45C127.551 274.353 127.591 274.208 127.591 274.015C127.591 273.822 127.551 273.678 127.47 273.583C127.389 273.489 127.281 273.442 127.145 273.442C127.01 273.442 126.901 273.489 126.821 273.583C126.74 273.678 126.7 273.822 126.7 274.015C126.7 274.208 126.74 274.353 126.821 274.45C126.901 274.545 127.01 274.592 127.145 274.592Z" fill="black"/>
<path d="M190.935 274.92C190.691 274.92 190.482 274.869 190.307 274.768C190.134 274.667 190.002 274.523 189.91 274.336C189.817 274.147 189.771 273.925 189.771 273.67C189.771 273.414 189.817 273.193 189.91 273.007C190.002 272.82 190.134 272.676 190.307 272.575C190.482 272.474 190.691 272.423 190.935 272.423C191.11 272.423 191.265 272.45 191.401 272.503C191.537 272.553 191.656 272.628 191.757 272.727L191.64 272.986C191.529 272.889 191.42 272.82 191.311 272.779C191.206 272.735 191.082 272.713 190.942 272.713C190.673 272.713 190.467 272.796 190.324 272.962C190.181 273.128 190.11 273.364 190.11 273.67C190.11 273.976 190.181 274.213 190.324 274.381C190.467 274.547 190.673 274.63 190.942 274.63C191.082 274.63 191.206 274.609 191.311 274.568C191.42 274.524 191.529 274.454 191.64 274.357L191.757 274.612C191.656 274.711 191.536 274.787 191.398 274.84C191.262 274.893 191.108 274.92 190.935 274.92ZM192.225 274.889V272.454H193.765V272.717H192.546V273.532H193.686V273.794H192.546V274.889H192.225ZM194.034 273.67C194.034 273.414 194.079 273.193 194.168 273.007C194.258 272.82 194.387 272.676 194.555 272.575C194.725 272.474 194.928 272.423 195.163 272.423C195.395 272.423 195.596 272.474 195.764 272.575C195.934 272.676 196.065 272.82 196.157 273.007C196.249 273.193 196.295 273.413 196.295 273.666C196.295 273.922 196.249 274.144 196.157 274.333C196.065 274.519 195.934 274.664 195.764 274.768C195.596 274.869 195.395 274.92 195.163 274.92C194.928 274.92 194.727 274.869 194.559 274.768C194.391 274.664 194.26 274.519 194.168 274.333C194.079 274.144 194.034 273.923 194.034 273.67ZM194.372 273.67C194.372 273.974 194.439 274.211 194.572 274.381C194.706 274.551 194.903 274.637 195.163 274.637C195.414 274.637 195.608 274.553 195.746 274.385C195.887 274.214 195.957 273.976 195.957 273.67C195.957 273.364 195.888 273.126 195.75 272.958C195.612 272.79 195.416 272.706 195.163 272.706C194.903 272.706 194.706 272.79 194.572 272.958C194.439 273.126 194.372 273.364 194.372 273.67Z" fill="black"/>
<path d="M289.505 274.889V272.454H289.826V274.889H289.505ZM290.381 274.889V273.563C290.381 273.496 290.379 273.428 290.374 273.359C290.37 273.29 290.363 273.221 290.354 273.152H290.657L290.692 273.525H290.651C290.704 273.394 290.785 273.293 290.896 273.224C291.006 273.155 291.135 273.121 291.282 273.121C291.487 273.121 291.642 273.177 291.745 273.29C291.849 273.4 291.901 273.573 291.901 273.808V274.889H291.586V273.825C291.586 273.666 291.555 273.552 291.493 273.483C291.431 273.412 291.334 273.376 291.203 273.376C291.047 273.376 290.922 273.423 290.83 273.518C290.74 273.612 290.695 273.74 290.695 273.901V274.889H290.381ZM292.415 274.889V273.152H292.729V274.889H292.415ZM292.387 272.772V272.434H292.76V272.772H292.387ZM293.903 274.92C293.722 274.92 293.583 274.87 293.489 274.771C293.397 274.67 293.351 274.518 293.351 274.315V273.394H293.013V273.152H293.351V272.686L293.665 272.599V273.152H294.155V273.394H293.665V274.288C293.665 274.421 293.688 274.517 293.734 274.574C293.783 274.63 293.852 274.657 293.941 274.657C293.987 274.657 294.027 274.654 294.059 274.647C294.093 274.638 294.124 274.627 294.152 274.616V274.875C294.118 274.889 294.077 274.899 294.031 274.906C293.987 274.915 293.945 274.92 293.903 274.92ZM294.485 274.889V273.152H294.799V274.889H294.485ZM294.457 272.772V272.434H294.83V272.772H294.457ZM295.988 274.92C295.836 274.92 295.702 274.884 295.587 274.813C295.472 274.741 295.382 274.638 295.318 274.502C295.253 274.366 295.221 274.205 295.221 274.019C295.221 273.832 295.253 273.672 295.318 273.539C295.382 273.403 295.472 273.299 295.587 273.228C295.702 273.156 295.836 273.121 295.988 273.121C296.142 273.121 296.275 273.16 296.388 273.238C296.503 273.314 296.579 273.419 296.616 273.552H296.575L296.613 273.152H296.917C296.91 273.221 296.903 273.29 296.896 273.359C296.891 273.428 296.889 273.496 296.889 273.563V274.889H296.575V274.492H296.613C296.576 274.623 296.5 274.728 296.385 274.806C296.272 274.882 296.14 274.92 295.988 274.92ZM296.06 274.671C296.217 274.671 296.342 274.616 296.437 274.505C296.531 274.395 296.578 274.233 296.578 274.019C296.578 273.804 296.531 273.643 296.437 273.535C296.342 273.427 296.217 273.373 296.06 273.373C295.904 273.373 295.777 273.427 295.68 273.535C295.586 273.643 295.539 273.804 295.539 274.019C295.539 274.233 295.586 274.395 295.68 274.505C295.775 274.616 295.901 274.671 296.06 274.671ZM298.065 274.92C297.883 274.92 297.745 274.87 297.65 274.771C297.558 274.67 297.512 274.518 297.512 274.315V273.394H297.174V273.152H297.512V272.686L297.826 272.599V273.152H298.317V273.394H297.826V274.288C297.826 274.421 297.849 274.517 297.895 274.574C297.944 274.63 298.013 274.657 298.103 274.657C298.149 274.657 298.188 274.654 298.22 274.647C298.254 274.638 298.286 274.627 298.313 274.616V274.875C298.279 274.889 298.238 274.899 298.192 274.906C298.149 274.915 298.106 274.92 298.065 274.92ZM299.361 274.92C299.191 274.92 299.044 274.884 298.919 274.813C298.795 274.739 298.698 274.635 298.629 274.502C298.56 274.366 298.526 274.205 298.526 274.019C298.526 273.834 298.56 273.676 298.629 273.542C298.698 273.406 298.795 273.303 298.919 273.231C299.044 273.158 299.191 273.121 299.361 273.121C299.532 273.121 299.679 273.158 299.803 273.231C299.93 273.303 300.027 273.406 300.093 273.542C300.162 273.676 300.197 273.834 300.197 274.019C300.197 274.205 300.162 274.366 300.093 274.502C300.027 274.635 299.93 274.739 299.803 274.813C299.679 274.884 299.532 274.92 299.361 274.92ZM299.361 274.671C299.518 274.671 299.643 274.616 299.738 274.505C299.832 274.395 299.879 274.233 299.879 274.019C299.879 273.804 299.832 273.643 299.738 273.535C299.643 273.427 299.518 273.373 299.361 273.373C299.203 273.373 299.076 273.427 298.982 273.535C298.889 273.643 298.843 273.804 298.843 274.019C298.843 274.233 298.889 274.395 298.982 274.505C299.076 274.616 299.203 274.671 299.361 274.671ZM300.615 274.889V273.577C300.615 273.507 300.613 273.437 300.609 273.366C300.606 273.292 300.6 273.221 300.591 273.152H300.895L300.933 273.587L300.881 273.59C300.904 273.484 300.943 273.397 300.999 273.328C301.056 273.257 301.124 273.205 301.202 273.173C301.283 273.138 301.366 273.121 301.451 273.121C301.488 273.121 301.519 273.122 301.544 273.124C301.57 273.126 301.595 273.132 301.62 273.141L301.613 273.421C301.579 273.407 301.547 273.399 301.517 273.397C301.489 273.392 301.455 273.39 301.413 273.39C301.312 273.39 301.224 273.413 301.151 273.459C301.079 273.505 301.024 273.566 300.985 273.642C300.948 273.718 300.93 273.8 300.93 273.887V274.889H300.615Z" fill="black"/>
<path d="M334.951 273.293C334.948 273.206 334.916 273.132 334.849 273.065L332.922 271.18C332.865 271.125 332.798 271.096 332.716 271.096C332.55 271.096 332.421 271.225 332.421 271.391C332.421 271.47 332.453 271.544 332.51 271.601L334.244 273.293L332.51 274.985C332.453 275.042 332.421 275.114 332.421 275.196C332.421 275.362 332.55 275.491 332.716 275.491C332.795 275.491 332.865 275.461 332.922 275.406L334.849 273.519C334.918 273.454 334.951 273.38 334.951 273.293Z" fill="#CACACA"/>
<path d="M347.416 282.021H73.1484V282.515H347.416V282.021Z" fill="#DBDCE0" fill-opacity="0.5" mask="url(#path-106-inside-3_2458_8914)"/>
<rect x="73.0251" y="228.869" width="274.515" height="53.5217" stroke="#DBDCE0" stroke-width="0.246644"/>
</g>
</svg>
