<svg width="421" height="374" viewBox="0 0 421 374" fill="none" xmlns="http://www.w3.org/2000/svg">
<rect width="421" height="374" rx="10" fill="#DCFFEC"/>
<mask id="mask0_2593_19795" style="mask-type:alpha" maskUnits="userSpaceOnUse" x="0" y="0" width="421" height="374">
<rect width="421" height="374" fill="#F4E6FF"/>
</mask>
<g mask="url(#mask0_2593_19795)">
<g opacity="0.2">
<path d="M568.383 219.717C528.933 178.642 490.891 215.176 451.441 174.104C411.99 133.029 450.029 96.4925 410.576 55.4179C371.126 14.3431 333.085 50.8802 293.634 9.80547C254.184 -31.2692 292.223 -67.8062 252.77 -108.878C213.319 -149.953 175.278 -113.416 135.827 -154.491" stroke="#40196D" stroke-miterlimit="10"/>
<path d="M606.86 182.767C567.407 141.694 528.942 178.64 489.489 137.567C450.036 96.4928 488.504 59.545 449.053 18.4727C409.6 -22.6019 371.135 14.3458 331.682 -26.7288C292.229 -67.8035 330.699 -104.751 291.247 -145.823C251.794 -186.898 213.328 -149.95 173.875 -191.025" stroke="#40196D" stroke-miterlimit="10"/>
<path d="M644.899 146.23C605.446 105.158 567.407 141.693 527.956 100.618C488.504 59.5458 526.545 23.0062 487.092 -18.066C447.639 -59.1406 409.6 -22.6061 370.147 -63.6783C330.694 -104.753 368.736 -141.29 329.283 -182.365C289.83 -223.439 251.791 -186.902 212.341 -227.977" stroke="#40196D" stroke-miterlimit="10"/>
<path d="M568.383 219.717C528.933 178.642 490.891 215.176 451.441 174.104C411.99 133.029 450.029 96.4925 410.576 55.4179C371.126 14.3431 333.085 50.8802 293.634 9.80547C254.184 -31.2692 292.223 -67.8062 252.77 -108.878C213.319 -149.953 175.278 -113.416 135.827 -154.491" stroke="#40196D" stroke-miterlimit="10"/>
<path d="M606.86 182.767C567.407 141.694 528.942 178.64 489.489 137.567C450.036 96.4928 488.504 59.545 449.053 18.4727C409.6 -22.6019 371.135 14.3458 331.682 -26.7288C292.229 -67.8035 330.699 -104.751 291.247 -145.823C251.794 -186.898 213.328 -149.95 173.875 -191.025" stroke="#40196D" stroke-miterlimit="10"/>
<path d="M644.899 146.23C605.446 105.158 567.407 141.693 527.956 100.618C488.504 59.5458 526.545 23.0062 487.092 -18.066C447.639 -59.1406 409.6 -22.6061 370.147 -63.6783C330.694 -104.753 368.736 -141.29 329.283 -182.365C289.83 -223.439 251.791 -186.902 212.341 -227.977" stroke="#40196D" stroke-miterlimit="10"/>
<path d="M441.016 342.051C401.563 300.976 363.524 337.511 324.074 296.439C284.621 255.364 322.662 218.827 283.209 177.752C243.756 136.678 205.717 173.215 166.267 132.14C126.817 91.0653 164.853 54.5284 125.402 13.4536C85.9496 -27.6185 47.9083 8.91605 8.46031 -32.1587" stroke="#40196D" stroke-miterlimit="10"/>
<path d="M479.477 305.103C440.024 264.03 401.559 300.976 362.106 259.903C322.653 218.829 361.121 181.881 321.67 140.809C282.218 99.7341 243.752 136.682 204.299 95.6071C164.846 54.5325 203.317 17.5871 163.864 -23.4875C124.411 -64.5622 85.9455 -27.6145 46.4926 -68.6892" stroke="#40196D" stroke-miterlimit="10"/>
<path d="M517.528 268.566C478.075 227.492 440.036 264.029 400.585 222.954C361.132 181.882 399.171 145.342 359.721 104.267C320.268 63.1953 282.227 99.7299 242.779 58.6576C203.326 17.5829 241.365 -18.9566 201.912 -60.0287C162.461 -101.103 124.42 -64.5664 84.9696 -105.641" stroke="#40196D" stroke-miterlimit="10"/>
<path d="M323.336 458.639C283.883 417.564 245.844 454.101 206.394 413.026C166.941 371.954 204.98 335.415 165.529 294.34C126.077 253.268 88.0352 289.802 48.5872 248.727C9.13438 207.655 47.1732 171.116 7.72282 130.043C-31.7301 88.9688 -69.769 125.503 -109.222 84.4312" stroke="#40196D" stroke-miterlimit="10"/>
<path d="M361.801 421.69C322.351 380.616 283.883 417.563 244.43 376.489C204.98 335.414 243.447 298.469 203.995 257.394C164.542 216.319 126.076 253.267 86.6235 212.192C47.1707 171.12 85.6384 134.173 46.1879 93.0979C6.73511 52.0257 -31.7302 88.9709 -71.1831 47.8987" stroke="#40196D" stroke-miterlimit="10"/>
<path d="M399.84 385.157C360.387 344.082 322.348 380.616 282.898 339.544C243.445 298.47 281.484 261.933 242.031 220.858C202.58 179.783 164.539 216.32 125.089 175.246C85.6382 134.171 123.677 97.6339 84.2242 56.5592C44.7738 15.4869 6.73232 52.0215 -32.7181 10.9468" stroke="#40196D" stroke-miterlimit="10"/>
<path d="M323.336 458.639C283.883 417.564 245.844 454.101 206.394 413.026C166.941 371.954 204.98 335.415 165.529 294.34C126.077 253.268 88.0352 289.802 48.5872 248.727C9.13438 207.655 47.1732 171.116 7.72282 130.043C-31.7301 88.9688 -69.769 125.503 -109.222 84.4312" stroke="#40196D" stroke-miterlimit="10"/>
<path d="M361.801 421.69C322.351 380.616 283.883 417.563 244.43 376.489C204.98 335.414 243.447 298.469 203.995 257.394C164.542 216.319 126.076 253.267 86.6235 212.192C47.1707 171.12 85.6384 134.173 46.1879 93.0979C6.73511 52.0257 -31.7302 88.9709 -71.1831 47.8987" stroke="#40196D" stroke-miterlimit="10"/>
<path d="M399.84 385.157C360.387 344.082 322.348 380.616 282.898 339.544C243.445 298.47 281.484 261.933 242.031 220.858C202.58 179.783 164.539 216.32 125.089 175.246C85.6382 134.171 123.677 97.6339 84.2242 56.5592C44.7738 15.4869 6.73232 52.0215 -32.7181 10.9468" stroke="#40196D" stroke-miterlimit="10"/>
<path d="M195.969 580.976C156.516 539.902 118.477 576.439 79.0268 535.364C39.5739 494.292 77.6151 457.752 38.1622 416.678C-1.29059 375.605 -39.3295 412.14 -78.7799 371.068C-118.233 329.993 -80.194 293.454 -119.644 252.381C-159.097 211.307 -197.136 247.844 -236.587 206.769" stroke="#40196D" stroke-miterlimit="10"/>
<path d="M234.43 544.03C194.977 502.956 156.512 539.903 117.059 498.829C77.6061 457.754 116.076 420.809 76.6235 379.734C37.1706 338.659 -1.29473 375.607 -40.7476 334.532C-80.2005 293.46 -41.7327 256.512 -81.1831 215.438C-120.636 174.366 -159.101 211.311 -198.554 170.239" stroke="#40196D" stroke-miterlimit="10"/>
<path d="M272.469 507.49C233.016 466.415 194.977 502.952 155.527 461.878C116.074 420.803 154.113 384.266 114.662 343.191C75.2094 302.117 37.168 338.654 -2.27992 297.579C-41.7328 256.507 -3.69402 219.967 -43.1469 178.893C-82.5973 137.82 -120.639 174.355 -160.089 133.283" stroke="#40196D" stroke-miterlimit="10"/>
</g>
<g filter="url(#filter0_d_2593_19795)">
<rect x="63" y="43" width="297" height="289.354" rx="3.07241" fill="white"/>
<rect x="74.0347" y="64.6348" width="274.931" height="42.4286" rx="2.82857" fill="white"/>
<g filter="url(#filter1_d_2593_19795)">
<rect x="91.0059" y="73.1211" width="22.6286" height="25.4571" rx="2.82857" fill="white"/>
<path d="M98.6832 85.3582H99.6106C99.7046 85.3582 99.7848 85.3233 99.8513 85.2534C99.9198 85.1815 99.954 85.0973 99.954 85.0008C99.954 84.9063 99.9198 84.8231 99.8513 84.7512C99.7828 84.6793 99.7026 84.6433 99.6106 84.6433H98.6832C98.5913 84.6433 98.511 84.6793 98.4426 84.7512C98.376 84.821 98.3428 84.9042 98.3428 85.0008C98.3428 85.0973 98.376 85.1815 98.4426 85.2534C98.511 85.3233 98.5913 85.3582 98.6832 85.3582ZM100.942 83.3953C101.006 83.3276 101.039 83.2444 101.039 83.1458C101.039 83.0471 101.005 82.9629 100.939 82.8931L100.287 82.2028C100.223 82.1351 100.142 82.1012 100.047 82.1012C99.9527 82.0991 99.8724 82.133 99.8059 82.2028C99.7413 82.2706 99.7091 82.3538 99.7091 82.4524C99.711 82.551 99.7443 82.6353 99.8088 82.7051L100.46 83.3953C100.527 83.4652 100.607 83.5001 100.701 83.5001C100.795 83.5001 100.875 83.4652 100.942 83.3953ZM102.556 82.7667C102.648 82.7667 102.727 82.7318 102.794 82.662C102.86 82.5921 102.893 82.5089 102.893 82.4124V81.4417C102.893 81.3411 102.86 81.2558 102.794 81.186C102.727 81.1141 102.648 81.0781 102.556 81.0781C102.464 81.0781 102.384 81.1141 102.315 81.186C102.249 81.2579 102.215 81.3431 102.215 81.4417V82.4124C102.215 82.5089 102.249 82.5921 102.315 82.662C102.382 82.7318 102.462 82.7667 102.556 82.7667ZM104.167 83.3953C104.232 83.4652 104.311 83.5001 104.405 83.5001C104.501 83.5001 104.581 83.4652 104.646 83.3953L105.297 82.7051C105.364 82.6353 105.397 82.551 105.397 82.4524C105.399 82.3538 105.367 82.2706 105.3 82.2028C105.235 82.133 105.155 82.0991 105.059 82.1012C104.965 82.1012 104.885 82.1361 104.819 82.2059L104.167 82.8931C104.103 82.9629 104.07 83.0471 104.07 83.1458C104.07 83.2444 104.103 83.3276 104.167 83.3953ZM105.498 85.3582H106.426C106.516 85.3582 106.595 85.3233 106.663 85.2534C106.732 85.1815 106.766 85.0973 106.766 85.0008C106.766 84.9042 106.732 84.821 106.663 84.7512C106.595 84.6793 106.516 84.6433 106.426 84.6433H105.498C105.406 84.6433 105.326 84.6793 105.258 84.7512C105.189 84.8231 105.155 84.9063 105.155 85.0008C105.155 85.0973 105.188 85.1815 105.255 85.2534C105.323 85.3233 105.404 85.3582 105.498 85.3582Z" fill="#FFC83E"/>
<path d="M101.541 89.0161H103.645C103.711 89.0161 103.765 88.9945 103.806 88.9513C103.849 88.9062 103.871 88.8486 103.871 88.7788V88.3566C103.871 88.2149 103.904 88.0814 103.971 87.956C104.037 87.8307 104.119 87.7013 104.217 87.5678C104.317 87.4343 104.416 87.2894 104.514 87.1333C104.613 86.9751 104.697 86.7964 104.763 86.5971C104.83 86.3958 104.863 86.1637 104.863 85.9007C104.863 85.5495 104.808 85.23 104.699 84.9424C104.591 84.6528 104.436 84.4042 104.235 84.1967C104.035 83.9872 103.797 83.827 103.519 83.716C103.241 83.603 102.932 83.5465 102.591 83.5465C102.253 83.5465 101.945 83.603 101.667 83.716C101.389 83.827 101.149 83.9872 100.948 84.1967C100.746 84.4042 100.592 84.6528 100.484 84.9424C100.376 85.23 100.323 85.5495 100.323 85.9007C100.323 86.1637 100.356 86.3958 100.422 86.5971C100.489 86.7964 100.571 86.9751 100.669 87.1333C100.769 87.2894 100.868 87.4343 100.965 87.5678C101.063 87.7013 101.145 87.8307 101.212 87.956C101.28 88.0814 101.315 88.2149 101.315 88.3566V88.7788C101.315 88.8486 101.335 88.9062 101.376 88.9513C101.419 88.9945 101.474 89.0161 101.541 89.0161ZM102.591 90.6246C102.808 90.6246 102.988 90.5753 103.131 90.4766C103.274 90.3801 103.353 90.2527 103.369 90.0946H101.817C101.83 90.2527 101.907 90.3801 102.048 90.4766C102.191 90.5753 102.372 90.6246 102.591 90.6246ZM101.596 89.8604H103.592C103.672 89.8604 103.741 89.8295 103.798 89.7679C103.854 89.7083 103.883 89.6375 103.883 89.5553C103.883 89.4711 103.854 89.3982 103.798 89.3365C103.741 89.2769 103.672 89.2472 103.592 89.2472H101.596C101.514 89.2472 101.445 89.2769 101.388 89.3365C101.331 89.3982 101.303 89.4711 101.303 89.5553C101.303 89.6375 101.331 89.7083 101.388 89.7679C101.445 89.8295 101.514 89.8604 101.596 89.8604Z" fill="#FFC83E"/>
</g>
<path d="M129.881 89.3496V81.8716H135.248V83.3672H131.758V84.7991H134.994V86.3054H131.758V87.8434H135.248V89.3496H129.881ZM136.166 89.3496V81.5428H138.054V89.3496H136.166ZM142.065 89.4663C141.089 89.4663 140.328 89.2153 139.784 88.7132C139.247 88.2111 138.978 87.5216 138.978 86.6448C138.978 86.1003 139.091 85.6159 139.317 85.1916C139.544 84.7673 139.862 84.4385 140.272 84.2051C140.682 83.9647 141.163 83.8445 141.714 83.8445C142.259 83.8445 142.712 83.9647 143.072 84.2051C143.44 84.4385 143.716 84.7638 143.9 85.181C144.083 85.5911 144.175 86.0685 144.175 86.613V87.016H140.558V86.125H142.786L142.605 86.2735C142.605 85.8705 142.528 85.5735 142.372 85.3825C142.224 85.1845 142.011 85.0855 141.736 85.0855C141.417 85.0855 141.174 85.2058 141.004 85.4462C140.841 85.6795 140.76 86.0331 140.76 86.5069V86.6978C140.76 87.1716 140.877 87.5181 141.11 87.7373C141.343 87.9565 141.679 88.0661 142.118 88.0661C142.4 88.0661 142.666 88.0343 142.913 87.9707C143.168 87.907 143.408 87.8045 143.634 87.6631L144.122 88.8935C143.854 89.0774 143.542 89.2188 143.189 89.3178C142.835 89.4168 142.461 89.4663 142.065 89.4663ZM147.8 89.4663C147.206 89.4663 146.687 89.3531 146.241 89.1269C145.796 88.9006 145.449 88.5788 145.202 88.1616C144.954 87.7373 144.83 87.2317 144.83 86.6448C144.83 86.0579 144.954 85.5558 145.202 85.1386C145.449 84.7214 145.796 84.4031 146.241 84.1839C146.687 83.9576 147.206 83.8445 147.8 83.8445C148.168 83.8445 148.529 83.894 148.882 83.993C149.236 84.092 149.522 84.2334 149.742 84.4173L149.211 85.7008C149.041 85.5593 148.847 85.4533 148.628 85.3825C148.416 85.3048 148.207 85.2659 148.002 85.2659C147.613 85.2659 147.309 85.3825 147.09 85.6159C146.878 85.8493 146.772 86.1922 146.772 86.6448C146.772 87.0974 146.878 87.4439 147.09 87.6843C147.309 87.9176 147.613 88.0343 148.002 88.0343C148.2 88.0343 148.409 87.999 148.628 87.9283C148.847 87.8505 149.041 87.7444 149.211 87.61L149.742 88.8935C149.515 89.0703 149.225 89.2117 148.872 89.3178C148.525 89.4168 148.168 89.4663 147.8 89.4663ZM153.322 89.4663C152.559 89.4663 151.982 89.286 151.593 88.9253C151.211 88.5576 151.02 88.0025 151.02 87.26V85.3507H150.013V83.9612H151.02V82.6883L152.909 82.2428V83.9612H154.224V85.3507H152.909V87.1858C152.909 87.4969 152.979 87.7055 153.121 87.8116C153.262 87.9106 153.432 87.9601 153.63 87.9601C153.75 87.9601 153.853 87.953 153.937 87.9389C154.029 87.9176 154.125 87.8894 154.224 87.854V89.3072C154.068 89.3708 153.913 89.4133 153.757 89.4345C153.609 89.4557 153.464 89.4663 153.322 89.4663ZM154.956 89.3496V85.4356C154.956 85.1881 154.949 84.9406 154.935 84.6931C154.921 84.4456 154.9 84.2016 154.872 83.9612H156.696L156.898 85.6159H156.611C156.682 85.2128 156.795 84.8805 156.951 84.6188C157.106 84.3572 157.301 84.1627 157.534 84.0354C157.767 83.9081 158.043 83.8445 158.361 83.8445C158.51 83.8445 158.619 83.8516 158.69 83.8657C158.768 83.8728 158.849 83.894 158.934 83.9294V85.5841C158.757 85.5063 158.616 85.4568 158.51 85.4356C158.404 85.4144 158.266 85.4038 158.096 85.4038C157.806 85.4038 157.569 85.4568 157.385 85.5629C157.202 85.6619 157.067 85.8174 156.982 86.0296C156.905 86.2417 156.866 86.514 156.866 86.8463V89.3496H154.956ZM159.504 89.3496V83.9612H161.392V89.3496H159.504ZM159.461 83.1975V81.5003H161.445V83.1975H159.461ZM165.286 89.4663C164.692 89.4663 164.172 89.3531 163.726 89.1269C163.281 88.9006 162.934 88.5788 162.687 88.1616C162.439 87.7373 162.316 87.2317 162.316 86.6448C162.316 86.0579 162.439 85.5558 162.687 85.1386C162.934 84.7214 163.281 84.4031 163.726 84.1839C164.172 83.9576 164.692 83.8445 165.286 83.8445C165.653 83.8445 166.014 83.894 166.368 83.993C166.721 84.092 167.008 84.2334 167.227 84.4173L166.696 85.7008C166.527 85.5593 166.332 85.4533 166.113 85.3825C165.901 85.3048 165.692 85.2659 165.487 85.2659C165.098 85.2659 164.794 85.3825 164.575 85.6159C164.363 85.8493 164.257 86.1922 164.257 86.6448C164.257 87.0974 164.363 87.4439 164.575 87.6843C164.794 87.9176 165.098 88.0343 165.487 88.0343C165.685 88.0343 165.894 87.999 166.113 87.9283C166.332 87.8505 166.527 87.7444 166.696 87.61L167.227 88.8935C167 89.0703 166.711 89.2117 166.357 89.3178C166.01 89.4168 165.653 89.4663 165.286 89.4663ZM168.008 89.3496V83.9612H169.896V89.3496H168.008ZM167.966 83.1975V81.5003H169.949V83.1975H167.966ZM173.822 89.4663C173.058 89.4663 172.482 89.286 172.093 88.9253C171.711 88.5576 171.52 88.0025 171.52 87.26V85.3507H170.512V83.9612H171.52V82.6883L173.408 82.2428V83.9612H174.723V85.3507H173.408V87.1858C173.408 87.4969 173.479 87.7055 173.62 87.8116C173.762 87.9106 173.931 87.9601 174.129 87.9601C174.25 87.9601 174.352 87.953 174.437 87.9389C174.529 87.9176 174.624 87.8894 174.723 87.854V89.3072C174.568 89.3708 174.412 89.4133 174.257 89.4345C174.108 89.4557 173.963 89.4663 173.822 89.4663ZM175.57 91.7574L175.125 90.2936C175.464 90.23 175.747 90.1593 175.973 90.0815C176.207 90.0108 176.398 89.9118 176.546 89.7845C176.695 89.6572 176.811 89.491 176.896 89.286L177.161 88.6708L177.119 89.3814L174.764 83.9612H176.758L178.137 87.5358H177.787L179.209 83.9612H181.076L178.657 89.4663C178.466 89.8976 178.261 90.2512 178.042 90.527C177.83 90.8028 177.596 91.022 177.342 91.1846C177.094 91.3473 176.822 91.4675 176.525 91.5453C176.235 91.6301 175.917 91.7009 175.57 91.7574Z" fill="black"/>
<path d="M320.68 89.7579L321.75 90.7988L327.044 85.6584L321.75 80.5181L320.68 81.559L324.899 85.6584L320.68 89.7579Z" fill="#CACACA"/>
<rect x="74.0347" y="115.549" width="274.931" height="42.4286" rx="2.82857" fill="white"/>
<g filter="url(#filter2_d_2593_19795)">
<rect x="91.0059" y="124.035" width="22.6286" height="25.4571" rx="2.82857" fill="white"/>
<path d="M102.324 140.401C102.39 140.401 102.454 140.383 102.514 140.348C102.577 140.316 102.653 140.259 102.741 140.178L103.727 139.239C103.779 139.191 103.808 139.132 103.814 139.061C103.822 138.989 103.801 138.922 103.752 138.863C103.584 138.658 103.372 138.496 103.116 138.378C102.863 138.256 102.599 138.195 102.324 138.195C102.047 138.195 101.776 138.26 101.512 138.39C101.248 138.519 101.03 138.696 100.86 138.92C100.824 138.968 100.815 139.024 100.831 139.086C100.848 139.145 100.879 139.196 100.926 139.239L101.912 140.178C102 140.259 102.075 140.316 102.139 140.348C102.202 140.383 102.264 140.401 102.324 140.401ZM99.8865 138.147C99.9525 138.209 100.027 138.239 100.109 138.236C100.192 138.233 100.265 138.198 100.328 138.131C100.584 137.874 100.887 137.672 101.239 137.524C101.594 137.375 101.954 137.301 102.32 137.301C102.692 137.301 103.056 137.378 103.413 137.532C103.774 137.683 104.083 137.888 104.342 138.147C104.399 138.209 104.467 138.24 104.544 138.24C104.621 138.237 104.691 138.206 104.754 138.147L105.402 137.552C105.457 137.503 105.486 137.448 105.488 137.386C105.494 137.321 105.473 137.262 105.426 137.208C105.201 136.954 104.925 136.733 104.597 136.544C104.27 136.353 103.913 136.206 103.525 136.103C103.137 135.998 102.736 135.945 102.32 135.945C101.91 135.945 101.51 135.998 101.12 136.103C100.729 136.206 100.37 136.353 100.043 136.544C99.7187 136.733 99.4451 136.954 99.2223 137.208C99.1701 137.262 99.1467 137.321 99.1522 137.386C99.1577 137.448 99.188 137.503 99.243 137.552L99.8865 138.147ZM98.2117 136.577C98.2722 136.636 98.3437 136.666 98.4262 136.666C98.5115 136.663 98.583 136.629 98.6407 136.565C99.1357 136.057 99.694 135.673 100.315 135.411C100.94 135.147 101.608 135.015 102.32 135.015C103.044 135.015 103.717 135.147 104.342 135.411C104.966 135.676 105.523 136.064 106.012 136.577C106.07 136.633 106.14 136.66 106.223 136.658C106.305 136.655 106.375 136.624 106.433 136.565L107.01 135.994C107.063 135.943 107.09 135.882 107.093 135.812C107.098 135.742 107.078 135.681 107.031 135.63C106.69 135.217 106.269 134.858 105.769 134.553C105.271 134.246 104.725 134.007 104.131 133.837C103.54 133.667 102.936 133.582 102.32 133.582C101.707 133.582 101.105 133.667 100.513 133.837C99.9222 134.007 99.3763 134.246 98.8758 134.553C98.3753 134.858 97.956 135.217 97.6177 135.63C97.5682 135.681 97.5448 135.742 97.5476 135.812C97.5531 135.882 97.582 135.943 97.6342 135.994L98.2117 136.577Z" fill="#48D38A"/>
</g>
<path d="M129.881 140.264V132.786H131.843V140.264H129.881ZM133.121 140.264V136.339C133.121 136.099 133.114 135.855 133.099 135.607C133.085 135.36 133.064 135.116 133.036 134.875H134.86L134.966 135.809H134.85C135.026 135.469 135.277 135.211 135.603 135.034C135.928 134.85 136.296 134.759 136.706 134.759C137.335 134.759 137.805 134.946 138.117 135.321C138.435 135.688 138.594 136.265 138.594 137.05V140.264H136.706V137.135C136.706 136.788 136.646 136.548 136.526 136.413C136.405 136.272 136.232 136.201 136.006 136.201C135.709 136.201 135.468 136.3 135.284 136.498C135.101 136.689 135.009 136.944 135.009 137.262V140.264H133.121ZM142.487 140.38C141.723 140.38 141.147 140.2 140.758 139.839C140.376 139.472 140.185 138.917 140.185 138.174V136.265H139.178V134.875H140.185V133.602L142.074 133.157V134.875H143.389V136.265H142.074V138.1C142.074 138.411 142.144 138.62 142.286 138.726C142.427 138.825 142.597 138.874 142.795 138.874C142.915 138.874 143.018 138.867 143.102 138.853C143.194 138.832 143.29 138.803 143.389 138.768V140.221C143.233 140.285 143.078 140.327 142.922 140.349C142.774 140.37 142.629 140.38 142.487 140.38ZM146.912 140.38C145.936 140.38 145.176 140.129 144.632 139.627C144.094 139.125 143.826 138.436 143.826 137.559C143.826 137.014 143.939 136.53 144.165 136.106C144.391 135.681 144.71 135.353 145.12 135.119C145.53 134.879 146.011 134.759 146.562 134.759C147.107 134.759 147.559 134.879 147.92 135.119C148.288 135.353 148.563 135.678 148.747 136.095C148.931 136.505 149.023 136.983 149.023 137.527V137.93H145.406V137.039H147.634L147.453 137.188C147.453 136.785 147.375 136.488 147.22 136.297C147.071 136.099 146.859 136 146.583 136C146.265 136 146.021 136.12 145.852 136.36C145.689 136.594 145.608 136.947 145.608 137.421V137.612C145.608 138.086 145.724 138.432 145.958 138.651C146.191 138.871 146.527 138.98 146.965 138.98C147.248 138.98 147.513 138.948 147.761 138.885C148.015 138.821 148.256 138.719 148.482 138.577L148.97 139.808C148.701 139.991 148.39 140.133 148.037 140.232C147.683 140.331 147.308 140.38 146.912 140.38ZM149.922 140.264V136.35C149.922 136.102 149.915 135.855 149.901 135.607C149.887 135.36 149.866 135.116 149.837 134.875H151.662L151.863 136.53H151.577C151.648 136.127 151.761 135.795 151.916 135.533C152.072 135.271 152.266 135.077 152.5 134.949C152.733 134.822 153.009 134.759 153.327 134.759C153.476 134.759 153.585 134.766 153.656 134.78C153.734 134.787 153.815 134.808 153.9 134.843V136.498C153.723 136.42 153.582 136.371 153.476 136.35C153.369 136.328 153.232 136.318 153.062 136.318C152.772 136.318 152.535 136.371 152.351 136.477C152.167 136.576 152.033 136.731 151.948 136.944C151.87 137.156 151.831 137.428 151.831 137.76V140.264H149.922ZM154.47 140.264V136.339C154.47 136.099 154.462 135.855 154.448 135.607C154.434 135.36 154.413 135.116 154.385 134.875H156.209L156.315 135.809H156.199C156.375 135.469 156.626 135.211 156.952 135.034C157.277 134.85 157.645 134.759 158.055 134.759C158.684 134.759 159.154 134.946 159.466 135.321C159.784 135.688 159.943 136.265 159.943 137.05V140.264H158.055V137.135C158.055 136.788 157.995 136.548 157.874 136.413C157.754 136.272 157.581 136.201 157.355 136.201C157.058 136.201 156.817 136.3 156.633 136.498C156.45 136.689 156.358 136.944 156.358 137.262V140.264H154.47ZM163.921 140.38C162.945 140.38 162.185 140.129 161.64 139.627C161.103 139.125 160.834 138.436 160.834 137.559C160.834 137.014 160.947 136.53 161.174 136.106C161.4 135.681 161.718 135.353 162.128 135.119C162.539 134.879 163.019 134.759 163.571 134.759C164.115 134.759 164.568 134.879 164.929 135.119C165.296 135.353 165.572 135.678 165.756 136.095C165.94 136.505 166.032 136.983 166.032 137.527V137.93H162.415V137.039H164.642L164.462 137.188C164.462 136.785 164.384 136.488 164.229 136.297C164.08 136.099 163.868 136 163.592 136C163.274 136 163.03 136.12 162.86 136.36C162.698 136.594 162.616 136.947 162.616 137.421V137.612C162.616 138.086 162.733 138.432 162.966 138.651C163.2 138.871 163.536 138.98 163.974 138.98C164.257 138.98 164.522 138.948 164.77 138.885C165.024 138.821 165.265 138.719 165.491 138.577L165.979 139.808C165.71 139.991 165.399 140.133 165.045 140.232C164.692 140.331 164.317 140.38 163.921 140.38ZM169.647 140.38C168.884 140.38 168.307 140.2 167.918 139.839C167.536 139.472 167.346 138.917 167.346 138.174V136.265H166.338V134.875H167.346V133.602L169.234 133.157V134.875H170.549V136.265H169.234V138.1C169.234 138.411 169.304 138.62 169.446 138.726C169.587 138.825 169.757 138.874 169.955 138.874C170.075 138.874 170.178 138.867 170.263 138.853C170.354 138.832 170.45 138.803 170.549 138.768V140.221C170.393 140.285 170.238 140.327 170.082 140.349C169.934 140.37 169.789 140.38 169.647 140.38Z" fill="black"/>
<path d="M320.68 140.672L321.75 141.713L327.044 136.573L321.75 131.432L320.68 132.473L324.899 136.573L320.68 140.672Z" fill="#CACACA"/>
<rect x="74.0347" y="166.463" width="274.931" height="42.4286" rx="2.82857" fill="white"/>
<g filter="url(#filter3_d_2593_19795)">
<rect x="91.0059" y="174.949" width="22.6286" height="25.4571" rx="2.82857" fill="white"/>
<path d="M104.899 186.072H102.906L104.496 183.96C104.541 183.901 104.56 183.827 104.549 183.754C104.539 183.681 104.5 183.615 104.441 183.571C104.412 183.549 104.379 183.533 104.343 183.524C104.308 183.515 104.271 183.513 104.235 183.518C104.162 183.529 104.096 183.568 104.052 183.627L102.845 185.245L102.351 185.889L100.655 183.627C100.633 183.597 100.606 183.573 100.575 183.554C100.543 183.536 100.508 183.524 100.472 183.518C100.436 183.513 100.4 183.515 100.364 183.524C100.329 183.533 100.296 183.549 100.267 183.571C100.208 183.615 100.169 183.681 100.158 183.754C100.148 183.827 100.167 183.901 100.211 183.96L101.801 186.072H99.742C99.4476 186.072 99.1652 186.189 98.957 186.397C98.7488 186.605 98.6318 186.888 98.6318 187.182V190.732C98.6318 191.026 98.7488 191.309 98.957 191.517C99.1652 191.725 99.4476 191.842 99.742 191.842H104.899C105.193 191.842 105.476 191.725 105.684 191.517C105.892 191.309 106.009 191.026 106.009 190.732V187.182C106.009 186.888 105.892 186.605 105.684 186.397C105.476 186.189 105.193 186.072 104.899 186.072ZM101.454 188.919C101.418 188.92 101.382 188.913 101.348 188.899C101.314 188.885 101.283 188.865 101.257 188.839C101.231 188.813 101.211 188.782 101.197 188.749C101.183 188.715 101.175 188.679 101.175 188.642C101.175 188.605 101.183 188.569 101.197 188.535C101.211 188.501 101.231 188.471 101.257 188.445L101.929 187.776C101.954 187.747 101.985 187.723 102.019 187.707C102.053 187.69 102.091 187.681 102.129 187.679C102.167 187.678 102.206 187.684 102.241 187.698C102.277 187.712 102.309 187.733 102.336 187.76C102.363 187.787 102.384 187.82 102.398 187.855C102.412 187.891 102.419 187.929 102.417 187.967C102.416 188.005 102.406 188.043 102.39 188.077C102.373 188.112 102.349 188.142 102.32 188.167L101.652 188.839C101.626 188.865 101.595 188.885 101.561 188.899C101.527 188.913 101.491 188.92 101.454 188.919ZM104.144 188.456L102.298 190.304C102.272 190.33 102.242 190.351 102.208 190.365C102.174 190.379 102.138 190.386 102.101 190.386C102.065 190.386 102.028 190.379 101.994 190.365C101.961 190.351 101.93 190.33 101.904 190.304C101.878 190.279 101.857 190.248 101.843 190.214C101.829 190.18 101.822 190.144 101.822 190.107C101.822 190.071 101.829 190.034 101.843 190.001C101.857 189.967 101.878 189.936 101.904 189.91L103.753 188.065C103.777 188.036 103.808 188.012 103.842 187.995C103.877 187.979 103.914 187.969 103.953 187.968C103.991 187.966 104.029 187.973 104.065 187.987C104.1 188.001 104.133 188.022 104.16 188.049C104.187 188.076 104.208 188.108 104.222 188.144C104.236 188.18 104.242 188.218 104.241 188.256C104.239 188.294 104.23 188.332 104.213 188.366C104.197 188.4 104.173 188.431 104.144 188.456Z" fill="#1DCBEF"/>
</g>
<path d="M131.589 191.178V185.28H129.319V183.7H135.821V185.28H133.551V191.178H131.589ZM139.324 191.178L135.93 183.7H138.03L140.448 189.385H139.865L142.273 183.7H144.299L140.905 191.178H139.324Z" fill="black"/>
<path d="M320.68 191.586L321.75 192.627L327.044 187.487L321.75 182.346L320.68 183.387L324.899 187.487L320.68 191.586Z" fill="#CACACA"/>
<rect x="74.0347" y="217.377" width="274.931" height="42.4286" rx="2.82857" fill="#F9F9F9"/>
<g filter="url(#filter4_d_2593_19795)">
<rect x="91.0059" y="225.863" width="22.6286" height="25.4571" rx="2.82857" fill="white"/>
<path fill-rule="evenodd" clip-rule="evenodd" d="M107.094 237.283C107.094 236.99 106.858 236.75 106.569 236.75H105.941L105.486 235.547C105.372 235.248 105.032 234.931 104.729 234.843C104.707 234.837 103.92 234.615 102.321 234.615C100.698 234.615 99.9119 234.843 99.9119 234.843C99.609 234.931 99.2687 235.248 99.1556 235.547L98.7003 236.75H98.0724C97.7836 236.75 97.5474 236.99 97.5474 237.283C97.5474 237.577 97.7836 237.817 98.0724 237.817H98.2964L98.1349 238.244C98.0217 238.542 97.9292 239.049 97.9292 239.369V241.891C97.9292 242.265 98.2299 242.571 98.5975 242.571C98.965 242.571 99.2657 242.265 99.2657 241.891V241.503H105.375V241.891C105.375 242.265 105.676 242.571 106.044 242.571C106.411 242.571 106.712 242.265 106.712 241.891V239.369C106.712 239.049 106.619 238.542 106.506 238.244L106.345 237.817H106.569C106.858 237.817 107.094 237.577 107.094 237.283ZM99.3365 239.786C99.007 239.786 98.7399 239.519 98.7399 239.19C98.7399 238.86 99.007 238.593 99.3365 238.593C99.666 238.593 99.9332 238.86 99.9332 239.19C99.9332 239.519 99.666 239.786 99.3365 239.786ZM105.104 239.19C105.104 239.519 105.371 239.786 105.701 239.786C106.03 239.786 106.297 239.519 106.297 239.19C106.297 238.86 106.03 238.593 105.701 238.593C105.371 238.593 105.104 238.86 105.104 239.19Z" fill="#1DCBEF"/>
</g>
<path d="M131.589 242.092V236.194H129.319V234.614H135.821V236.194H133.551V242.092H131.589ZM135.7 242.092V238.178C135.7 237.93 135.693 237.683 135.679 237.435C135.665 237.188 135.643 236.944 135.615 236.703H137.439L137.641 238.358H137.355C137.425 237.955 137.538 237.623 137.694 237.361C137.85 237.099 138.044 236.905 138.277 236.778C138.511 236.65 138.787 236.587 139.105 236.587C139.253 236.587 139.363 236.594 139.434 236.608C139.511 236.615 139.593 236.636 139.678 236.672V238.326C139.501 238.248 139.359 238.199 139.253 238.178C139.147 238.157 139.009 238.146 138.84 238.146C138.55 238.146 138.313 238.199 138.129 238.305C137.945 238.404 137.811 238.56 137.726 238.772C137.648 238.984 137.609 239.256 137.609 239.589V242.092H135.7ZM142.317 242.208C141.85 242.208 141.44 242.099 141.086 241.88C140.733 241.653 140.454 241.328 140.249 240.904C140.051 240.48 139.952 239.977 139.952 239.398C139.952 238.811 140.051 238.309 140.249 237.891C140.454 237.467 140.733 237.145 141.086 236.926C141.44 236.7 141.85 236.587 142.317 236.587C142.734 236.587 143.109 236.686 143.441 236.884C143.781 237.082 144.003 237.34 144.11 237.658H144.003L144.12 236.703H145.934C145.913 236.944 145.892 237.188 145.87 237.435C145.856 237.683 145.849 237.927 145.849 238.167V242.092H143.982L143.961 241.18H144.088C143.982 241.491 143.759 241.742 143.42 241.933C143.088 242.117 142.72 242.208 142.317 242.208ZM142.922 240.808C143.24 240.808 143.498 240.699 143.696 240.48C143.894 240.253 143.993 239.893 143.993 239.398C143.993 238.903 143.894 238.545 143.696 238.326C143.498 238.1 143.24 237.987 142.922 237.987C142.603 237.987 142.345 238.1 142.147 238.326C141.949 238.545 141.85 238.903 141.85 239.398C141.85 239.893 141.946 240.253 142.137 240.48C142.335 240.699 142.596 240.808 142.922 240.808ZM147.022 242.092V238.167C147.022 237.927 147.015 237.683 147.001 237.435C146.986 237.188 146.965 236.944 146.937 236.703H148.761L148.867 237.637H148.751C148.928 237.297 149.179 237.039 149.504 236.862C149.829 236.679 150.197 236.587 150.607 236.587C151.236 236.587 151.707 236.774 152.018 237.149C152.336 237.517 152.495 238.093 152.495 238.878V242.092H150.607V238.963C150.607 238.616 150.547 238.376 150.427 238.241C150.306 238.1 150.133 238.029 149.907 238.029C149.61 238.029 149.369 238.128 149.186 238.326C149.002 238.517 148.91 238.772 148.91 239.09V242.092H147.022ZM155.699 242.208C155.197 242.208 154.741 242.159 154.331 242.06C153.928 241.954 153.585 241.812 153.302 241.636L153.758 240.405C154.034 240.561 154.341 240.688 154.681 240.787C155.027 240.886 155.37 240.936 155.71 240.936C155.978 240.936 156.173 240.897 156.293 240.819C156.42 240.734 156.484 240.624 156.484 240.49C156.484 240.384 156.445 240.299 156.367 240.236C156.289 240.172 156.173 240.126 156.017 240.098L154.872 239.896C154.419 239.811 154.065 239.645 153.811 239.398C153.563 239.143 153.44 238.814 153.44 238.411C153.44 238.043 153.539 237.725 153.737 237.456C153.935 237.181 154.217 236.969 154.585 236.82C154.953 236.664 155.388 236.587 155.89 236.587C156.3 236.587 156.689 236.633 157.057 236.725C157.431 236.817 157.757 236.961 158.032 237.159L157.545 238.358C157.325 238.21 157.067 238.089 156.77 237.997C156.48 237.898 156.208 237.849 155.953 237.849C155.649 237.849 155.434 237.895 155.306 237.987C155.179 238.072 155.116 238.178 155.116 238.305C155.116 238.404 155.151 238.489 155.222 238.56C155.292 238.623 155.405 238.669 155.561 238.698L156.707 238.899C157.173 238.977 157.53 239.139 157.778 239.387C158.032 239.627 158.16 239.956 158.16 240.373C158.16 240.762 158.054 241.095 157.842 241.371C157.636 241.639 157.35 241.848 156.982 241.996C156.615 242.138 156.187 242.208 155.699 242.208ZM158.996 244.383V238.167C158.996 237.927 158.989 237.683 158.975 237.435C158.961 237.188 158.94 236.944 158.911 236.703H160.736L160.852 237.658H160.746C160.845 237.34 161.065 237.082 161.404 236.884C161.743 236.686 162.122 236.587 162.539 236.587C163.006 236.587 163.416 236.7 163.769 236.926C164.123 237.145 164.399 237.467 164.597 237.891C164.802 238.309 164.904 238.811 164.904 239.398C164.904 239.977 164.802 240.48 164.597 240.904C164.399 241.328 164.123 241.653 163.769 241.88C163.416 242.099 163.006 242.208 162.539 242.208C162.129 242.208 161.758 242.117 161.425 241.933C161.093 241.742 160.874 241.491 160.768 241.18H160.884V244.383H158.996ZM161.934 240.808C162.26 240.808 162.518 240.699 162.709 240.48C162.907 240.253 163.006 239.893 163.006 239.398C163.006 238.903 162.907 238.545 162.709 238.326C162.518 238.1 162.26 237.987 161.934 237.987C161.616 237.987 161.358 238.1 161.16 238.326C160.962 238.545 160.863 238.903 160.863 239.398C160.863 239.893 160.962 240.253 161.16 240.48C161.358 240.699 161.616 240.808 161.934 240.808ZM168.517 242.208C167.916 242.208 167.396 242.095 166.957 241.869C166.519 241.643 166.18 241.321 165.939 240.904C165.699 240.48 165.579 239.977 165.579 239.398C165.579 238.811 165.699 238.309 165.939 237.891C166.18 237.474 166.519 237.152 166.957 236.926C167.396 236.7 167.916 236.587 168.517 236.587C169.111 236.587 169.627 236.7 170.065 236.926C170.504 237.152 170.843 237.478 171.084 237.902C171.324 238.319 171.444 238.818 171.444 239.398C171.444 239.97 171.324 240.469 171.084 240.893C170.843 241.317 170.504 241.643 170.065 241.869C169.627 242.095 169.111 242.208 168.517 242.208ZM168.517 240.808C168.828 240.808 169.075 240.699 169.259 240.48C169.443 240.253 169.535 239.893 169.535 239.398C169.535 238.903 169.443 238.545 169.259 238.326C169.075 238.1 168.828 237.987 168.517 237.987C168.199 237.987 167.947 238.1 167.764 238.326C167.58 238.545 167.488 238.903 167.488 239.398C167.488 239.893 167.58 240.253 167.764 240.48C167.947 240.699 168.199 240.808 168.517 240.808ZM172.369 242.092V238.178C172.369 237.93 172.362 237.683 172.348 237.435C172.334 237.188 172.313 236.944 172.284 236.703H174.109L174.31 238.358H174.024C174.095 237.955 174.208 237.623 174.363 237.361C174.519 237.099 174.713 236.905 174.947 236.778C175.18 236.65 175.456 236.587 175.774 236.587C175.923 236.587 176.032 236.594 176.103 236.608C176.181 236.615 176.262 236.636 176.347 236.672V238.326C176.17 238.248 176.029 238.199 175.923 238.178C175.816 238.157 175.679 238.146 175.509 238.146C175.219 238.146 174.982 238.199 174.798 238.305C174.614 238.404 174.48 238.56 174.395 238.772C174.317 238.984 174.278 239.256 174.278 239.589V242.092H172.369ZM179.985 242.208C179.221 242.208 178.645 242.028 178.256 241.668C177.874 241.3 177.683 240.745 177.683 240.002V238.093H176.676V236.703H177.683V235.431L179.571 234.985V236.703H180.887V238.093H179.571V239.928C179.571 240.239 179.642 240.448 179.784 240.554C179.925 240.653 180.095 240.702 180.293 240.702C180.413 240.702 180.515 240.695 180.6 240.681C180.692 240.66 180.788 240.632 180.887 240.596V242.049C180.731 242.113 180.576 242.155 180.42 242.177C180.272 242.198 180.127 242.208 179.985 242.208Z" fill="black"/>
<path d="M320.68 242.5L321.75 243.541L327.044 238.401L321.75 233.26L320.68 234.301L324.899 238.401L320.68 242.5Z" fill="#CACACA"/>
<rect x="74.0347" y="268.291" width="274.931" height="42.4286" rx="2.82857" fill="white"/>
<g filter="url(#filter5_d_2593_19795)">
<rect x="91.0059" y="276.777" width="22.6286" height="25.4571" rx="2.82857" fill="white"/>
<path d="M101.844 290.762C101.621 291.668 101.335 292.415 100.668 293.353C101.844 294.052 102.797 294.052 103.973 293.353C103.322 292.415 103.02 291.668 102.797 290.762C104.307 292.685 106.293 291.811 106.293 289.761C106.293 288.935 105.626 287.775 102.32 285.137C99.0151 287.775 98.3477 288.935 98.3477 289.761C98.3477 291.811 100.334 292.685 101.844 290.762Z" fill="#F7685B"/>
</g>
<path d="M129.881 293.006V285.528H133.509C134.343 285.528 134.983 285.701 135.428 286.048C135.881 286.394 136.107 286.864 136.107 287.458C136.107 287.897 135.976 288.272 135.715 288.583C135.46 288.894 135.11 289.106 134.665 289.219V289.049C135.195 289.141 135.602 289.346 135.885 289.665C136.174 289.976 136.319 290.382 136.319 290.884C136.319 291.542 136.079 292.062 135.598 292.444C135.117 292.818 134.46 293.006 133.625 293.006H129.881ZM131.758 291.574H133.371C133.738 291.574 134.011 291.507 134.187 291.372C134.371 291.238 134.463 291.029 134.463 290.747C134.463 290.457 134.371 290.248 134.187 290.121C134.011 289.993 133.738 289.93 133.371 289.93H131.758V291.574ZM131.758 288.498H133.148C133.523 288.498 133.795 288.434 133.965 288.307C134.141 288.18 134.23 287.985 134.23 287.724C134.23 287.462 134.141 287.271 133.965 287.151C133.795 287.023 133.523 286.96 133.148 286.96H131.758V288.498ZM140.055 293.123C139.079 293.123 138.319 292.872 137.774 292.369C137.237 291.867 136.968 291.178 136.968 290.301C136.968 289.757 137.081 289.272 137.308 288.848C137.534 288.424 137.852 288.095 138.262 287.861C138.672 287.621 139.153 287.501 139.705 287.501C140.249 287.501 140.702 287.621 141.063 287.861C141.43 288.095 141.706 288.42 141.89 288.837C142.074 289.247 142.166 289.725 142.166 290.269V290.672H138.549V289.781H140.776L140.596 289.93C140.596 289.527 140.518 289.23 140.363 289.039C140.214 288.841 140.002 288.742 139.726 288.742C139.408 288.742 139.164 288.862 138.994 289.102C138.832 289.336 138.75 289.689 138.75 290.163V290.354C138.75 290.828 138.867 291.174 139.1 291.394C139.334 291.613 139.67 291.722 140.108 291.722C140.391 291.722 140.656 291.691 140.904 291.627C141.158 291.563 141.399 291.461 141.625 291.319L142.113 292.55C141.844 292.734 141.533 292.875 141.179 292.974C140.826 293.073 140.451 293.123 140.055 293.123ZM145.781 293.123C145.018 293.123 144.441 292.942 144.052 292.582C143.67 292.214 143.479 291.659 143.479 290.916V289.007H142.472V287.617H143.479V286.345L145.368 285.899V287.617H146.683V289.007H145.368V290.842C145.368 291.153 145.438 291.362 145.58 291.468C145.721 291.567 145.891 291.616 146.089 291.616C146.209 291.616 146.312 291.609 146.396 291.595C146.488 291.574 146.584 291.546 146.683 291.51V292.963C146.527 293.027 146.372 293.07 146.216 293.091C146.068 293.112 145.923 293.123 145.781 293.123ZM149.697 293.123C148.933 293.123 148.357 292.942 147.968 292.582C147.586 292.214 147.395 291.659 147.395 290.916V289.007H146.387V287.617H147.395V286.345L149.283 285.899V287.617H150.598V289.007H149.283V290.842C149.283 291.153 149.354 291.362 149.495 291.468C149.637 291.567 149.806 291.616 150.004 291.616C150.125 291.616 150.227 291.609 150.312 291.595C150.404 291.574 150.499 291.546 150.598 291.51V292.963C150.443 293.027 150.287 293.07 150.132 293.091C149.983 293.112 149.838 293.123 149.697 293.123ZM151.331 293.006V287.617H153.219V293.006H151.331ZM151.288 286.854V285.157H153.272V286.854H151.288ZM154.387 293.006V289.081C154.387 288.841 154.38 288.597 154.365 288.349C154.351 288.102 154.33 287.858 154.302 287.617H156.126L156.232 288.551H156.116C156.292 288.211 156.543 287.953 156.869 287.777C157.194 287.593 157.562 287.501 157.972 287.501C158.601 287.501 159.072 287.688 159.383 288.063C159.701 288.431 159.86 289.007 159.86 289.792V293.006H157.972V289.877C157.972 289.53 157.912 289.29 157.792 289.155C157.671 289.014 157.498 288.943 157.272 288.943C156.975 288.943 156.734 289.042 156.551 289.24C156.367 289.431 156.275 289.686 156.275 290.004V293.006H154.387ZM163.637 295.382C163.099 295.382 162.625 295.332 162.215 295.233C161.812 295.141 161.448 294.996 161.123 294.798L161.452 293.462C161.642 293.575 161.851 293.671 162.077 293.748C162.304 293.826 162.537 293.883 162.777 293.918C163.025 293.961 163.258 293.982 163.478 293.982C163.93 293.982 164.266 293.876 164.485 293.664C164.704 293.458 164.814 293.165 164.814 292.783V291.839H164.92C164.807 292.15 164.584 292.401 164.252 292.592C163.919 292.776 163.552 292.868 163.149 292.868C162.668 292.868 162.247 292.762 161.886 292.55C161.533 292.331 161.254 292.019 161.048 291.616C160.85 291.213 160.751 290.736 160.751 290.184C160.751 289.633 160.85 289.155 161.048 288.752C161.254 288.349 161.533 288.042 161.886 287.83C162.247 287.61 162.668 287.501 163.149 287.501C163.566 287.501 163.934 287.593 164.252 287.777C164.57 287.96 164.786 288.204 164.899 288.508L164.814 288.487L164.931 287.617H166.745C166.716 287.858 166.695 288.102 166.681 288.349C166.667 288.597 166.66 288.841 166.66 289.081V292.571C166.66 293.476 166.402 294.169 165.885 294.65C165.369 295.138 164.62 295.382 163.637 295.382ZM163.732 291.468C164.057 291.468 164.315 291.358 164.506 291.139C164.697 290.92 164.793 290.602 164.793 290.184C164.793 289.76 164.697 289.442 164.506 289.23C164.315 289.011 164.057 288.901 163.732 288.901C163.4 288.901 163.138 289.011 162.947 289.23C162.756 289.442 162.661 289.76 162.661 290.184C162.661 290.602 162.756 290.92 162.947 291.139C163.138 291.358 163.4 291.468 163.732 291.468Z" fill="black"/>
<path d="M320.68 293.414L321.75 294.455L327.044 289.315L321.75 284.174L320.68 285.215L324.899 289.315L320.68 293.414Z" fill="#CACACA"/>
<rect x="63.4507" y="43.4507" width="296.099" height="288.452" rx="2.62171" stroke="#CACACA" stroke-width="0.901413"/>
</g>
</g>
<defs>
<filter id="filter0_d_2593_19795" x="40.4647" y="33.9859" width="369.113" height="361.467" filterUnits="userSpaceOnUse" color-interpolation-filters="sRGB">
<feFlood flood-opacity="0" result="BackgroundImageFix"/>
<feColorMatrix in="SourceAlpha" type="matrix" values="0 0 0 0 0 0 0 0 0 0 0 0 0 0 0 0 0 0 127 0" result="hardAlpha"/>
<feOffset dx="13.5212" dy="27.0424"/>
<feGaussianBlur stdDeviation="18.0283"/>
<feColorMatrix type="matrix" values="0 0 0 0 0 0 0 0 0 0 0 0 0 0 0 0 0 0 0.07 0"/>
<feBlend mode="normal" in2="BackgroundImageFix" result="effect1_dropShadow_2593_19795"/>
<feBlend mode="normal" in="SourceGraphic" in2="effect1_dropShadow_2593_19795" result="shape"/>
</filter>
<filter id="filter1_d_2593_19795" x="83.9344" y="66.0497" width="36.7713" height="39.5999" filterUnits="userSpaceOnUse" color-interpolation-filters="sRGB">
<feFlood flood-opacity="0" result="BackgroundImageFix"/>
<feColorMatrix in="SourceAlpha" type="matrix" values="0 0 0 0 0 0 0 0 0 0 0 0 0 0 0 0 0 0 127 0" result="hardAlpha"/>
<feOffset/>
<feGaussianBlur stdDeviation="3.53571"/>
<feColorMatrix type="matrix" values="0 0 0 0 0 0 0 0 0 0 0 0 0 0 0 0 0 0 0.06 0"/>
<feBlend mode="normal" in2="BackgroundImageFix" result="effect1_dropShadow_2593_19795"/>
<feBlend mode="normal" in="SourceGraphic" in2="effect1_dropShadow_2593_19795" result="shape"/>
</filter>
<filter id="filter2_d_2593_19795" x="83.9344" y="116.964" width="36.7713" height="39.5999" filterUnits="userSpaceOnUse" color-interpolation-filters="sRGB">
<feFlood flood-opacity="0" result="BackgroundImageFix"/>
<feColorMatrix in="SourceAlpha" type="matrix" values="0 0 0 0 0 0 0 0 0 0 0 0 0 0 0 0 0 0 127 0" result="hardAlpha"/>
<feOffset/>
<feGaussianBlur stdDeviation="3.53571"/>
<feColorMatrix type="matrix" values="0 0 0 0 0 0 0 0 0 0 0 0 0 0 0 0 0 0 0.06 0"/>
<feBlend mode="normal" in2="BackgroundImageFix" result="effect1_dropShadow_2593_19795"/>
<feBlend mode="normal" in="SourceGraphic" in2="effect1_dropShadow_2593_19795" result="shape"/>
</filter>
<filter id="filter3_d_2593_19795" x="83.9344" y="167.878" width="36.7713" height="39.5999" filterUnits="userSpaceOnUse" color-interpolation-filters="sRGB">
<feFlood flood-opacity="0" result="BackgroundImageFix"/>
<feColorMatrix in="SourceAlpha" type="matrix" values="0 0 0 0 0 0 0 0 0 0 0 0 0 0 0 0 0 0 127 0" result="hardAlpha"/>
<feOffset/>
<feGaussianBlur stdDeviation="3.53571"/>
<feColorMatrix type="matrix" values="0 0 0 0 0 0 0 0 0 0 0 0 0 0 0 0 0 0 0.06 0"/>
<feBlend mode="normal" in2="BackgroundImageFix" result="effect1_dropShadow_2593_19795"/>
<feBlend mode="normal" in="SourceGraphic" in2="effect1_dropShadow_2593_19795" result="shape"/>
</filter>
<filter id="filter4_d_2593_19795" x="83.9344" y="218.792" width="36.7713" height="39.5999" filterUnits="userSpaceOnUse" color-interpolation-filters="sRGB">
<feFlood flood-opacity="0" result="BackgroundImageFix"/>
<feColorMatrix in="SourceAlpha" type="matrix" values="0 0 0 0 0 0 0 0 0 0 0 0 0 0 0 0 0 0 127 0" result="hardAlpha"/>
<feOffset/>
<feGaussianBlur stdDeviation="3.53571"/>
<feColorMatrix type="matrix" values="0 0 0 0 0 0 0 0 0 0 0 0 0 0 0 0 0 0 0.06 0"/>
<feBlend mode="normal" in2="BackgroundImageFix" result="effect1_dropShadow_2593_19795"/>
<feBlend mode="normal" in="SourceGraphic" in2="effect1_dropShadow_2593_19795" result="shape"/>
</filter>
<filter id="filter5_d_2593_19795" x="83.9344" y="269.706" width="36.7713" height="39.5999" filterUnits="userSpaceOnUse" color-interpolation-filters="sRGB">
<feFlood flood-opacity="0" result="BackgroundImageFix"/>
<feColorMatrix in="SourceAlpha" type="matrix" values="0 0 0 0 0 0 0 0 0 0 0 0 0 0 0 0 0 0 127 0" result="hardAlpha"/>
<feOffset/>
<feGaussianBlur stdDeviation="3.53571"/>
<feColorMatrix type="matrix" values="0 0 0 0 0 0 0 0 0 0 0 0 0 0 0 0 0 0 0.06 0"/>
<feBlend mode="normal" in2="BackgroundImageFix" result="effect1_dropShadow_2593_19795"/>
<feBlend mode="normal" in="SourceGraphic" in2="effect1_dropShadow_2593_19795" result="shape"/>
</filter>
</defs>
</svg>
