<svg width="37" height="38" viewBox="0 0 37 38" fill="none"><circle cx="18.5" cy="18.7012" r="18.5" fill="#DFE3FF"></circle><g clip-path="url(#clip0_50412_22760)"><path d="M27.3337 15.2793V23.1668C27.3337 23.8045 27.0901 24.4181 26.6526 24.882C26.2151 25.346 25.6169 25.6252 24.9803 25.6626L24.8337 25.6668H13.167C12.5293 25.6668 11.9157 25.4232 11.4518 24.9857C10.9878 24.5483 10.7086 23.95 10.6712 23.3135L10.667 23.1668V15.2793L18.5378 20.5268L18.6345 20.5818C18.7484 20.6375 18.8735 20.6664 19.0003 20.6664C19.1271 20.6664 19.2522 20.6375 19.3662 20.5818L19.4628 20.5268L27.3337 15.2793Z" fill="#40196D"></path><path d="M24.8329 12.333C25.7329 12.333 26.5221 12.808 26.9621 13.5222L18.9996 18.8305L11.0371 13.5222C11.2461 13.1828 11.5331 12.8983 11.8744 12.6925C12.2156 12.4866 12.6011 12.3654 12.9988 12.3388L13.1663 12.333H24.8329Z" fill="#40196D"></path></g><defs><clipPath id="clip0_50412_22760"><rect width="20" height="20" fill="white" transform="translate(9 9)"></rect></clipPath></defs></svg>