<svg width="37" height="38" viewBox="0 0 37 38" fill="none"><circle cx="18.5" cy="18.7012" r="18.5" fill="#DFE3FF"></circle><path d="M15 17.1236C15 14.8462 16.8462 13 19.1236 13C21.401 13 23.2472 14.8462 23.2472 17.1236C23.2472 19.401 21.401 21.2472 19.1236 21.2472C16.8462 21.2472 15 19.401 15 17.1236Z" fill="white"></path><path fill-rule="evenodd" clip-rule="evenodd" d="M13.5348 20.1425C14.0158 20.7305 15.2398 22.909 15.4998 24H22.4998C22.7598 22.91 23.9823 20.7315 24.4633 20.144C25.2852 19.1413 25.8027 17.9241 25.9543 16.6365C26.1039 15.3514 25.8801 14.0503 25.3098 12.889C24.734 11.719 23.8389 10.736 22.7278 10.0535C21.6069 9.36409 20.3167 8.99938 19.0008 9C17.6823 9 16.3903 9.365 15.2738 10.0525C14.1624 10.7347 13.2669 11.7176 12.6908 12.8875C12.1201 14.0484 11.8959 15.349 12.0448 16.634C12.1943 17.9175 12.7108 19.134 13.5348 20.1425ZM19.4998 13L16.4998 17.5H18.4998V20.5L21.4998 16H19.4998V13Z" fill="#40196D"></path><path d="M15.501 25.499C15.501 25.3664 15.5537 25.2392 15.6474 25.1455C15.7412 25.0517 15.8684 24.999 16.001 24.999H22.001C22.1336 24.999 22.2608 25.0517 22.3545 25.1455C22.4483 25.2392 22.501 25.3664 22.501 25.499C22.501 25.6316 22.4483 25.7588 22.3545 25.8526C22.2608 25.9463 22.1336 25.999 22.001 25.999H16.001C15.8684 25.999 15.7412 25.9463 15.6474 25.8526C15.5537 25.7588 15.501 25.6316 15.501 25.499ZM22.501 26.999H15.501V27.999C15.501 28.2642 15.6063 28.5186 15.7939 28.7061C15.9814 28.8937 16.2358 28.999 16.501 28.999H21.501C21.7662 28.999 22.0205 28.8937 22.2081 28.7061C22.3956 28.5186 22.501 28.2642 22.501 27.999V26.999Z" fill="#40196D"></path></svg>