<svg width="38" height="38" viewBox="0 0 38 38" fill="none"><circle cx="19.4609" cy="18.7012" r="18.5" fill="#DFE3FF"></circle><path fill-rule="evenodd" clip-rule="evenodd" d="M16.1875 11.3008C15.0829 11.3008 14.1875 12.1962 14.1875 13.3008V24.7008C14.1875 25.8054 15.0829 26.7008 16.1875 26.7008H21.8125C22.9171 26.7008 23.8125 25.8054 23.8125 24.7008V13.3008C23.8125 12.1962 22.9171 11.3008 21.8125 11.3008H16.1875ZM20.9252 24.0235C20.9252 23.9075 20.8312 23.8135 20.7152 23.8135H17.2852C17.1692 23.8135 17.0752 23.9075 17.0752 24.0235V24.566C17.0752 24.682 17.1692 24.776 17.2852 24.776H20.7152C20.8312 24.776 20.9252 24.682 20.9252 24.566V24.0235Z" fill="#40196D"></path></svg>